<svg width="41" height="40" viewBox="0 0 41 40" fill="none" xmlns="http://www.w3.org/2000/svg">
<circle cx="20.5" cy="20" r="20" fill="#19BAA8"/>
<path d="M17.7764 23.474L20.502 26.25L23.2277 23.474" stroke="white" stroke-width="1.25" stroke-linecap="round" stroke-linejoin="round"/>
<path d="M20.502 20.0039V26.2498" stroke="white" stroke-width="1.25" stroke-linecap="round" stroke-linejoin="round"/>
<path d="M26.5527 24.2303C27.1451 23.806 27.5894 23.2005 27.821 22.5017C28.0527 21.8028 28.0596 21.047 27.8409 20.3438C27.6221 19.6407 27.1891 19.0268 26.6046 18.5913C26.02 18.1558 25.3145 17.9213 24.5902 17.9219H23.7317C23.5267 17.1085 23.1432 16.353 22.6101 15.7123C22.077 15.0716 21.4081 14.5625 20.6538 14.2232C19.8995 13.8839 19.0795 13.7233 18.2554 13.7535C17.4314 13.7836 16.6248 14.0038 15.8964 14.3974C15.168 14.791 14.5367 15.3478 14.0502 16.0258C13.5636 16.7038 13.2344 17.4854 13.0874 18.3118C12.9403 19.1381 12.9793 19.9877 13.2013 20.7965C13.4232 21.6052 13.8225 22.3522 14.3689 22.9811" stroke="white" stroke-width="1.25" stroke-linecap="round" stroke-linejoin="round"/>
</svg>
