<svg width="164" height="198" viewBox="0 0 164 198" fill="none" xmlns="http://www.w3.org/2000/svg">
<path d="M61.7407 168.119L58.5586 170.907L62.2435 176.943L65.4256 174.156L61.7407 168.119Z" fill="#F69A9E"/>
<path d="M61.9236 197.484L48.5156 175.498C48.7733 175.075 49.1118 174.712 49.5101 174.432C51.2061 173.113 54.4158 171.817 56.3881 170.918C56.6201 170.815 56.8356 170.717 57.0234 170.619C57.2896 170.496 57.548 170.356 57.7968 170.198C59.2608 169.231 59.8353 170.774 59.8353 170.774C59.1006 174.386 63.7743 174.806 63.6417 176.978C63.6417 176.978 63.592 177.9 63.1556 180.647C62.7191 183.395 63.5257 187.018 64.0561 190.215C64.7356 194.345 63.9953 196.136 63.2053 196.914C62.8597 197.261 62.4035 197.464 61.9236 197.484Z" fill="#1D1B13"/>
<path d="M61.9236 197.484L48.5156 175.498C48.7733 175.075 49.1118 174.712 49.5101 174.432L63.2053 196.896C62.8623 197.25 62.4058 197.46 61.9236 197.484Z" fill="#595A5A"/>
<path d="M49.9075 177.744L49.5098 177.088C50.2259 177.203 50.9569 177.169 51.6605 176.988C52.3641 176.807 53.0263 176.483 53.6089 176.034C54.3894 175.429 55.0415 174.662 55.5245 173.782C56.0074 172.902 56.3107 171.927 56.4154 170.919C56.6474 170.815 56.8629 170.717 57.0507 170.619C56.9746 171.781 56.6552 172.911 56.115 173.93C55.5747 174.949 54.8268 175.832 53.9238 176.518C52.7666 177.409 51.3434 177.844 49.9075 177.744Z" fill="#595A5A"/>
<path d="M61.6812 181.068C61.632 180.987 61.6102 180.892 61.6192 180.797C61.6282 180.702 61.6676 180.612 61.731 180.543C61.8087 180.463 61.914 180.417 62.0238 180.417C62.1336 180.417 62.2389 180.463 62.3166 180.543L63.4767 181.695C63.5543 181.776 63.5979 181.886 63.5979 182.001C63.5979 182.115 63.5543 182.225 63.4767 182.306C63.4387 182.346 63.3935 182.378 63.3438 182.399C63.294 182.421 63.2406 182.432 63.1867 182.432C63.1328 182.432 63.0794 182.421 63.0296 182.399C62.9798 182.378 62.9346 182.346 62.8966 182.306L61.731 181.154C61.7099 181.128 61.6931 181.099 61.6812 181.068Z" fill="white"/>
<path d="M61.7535 182.951C61.7043 182.871 61.6824 182.775 61.6914 182.68C61.7005 182.585 61.7398 182.496 61.8033 182.427C61.8809 182.346 61.9862 182.301 62.096 182.301C62.2058 182.301 62.3112 182.346 62.3888 182.427L63.549 183.579C63.5949 183.615 63.633 183.66 63.661 183.713C63.689 183.765 63.7061 183.822 63.7113 183.882C63.7165 183.941 63.7096 184.001 63.6912 184.058C63.6727 184.115 63.643 184.166 63.6041 184.21C63.5652 184.254 63.5179 184.289 63.4652 184.312C63.4125 184.336 63.3557 184.348 63.2985 184.347C63.2412 184.346 63.1847 184.333 63.1327 184.308C63.0806 184.282 63.0343 184.246 62.9965 184.201L61.8309 183.049C61.7988 183.023 61.7724 182.989 61.7535 182.951Z" fill="white"/>
<path d="M61.8583 184.812C61.7966 184.724 61.7695 184.615 61.7825 184.507C61.7954 184.399 61.8475 184.3 61.928 184.231C62.0086 184.162 62.1114 184.127 62.2156 184.135C62.3197 184.142 62.4172 184.19 62.4881 184.27L63.6538 185.422C63.7241 185.5 63.7632 185.603 63.7632 185.71C63.7632 185.817 63.7241 185.92 63.6538 185.998C63.5784 186.07 63.4798 186.11 63.3775 186.11C63.2753 186.11 63.1767 186.07 63.1013 185.998L61.9357 184.846C61.9088 184.838 61.8829 184.826 61.8583 184.812Z" fill="white"/>
<path d="M62.0907 186.759C62.0291 186.671 62.0019 186.562 62.0149 186.454C62.0279 186.346 62.0799 186.247 62.1605 186.178C62.241 186.109 62.3438 186.074 62.448 186.082C62.5521 186.089 62.6496 186.137 62.7205 186.217L63.8862 187.369C63.9383 187.403 63.9825 187.448 64.0159 187.501C64.0493 187.555 64.0709 187.615 64.0791 187.679C64.0874 187.742 64.0821 187.806 64.0637 187.867C64.0453 187.928 64.0142 187.984 63.9726 188.03C63.931 188.077 63.88 188.114 63.8233 188.138C63.7665 188.161 63.7054 188.172 63.6443 188.168C63.5832 188.164 63.5237 188.147 63.47 188.116C63.4163 188.085 63.3698 188.043 63.3337 187.991L62.1681 186.839C62.139 186.816 62.113 186.789 62.0907 186.759Z" fill="white"/>
<path d="M62.4989 188.769C62.4373 188.681 62.4101 188.572 62.4231 188.464C62.4361 188.356 62.4881 188.257 62.5687 188.188C62.6492 188.119 62.752 188.084 62.8562 188.092C62.9603 188.099 63.0578 188.148 63.1287 188.227L64.2944 189.379C64.3635 189.458 64.4019 189.561 64.4019 189.668C64.4019 189.774 64.3635 189.877 64.2944 189.956C64.2167 190.036 64.1114 190.082 64.0016 190.082C63.8918 190.082 63.7865 190.036 63.7088 189.956L62.5487 188.803C62.531 188.794 62.5143 188.782 62.4989 188.769Z" fill="white"/>
<path d="M100.237 128.98V129.13C100.237 129.13 100.115 129.371 99.8778 129.821C94.5414 140.042 88.6118 149.914 82.122 159.381C80.8348 161.225 79.509 163.056 78.1665 164.83C77.5699 165.598 76.9732 166.366 76.3765 167.134C74.3165 169.865 71.8532 172.237 69.0787 174.162C68.8135 174.34 68.5262 174.519 68.2721 174.692C67.7528 175.026 67.2224 175.348 66.6645 175.671L65.8579 176.132C65.8579 176.132 61.836 171.719 59.9688 167.445L61.3333 165.141L61.8857 164.231C62.4382 163.252 63.1177 162.1 63.8359 160.85C67.0788 155.205 71.4431 147.464 73.0673 143.87C74.2606 141.243 75.6805 138.323 77.266 135.454C77.5643 134.907 77.8737 134.365 78.1886 133.824C78.2203 133.759 78.2553 133.695 78.2936 133.634C80.4481 129.924 82.8623 126.399 85.3925 123.801L79.6029 88.3887L79.2383 86.1653L91.9446 81.4881L92.6683 81.2232L95.6958 80.1057C95.6958 80.1057 95.9388 81.2577 96.3145 83.268C96.3587 83.5099 96.4084 83.7633 96.4582 84.0283C98.1542 93.1177 101.922 115.812 100.237 128.98Z" fill="#F15E3C"/>
<path d="M69.0617 174.167C68.7966 174.346 68.5093 174.524 68.2552 174.697L63.3328 167.877L62.8798 167.255L61.3164 165.095L61.8689 164.185L63.3991 166.299L63.8521 166.927L69.0617 174.167Z" fill="#CF2027"/>
<path d="M100.238 128.98V129.129C100.238 129.129 100.116 129.371 99.8787 129.821C98.0278 129.441 96.2574 128.717 94.6525 127.684C94.6054 127.652 94.5647 127.611 94.5328 127.563C94.5009 127.514 94.4784 127.46 94.4666 127.403C94.4548 127.346 94.4539 127.287 94.464 127.229C94.4741 127.171 94.495 127.117 94.5255 127.067C94.556 127.018 94.5954 126.976 94.6416 126.943C94.6878 126.909 94.7398 126.886 94.7947 126.873C94.8496 126.861 94.9063 126.86 94.9615 126.871C95.0167 126.881 95.0695 126.903 95.1166 126.935C96.6915 127.933 98.4264 128.626 100.238 128.98Z" fill="#CF2027"/>
<path d="M88.6738 125.011C88.613 125.074 82.2377 131.687 63.8135 166.95C63.6533 167.261 63.4876 167.583 63.3163 167.9L62.8633 167.278L63.3605 166.322C80.4533 133.628 87.0054 125.829 88.055 124.677C86.5524 118.917 81.9781 89.2754 81.7626 88.0024C81.748 87.9085 81.7697 87.8123 81.8231 87.7351C81.8764 87.6578 81.957 87.6059 82.0471 87.5906C82.1372 87.5753 82.2295 87.598 82.3036 87.6536C82.3776 87.7093 82.4275 87.7933 82.4422 87.8872C82.4919 88.204 87.3369 119.464 88.7677 124.677C88.7807 124.736 88.7789 124.798 88.7624 124.856C88.746 124.915 88.7155 124.968 88.6738 125.011Z" fill="#CF2027"/>
<path d="M58.2955 71.4422C58.2955 71.4422 57.3398 80.906 59.4004 86.1764C61.4611 91.4469 88.1997 88.7339 95.0115 83.9934C97.8069 82.0465 91.857 64.0981 91.857 64.0981L58.2955 71.4422Z" fill="#F15E3C"/>
<path d="M96.4702 84.0396C96.0669 83.9667 95.6697 83.8607 95.2824 83.7228C94.6645 83.5025 94.0745 83.2046 93.5256 82.8357C92.9577 82.4509 92.4316 82.0028 91.9566 81.4994C89.0066 78.4005 88.1392 73.7118 88.0895 73.4872C88.0733 73.3933 88.0932 73.2966 88.1449 73.2179C88.1966 73.1392 88.2759 73.0849 88.3657 73.0667C88.4551 73.0499 88.5472 73.0708 88.6218 73.1248C88.6964 73.1788 88.7474 73.2615 88.7635 73.3547C88.7635 73.4065 89.675 78.2853 92.6693 81.2344C93.0453 81.6077 93.454 81.9432 93.8902 82.2367C94.406 82.5881 94.9631 82.8688 95.5476 83.0719C95.7907 83.1525 96.0393 83.2217 96.2934 83.2793C96.3707 83.5212 96.4205 83.7804 96.4702 84.0396Z" fill="#CF2027"/>
<path d="M79.9725 86.6889C79.9726 86.7813 79.939 86.8703 79.8785 86.9377C79.8179 87.0051 79.735 87.046 79.6465 87.0518C79.6023 87.0549 79.5578 87.0489 79.5158 87.0341C79.4737 87.0193 79.4349 86.9959 79.4016 86.9654C79.3682 86.9349 79.3409 86.8979 79.3214 86.8563C79.3018 86.8148 79.2902 86.7697 79.2874 86.7235C79.2267 85.4275 79.1493 84.1027 79.072 82.7779C79.072 82.5475 79.072 82.3113 79.0278 82.0809C78.7571 77.7551 78.4146 73.5099 78.1549 70.5089C78.1549 70.267 78.1163 70.0309 78.0942 69.8062C78.0389 69.1496 77.9836 68.5678 77.9395 68.0782L78.619 67.963C78.6687 68.4584 78.7184 69.0459 78.7792 69.691C78.7792 69.9214 78.8179 70.1518 78.84 70.3938C79.0941 73.3659 79.4366 77.5765 79.7018 81.8793L79.7404 82.6281C79.8344 83.9702 79.9062 85.3468 79.9725 86.6889Z" fill="#CF2027"/>
<path d="M80.9498 82.1214C80.5584 82.3196 80.1541 82.489 79.74 82.6283C79.5169 82.7013 79.2901 82.7609 79.0605 82.8068C78.8456 82.853 78.6277 82.8819 78.4086 82.8932C78.0167 82.9347 77.6212 82.8713 77.2595 82.7089C77.0545 82.6057 76.8765 82.4522 76.7409 82.2616C76.6052 82.071 76.5159 81.849 76.4805 81.6145C76.2264 80.2782 75.7071 74.7716 75.3756 70.872C75.3756 70.6359 75.3314 70.3997 75.3093 70.1751C75.2541 69.553 75.2044 68.9827 75.1602 68.4989L75.8452 68.4125C75.8894 68.8963 75.9391 69.4723 75.9943 70.1002C75.9943 70.3306 76.0386 70.561 76.0607 70.8029C76.4142 74.6909 76.9335 80.1918 77.1656 81.4878C77.1831 81.6122 77.2302 81.7301 77.3026 81.8307C77.3749 81.9312 77.4703 82.0114 77.5799 82.0638C78.0508 82.2193 78.5564 82.2193 79.0273 82.0638C79.2593 82.012 79.4914 81.9428 79.7013 81.8737C80.0233 81.7649 80.3388 81.636 80.646 81.4878C80.7267 81.4455 80.8201 81.438 80.9059 81.4672C80.9918 81.4963 81.0632 81.5596 81.1045 81.6433C81.1268 81.6848 81.1406 81.7307 81.1448 81.778C81.149 81.8254 81.1437 81.8731 81.1291 81.9182C81.1145 81.9633 81.091 82.0046 81.0601 82.0396C81.0293 82.0746 80.9917 82.1025 80.9498 82.1214Z" fill="#CF2027"/>
<path d="M69.4824 180.711L70.1619 186.321H77.0234L77.4211 180.417L69.4824 180.711Z" fill="#F69A9E"/>
<path d="M78.1491 83.4753V179.783L78.0496 181.31H67.8569C67.7464 180.613 67.5034 179.49 67.1829 178.044L66.9564 177.059C65.6305 171.166 63.3544 161.127 62.9567 152.394C62.4042 139.93 62.5423 123.778 62.5423 123.778C61.3822 114.51 59.5536 94.4424 58.6752 84.1722C58.6752 83.9245 58.631 83.6884 58.6089 83.458C58.305 80.0019 58.1172 77.8362 58.1172 77.8362C59.7745 77.1219 62.7357 77.6115 65.9012 78.5504C66.1277 78.6138 66.3598 78.6829 66.5863 78.7578C70.535 80.0661 74.3974 81.6419 78.1491 83.4753Z" fill="#F15E3C"/>
<path d="M78.1497 177.059V178.044H67.1836L66.957 177.059H78.1497Z" fill="#CF2027"/>
<path d="M78.1495 125.938V126.86C76.8813 127.161 75.5827 127.3 74.2823 127.274C72.7526 127.267 71.2256 127.141 69.7135 126.9C69.6022 126.88 69.5029 126.815 69.4377 126.719C69.3724 126.623 69.3464 126.503 69.3655 126.387C69.3845 126.271 69.4471 126.168 69.5393 126.1C69.6315 126.032 69.7458 126.005 69.8572 126.024C69.9345 126.03 74.9231 126.877 78.1495 125.938Z" fill="#CF2027"/>
<path d="M68.8846 178.044H68.1886C68.1333 177.739 68.0725 177.41 68.0118 177.059C67.1113 172.071 65.4594 162.745 64.6087 156.691C63.4098 148.241 63.9734 124.804 63.9954 123.859C63.0894 115.795 61.2332 88.1985 61.2332 87.922C61.2271 87.8266 61.2573 87.7326 61.3173 87.6604C61.3773 87.5881 61.4622 87.5434 61.5536 87.5361C61.5986 87.5329 61.6438 87.5391 61.6865 87.5542C61.7292 87.5694 61.7686 87.5931 61.8025 87.6242C61.8363 87.6552 61.864 87.6929 61.8839 87.7351C61.9038 87.7773 61.9154 87.8232 61.9182 87.8702C61.9182 88.1466 63.7855 115.795 64.6805 123.801V123.853C64.6805 124.095 64.0839 148.045 65.2827 156.559C66.1445 162.653 67.8129 172.076 68.7079 177.03C68.7742 177.41 68.8349 177.744 68.8846 178.044Z" fill="#CF2027"/>
<path d="M79.6368 195.888C79.6368 195.951 79.6368 196.015 79.6368 196.072C79.6368 196.36 79.6368 196.62 79.6368 196.839C79.6368 197.322 79.576 197.622 79.576 197.622H64.1074C64.0632 197.106 64.0632 196.588 64.1074 196.072C64.2068 194.425 64.7316 191.827 66.8696 190.105C69.7921 187.749 68.6651 188.239 69.2618 187.167C69.3281 187.046 69.8584 185.221 69.9136 185.094C70.4164 183.982 70.8749 183.452 73.6482 183.452C77.322 183.452 77.6479 185.313 78.0678 186.292C78.3168 187.036 78.5198 187.796 78.6755 188.567C78.7694 188.976 78.8633 189.408 78.9517 189.852C79.1782 190.963 79.3937 192.121 79.5373 193.048C79.6454 193.991 79.6787 194.94 79.6368 195.888Z" fill="#1D1B13"/>
<path d="M79.6364 195.888C79.6364 195.952 79.6364 196.015 79.6364 196.073C79.6364 196.361 79.6364 196.62 79.6364 196.839C78.8977 196.306 78.336 195.547 78.0287 194.667C77.073 191.948 78.548 188.688 78.5812 188.55H78.6088C78.7027 188.959 78.7966 189.391 78.885 189.834C78.537 190.946 78.1392 192.812 78.6916 194.391C78.8894 194.96 79.2131 195.473 79.6364 195.888Z" fill="#595A5A"/>
<path d="M79.6312 196.101C79.6312 197.023 79.5428 197.651 79.5428 197.651H64.0742C64.03 197.135 64.03 196.617 64.0742 196.101H79.6312Z" fill="#595A5A"/>
<path d="M74.1114 188.481H74.0009C72.8284 188.16 71.5994 188.134 70.4155 188.406C70.3057 188.429 70.1916 188.407 70.0964 188.346C70.0011 188.285 69.9318 188.188 69.9023 188.075C69.8728 187.963 69.8855 187.843 69.9377 187.739C69.9899 187.636 70.0777 187.557 70.1835 187.519C71.5155 187.202 72.9015 187.228 74.2219 187.594C74.2802 187.607 74.3352 187.634 74.3832 187.671C74.4313 187.708 74.4714 187.755 74.501 187.809C74.5306 187.864 74.5491 187.924 74.5553 187.986C74.5614 188.048 74.5551 188.11 74.5368 188.17C74.5072 188.262 74.4499 188.342 74.3733 188.398C74.2967 188.454 74.2049 188.483 74.1114 188.481Z" fill="white"/>
<path d="M74.4599 186.701C74.4233 186.707 74.3861 186.707 74.3494 186.701C73.1769 186.38 71.9479 186.354 70.764 186.626C70.7074 186.643 70.6483 186.648 70.5899 186.641C70.5315 186.633 70.475 186.614 70.4237 186.584C70.3724 186.554 70.3272 186.514 70.2908 186.466C70.2544 186.418 70.2275 186.363 70.2116 186.304C70.1948 186.245 70.1895 186.183 70.1961 186.122C70.2026 186.06 70.2209 186.001 70.2497 185.948C70.2785 185.894 70.3174 185.847 70.364 185.809C70.4106 185.771 70.4639 185.744 70.5209 185.728C71.8527 185.411 73.2383 185.434 74.5594 185.797C74.6169 185.812 74.6708 185.839 74.718 185.877C74.7652 185.914 74.8047 185.961 74.8341 186.015C74.8635 186.069 74.8822 186.128 74.8891 186.19C74.896 186.251 74.8909 186.313 74.8743 186.373C74.8482 186.467 74.7938 186.549 74.7192 186.608C74.6445 186.668 74.5536 186.7 74.4599 186.701Z" fill="white"/>
<path d="M73.4547 189.938C73.4181 189.945 73.3808 189.945 73.3442 189.938C72.1716 189.618 70.9427 189.592 69.7588 189.864C69.6445 189.896 69.5228 189.88 69.4195 189.82C69.3163 189.759 69.2398 189.659 69.2063 189.541C69.1903 189.482 69.1856 189.42 69.1925 189.359C69.1994 189.299 69.2178 189.24 69.2465 189.186C69.2753 189.133 69.3138 189.086 69.36 189.048C69.4062 189.01 69.4591 188.982 69.5157 188.965C70.8494 188.649 72.2366 188.672 73.5596 189.034C73.6168 189.05 73.6702 189.078 73.717 189.115C73.7638 189.153 73.803 189.2 73.8323 189.254C73.8616 189.307 73.8804 189.366 73.8876 189.427C73.8949 189.489 73.8904 189.551 73.8745 189.61C73.8474 189.704 73.792 189.787 73.7164 189.846C73.6408 189.905 73.5491 189.938 73.4547 189.938Z" fill="white"/>
<path d="M72.6752 191.591H72.5647C71.3923 191.27 70.1638 191.243 68.9793 191.51C68.9227 191.529 68.8631 191.535 68.8042 191.528C68.7453 191.522 68.6883 191.503 68.6366 191.473C68.5849 191.443 68.5396 191.402 68.5036 191.353C68.4675 191.304 68.4414 191.248 68.4268 191.188C68.41 191.129 68.4045 191.068 68.4107 191.007C68.4169 190.946 68.4346 190.887 68.4629 190.833C68.4912 190.78 68.5294 190.733 68.5754 190.695C68.6214 190.657 68.6742 190.628 68.7307 190.612C70.065 190.299 71.4518 190.325 72.7746 190.687C72.8766 190.717 72.965 190.784 73.0235 190.876C73.082 190.968 73.1069 191.079 73.0935 191.189C73.0801 191.298 73.0293 191.399 72.9505 191.473C72.8717 191.547 72.7701 191.589 72.6641 191.591H72.6752Z" fill="white"/>
<path d="M68.4599 73.4872C68.0814 75.331 67.4409 77.1055 66.5594 78.7519C65.7173 80.3912 64.5059 81.7927 63.0293 82.8358C61.7236 83.7136 60.2019 84.1778 58.6483 84.1721C58.6483 83.9244 58.6041 83.6883 58.582 83.4579C60.0261 83.4736 61.4432 83.0491 62.6591 82.2368C63.9931 81.2852 65.0944 80.0206 65.8744 78.5446C66.7587 76.9276 67.4013 75.1795 67.7803 73.3605C67.7978 73.2669 67.8498 73.1842 67.9253 73.1303C68.0008 73.0764 68.0936 73.0556 68.1836 73.0725C68.2716 73.092 68.3492 73.1458 68.4005 73.2228C68.4518 73.2999 68.4731 73.3944 68.4599 73.4872Z" fill="#CF2027"/>
<path d="M94.1037 60.9473C94.0705 60.7745 94.0318 60.6017 93.9987 60.4231C93.4462 57.497 92.8938 54.329 92.4187 51.4259C92.4187 51.2877 92.3745 51.1552 92.3469 51.017C92.1038 49.4963 91.8828 48.0563 91.6894 46.7718C91.6894 46.6336 91.6453 46.4953 91.6287 46.3628C91.4629 45.2742 91.3248 44.3065 91.2199 43.4828C91.1923 43.2812 91.1591 43.0796 91.137 42.9068L91.0707 42.4403C90.9989 41.8642 90.9381 41.3228 90.8718 40.7814C90.7669 39.9116 90.6784 39.0533 90.6011 38.2469C90.5127 37.308 90.4354 36.3922 90.3746 35.5109C90.3138 34.6296 90.2531 33.6389 90.2144 32.7461C90.1757 31.8533 90.1426 30.8798 90.126 29.9928C90.0652 26.8823 90.1647 24.1809 90.3304 21.825C90.3304 21.6637 90.3304 21.5082 90.3691 21.3469C90.4409 20.4138 90.5238 19.5383 90.6122 18.7146C90.6122 18.536 90.6509 18.3575 90.6674 18.1789C91.1812 13.64 91.7723 10.8291 91.474 9.10681C90.8442 5.8351 88.5018 5.07477 85.8832 4.28564C80.3587 6.93527 75.0938 10.6678 70.0996 13.8128C65.7053 16.6758 61.8195 20.3103 58.6142 24.5553C56.548 27.2107 53.0897 30.419 52.2113 33.9672C52.1229 37.3541 52.145 40.6489 52.3494 43.9321C52.4101 44.8422 52.482 45.758 52.5704 46.6739C52.5704 46.8928 52.6146 47.1404 52.6422 47.4169C52.6422 47.5552 52.6422 47.7049 52.6864 47.8605C52.8577 49.5251 53.1118 51.8925 53.4211 54.4615C53.4211 54.594 53.4488 54.7322 53.4653 54.8647C54.1725 60.7226 55.1227 67.6577 56.0784 70.5954C56.1116 70.6991 56.1502 70.8027 56.1779 70.8949L56.3546 70.9871C60.9379 73.2256 65.9182 74.4438 70.9781 74.5641H71.4974C72.3481 74.5641 73.1989 74.5641 74.0331 74.5353C75.1711 74.4834 76.3037 74.3855 77.4141 74.2473C78.3975 74.1263 79.3643 73.965 80.32 73.7749C84.1388 73.0488 87.8209 71.6875 91.2254 69.7429L91.5679 69.5298C92.3481 69.0584 93.1008 68.5391 93.8219 67.9746L94.1368 67.7211C94.4995 67.4215 94.7721 67.0196 94.9219 66.5631C95.0718 66.1066 95.0927 65.6149 94.9821 65.1464C94.7058 63.8446 94.413 62.4334 94.1037 60.9473Z" fill="#5473B8"/>
<path d="M81.8506 66.7253C77.9834 66.7253 73.7461 65.5732 69.2879 63.3095C65.4675 61.3239 61.9019 58.8448 58.6753 55.9309C58.6482 55.9031 58.6267 55.8699 58.6121 55.8333C58.5974 55.7967 58.5898 55.7575 58.5898 55.7178C58.5898 55.6782 58.5974 55.6389 58.6121 55.6023C58.6267 55.5657 58.6482 55.5325 58.6753 55.5047C58.7299 55.4491 58.8033 55.418 58.8797 55.418C58.956 55.418 59.0294 55.4491 59.0841 55.5047C62.2759 58.3829 65.8025 60.831 69.5806 62.7911C75.1052 65.6251 83.2372 68.1134 90.3749 63.8798C90.4079 63.8605 90.4443 63.8482 90.4818 63.8435C90.5194 63.8389 90.5575 63.842 90.5939 63.8527C90.6303 63.8634 90.6644 63.8815 90.6941 63.9059C90.7238 63.9303 90.7487 63.9606 90.7672 63.995C90.7857 64.0294 90.7975 64.0673 90.8019 64.1065C90.8064 64.1457 90.8034 64.1854 90.7931 64.2233C90.7829 64.2613 90.7656 64.2968 90.7421 64.3278C90.7187 64.3588 90.6897 64.3847 90.6567 64.404C87.9684 65.9723 84.9307 66.773 81.8506 66.7253Z" fill="#454FA2"/>
<path d="M82.7024 63.3267C76.6254 63.223 71.7142 54.8191 71.5042 54.4619C71.4846 54.4279 71.4717 54.3902 71.466 54.3509C71.4604 54.3116 71.4623 54.2716 71.4715 54.2331C71.4808 54.1946 71.4972 54.1584 71.5199 54.1265C71.5425 54.0946 71.571 54.0676 71.6037 54.0472C71.6363 54.0268 71.6725 54.0133 71.7101 54.0074C71.7478 54.0016 71.7862 54.0035 71.8231 54.0132C71.8601 54.0228 71.8948 54.0399 71.9254 54.0636C71.956 54.0872 71.9818 54.1169 72.0014 54.1509C72.0511 54.2373 76.9735 62.6297 82.7079 62.7219C82.7842 62.7248 82.8564 62.7581 82.9099 62.8149C82.9633 62.8716 82.9938 62.9476 82.9952 63.0271C82.9938 63.1071 82.9622 63.1833 82.9075 63.2393C82.8527 63.2953 82.7791 63.3267 82.7024 63.3267Z" fill="#454FA2"/>
<path d="M48.7158 45.9599C48.668 45.9608 48.6208 45.9485 48.5791 45.9242C48.5374 45.8999 48.5026 45.8646 48.4782 45.8217C48.458 45.7894 48.4443 45.7531 48.4379 45.7151C48.4314 45.6772 48.4323 45.6382 48.4405 45.6006C48.4488 45.563 48.4642 45.5275 48.4858 45.4962C48.5075 45.4649 48.535 45.4385 48.5666 45.4185C49.9363 44.6237 51.3873 43.9919 52.8923 43.535C52.9275 43.5235 52.9645 43.5195 53.0012 43.5232C53.0379 43.5269 53.0735 43.5381 53.1059 43.5564C53.1383 43.5746 53.167 43.5995 53.19 43.6294C53.2131 43.6594 53.2302 43.6939 53.2403 43.7308C53.261 43.8064 53.2522 43.8874 53.216 43.9564C53.1799 44.0254 53.1191 44.0767 53.047 44.0994C51.5937 44.5435 50.1913 45.1519 48.8649 45.9139C48.8212 45.9455 48.7689 45.9616 48.7158 45.9599Z" fill="#F3736F"/>
<path d="M52.671 44.1106C52.6165 44.1094 52.5632 44.0935 52.5163 44.0645C51.4114 43.333 49.5 43.4885 49.4779 43.4885C49.412 43.4825 49.3503 43.4525 49.3035 43.4038C49.2567 43.3551 49.2278 43.2908 49.2218 43.2222C49.2159 43.1535 49.2333 43.0849 49.2711 43.0283C49.3088 42.9716 49.3644 42.9307 49.4282 42.9125C49.5166 42.9125 51.5717 42.7166 52.8258 43.5576C52.8876 43.6 52.9309 43.6661 52.9464 43.7415C52.9619 43.8169 52.9483 43.8957 52.9086 43.9608C52.8844 44.0047 52.8499 44.0414 52.8083 44.0676C52.7668 44.0938 52.7196 44.1086 52.671 44.1106Z" fill="#F3736F"/>
<path d="M102.585 53.1026C102.511 53.1017 102.44 53.0724 102.385 53.0204C102.33 52.9684 102.295 52.8973 102.287 52.8204C102.207 50.7959 102.335 48.7684 102.668 46.7723C102.682 46.6906 102.726 46.618 102.792 46.5704C102.857 46.5229 102.938 46.5043 103.016 46.5189C103.094 46.5334 103.164 46.5798 103.21 46.6478C103.255 46.7159 103.273 46.8 103.259 46.8817C103.259 46.9163 102.674 50.5106 102.889 52.757C102.897 52.8402 102.873 52.9232 102.822 52.9879C102.771 53.0526 102.698 53.0939 102.618 53.1026H102.585Z" fill="#F3736F"/>
<path d="M100.661 50.9078C100.606 50.9071 100.551 50.8905 100.504 50.8598C100.457 50.8292 100.419 50.7857 100.394 50.734C100.369 50.6824 100.358 50.6246 100.362 50.5669C100.366 50.5092 100.386 50.4538 100.418 50.4067C100.418 50.4067 101.97 48.2064 102.705 46.9507C102.746 46.8797 102.813 46.8285 102.89 46.8085C102.967 46.7885 103.049 46.8014 103.117 46.8441C103.185 46.8869 103.234 46.9562 103.253 47.0366C103.272 47.1171 103.26 47.2022 103.219 47.2732C102.473 48.5693 100.965 50.7005 100.904 50.7927C100.875 50.8296 100.837 50.8591 100.795 50.879C100.753 50.8989 100.707 50.9088 100.661 50.9078Z" fill="#F3736F"/>
<path d="M80.3879 41.5307C80.1042 42.3407 79.6934 43.0959 79.1725 43.7656C78.261 44.8024 76.797 45.3554 75.565 45.8853C74.083 46.5575 72.5067 46.9756 70.8968 47.1237C69.3084 47.1951 67.7177 47.0577 66.1623 46.7148C62.0947 45.9984 58.1724 44.5709 54.5608 42.4927C53.6497 41.9634 52.7646 41.3866 51.9091 40.7646C51.3566 40.3557 50.0804 39.5838 49.8981 38.8581C49.8304 38.4751 49.8474 38.0811 49.9479 37.7061C50.5003 34.9009 51.5168 32.1361 52.4063 29.4346C53.594 25.8403 54.6161 22.3267 56.4557 18.9974C58.6405 15.0581 61.3258 11.4445 64.4386 8.25489C65.8977 6.81136 67.5434 5.58795 69.3279 4.6203C72.8028 2.63308 76.5926 1.11242 80.5426 0.761055C84.4926 0.409692 88.625 1.28522 91.8347 3.71597C92.5923 4.23891 93.2222 4.93911 93.6744 5.76078C94.1799 6.96908 94.2887 8.31762 93.9838 9.59698C93.3263 13.2373 91.2767 16.3651 89.4923 19.4928C88.5649 21.1925 87.7437 22.953 87.0339 24.7632C86.5312 25.9728 85.824 26.7619 85.9622 28.1789C86.0759 28.9648 86.2308 29.7435 86.4262 30.5117C86.6395 31.3929 86.6546 32.3135 86.4704 33.2017C86.3747 33.6434 86.1843 34.0569 85.9135 34.411C85.6428 34.7651 85.2986 35.0507 84.907 35.2465C84.476 35.4366 83.9954 35.4884 83.5535 35.6439C82.537 36.0068 82.2221 37.1588 81.8243 38.0862C81.3547 39.2555 80.8464 40.3845 80.3879 41.5307Z" fill="#5473B8"/>
<path d="M79.0999 9.56763C78.512 10.7805 78.0722 12.0654 77.7906 13.3923C77.3431 15.2182 76.9674 17.1248 77.2934 18.9796C77.4757 20.0394 77.879 21.0474 78.0336 22.113C78.1883 23.1786 78.0337 24.3825 77.2602 25.1025C76.7741 24.1175 75.7741 23.5415 75.0836 22.7005C74.3348 21.6355 73.7976 20.4253 73.5036 19.1408C72.6099 15.949 72.8633 12.5268 74.2162 9.51579C74.9786 7.83961 76.0945 5.88695 77.8292 5.18998C78.3883 4.93324 79.0199 4.90649 79.5971 5.1151C80.2766 5.4031 80.7904 6.15191 81.5196 6.14615C81.6522 6.14615 81.8069 6.14615 81.8898 6.23255C81.9726 6.31895 81.8898 6.61272 81.7075 6.73944C80.6453 7.46562 79.7539 8.43236 79.0999 9.56763Z" fill="#5473B8"/>
<path d="M163.122 37.0544H0V67.2314H163.122V37.0544Z" fill="#19BAA8"/>
<path d="M69.3886 28.8527L70.4327 30.3848L71.5377 31.9631C72.2743 33.0114 73.0109 34.0521 73.7475 35.085C75.2501 37.1414 76.7859 39.1631 78.3715 41.0755C78.7637 41.5536 79.1615 42.0201 79.5648 42.4867C79.968 42.9533 80.3658 43.4026 80.7746 43.8461C81.5867 44.7331 82.432 45.5741 83.233 46.369C84.0163 47.1192 84.8408 47.8212 85.7025 48.4714C86.3928 49.0034 87.1332 49.4608 87.9123 49.8365C88.1688 49.9486 88.4328 50.041 88.7023 50.113C88.8223 50.1412 88.9442 50.1605 89.0669 50.1706H89.1498H89.1056L89.0172 50.2167C88.824 50.3154 88.6392 50.431 88.4647 50.5623L88.2879 50.7005L88.1609 50.8215C88.0711 50.9048 87.9896 50.9975 87.9178 51.098C87.9178 51.1441 87.9178 51.1498 87.9178 51.1325L87.9952 51.0231C88.1997 50.664 88.3842 50.2928 88.5476 49.9114C88.7575 49.4391 88.9619 48.9149 89.1608 48.3677C89.5696 47.2675 89.9453 46.0637 90.321 44.8656C91.8016 39.9926 93.0833 34.7567 94.6025 29.6763L102.337 30.886C102.337 31.2604 102.337 31.6002 102.309 31.9573C102.282 32.3144 102.309 32.6543 102.271 33.0057C102.243 33.7026 102.199 34.3996 102.149 35.0908C102.055 36.4847 101.922 37.8729 101.773 39.2611C101.464 42.0432 101.05 44.8138 100.475 47.642C100.193 49.0532 99.8508 50.4759 99.4364 51.9562C99.221 52.6935 98.9834 53.4423 98.6961 54.2315C98.3881 55.1127 98.0188 55.9694 97.5912 56.7947C97.4642 57.0308 97.3206 57.2843 97.1548 57.5492C96.9891 57.8142 96.8012 58.1253 96.5582 58.4075C96.2815 58.7691 95.9786 59.108 95.6521 59.4213C95.5582 59.5134 95.4422 59.6171 95.3372 59.7093C95.2323 59.8014 95.0997 59.9051 94.9671 60.003C94.6646 60.2328 94.345 60.4369 94.0114 60.6136L93.8677 60.6827L93.7683 60.7345L93.6578 60.7864L93.4423 60.8843C93.2932 60.9534 93.144 61.011 92.9948 61.0686C92.6948 61.1896 92.3887 61.2934 92.0778 61.3797C91.4663 61.5589 90.8418 61.686 90.2105 61.7598C89.0352 61.8872 87.8486 61.8406 86.6859 61.6216C85.6747 61.4325 84.6844 61.1373 83.7302 60.7403C82.1156 60.0592 80.5839 59.1814 79.167 58.1252C77.9069 57.1971 76.7055 56.1851 75.5705 55.0955C74.4656 54.0471 73.4546 52.97 72.4934 51.8698C71.5321 50.7697 70.615 49.658 69.7311 48.529C67.9799 46.2595 66.3777 43.921 64.8806 41.5593C64.1293 40.3728 63.4111 39.1689 62.715 37.9478C62.3725 37.3372 62.0244 36.7266 61.693 36.0988L61.1957 35.1599L60.9471 34.6761L60.6875 34.1634L69.3886 28.8527Z" fill="#F69A9E"/>
<path d="M78.084 38.7482L77.8077 38.9671L77.2553 39.3876L68.068 46.6568C68.068 46.6568 52.7264 29.5091 60.3337 22.43C60.3337 22.43 63.339 19.5154 69.1177 25.8111L69.3828 26.1049L69.4326 26.1625L69.648 26.4044L69.7143 26.4793C73.1064 30.4422 77.1006 37.1354 77.9016 38.5006L77.9403 38.5639L78.084 38.7482Z" fill="#5473B8"/>
<path d="M77.0676 37.3601C77.0446 37.4018 77.0147 37.4389 76.9792 37.4696C76.9183 37.5145 76.8429 37.5325 76.7694 37.5195C76.6958 37.5066 76.6302 37.4638 76.5869 37.4005L68.9134 26.4218C68.8911 26.391 68.8749 26.3559 68.8658 26.3184C68.8567 26.281 68.855 26.242 68.8607 26.2039C68.8664 26.1657 68.8793 26.1292 68.8988 26.0963C68.9183 26.0635 68.9439 26.0351 68.9742 26.0128C69.0348 25.9687 69.1094 25.9507 69.1825 25.9625C69.2555 25.9743 69.3214 26.015 69.3664 26.0762L77.04 37.0549C77.07 37.0987 77.0883 37.15 77.0932 37.2036C77.098 37.2572 77.0892 37.3112 77.0676 37.3601Z" fill="#454FA2"/>
<path d="M71.2386 29.0253C71.2102 29.0855 71.1629 29.1337 71.1047 29.162C71.0464 29.1903 70.9806 29.1969 70.9182 29.1809C70.8822 29.1714 70.8484 29.1547 70.8187 29.1317C70.789 29.1086 70.7639 29.0797 70.7449 29.0465C70.7259 29.0133 70.7134 28.9766 70.708 28.9384C70.7027 28.9001 70.7046 28.8612 70.7137 28.8237L71.1944 26.8768C71.2035 26.839 71.2196 26.8034 71.2418 26.7721C71.2641 26.7408 71.292 26.7143 71.3241 26.6943C71.3562 26.6742 71.3917 26.661 71.4287 26.6552C71.4657 26.6495 71.5034 26.6514 71.5397 26.6608C71.5759 26.6703 71.6101 26.6871 71.6401 26.7103C71.6702 26.7335 71.6955 26.7627 71.7147 26.7961C71.734 26.8295 71.7467 26.8666 71.7522 26.9052C71.7577 26.9437 71.7559 26.983 71.7468 27.0208L71.2717 28.9677C71.2633 28.9885 71.2521 29.0078 71.2386 29.0253Z" fill="#454FA2"/>
<path d="M90.1113 7.49413C91.1161 4.60699 93.1366 2.22647 95.7629 0.83551C100.066 -1.33603 102.823 1.41152 102.823 1.41152C102.823 1.41152 106.602 -2.00996 108.552 4.19361C110.502 10.3972 114.336 13.3175 114.922 16.4395C115.507 19.5614 107.851 19.2677 106.878 15.466C105.906 11.6644 97.1938 3.53121 90.1113 7.49413Z" fill="#FEC566"/>
<path d="M86.1334 19.5043L83.6087 20.4489C83.2783 20.2382 82.9626 20.0033 82.664 19.7462C78.4598 16.1519 80.0288 10.0002 80.0288 10.0002L88.7962 6.73425L86.4538 17.9836L86.1334 19.5043Z" fill="#F69A9E"/>
<path d="M86.1335 19.5038L83.6088 20.4484C83.2784 20.2377 82.9627 20.0028 82.6641 19.7457C82.8077 15.2989 85.7578 11.002 85.7578 11.002L86.4539 17.9831L86.1335 19.5038Z" fill="#1D1B13"/>
<path d="M106.904 12.3903C106.904 12.3903 108.512 18.974 101.33 19.0546C101.33 19.0546 105.181 12.8626 106.904 12.3903Z" fill="#FEC566"/>
<path d="M93.0611 22.4358C93.0611 22.4358 87.8404 24.3942 85.8792 18.7205C83.918 13.0469 86.8847 7.66123 87.0173 7.3905L88.0946 6.91817L93.6854 4.47592L96.7018 3.13958C96.7018 3.13958 101.945 0.374755 104.806 5.4436C106.9 9.14732 107.568 13.1045 106.204 15.7253C105.687 16.7282 104.868 17.5257 103.873 17.9948L98.4586 20.2124L97.1327 20.7538L93.0611 22.4358Z" fill="#F69A9E"/>
<path d="M95.2537 13.0876C94.8725 13.2258 94.2869 12.5116 93.9389 11.5151C93.5908 10.5186 93.624 9.57972 94.0051 9.43572C94.3863 9.29172 94.9719 10.0117 95.32 11.0025C95.668 11.9932 95.6349 12.9321 95.2537 13.0876Z" fill="#F3736F"/>
<path d="M89.774 8.37551C89.7077 8.37551 87.8625 8.24879 87.0449 7.39054L88.1222 6.91821C88.5331 7.55379 89.1048 8.05822 89.774 8.37551Z" fill="#1D1B13"/>
<path d="M93.06 6.01948C93.06 6.01948 95.1206 2.79385 92.3639 2.022C90.0989 1.38263 86.2152 5.63355 88.7288 7.63229L93.06 6.01948Z" fill="#F69A9E"/>
<path d="M89.4696 7.0277C89.4513 6.97156 89.453 6.91046 89.4743 6.85551C89.4956 6.80055 89.5351 6.75538 89.5856 6.72819C90.1862 6.43009 90.701 5.9724 91.0783 5.40113C91.4555 4.82986 91.6819 4.16513 91.7346 3.47374C91.7432 3.41672 91.7709 3.36475 91.813 3.32721C91.855 3.28967 91.9085 3.26904 91.9639 3.26904C92.0193 3.26904 92.0728 3.28967 92.1148 3.32721C92.1569 3.36475 92.1846 3.41672 92.1932 3.47374C92.1347 4.25161 91.8815 4.99987 91.4588 5.64375C91.0361 6.28762 90.4588 6.80456 89.7845 7.14291C89.7301 7.16911 89.6681 7.17233 89.6114 7.15193C89.5548 7.13153 89.5079 7.08909 89.4806 7.03347L89.4696 7.0277Z" fill="#1D1B13"/>
<path d="M106.199 15.7426C106.012 15.7733 105.82 15.7473 105.646 15.6677C104.16 14.9823 103.663 12.2117 103.552 9.55052C103.507 8.76451 103.264 8.00474 102.848 7.34754C102.432 6.69035 101.858 6.15886 101.182 5.80649C99.1936 7.3041 98.2379 5.098 96.7242 6.20393C95.5484 6.96945 94.2717 7.55161 92.9344 7.93195L92.625 6.45161C93.1918 5.92584 93.5795 5.2224 93.7299 4.44711L96.7021 3.13958C96.7021 3.13958 101.945 0.374755 104.807 5.4436C106.9 9.1646 107.547 13.1218 106.199 15.7426Z" fill="#FEC566"/>
<path d="M72.1113 36.2483L110.982 36.2483C111.51 36.2483 111.938 35.8022 111.938 35.2518V33.639C111.938 33.0886 111.51 32.6425 110.982 32.6425L72.1113 32.6425C71.5835 32.6425 71.1555 33.0886 71.1555 33.639V35.2518C71.1555 35.8022 71.5835 36.2483 72.1113 36.2483Z" fill="#595A5A"/>
<path d="M82.2665 36.2546H110.53C110.857 36.2543 111.178 36.1559 111.453 35.971C111.728 35.7862 111.947 35.5227 112.082 35.212L119.817 17.6208C119.936 17.3495 119.988 17.0513 119.968 16.7535C119.948 16.4557 119.857 16.1679 119.702 15.9167C119.548 15.6654 119.335 15.4587 119.084 15.3156C118.832 15.1726 118.551 15.0977 118.264 15.0979H89.9953C89.6679 15.0982 89.3475 15.1966 89.0723 15.3814C88.797 15.5663 88.5786 15.8298 88.4429 16.1405L80.7086 33.7317C80.5889 34.0034 80.5367 34.3021 80.557 34.6004C80.5772 34.8987 80.6693 35.1868 80.8245 35.4382C80.9798 35.6896 81.1933 35.8962 81.4453 36.0389C81.6973 36.1816 81.9798 36.2557 82.2665 36.2546Z" fill="#1D1B13"/>
<path d="M99.3203 25.6732C99.3203 26.179 99.4642 26.6735 99.7337 27.094C100.003 27.5146 100.386 27.8424 100.835 28.036C101.283 28.2295 101.776 28.2802 102.252 28.1815C102.728 28.0828 103.165 27.8393 103.508 27.4816C103.851 27.1239 104.084 26.6682 104.179 26.1721C104.274 25.676 104.225 25.1618 104.039 24.6945C103.854 24.2272 103.539 23.8278 103.136 23.5467C102.733 23.2657 102.258 23.1157 101.773 23.1157C101.123 23.1157 100.499 23.3852 100.039 23.8648C99.5787 24.3444 99.3203 24.9949 99.3203 25.6732Z" fill="#595A5A"/>
</svg>
