<svg width="274" height="409" viewBox="0 0 274 409" fill="none" xmlns="http://www.w3.org/2000/svg">
<ellipse cx="116.25" cy="401.25" rx="71.25" ry="7.5" fill="#949494"/>
<path d="M89.9202 362.107L85.4521 365.876L90.6274 374.044L95.1032 370.276L89.9202 362.107Z" fill="#F69A9E"/>
<path d="M90.1688 401.805L71.3018 372.082C71.6664 371.512 72.1421 371.022 72.7005 370.641C75.0938 368.858 79.6085 367.106 82.3826 365.891L83.2763 365.494C83.6492 365.325 84.0124 365.135 84.3641 364.926C86.4233 363.61 87.2315 365.665 87.2315 365.665C86.198 370.548 92.7719 371.116 92.5854 374.052C92.5854 374.052 92.5155 375.298 91.8938 379.005C91.2722 382.711 92.4222 387.617 93.1605 391.947C94.124 397.53 93.0827 399.952 91.9716 401.003C91.4911 401.486 90.8483 401.772 90.1688 401.805Z" fill="#1D1B13"/>
<path d="M90.1688 401.805L71.3018 372.082C71.6664 371.512 72.1421 371.022 72.7005 370.642L91.9716 401.011C91.4899 401.491 90.8473 401.774 90.1688 401.805Z" fill="#595A5A"/>
<path d="M73.2441 375.111L72.6846 374.223C73.6907 374.379 74.7176 374.333 75.706 374.089C76.6943 373.844 77.6245 373.406 78.4426 372.798C79.5425 371.982 80.4617 370.946 81.1424 369.756C81.8231 368.566 82.2506 367.247 82.3978 365.883L83.2914 365.486C83.1887 367.057 82.7454 368.586 81.9925 369.967C81.2397 371.348 80.1953 372.548 78.9321 373.484C77.2898 374.687 75.2729 375.264 73.2441 375.111Z" fill="#595A5A"/>
<path d="M89.8429 379.62C89.7744 379.51 89.7441 379.38 89.7567 379.25C89.7694 379.12 89.8242 378.999 89.9129 378.904C89.9658 378.849 90.0292 378.805 90.0992 378.775C90.1693 378.746 90.2447 378.73 90.3208 378.73C90.397 378.73 90.4723 378.746 90.5424 378.775C90.6125 378.805 90.6759 378.849 90.7288 378.904L92.3684 380.461C92.4775 380.571 92.5388 380.719 92.5388 380.874C92.5388 381.029 92.4775 381.177 92.3684 381.287C92.3155 381.341 92.2521 381.385 92.182 381.415C92.1119 381.445 92.0365 381.46 91.9604 381.46C91.8843 381.46 91.8089 381.445 91.7388 381.415C91.6687 381.385 91.6054 381.341 91.5525 381.287L89.9129 379.729C89.8873 379.694 89.8639 379.658 89.8429 379.62Z" fill="white"/>
<path d="M89.9432 382.158C89.8564 382.04 89.8183 381.892 89.8365 381.746C89.8547 381.6 89.928 381.467 90.0412 381.373C90.1545 381.28 90.2992 381.233 90.4457 381.243C90.5921 381.253 90.7293 381.319 90.829 381.426L92.4686 382.984C92.5224 383.037 92.5651 383.101 92.5942 383.171C92.6234 383.241 92.6384 383.317 92.6384 383.393C92.6384 383.469 92.6234 383.544 92.5942 383.614C92.5651 383.684 92.5224 383.748 92.4686 383.802C92.3593 383.911 92.2112 383.972 92.0568 383.972C91.9023 383.972 91.7542 383.911 91.6449 383.802L90.0053 382.244C89.9821 382.218 89.9613 382.189 89.9432 382.158Z" fill="white"/>
<path d="M90.0833 384.674C90.014 384.565 89.9833 384.436 89.996 384.307C90.0086 384.179 90.064 384.058 90.1532 383.965C90.2625 383.856 90.4106 383.794 90.5651 383.794C90.7195 383.794 90.8676 383.856 90.9769 383.965L92.6087 385.523C92.7179 385.632 92.7792 385.781 92.7792 385.935C92.7792 386.09 92.7179 386.239 92.6087 386.348C92.5553 386.402 92.4917 386.445 92.4217 386.474C92.3517 386.503 92.2766 386.518 92.2008 386.518C92.1249 386.518 92.0499 386.503 91.9798 386.474C91.9098 386.445 91.8463 386.402 91.7928 386.348L90.1532 384.791C90.1236 384.756 90.1 384.716 90.0833 384.674Z" fill="white"/>
<path d="M90.4097 387.314C90.3368 387.193 90.3098 387.051 90.3336 386.912C90.3574 386.773 90.4304 386.648 90.5392 386.559C90.6479 386.469 90.7851 386.423 90.9255 386.427C91.0659 386.431 91.2001 386.486 91.3033 386.582L92.9429 388.139C93.0401 388.245 93.094 388.384 93.094 388.528C93.094 388.673 93.0401 388.811 92.9429 388.918C92.8377 389.017 92.6987 389.072 92.5544 389.072C92.41 389.072 92.271 389.017 92.1658 388.918L90.5262 387.36L90.4097 387.314Z" fill="white"/>
<path d="M90.9926 390.023C90.922 389.915 90.8904 389.786 90.9031 389.657C90.9159 389.528 90.9721 389.407 91.0626 389.315C91.116 389.261 91.1796 389.218 91.2496 389.189C91.3196 389.16 91.3947 389.145 91.4705 389.145C91.5463 389.145 91.6214 389.16 91.6914 389.189C91.7615 389.218 91.825 389.261 91.8785 389.315L93.5181 390.872C93.5976 390.981 93.6368 391.115 93.6289 391.25C93.621 391.385 93.5665 391.514 93.4747 391.613C93.383 391.712 93.2596 391.777 93.1258 391.795C92.992 391.813 92.8559 391.784 92.741 391.713L91.1014 390.156C91.0589 390.117 91.0223 390.073 90.9926 390.023Z" fill="white"/>
<path d="M144.073 309.194V309.396L143.568 310.338C136.058 324.153 127.715 337.496 118.586 350.294C116.775 352.786 114.918 355.262 113.022 357.66C112.188 358.699 111.349 359.737 110.504 360.775C107.609 364.465 104.147 367.669 100.247 370.268C99.8743 370.517 99.4702 370.751 99.1128 370.992C98.3823 371.436 97.6286 371.872 96.8515 372.308L95.7092 372.931C95.7092 372.931 90.06 366.966 87.4258 361.188C87.4258 361.188 88.164 359.989 89.3451 358.034L90.1222 356.804L92.873 352.233C97.4265 344.609 103.565 334.136 105.858 329.277C107.536 325.726 109.525 321.785 111.756 317.9C112.183 317.121 112.61 316.428 113.053 315.696L113.209 315.439C115.995 310.626 119.345 306.164 123.186 302.146L115.035 254.334L114.53 251.328L132.402 245.005L133.428 244.647L137.686 243.144C137.686 243.144 138.02 244.701 138.549 247.411C138.618 247.738 138.681 248.081 138.751 248.439C141.136 260.711 146.443 291.392 144.073 309.194Z" fill="#F15E3C"/>
<path d="M100.223 370.283C99.8504 370.533 99.4464 370.766 99.0889 371.008L92.1653 361.819L91.5204 360.97L89.3213 358.05L90.0983 356.82L92.2586 359.677L92.8958 360.526L100.223 370.283Z" fill="#CF2027"/>
<path d="M144.073 309.194C144.077 309.261 144.077 309.329 144.073 309.396L143.576 310.338C140.97 309.822 138.477 308.84 136.217 307.441C136.151 307.398 136.095 307.342 136.051 307.277C136.006 307.211 135.975 307.138 135.96 307.06C135.944 306.983 135.943 306.903 135.958 306.826C135.973 306.748 136.003 306.674 136.046 306.608C136.09 306.542 136.146 306.486 136.211 306.441C136.276 306.397 136.349 306.366 136.427 306.35C136.504 306.334 136.583 306.334 136.661 306.348C136.738 306.363 136.812 306.393 136.878 306.437C139.09 307.784 141.528 308.718 144.073 309.194Z" fill="#CF2027"/>
<path d="M127.802 303.836C127.717 303.922 118.749 312.854 92.8345 360.526L92.1352 361.819L91.4902 360.97L92.1973 359.677C116.216 315.478 125.424 304.903 126.901 303.346C124.795 295.559 118.353 255.486 118.058 253.765C118.047 253.703 118.048 253.639 118.062 253.577C118.076 253.515 118.103 253.457 118.14 253.405C118.177 253.354 118.223 253.31 118.277 253.277C118.331 253.244 118.392 253.222 118.454 253.212C118.517 253.203 118.581 253.205 118.643 253.22C118.705 253.235 118.763 253.262 118.814 253.3C118.865 253.337 118.909 253.385 118.942 253.439C118.975 253.494 118.996 253.554 119.006 253.617C119.076 254.038 125.898 296.298 127.903 303.353C127.933 303.435 127.939 303.524 127.922 303.609C127.904 303.695 127.862 303.773 127.802 303.836Z" fill="#CF2027"/>
<path d="M85.0789 231.409C85.0789 231.409 83.7346 244.203 86.633 251.328C89.5314 258.453 127.141 254.785 136.73 248.377C140.654 245.744 132.285 221.48 132.285 221.48L85.0789 231.409Z" fill="#F15E3C"/>
<path d="M138.767 248.439C138.202 248.34 137.646 248.197 137.104 248.011C136.233 247.716 135.403 247.313 134.633 246.811C133.83 246.294 133.087 245.688 132.418 245.005C128.276 240.815 127.056 234.485 126.979 234.173C126.971 234.053 127.007 233.934 127.08 233.839C127.154 233.745 127.259 233.68 127.377 233.658C127.495 233.636 127.617 233.658 127.72 233.72C127.822 233.782 127.899 233.879 127.934 233.994C127.934 234.072 129.217 240.66 133.42 244.647C133.951 245.149 134.526 245.603 135.138 246.002C135.865 246.473 136.648 246.853 137.469 247.131C137.811 247.24 138.161 247.333 138.518 247.411C138.635 247.738 138.697 248.081 138.767 248.439Z" fill="#CF2027"/>
<path d="M115.564 252.021C115.567 252.083 115.558 252.145 115.537 252.203C115.516 252.262 115.483 252.315 115.441 252.361C115.399 252.407 115.349 252.443 115.292 252.469C115.236 252.495 115.175 252.509 115.113 252.511C114.988 252.518 114.865 252.475 114.771 252.392C114.676 252.309 114.618 252.193 114.608 252.068C114.523 250.315 114.421 248.524 114.305 246.733C114.305 246.422 114.266 246.11 114.251 245.791C113.87 239.943 113.388 234.204 113.023 230.147C113.023 229.82 112.968 229.508 112.937 229.197C112.852 228.309 112.782 227.523 112.72 226.861L113.676 226.705C113.738 227.375 113.815 228.169 113.893 229.041C113.893 229.345 113.948 229.664 113.979 229.991C114.336 234.009 114.818 239.694 115.199 245.511C115.199 245.83 115.237 246.149 115.261 246.469C115.37 248.353 115.478 250.206 115.564 252.021Z" fill="#CF2027"/>
<path d="M116.939 245.846C116.395 246.106 115.831 246.322 115.252 246.492C114.939 246.592 114.62 246.672 114.297 246.733C113.997 246.794 113.693 246.836 113.387 246.858C112.833 246.908 112.275 246.819 111.763 246.601C111.475 246.461 111.225 246.254 111.034 245.996C110.843 245.739 110.718 245.438 110.668 245.121C110.318 243.323 109.58 235.87 109.114 230.606C109.114 230.279 109.051 229.96 109.028 229.656C108.95 228.815 108.881 228.044 108.818 227.398L109.774 227.273C109.836 227.928 109.906 228.706 109.992 229.563C109.992 229.867 110.046 230.178 110.077 230.505C110.575 235.761 111.313 243.198 111.631 244.95C111.659 245.117 111.726 245.275 111.827 245.411C111.929 245.547 112.062 245.656 112.214 245.729C112.88 245.934 113.592 245.934 114.258 245.729C114.576 245.659 114.903 245.565 115.206 245.472C115.657 245.327 116.098 245.153 116.527 244.95C116.642 244.894 116.774 244.885 116.895 244.924C117.017 244.964 117.118 245.048 117.18 245.16C117.217 245.219 117.241 245.286 117.25 245.356C117.258 245.425 117.25 245.496 117.227 245.562C117.204 245.628 117.165 245.688 117.116 245.737C117.066 245.786 117.005 245.824 116.939 245.846Z" fill="#CF2027"/>
<path d="M100.815 379.129L101.763 386.714H111.422L111.982 378.732L100.815 379.129Z" fill="#F69A9E"/>
<path d="M112.998 247.684V377.876L112.858 379.939H98.5294C98.374 378.997 98.0321 377.486 97.5737 375.532L97.2628 374.192C95.3901 366.226 92.1964 352.653 91.6292 340.856C90.8521 323.997 91.0541 302.162 91.0541 302.162C89.4145 289.632 86.8502 262.51 85.5681 248.618C85.5681 248.291 85.5137 247.972 85.4826 247.652C85.0552 242.98 84.791 240.052 84.791 240.052C87.1222 239.087 91.2795 239.749 95.732 241.018C96.0584 241.103 96.377 241.197 96.7034 241.298C102.269 243.065 107.713 245.198 112.998 247.684Z" fill="#F15E3C"/>
<path d="M112.999 374.192V375.532H97.5745L97.2637 374.192H112.999Z" fill="#CF2027"/>
<path d="M112.999 305.09V306.328C111.231 306.734 109.42 306.925 107.606 306.896C105.455 306.886 103.307 306.717 101.18 306.39C101.102 306.377 101.028 306.349 100.961 306.307C100.895 306.265 100.837 306.21 100.792 306.146C100.746 306.081 100.714 306.009 100.696 305.932C100.679 305.855 100.677 305.775 100.69 305.697C100.702 305.619 100.728 305.544 100.769 305.476C100.81 305.409 100.864 305.35 100.927 305.304C100.991 305.257 101.064 305.224 101.14 305.206C101.217 305.188 101.296 305.186 101.374 305.199C101.452 305.214 108.469 306.359 112.999 305.09Z" fill="#CF2027"/>
<path d="M99.9748 375.532H98.9957C98.918 375.111 98.8325 374.667 98.7393 374.192C97.4727 367.449 95.157 354.841 93.9526 346.657C92.2741 335.233 93.059 303.556 93.0901 302.318C91.8157 291.416 89.2048 254.1 89.2048 253.726C89.1995 253.662 89.207 253.598 89.2269 253.537C89.2468 253.475 89.2787 253.419 89.3206 253.37C89.3626 253.322 89.4139 253.282 89.4714 253.254C89.5289 253.225 89.5914 253.208 89.6555 253.204C89.7828 253.198 89.9076 253.242 90.0034 253.326C90.0992 253.41 90.1584 253.529 90.1683 253.656C90.1683 254.038 92.787 291.408 94.0536 302.24C94.0536 302.24 94.0536 302.286 94.0536 302.31C94.0536 302.629 93.2066 335.016 94.9006 346.517C96.1128 354.756 98.4595 367.542 99.7184 374.192C99.8116 374.667 99.8971 375.111 99.9748 375.532Z" fill="#CF2027"/>
<path d="M115.097 399.648C115.097 399.734 115.097 399.819 115.097 399.905C115.097 400.287 115.097 400.637 115.058 400.933C115.058 401.595 114.965 402 114.965 402H93.2071C93.1471 401.303 93.1471 400.602 93.2071 399.905C93.3547 397.678 94.0929 394.158 97.0924 391.83C101.203 388.645 99.6178 389.315 100.465 387.859C100.558 387.695 101.296 385.227 101.374 385.063C102.081 383.552 102.734 382.836 106.627 382.836C111.802 382.836 112.253 385.351 112.843 386.675C113.198 387.693 113.486 388.734 113.706 389.79C113.838 390.343 113.962 390.934 114.094 391.526C114.413 393.029 114.708 394.641 114.91 395.848C115.079 397.107 115.141 398.379 115.097 399.648Z" fill="#1D1B13"/>
<path d="M115.097 399.649C115.097 399.734 115.097 399.82 115.097 399.905C115.097 400.287 115.097 400.638 115.059 400.933C114.016 400.217 113.225 399.19 112.797 397.998C111.453 394.33 113.52 389.922 113.574 389.736H113.621C113.753 390.288 113.877 390.88 114.01 391.472C113.52 392.975 112.953 395.498 113.738 397.632C114.019 398.406 114.486 399.098 115.097 399.649Z" fill="#595A5A"/>
<path d="M115.089 399.905C115.089 401.143 114.957 402 114.957 402H93.1993C93.1393 401.303 93.1393 400.602 93.1993 399.905H115.089Z" fill="#595A5A"/>
<path d="M107.327 389.634C107.275 389.642 107.223 389.642 107.172 389.634C105.522 389.2 103.794 389.165 102.128 389.533C102.049 389.558 101.965 389.566 101.882 389.557C101.799 389.549 101.719 389.523 101.646 389.482C101.574 389.442 101.51 389.386 101.459 389.32C101.409 389.254 101.372 389.178 101.351 389.097C101.328 389.018 101.32 388.935 101.329 388.852C101.337 388.77 101.362 388.69 101.402 388.618C101.442 388.545 101.496 388.482 101.56 388.43C101.625 388.379 101.699 388.341 101.779 388.318C103.656 387.895 105.606 387.93 107.467 388.419C107.61 388.46 107.735 388.551 107.817 388.675C107.899 388.8 107.934 388.95 107.915 389.098C107.897 389.246 107.825 389.383 107.714 389.482C107.603 389.582 107.46 389.639 107.311 389.642L107.327 389.634Z" fill="white"/>
<path d="M107.816 387.228C107.764 387.236 107.712 387.236 107.66 387.228C106.011 386.794 104.282 386.759 102.617 387.127C102.538 387.15 102.454 387.158 102.372 387.148C102.289 387.139 102.209 387.113 102.137 387.073C102.064 387.032 102.001 386.977 101.95 386.912C101.899 386.846 101.862 386.771 101.84 386.69C101.818 386.611 101.811 386.527 101.821 386.445C101.83 386.363 101.856 386.283 101.897 386.211C101.937 386.138 101.991 386.075 102.056 386.023C102.121 385.972 102.196 385.934 102.275 385.912C104.152 385.484 106.103 385.519 107.963 386.013C108.044 386.034 108.12 386.07 108.187 386.121C108.253 386.172 108.308 386.235 108.35 386.308C108.391 386.381 108.417 386.461 108.427 386.544C108.437 386.627 108.43 386.711 108.406 386.792C108.366 386.917 108.287 387.027 108.181 387.105C108.075 387.183 107.947 387.226 107.816 387.228Z" fill="white"/>
<path d="M106.395 391.604C106.343 391.612 106.291 391.612 106.239 391.604C104.589 391.175 102.862 391.14 101.196 391.503C101.116 391.531 101.03 391.542 100.945 391.536C100.86 391.529 100.777 391.506 100.702 391.466C100.627 391.426 100.56 391.371 100.507 391.304C100.454 391.238 100.414 391.161 100.392 391.079C100.37 390.996 100.364 390.91 100.377 390.825C100.389 390.741 100.418 390.66 100.463 390.587C100.508 390.515 100.567 390.452 100.637 390.403C100.707 390.354 100.786 390.321 100.87 390.304C102.743 389.876 104.693 389.911 106.55 390.405C106.693 390.445 106.818 390.536 106.9 390.661C106.982 390.785 107.017 390.935 106.998 391.083C106.98 391.232 106.908 391.368 106.797 391.468C106.687 391.568 106.544 391.624 106.395 391.628V391.604Z" fill="white"/>
<path d="M105.298 393.839C105.247 393.846 105.195 393.846 105.143 393.839C103.493 393.41 101.767 393.373 100.1 393.73C100.022 393.751 99.9403 393.757 99.86 393.747C99.7797 393.737 99.7022 393.711 99.6318 393.671C99.5614 393.631 99.4997 393.577 99.45 393.513C99.4003 393.449 99.3637 393.376 99.3423 393.298C99.3209 393.22 99.315 393.138 99.3251 393.057C99.3352 392.977 99.361 392.899 99.401 392.829C99.4411 392.758 99.4946 392.696 99.5585 392.646C99.6224 392.597 99.6955 392.56 99.7736 392.539C101.646 392.105 103.596 392.138 105.454 392.632C105.597 392.672 105.722 392.763 105.804 392.888C105.886 393.012 105.921 393.162 105.902 393.31C105.884 393.459 105.812 393.595 105.701 393.695C105.59 393.795 105.448 393.851 105.298 393.854V393.839Z" fill="white"/>
<path d="M99.3695 234.165C98.8479 236.662 97.9491 239.065 96.7041 241.29C95.5148 243.501 93.8117 245.392 91.7387 246.804C89.9006 247.993 87.7568 248.621 85.5689 248.61C85.5689 248.283 85.5145 247.956 85.4834 247.645C87.512 247.665 89.5024 247.091 91.2103 245.994C93.0866 244.711 94.6357 243.003 95.7328 241.01C96.9797 238.825 97.8864 236.461 98.4214 234.002C98.4441 233.876 98.5158 233.764 98.6208 233.691C98.7257 233.618 98.8552 233.59 98.9809 233.612C99.1041 233.637 99.2131 233.708 99.2854 233.811C99.3577 233.914 99.3878 234.041 99.3695 234.165Z" fill="#CF2027"/>
<path d="M134.819 224.821C134.772 224.587 134.718 224.354 134.671 224.112C133.894 220.156 133.117 215.881 132.449 211.949C132.449 211.762 132.387 211.583 132.348 211.396C132.006 209.34 131.695 207.393 131.423 205.657C131.423 205.47 131.361 205.283 131.338 205.104C131.104 203.632 130.91 202.324 130.755 201.249C130.716 200.977 130.677 200.704 130.646 200.432L130.553 199.809C130.452 199.03 130.366 198.306 130.273 197.566C130.125 196.398 130.001 195.23 129.892 194.14C129.768 192.87 129.659 191.64 129.574 190.441C129.488 189.242 129.403 187.91 129.34 186.703C129.278 185.496 129.239 184.18 129.216 182.989C129.138 178.776 129.278 175.124 129.511 171.946C129.511 171.721 129.55 171.51 129.566 171.3C129.667 170.031 129.783 168.847 129.908 167.734C129.908 167.492 129.962 167.251 129.985 167.009C130.708 160.873 131.578 157.073 131.112 154.745C130.234 150.322 126.939 149.294 123.256 148.227C115.486 151.817 108.08 156.855 101.056 161.107C94.8718 164.98 89.4035 169.896 84.8927 175.638C81.9942 179.22 77.1221 183.557 75.8943 188.354C75.77 192.933 75.8011 197.387 76.0886 201.825C76.1741 203.056 76.2751 204.294 76.3994 205.532C76.3994 205.828 76.4616 206.171 76.5004 206.537C76.5004 206.731 76.5004 206.926 76.5626 207.136C76.8035 209.387 77.1609 212.587 77.5961 216.06C77.5961 216.239 77.6349 216.426 77.6583 216.605C78.6529 224.525 79.9894 233.9 81.3338 237.872C81.3804 238.02 81.427 238.152 81.4736 238.285L81.7223 238.401C88.1622 241.41 95.1562 243.044 102.26 243.198H102.99C104.187 243.198 105.376 243.198 106.557 243.159C108.158 243.089 109.751 242.965 111.305 242.77C112.696 242.606 114.056 242.388 115.392 242.131C120.764 241.151 125.943 239.31 130.731 236.68C130.895 236.587 131.066 236.494 131.221 236.392C132.318 235.755 133.377 235.053 134.391 234.29L134.827 233.947C135.334 233.538 135.716 232.993 135.926 232.376C136.137 231.758 136.168 231.093 136.015 230.459C135.635 228.714 135.238 226.814 134.819 224.821Z" fill="#5473B8"/>
<path d="M118.206 225.039C112.766 225.039 106.814 223.481 100.543 220.413C95.1645 217.733 90.1462 214.382 85.6079 210.438C85.5286 210.366 85.4811 210.265 85.476 210.158C85.4709 210.05 85.5086 209.945 85.5807 209.866C85.6529 209.786 85.7536 209.739 85.8607 209.734C85.9678 209.729 86.0725 209.766 86.1519 209.839C90.6412 213.73 95.6016 217.04 100.916 219.689C108.687 223.52 120.125 226.884 130.157 221.169C130.25 221.115 130.36 221.101 130.463 221.128C130.567 221.156 130.655 221.224 130.708 221.317C130.736 221.362 130.754 221.413 130.762 221.466C130.769 221.519 130.766 221.573 130.752 221.625C130.738 221.676 130.714 221.725 130.681 221.767C130.649 221.809 130.608 221.844 130.561 221.87C126.792 223.997 122.531 225.09 118.206 225.039Z" fill="#454FA2"/>
<path d="M119.409 220.437C110.901 220.296 103.954 208.935 103.666 208.452C103.61 208.36 103.594 208.25 103.619 208.146C103.645 208.041 103.71 207.951 103.802 207.895C103.894 207.84 104.004 207.823 104.108 207.848C104.212 207.874 104.302 207.94 104.358 208.032C104.428 208.149 111.351 219.494 119.425 219.627C119.509 219.651 119.584 219.702 119.636 219.772C119.689 219.842 119.718 219.928 119.718 220.016C119.718 220.104 119.689 220.19 119.636 220.26C119.584 220.33 119.509 220.381 119.425 220.405L119.409 220.437Z" fill="#454FA2"/>
<path d="M71.5971 196.958C71.5117 196.958 71.4287 196.929 71.3607 196.878C71.2926 196.826 71.2431 196.753 71.2195 196.671C71.1959 196.589 71.1995 196.501 71.2297 196.421C71.26 196.341 71.3153 196.273 71.3873 196.227C73.3145 195.153 75.3553 194.299 77.4717 193.68C77.5227 193.665 77.5762 193.661 77.629 193.667C77.6818 193.672 77.7329 193.689 77.7795 193.714C77.826 193.74 77.867 193.775 77.9002 193.816C77.9334 193.858 77.9581 193.905 77.9729 193.957C77.9877 194.008 77.9923 194.061 77.9865 194.114C77.9806 194.167 77.9644 194.218 77.9388 194.265C77.9132 194.312 77.8787 194.353 77.8372 194.386C77.7957 194.419 77.7481 194.444 77.6971 194.459C75.6492 195.059 73.6738 195.884 71.8069 196.92C71.742 196.952 71.6693 196.965 71.5971 196.958Z" fill="#F3736F"/>
<path d="M77.1768 194.451C77.1026 194.45 77.0301 194.428 76.967 194.389C75.4129 193.4 72.7165 193.61 72.6932 193.61C72.6373 193.625 72.5787 193.628 72.5216 193.618C72.4645 193.609 72.4102 193.586 72.3626 193.553C72.315 193.52 72.2752 193.477 72.2461 193.427C72.217 193.376 72.1992 193.32 72.194 193.263C72.1888 193.205 72.1963 193.146 72.216 193.092C72.2358 193.037 72.2672 192.988 72.3081 192.946C72.349 192.905 72.3985 192.874 72.4529 192.854C72.5074 192.834 72.5655 192.826 72.6233 192.831C72.7398 192.831 75.6383 192.574 77.3944 193.703C77.4385 193.732 77.4766 193.769 77.5064 193.812C77.5362 193.855 77.5571 193.904 77.5679 193.955C77.5788 194.007 77.5793 194.06 77.5696 194.112C77.5598 194.163 77.5399 194.212 77.511 194.256C77.4771 194.315 77.4284 194.364 77.3698 194.398C77.3111 194.432 77.2446 194.451 77.1768 194.451Z" fill="#F3736F"/>
<path d="M147.376 206.615C147.271 206.615 147.17 206.576 147.092 206.505C147.014 206.435 146.966 206.338 146.956 206.233C146.847 203.499 147.024 200.761 147.485 198.064C147.489 198.005 147.505 197.947 147.533 197.894C147.561 197.841 147.599 197.795 147.646 197.758C147.693 197.721 147.747 197.694 147.805 197.679C147.862 197.664 147.923 197.662 147.981 197.671C148.04 197.681 148.096 197.703 148.146 197.736C148.196 197.769 148.238 197.812 148.27 197.862C148.303 197.912 148.324 197.969 148.333 198.028C148.343 198.087 148.339 198.147 148.324 198.205C147.874 200.827 147.696 203.489 147.796 206.147C147.806 206.26 147.772 206.372 147.701 206.46C147.63 206.547 147.527 206.603 147.415 206.615H147.376Z" fill="#F3736F"/>
<path d="M144.664 203.647C144.574 203.649 144.486 203.618 144.415 203.562C144.371 203.529 144.333 203.487 144.305 203.439C144.276 203.392 144.257 203.339 144.249 203.284C144.241 203.229 144.245 203.173 144.258 203.119C144.272 203.065 144.297 203.014 144.33 202.97C144.33 202.97 146.514 199.995 147.539 198.298C147.599 198.202 147.693 198.134 147.802 198.108C147.911 198.082 148.026 198.1 148.122 198.157C148.17 198.186 148.212 198.224 148.245 198.269C148.278 198.314 148.301 198.366 148.314 198.42C148.327 198.474 148.329 198.531 148.32 198.586C148.311 198.641 148.292 198.694 148.262 198.742C147.221 200.486 145.099 203.367 145.006 203.492C144.965 203.542 144.913 203.583 144.853 203.61C144.794 203.637 144.729 203.65 144.664 203.647Z" fill="#F3736F"/>
<path d="M115.494 198.555C115.098 199.651 114.52 200.673 113.784 201.576C112.502 202.978 110.443 203.725 108.71 204.45C106.624 205.352 104.407 205.915 102.144 206.116C99.9099 206.216 97.672 206.031 95.4847 205.563C89.7625 204.598 84.2449 202.668 79.1664 199.855C77.8848 199.14 76.64 198.36 75.4365 197.519C74.6595 196.966 72.8645 195.923 72.608 194.942C72.5127 194.424 72.5366 193.891 72.678 193.384C73.455 189.592 74.8848 185.854 76.1359 182.202C77.7988 177.343 79.2441 172.601 81.824 168.092C84.9024 162.768 88.6817 157.883 93.0603 153.569C95.1109 151.618 97.4261 149.966 99.9372 148.663C104.825 145.969 110.156 143.921 115.712 143.438C121.268 142.955 127.08 144.147 131.595 147.433C132.66 148.14 133.546 149.086 134.182 150.197C134.89 151.831 135.043 153.653 134.617 155.383C133.693 160.313 130.81 164.533 128.3 168.761C126.995 171.059 125.84 173.439 124.842 175.887C124.135 177.522 123.14 178.589 123.288 180.504C123.454 181.566 123.675 182.619 123.948 183.658C124.248 184.849 124.27 186.094 124.011 187.295C123.876 187.894 123.608 188.455 123.225 188.935C122.843 189.415 122.357 189.802 121.804 190.067C121.198 190.324 120.529 190.386 119.908 190.596C118.478 191.087 118.035 192.652 117.475 193.906C116.854 195.479 116.154 197.013 115.494 198.555Z" fill="#5473B8"/>
<path d="M113.682 155.345C112.856 156.984 112.237 158.721 111.841 160.515C111.211 162.984 110.683 165.561 111.134 168.069C111.398 169.501 111.965 170.864 112.175 172.305C112.333 173.017 112.317 173.757 112.129 174.462C111.941 175.167 111.586 175.816 111.095 176.354C110.411 175.015 108.997 174.236 108.033 173.099C106.981 171.658 106.223 170.022 105.803 168.287C104.544 163.971 104.903 159.343 106.813 155.274C107.878 153.016 109.455 150.376 111.895 149.426C112.682 149.079 113.57 149.043 114.382 149.325C115.338 149.722 116.06 150.727 117.086 150.727C117.272 150.727 117.49 150.727 117.607 150.844C117.723 150.96 117.56 151.358 117.342 151.521C115.852 152.505 114.602 153.812 113.682 155.345Z" fill="#5473B8"/>
<path d="M112.913 187.209L112.525 187.505L111.748 188.073L98.833 197.901C98.833 197.901 77.254 174.719 87.9541 165.148C87.9541 165.148 92.1813 161.255 100.309 169.719L100.69 170.116L100.76 170.194L101.055 170.521L101.149 170.623C105.928 175.98 111.538 185.029 112.672 186.874L112.719 186.96L112.913 187.209Z" fill="#5473B8"/>
<path d="M111.476 185.332C111.448 185.392 111.405 185.443 111.352 185.48C111.266 185.54 111.161 185.564 111.059 185.548C110.956 185.532 110.863 185.477 110.8 185.395L100.007 170.552C99.9459 170.467 99.9217 170.36 99.9391 170.257C99.9566 170.153 100.014 170.061 100.1 170C100.141 169.968 100.189 169.945 100.239 169.932C100.29 169.92 100.342 169.917 100.394 169.925C100.445 169.933 100.495 169.952 100.539 169.979C100.583 170.006 100.621 170.043 100.651 170.085L111.437 184.927C111.481 184.984 111.508 185.053 111.515 185.124C111.522 185.196 111.508 185.268 111.476 185.332Z" fill="#454FA2"/>
<path d="M103.286 174.065C103.245 174.146 103.177 174.212 103.094 174.25C103.01 174.288 102.916 174.297 102.828 174.275C102.727 174.247 102.641 174.181 102.589 174.091C102.536 174.001 102.522 173.893 102.548 173.792L103.216 171.16C103.243 171.057 103.31 170.968 103.401 170.914C103.493 170.86 103.603 170.845 103.706 170.872C103.809 170.899 103.897 170.965 103.951 171.057C104.005 171.149 104.02 171.259 103.993 171.362L103.317 173.987L103.286 174.065Z" fill="#454FA2"/>
<path d="M129.17 152.541C130.584 148.654 133.417 145.448 137.096 143.57C143.149 140.634 147.027 144.349 147.027 144.349C147.027 144.349 152.342 139.716 155.077 148.102C157.812 156.489 163.213 160.437 164.037 164.658C164.86 168.878 154.098 168.489 152.73 163.342C151.363 158.194 139.124 147.191 129.17 152.541Z" fill="#FEC566"/>
<path d="M123.583 168.754L120.032 170.031C119.566 169.748 119.122 169.43 118.703 169.081C112.782 164.222 114.996 155.905 114.996 155.905L127.328 151.49L124.034 166.698L123.583 168.754Z" fill="#F69A9E"/>
<path d="M123.583 168.754L120.032 170.031C119.566 169.748 119.122 169.43 118.703 169.081C118.905 163.069 123.055 157.26 123.055 157.26L124.034 166.698L123.583 168.754Z" fill="#1D1B13"/>
<path d="M152.792 159.16C152.792 159.16 155.045 168.061 144.951 168.17C144.951 168.17 150.367 159.806 152.792 159.16Z" fill="#FEC566"/>
<path d="M133.319 172.748C133.319 172.748 125.968 175.388 123.256 167.718C120.544 160.048 124.671 152.774 124.857 152.401L126.372 151.762L134.236 148.46L138.44 146.693C138.44 146.693 145.814 142.955 149.84 149.808C152.785 154.815 153.725 160.164 151.798 163.708C151.081 165.08 149.93 166.175 148.526 166.822L140.911 169.813L139.046 170.545L133.319 172.748Z" fill="#F69A9E"/>
<path d="M136.404 160.102C135.868 160.297 135.044 159.323 134.555 157.984C134.065 156.645 134.112 155.36 134.648 155.165C135.184 154.971 136.008 155.944 136.497 157.291C136.987 158.638 136.94 159.908 136.404 160.102Z" fill="#F3736F"/>
<path d="M128.688 153.733C128.595 153.733 126.007 153.561 124.85 152.401L126.365 151.762C126.943 152.621 127.747 153.303 128.688 153.733Z" fill="#1D1B13"/>
<path d="M133.32 150.555C133.32 150.555 136.219 146.195 132.341 145.151C129.155 144.287 123.685 150.034 127.228 152.736L133.32 150.555Z" fill="#F69A9E"/>
<path d="M128.246 151.91C128.219 151.835 128.22 151.753 128.251 151.68C128.281 151.606 128.337 151.547 128.409 151.513C129.252 151.108 129.975 150.489 130.505 149.717C131.036 148.945 131.355 148.047 131.432 147.113C131.443 147.036 131.483 146.966 131.542 146.915C131.601 146.864 131.676 146.836 131.754 146.836C131.832 146.836 131.907 146.864 131.966 146.915C132.025 146.966 132.064 147.036 132.076 147.113C131.991 148.163 131.634 149.172 131.04 150.041C130.445 150.91 129.635 151.608 128.688 152.066C128.612 152.101 128.525 152.106 128.445 152.078C128.365 152.05 128.299 151.993 128.261 151.918C128.261 151.918 128.246 151.918 128.246 151.91Z" fill="#1D1B13"/>
<path d="M151.797 163.692C151.535 163.732 151.266 163.7 151.02 163.599C148.93 162.664 148.231 158.926 148.075 155.329C148.009 154.266 147.667 153.239 147.082 152.349C146.497 151.46 145.69 150.74 144.742 150.259C141.944 152.284 140.6 149.302 138.471 150.797C136.817 151.832 135.021 152.619 133.14 153.133L132.705 151.132C133.502 150.421 134.048 149.47 134.259 148.422L138.463 146.654C138.463 146.654 145.837 142.916 149.863 149.769C152.784 154.799 153.693 160.188 151.797 163.692Z" fill="#FEC566"/>
<path d="M177.977 0H5.13543C-47.4094 0 -90 52.773 -90 117.865V124.367C-90 189.46 -47.4094 242.225 5.13543 242.225H177.977C230.522 242.225 273.12 189.46 273.12 124.367V117.834C273.097 52.773 230.498 0 177.977 0ZM233.265 131.843C233.265 165.6 211.173 192.972 183.929 192.972H-0.832397C-28.0839 192.972 -50.1757 165.6 -50.1757 131.843C-50.1757 98.0938 -28.0839 70.7222 -0.832397 70.7222H183.929C211.173 70.7222 233.265 98.0938 233.265 131.843Z" fill="#28BAA9"/>
<path d="M100.675 173.839L102.152 175.902L103.706 178.036C104.747 179.453 105.788 180.863 106.814 182.257C108.935 185.044 111.096 187.77 113.318 190.355C113.878 191.002 114.437 191.64 115.004 192.263C115.571 192.886 116.131 193.509 116.698 194.109C117.848 195.308 119.029 196.445 120.164 197.519C121.266 198.533 122.426 199.482 123.637 200.362C124.607 201.08 125.649 201.696 126.746 202.199C127.106 202.352 127.477 202.477 127.857 202.573C128.026 202.611 128.197 202.637 128.37 202.651H128.432H128.478H128.416L128.292 202.713C128.019 202.844 127.759 203.001 127.515 203.181C127.426 203.237 127.343 203.302 127.266 203.375L127.08 203.531C126.957 203.645 126.845 203.77 126.746 203.905C126.699 203.967 126.746 203.975 126.746 203.951C126.788 203.907 126.824 203.857 126.854 203.804C127.146 203.32 127.405 202.818 127.631 202.301C127.919 201.67 128.206 200.953 128.486 200.214C129.061 198.726 129.59 197.099 130.118 195.479C132.208 188.891 134.05 181.813 136.14 174.945L147.019 176.58C147.019 177.086 147.019 177.545 146.98 178.028C146.941 178.511 146.98 178.971 146.926 179.446C146.879 180.388 146.817 181.33 146.755 182.272C146.615 184.152 146.436 186.028 146.219 187.902C145.784 191.663 145.209 195.417 144.4 199.233C143.996 201.148 143.522 203.064 142.932 205.065C142.629 206.062 142.295 207.074 141.89 208.141C141.465 209.336 140.946 210.494 140.336 211.606C140.158 211.925 139.956 212.268 139.722 212.626C139.489 212.984 139.225 213.405 138.891 213.787C138.504 214.277 138.078 214.736 137.617 215.157L137.174 215.546C137.011 215.679 136.832 215.819 136.653 215.944C136.226 216.256 135.774 216.532 135.301 216.769L135.107 216.87L134.959 216.933L134.811 217.003L134.501 217.135C134.299 217.228 134.081 217.306 133.871 217.384C133.452 217.548 133.024 217.688 132.589 217.812C131.726 218.053 130.845 218.222 129.955 218.319C128.302 218.491 126.633 218.428 124.997 218.132C123.577 217.876 122.187 217.477 120.848 216.94C118.573 216.023 116.415 214.836 114.421 213.405C112.648 212.155 110.961 210.786 109.371 209.309C107.816 207.892 106.394 206.436 105.042 204.956C103.69 203.476 102.4 201.958 101.157 200.432C98.7015 197.371 96.4403 194.202 94.3422 191.017C93.3061 189.408 92.2908 187.778 91.2962 186.127C90.8066 185.301 90.317 184.476 89.8508 183.627L89.1515 182.358L88.8096 181.712L88.4443 181.011L100.675 173.839Z" fill="#F69A9E"/>
<path d="M104.506 192.037H159.18C159.923 192.037 160.524 191.434 160.524 190.69V188.509C160.524 187.765 159.923 187.162 159.18 187.162H104.506C103.764 187.162 103.162 187.765 103.162 188.509V190.69C103.162 191.434 103.764 192.037 104.506 192.037Z" fill="#595A5A"/>
<path d="M118.788 192.037H158.55C159.009 192.035 159.459 191.903 159.845 191.655C160.232 191.406 160.54 191.053 160.734 190.635L171.612 166.846C171.779 166.478 171.85 166.075 171.821 165.673C171.791 165.27 171.662 164.882 171.444 164.542C171.226 164.203 170.927 163.924 170.573 163.73C170.22 163.537 169.824 163.436 169.421 163.435H129.659C129.195 163.435 128.742 163.57 128.353 163.823C127.964 164.076 127.657 164.436 127.468 164.86L116.589 188.642C116.426 189.009 116.357 189.412 116.388 189.812C116.42 190.213 116.551 190.6 116.769 190.937C116.988 191.275 117.287 191.552 117.639 191.744C117.992 191.936 118.387 192.037 118.788 192.037Z" fill="#1D1B13"/>
<path d="M142.776 177.74C142.778 178.423 142.982 179.091 143.362 179.659C143.742 180.226 144.281 180.668 144.912 180.929C145.542 181.189 146.236 181.256 146.904 181.122C147.573 180.988 148.187 180.658 148.669 180.174C149.151 179.69 149.478 179.074 149.611 178.404C149.743 177.733 149.675 177.039 149.413 176.407C149.152 175.776 148.71 175.236 148.142 174.857C147.575 174.477 146.909 174.275 146.227 174.275C145.773 174.275 145.323 174.364 144.904 174.539C144.485 174.713 144.105 174.968 143.784 175.29C143.464 175.612 143.21 175.994 143.037 176.414C142.864 176.835 142.775 177.285 142.776 177.74Z" fill="#595A5A"/>
</svg>
