<svg width="15" height="17" viewBox="0 0 15 17" fill="none" xmlns="http://www.w3.org/2000/svg">
<path d="M11.5417 5.5008C11.5417 4.30711 11.1027 3.16232 10.3213 2.31825C9.53988 1.47419 8.48007 1 7.375 1C6.26993 1 5.21012 1.47419 4.42872 2.31825C3.64732 3.16232 3.20833 4.30711 3.20833 5.5008C3.20833 10.7517 1.125 12.252 1.125 12.252H13.625C13.625 12.252 11.5417 10.7517 11.5417 5.5008Z" stroke="#1E1F1E" stroke-width="1.25" stroke-linecap="round" stroke-linejoin="round"/>
<path d="M8.57661 15.2521C8.45451 15.4795 8.27927 15.6682 8.06843 15.7994C7.85758 15.9306 7.61854 15.9996 7.37522 15.9996C7.1319 15.9996 6.89285 15.9306 6.682 15.7994C6.47116 15.6682 6.29592 15.4795 6.17383 15.2521" stroke="#1E1F1E" stroke-width="1.25" stroke-linecap="round" stroke-linejoin="round"/>
</svg>
