<svg width="274" height="402" viewBox="0 0 274 402" fill="none" xmlns="http://www.w3.org/2000/svg">
<path d="M91.7277 362.227L87.252 365.982L92.4348 374.112L96.9028 370.357L91.7277 362.227Z" fill="#F69A9E"/>
<path d="M91.9829 401.775L73.124 372.164C73.4841 371.593 73.9606 371.104 74.5227 370.729C76.9082 368.953 81.4228 367.207 84.1969 365.997C84.5232 365.857 84.8263 365.725 85.0905 365.594C85.465 365.428 85.8283 365.239 86.1783 365.027C88.2375 363.724 89.0456 365.803 89.0456 365.803C88.0122 370.667 94.586 371.233 94.3995 374.158C94.3995 374.158 94.3295 375.399 93.7079 379.1C93.0863 382.8 94.2363 387.68 94.9823 391.985C95.938 397.547 94.8968 399.96 93.7856 401.007C93.2995 401.475 92.6579 401.749 91.9829 401.775Z" fill="#1D1B13"/>
<path d="M91.9829 401.775L73.124 372.164C73.4841 371.593 73.9606 371.104 74.5227 370.729L93.7856 400.984C93.3031 401.461 92.661 401.743 91.9829 401.775Z" fill="#595A5A"/>
<path d="M75.0439 375.19L74.4844 374.306C75.4917 374.46 76.5198 374.415 77.5093 374.171C78.4989 373.927 79.4303 373.491 80.25 372.886C81.3464 372.07 82.2627 371.037 82.9418 369.852C83.621 368.666 84.0484 367.354 84.1974 365.997C84.5238 365.858 84.8268 365.726 85.091 365.594C84.9865 367.155 84.5424 368.674 83.7895 370.046C83.0366 371.418 81.9931 372.609 80.7318 373.538C79.0937 374.748 77.0765 375.334 75.0439 375.19Z" fill="#595A5A"/>
<path d="M91.6413 379.666C91.59 379.551 91.5782 379.422 91.6077 379.299C91.6372 379.176 91.7064 379.067 91.8047 378.987C91.9029 378.908 92.0246 378.863 92.151 378.859C92.2774 378.856 92.4014 378.894 92.5038 378.968L94.1434 380.519C94.2166 380.564 94.2789 380.625 94.3258 380.697C94.3727 380.769 94.4031 380.851 94.4148 380.936C94.4264 381.021 94.4189 381.108 94.393 381.19C94.3671 381.272 94.3234 381.347 94.2649 381.41C94.2065 381.473 94.1347 381.522 94.0549 381.554C93.975 381.586 93.8891 381.6 93.8032 381.595C93.7173 381.59 93.6336 381.566 93.558 381.525C93.4825 381.484 93.417 381.427 93.3663 381.357L91.7346 379.806C91.6942 379.766 91.6625 379.718 91.6413 379.666Z" fill="white"/>
<path d="M91.7268 382.203C91.6576 382.094 91.6268 381.966 91.6395 381.838C91.6522 381.71 91.7076 381.59 91.7968 381.497C91.9061 381.388 92.0542 381.327 92.2086 381.327C92.363 381.327 92.5112 381.388 92.6204 381.497L94.2522 383.048C94.3168 383.097 94.3704 383.158 94.4098 383.228C94.4491 383.298 94.4732 383.376 94.4805 383.456C94.4878 383.536 94.4782 383.617 94.4522 383.693C94.4262 383.769 94.3845 383.839 94.3298 383.898C94.275 383.957 94.2085 384.004 94.1344 384.036C94.0603 384.067 93.9804 384.083 93.8998 384.082C93.8193 384.081 93.7398 384.063 93.6666 384.029C93.5935 383.995 93.5282 383.947 93.4752 383.886L91.8356 382.335C91.7905 382.299 91.7534 382.254 91.7268 382.203Z" fill="white"/>
<path d="M91.8901 384.708C91.8195 384.6 91.7879 384.471 91.8006 384.343C91.8133 384.215 91.8696 384.094 91.96 384.002C92.0135 383.949 92.077 383.906 92.147 383.877C92.217 383.848 92.2921 383.833 92.368 383.833C92.4438 383.833 92.5189 383.848 92.5889 383.877C92.6589 383.906 92.7224 383.949 92.7759 384.002L94.4155 385.554C94.5144 385.659 94.5694 385.798 94.5694 385.942C94.5694 386.086 94.5144 386.225 94.4155 386.33C94.362 386.383 94.2985 386.426 94.2284 386.455C94.1584 386.484 94.0834 386.499 94.0075 386.499C93.9317 386.499 93.8566 386.484 93.7866 386.455C93.7166 386.426 93.653 386.383 93.5996 386.33L91.96 384.778C91.9348 384.757 91.9114 384.733 91.8901 384.708Z" fill="white"/>
<path d="M92.2166 387.331C92.1298 387.212 92.0917 387.065 92.1099 386.92C92.1282 386.775 92.2014 386.642 92.3147 386.548C92.4279 386.455 92.5726 386.409 92.7191 386.419C92.8655 386.428 93.0027 386.494 93.1024 386.601L94.742 388.153C94.8215 388.262 94.8607 388.395 94.8528 388.53C94.8449 388.664 94.7904 388.792 94.6986 388.891C94.6069 388.99 94.4835 389.054 94.3497 389.072C94.2159 389.09 94.0799 389.061 93.9649 388.991L92.3254 387.439C92.2845 387.408 92.248 387.371 92.2166 387.331Z" fill="white"/>
<path d="M92.7918 390.038C92.705 389.92 92.6669 389.773 92.6851 389.627C92.7034 389.482 92.7766 389.349 92.8899 389.256C93.0031 389.162 93.1478 389.116 93.2943 389.126C93.4407 389.136 93.5779 389.201 93.6776 389.309L95.3172 390.86C95.4144 390.966 95.4683 391.104 95.4683 391.248C95.4683 391.392 95.4144 391.53 95.3172 391.636C95.2079 391.745 95.0598 391.806 94.9054 391.806C94.7509 391.806 94.6028 391.745 94.4935 391.636L92.8617 390.084C92.8369 390.071 92.8134 390.056 92.7918 390.038Z" fill="white"/>
<path d="M145.871 309.514V309.715C145.871 309.715 145.7 310.041 145.366 310.646C137.86 324.413 129.517 337.709 120.384 350.458C118.581 352.941 116.716 355.408 114.82 357.797C113.986 358.831 113.147 359.866 112.303 360.9C109.41 364.58 105.947 367.774 102.046 370.364C101.673 370.605 101.269 370.845 100.911 371.078C100.181 371.528 99.435 371.963 98.6502 372.397L97.5157 373.018C97.5157 373.018 91.8588 367.075 89.2324 361.319L91.1517 358.216L91.9288 356.99L94.6717 352.437C99.233 344.834 105.372 334.408 107.656 329.567C109.335 326.03 111.324 322.097 113.562 318.233C113.981 317.496 114.409 316.767 114.852 316.038L115.007 315.782C117.794 310.987 121.143 306.542 124.984 302.54L116.849 254.846L116.336 251.851L134.208 245.552L135.226 245.195L139.484 243.69C139.484 243.69 139.826 245.242 140.354 247.949C140.416 248.275 140.486 248.616 140.548 248.973C142.934 261.215 148.241 291.78 145.871 309.514Z" fill="#F15E3C"/>
<path d="M102.023 370.372C101.65 370.613 101.246 370.853 100.889 371.086L93.9651 361.901L93.328 361.063L91.1289 358.154L91.9059 356.928L94.0584 359.807L94.6956 360.652L102.023 370.372Z" fill="#CF2027"/>
<path d="M145.872 309.514V309.716C145.872 309.716 145.701 310.041 145.367 310.646C142.761 310.133 140.269 309.158 138.008 307.768C137.876 307.68 137.785 307.543 137.753 307.388C137.721 307.233 137.751 307.071 137.837 306.938C137.88 306.872 137.935 306.814 138 306.769C138.065 306.724 138.138 306.693 138.215 306.676C138.293 306.659 138.373 306.658 138.45 306.673C138.528 306.687 138.602 306.717 138.668 306.76C140.883 308.104 143.324 309.037 145.872 309.514Z" fill="#CF2027"/>
<path d="M129.608 304.169C129.515 304.254 120.556 313.16 94.6412 360.652L93.9418 361.932L93.3047 361.094L94.004 359.806C118.046 315.774 127.261 305.27 128.73 303.719C126.624 295.961 120.183 256.04 119.887 254.326C119.867 254.199 119.897 254.07 119.972 253.966C120.047 253.862 120.161 253.792 120.287 253.771C120.414 253.751 120.544 253.781 120.648 253.856C120.752 253.931 120.822 254.044 120.843 254.171C120.913 254.597 127.728 296.698 129.74 303.719C129.758 303.799 129.756 303.882 129.733 303.961C129.71 304.04 129.667 304.111 129.608 304.169Z" fill="#CF2027"/>
<path d="M86.8787 232.023C86.8787 232.023 85.5344 244.769 88.4328 251.867C91.3311 258.965 128.94 255.311 138.521 248.927C142.453 246.305 134.084 222.132 134.084 222.132L86.8787 232.023Z" fill="#F15E3C"/>
<path d="M140.564 248.989C139.999 248.89 139.443 248.747 138.901 248.562C138.032 248.265 137.202 247.864 136.43 247.367C135.63 246.851 134.889 246.248 134.223 245.568C130.074 241.394 128.854 235.079 128.784 234.777C128.772 234.715 128.773 234.651 128.786 234.589C128.799 234.527 128.824 234.468 128.859 234.416C128.895 234.364 128.941 234.319 128.994 234.285C129.047 234.25 129.106 234.226 129.168 234.214C129.231 234.203 129.295 234.203 129.357 234.216C129.419 234.229 129.477 234.254 129.53 234.29C129.582 234.326 129.627 234.371 129.661 234.424C129.696 234.477 129.72 234.536 129.732 234.598C129.732 234.668 131.014 241.239 135.225 245.211C135.753 245.715 136.328 246.167 136.943 246.561C137.668 247.034 138.452 247.412 139.274 247.686C139.616 247.794 139.965 247.887 140.323 247.965C140.432 248.291 140.502 248.64 140.564 248.989Z" fill="#CF2027"/>
<path d="M117.369 252.557C117.37 252.682 117.322 252.801 117.237 252.892C117.152 252.983 117.035 253.038 116.911 253.046C116.786 253.052 116.663 253.01 116.568 252.927C116.474 252.845 116.416 252.729 116.406 252.604C116.328 250.858 116.219 249.074 116.111 247.29C116.111 246.979 116.11 246.661 116.048 246.351C115.668 240.525 115.186 234.808 114.821 230.766C114.821 230.44 114.766 230.122 114.735 229.82C114.657 228.935 114.58 228.152 114.518 227.492L115.473 227.337C115.535 228.004 115.613 228.796 115.691 229.664C115.691 229.975 115.753 230.285 115.784 230.611C116.142 234.614 116.616 240.285 116.996 246.08L117.066 247.034C117.167 248.896 117.276 250.75 117.369 252.557Z" fill="#CF2027"/>
<path d="M118.745 246.405C118.198 246.658 117.635 246.874 117.059 247.049C116.745 247.147 116.426 247.227 116.103 247.29C115.801 247.351 115.494 247.39 115.186 247.406C114.635 247.462 114.079 247.377 113.57 247.158C113.28 247.02 113.028 246.814 112.835 246.557C112.643 246.3 112.516 246.001 112.467 245.684C112.117 243.884 111.379 236.468 110.912 231.216C110.912 230.898 110.85 230.58 110.819 230.277C110.741 229.439 110.672 228.671 110.609 228.02L111.573 227.903C111.635 228.555 111.705 229.331 111.783 230.176C111.783 230.487 111.845 230.797 111.868 231.123C112.365 236.359 113.104 243.768 113.422 245.513C113.447 245.681 113.513 245.839 113.615 245.975C113.717 246.11 113.851 246.218 114.005 246.289C114.667 246.498 115.378 246.498 116.041 246.289C116.367 246.219 116.686 246.126 116.989 246.033C117.441 245.884 117.884 245.71 118.318 245.513C118.431 245.456 118.563 245.446 118.683 245.485C118.804 245.525 118.904 245.61 118.963 245.723C119 245.78 119.023 245.845 119.032 245.913C119.041 245.981 119.035 246.05 119.014 246.115C118.994 246.18 118.959 246.24 118.912 246.29C118.866 246.34 118.809 246.38 118.745 246.405Z" fill="#CF2027"/>
<path d="M102.614 379.185L103.57 386.741H113.221L113.78 378.79L102.614 379.185Z" fill="#F69A9E"/>
<path d="M114.797 248.228V377.936L114.658 379.992H100.329C100.174 379.053 99.8316 377.54 99.3732 375.593C99.2799 375.174 99.1711 374.724 99.0624 374.267C97.1974 366.331 93.996 352.809 93.4366 341.048C92.6595 324.261 92.8538 302.509 92.8538 302.509C91.2142 290.027 88.65 262.999 87.3756 249.167C87.3756 248.834 87.3135 248.515 87.2824 248.205C86.855 243.551 86.5908 240.634 86.5908 240.634C88.9219 239.672 93.0869 240.331 97.5393 241.596C97.8579 241.681 98.1843 241.774 98.5029 241.875C104.068 243.635 109.511 245.757 114.797 248.228Z" fill="#F15E3C"/>
<path d="M114.798 374.267V375.593H99.3733C99.2801 375.175 99.1713 374.725 99.0625 374.267H114.798Z" fill="#CF2027"/>
<path d="M114.798 305.418V306.659C113.029 307.061 111.218 307.249 109.405 307.218C107.253 307.207 105.105 307.039 102.979 306.713C102.901 306.7 102.827 306.672 102.76 306.63C102.694 306.588 102.636 306.534 102.59 306.47C102.545 306.406 102.513 306.333 102.495 306.256C102.478 306.18 102.476 306.1 102.489 306.023C102.501 305.945 102.529 305.87 102.571 305.803C102.612 305.736 102.667 305.678 102.731 305.633C102.796 305.587 102.869 305.555 102.946 305.538C103.023 305.521 103.103 305.52 103.181 305.534C103.251 305.542 110.267 306.682 114.798 305.418Z" fill="#CF2027"/>
<path d="M101.775 375.593H100.796C100.718 375.182 100.633 374.74 100.547 374.267C99.2727 367.549 96.9572 354.989 95.7527 346.836C94.0743 335.455 94.8592 303.89 94.898 302.617C93.6159 291.757 91.0128 254.59 91.0128 254.218C91.0042 254.089 91.0468 253.963 91.1311 253.865C91.2155 253.768 91.3349 253.708 91.4635 253.698C91.5267 253.694 91.5903 253.702 91.6504 253.722C91.7104 253.743 91.7659 253.775 91.8135 253.816C91.8612 253.858 91.9001 253.909 91.928 253.966C91.9559 254.023 91.9724 254.085 91.9763 254.148C91.9763 254.52 94.6027 291.757 95.8615 302.54C95.8653 302.563 95.8653 302.587 95.8615 302.61C95.8615 302.936 95.0145 335.192 96.7085 346.657C97.9207 354.865 100.267 367.557 101.526 374.228C101.612 374.74 101.697 375.19 101.775 375.593Z" fill="#CF2027"/>
<path d="M116.895 399.626C116.895 399.712 116.895 399.797 116.895 399.874C116.895 400.262 116.895 400.611 116.895 400.906C116.856 401.558 116.81 401.961 116.81 401.961H95.0525C94.9903 401.267 94.9903 400.569 95.0525 399.874C95.1924 397.656 95.9306 394.157 98.9377 391.838C103.048 388.665 101.455 389.324 102.302 387.881C102.396 387.718 103.134 385.259 103.219 385.088C103.926 383.591 104.571 382.877 108.472 382.877C113.639 382.877 114.09 385.383 114.642 386.702C114.999 387.702 115.287 388.726 115.504 389.766C115.636 390.317 115.768 390.899 115.893 391.496C116.211 392.993 116.507 394.553 116.709 395.802C116.88 397.069 116.942 398.348 116.895 399.626Z" fill="#1D1B13"/>
<path d="M116.896 399.626C116.896 399.712 116.896 399.797 116.896 399.875C116.896 400.263 116.896 400.612 116.896 400.906C115.857 400.189 115.067 399.167 114.635 397.982C113.29 394.32 115.357 389.929 115.451 389.743C115.583 390.294 115.715 390.876 115.839 391.473C115.35 392.97 114.782 395.484 115.567 397.609C115.842 398.378 116.298 399.07 116.896 399.626Z" fill="#595A5A"/>
<path d="M116.888 399.913C116.888 401.154 116.764 402 116.764 402H95.0066C94.9444 401.306 94.9444 400.607 95.0066 399.913H116.888Z" fill="#595A5A"/>
<path d="M109.126 389.65C109.074 389.658 109.022 389.658 108.97 389.65C107.321 389.218 105.593 389.183 103.927 389.549C103.847 389.577 103.762 389.588 103.677 389.582C103.592 389.576 103.509 389.552 103.433 389.512C103.358 389.473 103.292 389.418 103.238 389.352C103.185 389.285 103.146 389.209 103.123 389.127C103.101 389.044 103.096 388.959 103.108 388.874C103.12 388.79 103.15 388.709 103.194 388.637C103.239 388.565 103.298 388.502 103.368 388.454C103.438 388.405 103.518 388.371 103.601 388.355C105.475 387.928 107.424 387.963 109.281 388.456C109.425 388.496 109.549 388.586 109.631 388.71C109.714 388.834 109.749 388.984 109.73 389.131C109.711 389.279 109.64 389.415 109.529 389.515C109.418 389.614 109.275 389.67 109.126 389.673V389.65Z" fill="white"/>
<path d="M109.599 387.253C109.548 387.26 109.495 387.26 109.444 387.253C107.795 386.82 106.066 386.786 104.401 387.152C104.321 387.174 104.238 387.181 104.156 387.171C104.074 387.162 103.994 387.136 103.922 387.095C103.85 387.055 103.787 387.001 103.735 386.936C103.684 386.871 103.646 386.797 103.624 386.717C103.6 386.638 103.592 386.556 103.601 386.474C103.61 386.392 103.635 386.312 103.675 386.24C103.714 386.168 103.768 386.104 103.833 386.053C103.898 386.002 103.972 385.964 104.051 385.942C105.927 385.515 107.878 385.547 109.739 386.035C109.89 386.069 110.023 386.158 110.111 386.284C110.2 386.41 110.238 386.565 110.219 386.718C110.2 386.871 110.124 387.011 110.006 387.112C109.889 387.212 109.738 387.265 109.584 387.26L109.599 387.253Z" fill="white"/>
<path d="M108.193 391.613H108.038C106.388 391.181 104.66 391.146 102.995 391.512C102.84 391.543 102.68 391.514 102.546 391.431C102.412 391.349 102.314 391.218 102.273 391.067C102.231 390.915 102.249 390.753 102.323 390.614C102.396 390.475 102.52 390.369 102.668 390.317C104.542 389.891 106.49 389.923 108.349 390.41C108.499 390.444 108.632 390.533 108.721 390.659C108.809 390.786 108.848 390.94 108.828 391.093C108.809 391.247 108.733 391.387 108.616 391.487C108.498 391.587 108.348 391.641 108.193 391.636V391.613Z" fill="white"/>
<path d="M107.105 393.839H106.95C105.301 393.407 103.573 393.37 101.907 393.731C101.827 393.755 101.743 393.764 101.661 393.755C101.578 393.746 101.497 393.721 101.425 393.68C101.352 393.64 101.288 393.585 101.238 393.519C101.187 393.453 101.15 393.377 101.13 393.296C101.106 393.217 101.098 393.134 101.107 393.053C101.116 392.971 101.141 392.891 101.181 392.819C101.22 392.747 101.274 392.683 101.339 392.632C101.403 392.581 101.478 392.543 101.557 392.52C103.434 392.099 105.384 392.134 107.245 392.621C107.389 392.662 107.513 392.752 107.595 392.876C107.677 393 107.712 393.15 107.694 393.297C107.675 393.445 107.603 393.581 107.493 393.68C107.382 393.78 107.239 393.836 107.09 393.839H107.105Z" fill="white"/>
<path d="M101.168 234.777C100.645 237.261 99.7458 239.652 98.5027 241.867C97.3165 244.074 95.6129 245.961 93.5374 247.367C91.7006 248.549 89.5604 249.174 87.3755 249.167C87.3755 248.833 87.3133 248.515 87.2822 248.205C89.3134 248.226 91.3065 247.655 93.0168 246.56C94.8931 245.279 96.4421 243.576 97.5392 241.588C98.7829 239.41 99.6869 237.056 100.22 234.606C100.232 234.544 100.256 234.485 100.29 234.432C100.325 234.379 100.37 234.333 100.422 234.297C100.474 234.262 100.533 234.237 100.595 234.224C100.657 234.211 100.721 234.21 100.783 234.222C100.846 234.234 100.905 234.258 100.958 234.292C101.011 234.327 101.057 234.371 101.092 234.424C101.128 234.476 101.153 234.535 101.166 234.596C101.179 234.658 101.18 234.722 101.168 234.784V234.777Z" fill="#CF2027"/>
<path d="M139.127 230.495C138.59 230.991 138.023 231.48 137.417 231.945C137.277 232.062 137.13 232.17 136.974 232.287C135.964 233.049 134.908 233.748 133.812 234.381L133.322 234.668C128.534 237.288 123.355 239.122 117.983 240.099C116.647 240.355 115.279 240.572 113.896 240.735C112.342 240.921 110.759 241.05 109.148 241.123C107.967 241.169 106.817 241.185 105.582 241.161H104.844C97.7425 241.006 90.7515 239.379 84.314 236.383L84.0654 236.259C84.0188 236.134 83.9721 235.995 83.9255 235.855C82.6123 231.899 81.2369 222.559 80.2501 214.669L80.1802 214.126C79.745 210.643 79.4031 207.478 79.1545 205.236C79.1545 205.026 79.1078 204.825 79.0923 204.638C79.0457 204.266 79.0146 203.932 78.9835 203.638C78.8592 202.404 78.7582 201.171 78.6805 199.945C78.3422 193.901 78.3422 187.844 78.6805 181.8L78.7271 180.784C78.7271 180.683 78.7271 180.59 78.7271 180.489C78.7271 180.388 78.7271 180.109 78.7271 179.923C78.8203 178.18 78.9239 176.408 79.0379 174.609C79.0379 174.43 79.0379 174.244 79.0379 174.058L79.1311 172.545C79.1311 172.289 79.1311 172.041 79.1855 171.769C79.3332 169.442 79.4886 167.115 79.6362 164.648C80.1957 155.897 82.6045 149.769 86.7384 147.023C86.9198 146.892 87.1093 146.773 87.3056 146.666C88.3228 146.088 89.4364 145.699 90.5925 145.518L90.9733 145.455L91.5094 145.362C93.0589 145.068 94.5798 144.639 96.0551 144.082C96.1955 144.036 96.333 143.982 96.467 143.919L96.9954 143.71L97.7724 143.361L98.3863 143.058C99.5436 142.486 100.644 141.805 101.673 141.026H116.204C117.337 142.669 118.898 143.973 120.718 144.796L121.286 145.052C121.565 145.176 121.853 145.293 122.14 145.393C122.824 145.649 123.516 145.867 124.207 146.076L124.782 146.239C128.862 147.403 132.708 148.209 133.672 153.027C134.13 155.354 133.26 159.132 132.545 165.245C132.545 165.486 132.491 165.718 132.46 165.967C132.335 167.076 132.226 168.255 132.125 169.512C132.125 169.729 132.125 169.939 132.071 170.156C131.838 173.329 131.698 176.967 131.776 181.156C131.776 182.351 131.846 183.584 131.9 184.864C131.955 186.144 132.032 187.3 132.125 188.588C132.219 189.876 132.327 191.008 132.452 192.273C132.561 193.382 132.685 194.515 132.833 195.686C132.921 196.415 133.014 197.16 133.112 197.92C133.112 198.13 133.167 198.339 133.206 198.549C133.244 198.758 133.276 199.084 133.314 199.324C133.47 200.403 133.664 201.706 133.897 203.203C133.897 203.382 133.952 203.568 133.975 203.746C134.247 205.484 134.565 207.423 134.907 209.471C134.907 209.658 134.977 209.836 135.001 210.022C135.669 213.901 136.438 218.199 137.231 222.14L137.371 222.846C137.946 225.669 138.536 228.307 139.127 230.495Z" fill="#5473B8"/>
<path d="M110.089 150.824C104.292 150.824 99.8319 144.532 99.6454 144.253C99.6145 144.21 99.5926 144.161 99.581 144.109C99.5693 144.058 99.5682 144.004 99.5776 143.952C99.587 143.9 99.6068 143.851 99.6358 143.806C99.6648 143.762 99.7024 143.724 99.7464 143.694C99.7901 143.663 99.8396 143.641 99.8919 143.63C99.9442 143.618 99.9984 143.617 100.051 143.626C100.104 143.636 100.154 143.655 100.199 143.684C100.244 143.713 100.283 143.751 100.314 143.795C100.352 143.857 104.89 150.265 110.415 150.001C115.94 149.738 117.137 145.44 117.191 145.261C117.203 145.208 117.226 145.157 117.258 145.113C117.29 145.068 117.331 145.031 117.378 145.003C117.425 144.975 117.477 144.956 117.532 144.949C117.586 144.942 117.642 144.946 117.694 144.96C117.747 144.975 117.797 145.001 117.839 145.035C117.882 145.069 117.917 145.112 117.943 145.161C117.968 145.209 117.984 145.262 117.988 145.317C117.993 145.372 117.986 145.427 117.968 145.479C117.423 147.034 116.407 148.383 115.061 149.337C113.715 150.292 112.105 150.806 110.454 150.808L110.089 150.824Z" fill="#454FA2"/>
<path d="M120.011 225.669C114.572 225.669 108.612 224.118 102.341 221.069C96.966 218.394 91.9486 215.055 87.4065 211.132C87.3271 211.059 87.2801 210.957 87.2757 210.849C87.2714 210.742 87.31 210.637 87.3831 210.558C87.4563 210.478 87.558 210.431 87.6659 210.427C87.7737 210.423 87.8789 210.461 87.9582 210.534C92.4477 214.411 97.4079 217.708 102.722 220.348C110.492 224.165 121.93 227.516 131.97 221.814C132.016 221.788 132.067 221.771 132.12 221.765C132.173 221.759 132.227 221.763 132.278 221.777C132.329 221.792 132.377 221.816 132.419 221.849C132.461 221.882 132.496 221.923 132.522 221.969C132.548 222.015 132.564 222.066 132.571 222.119C132.577 222.172 132.573 222.225 132.558 222.277C132.544 222.328 132.519 222.376 132.486 222.417C132.453 222.459 132.413 222.494 132.366 222.52C128.596 224.634 124.335 225.72 120.011 225.669Z" fill="#454FA2"/>
<path d="M121.209 221.092C112.7 220.953 105.761 209.634 105.466 209.153C105.438 209.108 105.419 209.057 105.411 209.004C105.403 208.951 105.405 208.897 105.418 208.845C105.431 208.793 105.455 208.744 105.487 208.701C105.519 208.658 105.559 208.622 105.606 208.595C105.651 208.567 105.701 208.549 105.754 208.54C105.806 208.532 105.86 208.535 105.911 208.548C105.963 208.561 106.011 208.584 106.053 208.616C106.095 208.648 106.131 208.688 106.157 208.734C106.227 208.851 113.151 220.154 121.224 220.278C121.277 220.279 121.33 220.29 121.378 220.311C121.427 220.333 121.471 220.363 121.508 220.401C121.544 220.44 121.573 220.485 121.593 220.534C121.612 220.583 121.621 220.636 121.62 220.689C121.62 220.743 121.61 220.796 121.589 220.845C121.568 220.895 121.538 220.939 121.499 220.977C121.461 221.015 121.416 221.044 121.366 221.064C121.316 221.084 121.262 221.093 121.209 221.092Z" fill="#454FA2"/>
<path d="M133.198 198.541C132.027 198.057 130.937 197.398 129.966 196.586C127.635 194.608 126.912 192.249 127.852 189.945C128.046 189.488 128.217 189.061 128.38 188.665C130.315 184.011 130.517 183.53 128.862 176.889C128.582 176.009 128.502 175.077 128.628 174.161C128.755 173.246 129.084 172.37 129.593 171.599C130.255 170.705 131.128 169.988 132.134 169.512C132.134 169.729 132.134 169.938 132.079 170.156C131.274 170.582 130.576 171.184 130.036 171.917C129.575 172.627 129.278 173.43 129.167 174.268C129.055 175.107 129.132 175.96 129.391 176.765C131.092 183.576 130.844 184.181 128.886 188.883L128.365 190.155C127.215 192.955 129.142 195.127 130.331 196.182C131.174 196.89 132.113 197.475 133.12 197.92C133.144 198.122 133.167 198.331 133.198 198.541Z" fill="#454FA2"/>
<path d="M89.0465 202.784C88.3645 203.78 87.4409 204.587 86.362 205.129C85.2831 205.672 84.084 205.933 82.8768 205.887C81.594 205.873 80.3237 205.634 79.1237 205.182C79.1237 204.972 79.077 204.77 79.0615 204.584C83.5528 206.299 87.0184 204.887 88.588 202.459C89.3298 201.428 89.6341 200.146 89.4348 198.893C89.2354 197.639 88.5486 196.515 87.5235 195.764C84.6174 193.592 85.3788 191.807 86.1947 189.93C87.0106 188.053 87.8265 186.16 85.8373 183.29C85.3681 182.53 84.7484 181.874 84.0161 181.361C83.2839 180.849 82.4546 180.492 81.5791 180.311C80.6174 180.15 79.6328 180.193 78.6885 180.435C78.6885 180.249 78.6885 180.055 78.6885 179.868C79.6541 179.641 80.6555 179.61 81.6335 179.775C82.5908 179.965 83.4984 180.35 84.2994 180.907C85.1004 181.464 85.7774 182.18 86.288 183.01C88.4482 186.113 87.4769 188.371 86.6998 190.171C85.9228 191.97 85.2856 193.444 87.8498 195.368C88.9682 196.212 89.7169 197.455 89.9399 198.836C90.1628 200.218 89.8427 201.633 89.0465 202.784Z" fill="#454FA2"/>
<path d="M110.197 191.427C106.04 188.813 106.584 185.997 107.221 182.778C107.827 179.675 108.511 176.168 105.287 172.188L105.084 171.948C104.492 171.233 103.684 170.73 102.781 170.513C101.878 170.297 100.928 170.379 100.076 170.747C99.2235 171.115 98.5138 171.75 98.0536 172.555C97.5933 173.361 97.4075 174.294 97.5239 175.214C97.9435 178.488 97.1975 182.762 95.3792 187.587C94.7642 189.096 94.5242 190.73 94.6799 192.352C94.8355 193.973 95.382 195.532 96.2728 196.896C98.6039 200.566 103.266 203.157 106.973 203.878C107.416 203.968 107.865 204.03 108.317 204.064C109.674 204.171 111.029 203.829 112.174 203.092C113.318 202.355 114.188 201.263 114.65 199.984C115.644 197.013 113.974 193.801 110.197 191.427ZM114.129 199.852C113.711 201.019 112.918 202.015 111.874 202.686C110.83 203.356 109.593 203.664 108.356 203.56C104.642 203.273 99.2722 200.597 96.7002 196.578C95.85 195.285 95.3291 193.804 95.1828 192.264C95.0366 190.724 95.2694 189.172 95.861 187.742C96.6337 185.745 97.2417 183.687 97.6792 181.591C98.1435 179.467 98.2668 177.283 98.0445 175.121C97.9336 174.321 98.0906 173.507 98.4911 172.805C98.8916 172.104 99.5132 171.554 100.259 171.242C100.962 170.934 101.742 170.845 102.497 170.986C103.343 171.16 104.104 171.62 104.649 172.289L104.844 172.522C107.952 176.3 107.276 179.504 106.67 182.661C106.025 185.95 105.411 189.069 109.887 191.877C113.484 194.119 115.038 197.098 114.129 199.852Z" fill="#454FA2"/>
<path d="M125.839 166.696C122.451 166.005 119.569 163.554 119.258 161.824C119.199 161.614 119.211 161.391 119.292 161.189C119.374 160.987 119.52 160.817 119.708 160.707C123.291 158.481 124.371 155.626 123.71 149.8C123.613 149.19 123.649 148.567 123.815 147.973C123.982 147.378 124.274 146.827 124.674 146.355C124.706 146.311 124.742 146.269 124.783 146.231L124.208 146.068C123.778 146.593 123.464 147.202 123.284 147.855C123.105 148.508 123.065 149.192 123.166 149.862C123.772 155.432 122.786 158.155 119.429 160.242C119.149 160.411 118.93 160.664 118.804 160.965C118.677 161.266 118.648 161.599 118.722 161.917C119.071 163.826 122.032 166.479 125.715 167.223C126.342 167.351 126.979 167.416 127.619 167.417C129.338 167.427 131.019 166.918 132.444 165.959C132.444 165.711 132.499 165.478 132.53 165.237C131.583 165.942 130.496 166.437 129.342 166.688C128.189 166.94 126.994 166.943 125.839 166.696Z" fill="#454FA2"/>
<path d="M110.99 158.357C110.38 157.568 109.577 156.948 108.659 156.557C107.741 156.166 106.738 156.016 105.745 156.122C105.019 156.152 104.323 156.414 103.757 156.87C103.192 157.325 102.788 157.95 102.606 158.651C102.101 160.568 103.383 161.343 104.688 162.104C106.134 162.965 107.633 163.849 107.486 166.401C107.338 168.953 108.371 170.652 110.244 171.226C110.602 171.333 110.974 171.388 111.348 171.389C111.858 171.41 112.365 171.299 112.82 171.066C113.274 170.834 113.661 170.488 113.943 170.063C115.924 166.704 113.189 161.095 110.99 158.357ZM113.484 169.799C113.138 170.27 112.646 170.615 112.085 170.781C111.524 170.948 110.924 170.927 110.376 170.722C108.76 170.226 107.874 168.628 107.998 166.448C108.169 163.57 106.382 162.507 104.945 161.654C103.647 160.878 102.707 160.327 103.103 158.807C103.256 158.201 103.605 157.663 104.095 157.274C104.585 156.886 105.189 156.669 105.815 156.658C106.001 156.658 106.188 156.658 106.374 156.658C107.185 156.667 107.983 156.857 108.71 157.214C109.438 157.572 110.076 158.086 110.578 158.721C112.707 161.32 115.318 166.657 113.484 169.799Z" fill="#454FA2"/>
<path d="M124.153 180.109C123.666 178.712 122.719 177.522 121.468 176.73C120.217 175.939 118.734 175.593 117.261 175.749C115.489 175.958 114.425 176.827 114.153 178.262C113.819 180.264 115.388 181.366 116.911 182.39C118.691 183.615 120.377 184.771 119.289 187.378C118.349 189.627 118.419 191.342 119.468 192.079C119.836 192.328 120.274 192.456 120.719 192.443C122.139 192.311 123.465 191.675 124.456 190.651C124.884 190.184 125.209 189.633 125.411 189.033C125.613 188.433 125.687 187.798 125.63 187.168C125.51 184.753 125.011 182.371 124.153 180.109ZM124.153 190.256C122.545 191.722 120.773 192.288 119.841 191.637C118.908 190.985 119.017 189.581 119.841 187.587C121.1 184.577 119.064 183.181 117.269 181.947C115.823 180.954 114.464 180.016 114.743 178.348C114.945 177.145 115.792 176.47 117.346 176.284C117.568 176.254 117.791 176.238 118.015 176.238C119.248 176.245 120.448 176.636 121.449 177.355C122.472 178.085 123.246 179.111 123.664 180.295C125.435 185.368 125.606 188.906 124.122 190.256H124.153Z" fill="#454FA2"/>
<path d="M134.907 209.464C132.335 209.169 131.721 210.713 131.022 212.466C130.385 214.017 129.67 215.802 127.401 216.864C124.634 218.16 121.658 216.818 120.151 214.824C119.024 213.335 118.426 211.054 120.112 209.122C120.45 208.805 120.72 208.423 120.907 207.999C121.094 207.575 121.194 207.118 121.2 206.655C121.122 205.569 120.197 204.793 119.312 204.041C118.154 203.071 117.058 202.148 117.423 200.589C117.559 199.973 117.863 199.407 118.303 198.953C118.742 198.5 119.298 198.177 119.91 198.021C120.38 197.889 120.867 197.824 121.355 197.827C123.723 197.96 125.948 198.996 127.572 200.721C129.274 202.479 131.563 203.553 134.006 203.738C134.006 203.56 133.951 203.374 133.92 203.195C131.65 202.987 129.531 201.975 127.945 200.341C125.489 197.897 122.28 196.78 119.786 197.501C119.078 197.678 118.434 198.051 117.928 198.576C117.422 199.102 117.075 199.759 116.926 200.472C116.483 202.35 117.812 203.467 118.985 204.46C119.825 205.166 120.625 205.841 120.687 206.694C120.668 207.087 120.571 207.473 120.402 207.829C120.232 208.184 119.994 208.503 119.7 208.765C118.146 210.588 118.146 213.032 119.7 215.142C120.337 215.986 121.158 216.674 122.1 217.155C123.042 217.636 124.081 217.897 125.139 217.919C126.01 217.917 126.869 217.723 127.657 217.353C130.12 216.197 130.905 214.25 131.542 212.698C132.249 210.938 132.739 209.727 135.031 210.045L134.907 209.464Z" fill="#454FA2"/>
<path d="M103.228 207.439C103.228 207.323 102.87 204.693 101.044 203.475C100.54 203.159 99.9708 202.96 99.3794 202.891C98.7879 202.823 98.1886 202.887 97.6251 203.079C94.952 203.808 93.5767 203.141 91.9837 202.365C90.7777 201.707 89.4608 201.276 88.0985 201.093C87.6333 201.034 87.1607 201.067 86.7084 201.191C86.2561 201.315 85.833 201.528 85.4637 201.816C85.0943 202.105 84.786 202.464 84.5567 202.873C84.3274 203.281 84.1816 203.731 84.1278 204.196C84.0331 204.726 84.0447 205.269 84.1618 205.794C84.2789 206.319 84.4992 206.816 84.81 207.255C85.1208 207.695 85.5159 208.068 85.9723 208.354C86.4288 208.64 86.9376 208.833 87.4691 208.921C89.3311 209.316 91.2707 209.112 93.0094 208.339C94.4237 207.827 95.4416 207.454 96.747 208.424C97.8584 209.302 99.2167 209.812 100.632 209.883C101.129 209.894 101.622 209.787 102.07 209.572C102.45 209.375 102.763 209.07 102.972 208.697C103.181 208.323 103.275 207.897 103.243 207.47L103.228 207.439ZM101.829 209.076C100.687 209.658 98.7207 209.2 97.0811 207.974C96.5198 207.527 95.8255 207.279 95.1074 207.268C94.3223 207.319 93.5521 207.506 92.8307 207.819C91.1898 208.56 89.3541 208.756 87.5934 208.378C87.1296 208.303 86.6853 208.136 86.2865 207.888C85.8877 207.64 85.5423 207.315 85.2704 206.933C84.9985 206.55 84.8055 206.117 84.7027 205.659C84.6 205.202 84.5894 204.728 84.6717 204.266C84.7179 203.871 84.842 203.489 85.0367 203.141C85.2315 202.794 85.4932 202.489 85.8066 202.243C86.1201 201.997 86.4791 201.815 86.8631 201.709C87.2471 201.602 87.6485 201.572 88.0441 201.621C89.338 201.809 90.5864 202.232 91.7273 202.87C93.3513 203.645 94.8821 204.421 97.7494 203.645C98.2386 203.478 98.7586 203.42 99.2728 203.475C99.787 203.53 100.283 203.696 100.725 203.964C102.28 205.003 102.645 207.33 102.676 207.532C102.694 207.843 102.624 208.152 102.474 208.425C102.324 208.698 102.101 208.924 101.829 209.076Z" fill="#454FA2"/>
<path d="M86.2872 222.845C87.4062 221.728 88.7971 220.347 87.9734 217.57C87.8072 216.934 87.508 216.341 87.0955 215.829C86.683 215.317 86.1666 214.897 85.5801 214.599C83.8629 213.707 81.6949 213.823 80.1797 214.103L80.2496 214.646C80.9394 214.521 81.6388 214.456 82.3398 214.452C83.3729 214.42 84.3986 214.636 85.3315 215.08C85.8519 215.347 86.3099 215.72 86.6755 216.176C87.0411 216.632 87.306 217.16 87.4528 217.725C88.1832 220.192 87.0254 221.34 85.8987 222.457C84.772 223.575 83.5287 224.785 85.8133 227.259C88.0978 229.734 88.0278 232.86 86.6913 234.559C86.3686 234.98 85.948 235.316 85.4659 235.537C84.9839 235.759 84.455 235.86 83.925 235.832C83.9717 235.971 84.0183 236.111 84.0649 236.235L84.3136 236.359C84.8593 236.331 85.3925 236.185 85.8767 235.932C86.3609 235.679 86.7846 235.325 87.1187 234.893C88.5951 233.016 88.6728 229.509 86.2096 226.887C84.2514 224.831 85.044 224.04 86.2872 222.845Z" fill="#454FA2"/>
<path d="M131.357 230.797C129.997 229.944 128.248 229.851 126.166 230.533C124.232 231.114 122.574 232.376 121.504 234.086C120.276 235.801 119.53 236.833 114.464 234.862C109.024 232.737 105.139 233.939 103.857 235.956C102.901 237.461 103.251 239.362 104.766 241.169H105.504C103.88 239.439 103.437 237.624 104.316 236.228C105.038 235.095 106.647 234.257 109.063 234.257C110.852 234.296 112.617 234.667 114.269 235.351C119.476 237.376 120.486 236.359 121.947 234.381C122.94 232.772 124.487 231.581 126.298 231.03C128.217 230.402 129.81 230.471 131.03 231.239C132.173 232.071 132.963 233.3 133.245 234.684L133.734 234.397C133.41 232.947 132.564 231.666 131.357 230.797Z" fill="#454FA2"/>
<path d="M100.616 229.486C98.868 228.765 99.0001 228.268 99.2876 227.159C99.6871 225.892 99.6598 224.53 99.2099 223.28C99.0681 222.823 98.8286 222.403 98.5079 222.048C98.1872 221.693 97.7931 221.412 97.3527 221.224C95.2625 220.371 92.4729 221.698 92.3564 221.76H92.3097C89.9087 223.528 90.235 226.414 90.9499 229.238C91.8668 232.915 94.1979 235.064 97.5004 235.281H97.7801C98.7609 235.272 99.7148 234.96 100.511 234.388C101.307 233.815 101.905 233.011 102.225 232.085C102.497 230.983 101.906 230.021 100.616 229.486ZM101.696 232.007C101.378 233.388 99.4818 234.901 97.5392 234.769C93.654 234.505 92.0999 231.557 91.4705 229.129C90.5691 225.514 90.8955 223.513 92.6128 222.233C92.8692 222.109 95.3635 220.999 97.1429 221.729C97.5141 221.884 97.846 222.12 98.1147 222.419C98.3835 222.718 98.5823 223.073 98.697 223.459C99.1163 224.608 99.1381 225.864 98.7592 227.027C98.4328 228.307 98.3318 229.129 100.407 229.99C101.463 230.417 101.906 231.115 101.696 232.007Z" fill="#454FA2"/>
<path d="M137.332 231.906C136.743 231.506 136.25 230.979 135.89 230.364C135.53 229.75 135.311 229.063 135.25 228.353C135.118 226.282 136.361 224.18 137.371 222.838L137.231 222.132C136.136 223.489 134.551 225.918 134.714 228.385C134.776 229.155 135.008 229.903 135.394 230.573C135.779 231.244 136.309 231.821 136.944 232.263C137.092 232.147 137.247 232.038 137.387 231.922L137.332 231.906Z" fill="#454FA2"/>
<path d="M103.383 128.063C100.202 125.434 98.1404 121.696 97.6175 117.606C96.9026 110.934 101.705 108.537 101.705 108.537C101.705 108.537 99.1405 101.982 107.921 102.222C116.702 102.463 122.25 98.7081 126.492 99.3442C130.735 99.9803 126.741 109.98 121.449 109.538C116.158 109.096 101.736 116.907 103.383 128.063Z" fill="#FEC566"/>
<path d="M116.787 138.768V142.539C116.364 142.882 115.917 143.195 115.451 143.477C108.892 147.41 101.821 142.539 101.821 142.539V129.467L115.031 137.659L116.787 138.768Z" fill="#F69A9E"/>
<path d="M116.787 138.768V142.539C116.364 142.881 115.917 143.195 115.451 143.477C109.872 141.266 105.808 135.425 105.808 135.425L115.039 137.659L116.787 138.768Z" fill="#1D1B13"/>
<path d="M117.58 108.079C117.58 108.079 126.702 108.932 123.407 118.467C123.407 118.467 117.37 110.554 117.58 108.079Z" fill="#FEC566"/>
<path d="M121.504 122.066C121.504 122.066 123.649 119.537 124.861 122.066C126.073 124.595 125.14 129.715 121.877 128.878L121.504 122.066Z" fill="#F3736F"/>
<path d="M123.796 130.933C123.796 130.933 123.796 138.729 115.684 138.691C107.572 138.652 102.117 132.345 101.829 132.05L101.744 130.413L101.285 121.88L101.037 117.342C101.037 117.342 100.003 109.157 107.797 107.66C113.485 106.574 118.823 107.513 121.512 110.484C122.547 111.616 123.175 113.06 123.299 114.588L123.548 122.749L123.61 124.75L123.796 130.933Z" fill="#F69A9E"/>
<path d="M112.948 123.796C112.948 124.362 111.783 124.828 110.337 124.828C108.892 124.828 107.719 124.362 107.719 123.796C107.719 123.23 108.892 122.772 110.337 122.772C111.783 122.772 112.948 123.23 112.948 123.796Z" fill="#F3736F"/>
<path d="M123.586 124.797C123.384 124.797 123.174 124.797 122.957 124.797C121.519 124.797 120.346 124.332 120.346 123.765C120.346 123.199 121.519 122.741 122.957 122.741C123.151 122.741 123.345 122.741 123.524 122.741L123.586 124.797Z" fill="#F3736F"/>
<path d="M112.863 118.351C112.863 119.126 112.513 119.755 112.086 119.755C111.658 119.755 111.309 119.126 111.309 118.351C111.309 117.575 111.658 116.939 112.086 116.939C112.513 116.939 112.863 117.536 112.863 118.351Z" fill="#1D1B13"/>
<path d="M120.586 118.351C120.586 119.126 120.237 119.755 119.809 119.755C119.382 119.755 119.032 119.126 119.032 118.351C119.032 117.575 119.382 116.939 119.809 116.939C120.237 116.939 120.586 117.536 120.586 118.351Z" fill="#1D1B13"/>
<path d="M116.593 124.595C116.508 124.595 116.427 124.562 116.367 124.502C116.308 124.443 116.274 124.362 116.274 124.277C116.274 124.193 116.308 124.112 116.367 124.052C116.427 123.993 116.508 123.959 116.593 123.959C116.962 123.982 117.331 123.913 117.666 123.757C118.001 123.601 118.292 123.364 118.512 123.067C117.23 120.43 115.955 117.769 115.948 117.745C115.929 117.708 115.918 117.667 115.916 117.625C115.913 117.583 115.919 117.541 115.932 117.501C115.946 117.462 115.968 117.425 115.996 117.394C116.024 117.363 116.057 117.337 116.095 117.319C116.133 117.299 116.174 117.287 116.216 117.284C116.258 117.281 116.301 117.287 116.341 117.3C116.381 117.314 116.418 117.336 116.449 117.365C116.48 117.393 116.505 117.428 116.523 117.466C116.523 117.466 117.859 120.251 119.165 122.897C119.186 122.94 119.197 122.988 119.197 123.036C119.197 123.085 119.186 123.132 119.165 123.176C118.915 123.632 118.541 124.007 118.085 124.259C117.63 124.51 117.112 124.627 116.593 124.595Z" fill="#1D1B13"/>
<path d="M108.955 117.093C109.134 116.271 109.825 114.727 112.46 114.611C112.617 114.605 112.771 114.653 112.898 114.746C113.025 114.839 113.117 114.972 113.159 115.123C113.184 115.215 113.19 115.312 113.176 115.407C113.162 115.501 113.128 115.592 113.077 115.673C113.026 115.754 112.958 115.824 112.879 115.877C112.799 115.931 112.709 115.967 112.615 115.984C112.123 116.052 111.655 116.237 111.249 116.524C110.844 116.81 110.513 117.189 110.284 117.629C110.239 117.711 110.177 117.784 110.103 117.841C110.029 117.899 109.944 117.942 109.853 117.965C109.762 117.989 109.668 117.995 109.575 117.981C109.482 117.967 109.392 117.934 109.313 117.885L109.227 117.838C109.111 117.756 109.024 117.641 108.975 117.508C108.926 117.375 108.919 117.231 108.955 117.093Z" fill="#FEC566"/>
<path d="M122.459 117.093C122.28 116.271 121.596 114.727 118.962 114.611C118.805 114.605 118.65 114.653 118.523 114.746C118.396 114.839 118.305 114.972 118.263 115.123C118.237 115.215 118.232 115.312 118.246 115.407C118.26 115.501 118.294 115.592 118.345 115.673C118.396 115.754 118.463 115.824 118.543 115.877C118.622 115.931 118.712 115.967 118.807 115.984C119.292 116.058 119.752 116.246 120.151 116.532C120.549 116.818 120.874 117.193 121.099 117.629C121.144 117.711 121.205 117.784 121.279 117.841C121.353 117.899 121.438 117.942 121.529 117.965C121.62 117.989 121.715 117.995 121.808 117.981C121.901 117.967 121.99 117.934 122.07 117.885L122.156 117.838C122.279 117.762 122.374 117.649 122.429 117.515C122.483 117.381 122.494 117.234 122.459 117.093Z" fill="#FEC566"/>
<path d="M104.37 128.916C104.37 129.002 103.305 131.383 101.829 132.074L101.743 130.437C102.743 130.182 103.652 129.656 104.37 128.916Z" fill="#1D1B13"/>
<path d="M102.94 123.501C102.94 123.501 99.8323 119.312 97.5011 122.602C95.6207 125.317 99.1795 132.376 102.94 129.956V123.501Z" fill="#F69A9E"/>
<path d="M102.512 128.699C102.434 128.696 102.359 128.666 102.301 128.613C102.242 128.561 102.204 128.49 102.193 128.412C102.098 127.484 101.76 126.597 101.215 125.839C100.67 125.081 99.9357 124.478 99.0853 124.091C99.0072 124.06 98.9446 123.999 98.9111 123.922C98.8776 123.845 98.876 123.758 98.9066 123.68C98.9394 123.601 99.0016 123.539 99.08 123.505C99.1584 123.472 99.2468 123.471 99.3262 123.501C100.285 123.93 101.115 124.603 101.731 125.452C102.348 126.302 102.73 127.299 102.838 128.342C102.844 128.384 102.841 128.426 102.83 128.467C102.819 128.508 102.799 128.546 102.773 128.579C102.747 128.612 102.715 128.64 102.678 128.661C102.641 128.681 102.601 128.694 102.559 128.699H102.512Z" fill="#1D1B13"/>
<path d="M99.4982 126.752C99.432 126.752 99.3672 126.732 99.3129 126.694C99.2586 126.656 99.2175 126.603 99.1952 126.54C99.173 126.478 99.1708 126.41 99.1889 126.347C99.207 126.283 99.2445 126.227 99.2962 126.185C99.4205 126.085 100.571 125.177 101.534 125.41C101.575 125.42 101.614 125.438 101.648 125.463C101.681 125.487 101.71 125.519 101.732 125.555C101.753 125.591 101.768 125.631 101.774 125.673C101.78 125.714 101.778 125.757 101.767 125.797C101.745 125.879 101.692 125.949 101.62 125.992C101.548 126.036 101.461 126.049 101.379 126.03C100.827 125.883 99.9567 126.457 99.7003 126.666C99.6445 126.717 99.5733 126.747 99.4982 126.752Z" fill="#1D1B13"/>
<path d="M121.504 110.554C121.455 110.815 121.334 111.057 121.154 111.252C119.6 112.904 115.847 112.315 112.389 111.252C111.369 110.955 110.288 110.931 109.256 111.183C108.223 111.434 107.275 111.953 106.507 112.687C107.471 115.992 104.215 116.256 104.906 118.761C105.331 120.665 105.475 122.619 105.334 124.564L103.306 124.3C102.894 123.33 102.184 122.515 101.278 121.973L101.052 117.381C101.052 117.381 100.019 109.204 107.813 107.707C113.485 106.621 118.815 107.559 121.504 110.554Z" fill="#FEC566"/>
<path d="M73.4047 197.703C73.3375 197.704 73.2712 197.688 73.2125 197.655C73.1538 197.622 73.1048 197.575 73.0706 197.517C73.0422 197.473 73.0229 197.424 73.0138 197.373C73.0047 197.322 73.006 197.27 73.0176 197.219C73.0292 197.168 73.0509 197.121 73.0813 197.079C73.1118 197.036 73.1504 197.001 73.1949 196.974C75.1214 195.903 77.1623 195.053 79.2791 194.437C79.3286 194.422 79.3807 194.416 79.4323 194.421C79.4839 194.426 79.534 194.441 79.5796 194.466C79.6252 194.491 79.6654 194.524 79.6979 194.564C79.7304 194.605 79.7544 194.651 79.7687 194.701C79.7977 194.803 79.7854 194.912 79.7345 195.005C79.6836 195.098 79.5982 195.167 79.4967 195.197C77.4521 195.794 75.4795 196.613 73.6145 197.641C73.5526 197.683 73.4793 197.704 73.4047 197.703Z" fill="#F3736F"/>
<path d="M78.9839 195.213C78.9072 195.211 78.8322 195.19 78.7663 195.151C77.2122 194.166 74.5237 194.375 74.4926 194.375C74.3999 194.367 74.3131 194.327 74.2473 194.261C74.1814 194.196 74.1408 194.109 74.1325 194.016C74.1241 193.924 74.1486 193.832 74.2017 193.755C74.2547 193.679 74.3329 193.624 74.4226 193.599C74.5469 193.599 77.4376 193.336 79.1937 194.468C79.2819 194.524 79.3445 194.613 79.3678 194.714C79.3911 194.816 79.3732 194.923 79.318 195.011C79.2839 195.07 79.2354 195.12 79.177 195.155C79.1185 195.19 79.0521 195.21 78.9839 195.213Z" fill="#F3736F"/>
<path d="M97.019 143.702L96.4906 143.912C96.9887 144.502 97.355 145.191 97.5654 145.933C97.7758 146.676 97.8253 147.454 97.7106 148.217C97.2366 151.545 95.1541 157.131 91.5797 157.914C91.0061 157.985 90.425 157.868 89.9244 157.579C89.4239 157.291 89.0311 156.848 88.8056 156.316C88.0286 154.765 88.6114 153.058 90.2898 151.662C92.5044 149.815 92.0537 147.783 91.6963 146.154C91.6341 145.875 91.5719 145.611 91.5331 145.378L90.9969 145.471C91.0435 145.743 91.1057 146.014 91.1679 146.247C91.5331 147.892 91.9449 149.59 89.9479 151.227C87.9509 152.864 87.4536 154.78 88.3161 156.533C88.4809 156.871 88.6957 157.183 88.9533 157.457C89.2872 157.842 89.7156 158.133 90.1964 158.303C90.6773 158.473 91.1941 158.516 91.6963 158.426C95.5426 157.581 97.7572 151.755 98.2467 148.272C98.3692 147.467 98.3233 146.645 98.112 145.859C97.9007 145.072 97.5286 144.338 97.019 143.702Z" fill="#454FA2"/>
<path d="M85.0999 170.458C85.0284 170.382 84.961 170.301 84.8979 170.218C84.3056 169.502 83.4964 168.998 82.5922 168.782C81.6881 168.565 80.7379 168.648 79.8849 169.017C79.0319 169.387 78.3221 170.023 77.8626 170.83C77.4031 171.637 77.2188 172.571 77.3373 173.492C77.5114 175.09 77.4749 176.705 77.2285 178.294L77.7569 178.503C78.0253 176.822 78.0645 175.113 77.8734 173.422C77.7658 172.621 77.9251 171.808 78.3267 171.107C78.7284 170.406 79.3501 169.856 80.0958 169.543C80.8389 169.206 81.6734 169.126 82.4672 169.315C83.261 169.505 83.9687 169.954 84.4783 170.59L84.6726 170.823C87.7807 174.609 87.1125 177.805 86.5064 180.962C86.4365 181.288 86.3743 181.614 86.3199 181.932L86.8328 182.134C86.8949 181.784 86.9649 181.428 87.0348 181.071C87.6409 177.952 88.3246 174.438 85.0999 170.458Z" fill="#454FA2"/>
<path d="M83.9568 156.324C83.7382 155.722 83.4623 155.143 83.1332 154.594C82.3336 153.286 81.199 152.215 79.8463 151.491L79.4344 151.894C81.3222 152.871 82.7588 154.539 83.444 156.549C84.6174 159.799 84.0035 163.531 82.667 164.694C82.5168 164.854 82.3181 164.959 82.1016 164.994C81.8852 165.029 81.6633 164.992 81.4703 164.888C78.0902 163.174 75.3317 163.476 71.4154 166.145C71.2444 166.494 71.0812 166.828 70.9336 167.146C75.0908 164.112 77.8415 163.655 81.2294 165.369C81.5194 165.517 81.8487 165.571 82.1707 165.522C82.4928 165.474 82.7914 165.325 83.0244 165.098C84.4852 163.787 85.2157 159.884 83.9568 156.324Z" fill="#454FA2"/>
<path d="M161.832 194.46C160.224 197.09 158.623 199.689 157.007 202.179C155.903 203.87 154.816 205.53 153.72 207.02C153.184 207.796 152.648 208.478 152.166 209.091C152.166 209.146 152.088 209.184 152.049 209.231C151.817 208.985 151.599 208.726 151.397 208.455C150.542 207.291 149.798 206.049 149.174 204.747C148.397 203.234 147.713 201.504 147.022 199.689C146.33 197.874 145.709 195.934 145.095 193.956C144.792 192.963 144.496 191.955 144.209 190.938C143.921 189.922 143.642 188.898 143.37 187.835C142.282 183.685 141.303 179.395 140.378 175.059C139.92 172.886 139.485 170.707 139.057 168.519L138.428 165.237L137.845 162.072L123.819 164.756L123.897 165.757L123.975 166.696L124.146 168.55C124.254 169.783 124.402 171.001 124.542 172.219C124.832 174.655 125.161 177.083 125.529 179.504C126.306 184.344 127.192 189.17 128.318 194.003C128.886 196.423 129.507 198.836 130.214 201.256C130.922 203.676 131.691 206.097 132.592 208.533C133.491 211.027 134.528 213.469 135.7 215.848C136.986 218.447 138.549 220.9 140.363 223.164C141.376 224.415 142.514 225.561 143.758 226.585C145.116 227.696 146.646 228.579 148.288 229.199C149.137 229.515 150.018 229.738 150.915 229.866C151.363 229.934 151.814 229.976 152.267 229.99C152.492 229.99 152.718 229.99 152.943 229.99H153.603H153.821C154.348 229.933 154.869 229.824 155.375 229.664C155.593 229.595 155.802 229.517 156.004 229.439C156.206 229.362 156.393 229.277 156.556 229.191C157.153 228.905 157.723 228.565 158.258 228.175C158.678 227.873 159.081 227.547 159.462 227.198C159.812 226.887 160.131 226.577 160.418 226.282C161.423 225.236 162.348 224.116 163.184 222.931C163.961 221.86 164.653 220.813 165.306 219.773C166.596 217.679 167.761 215.623 168.849 213.567C171.032 209.417 172.975 205.228 174.786 200.969C175.687 198.843 176.565 196.695 177.396 194.53C177.392 194.512 177.392 194.494 177.396 194.476L161.832 194.46ZM150.697 210.627C150.697 210.627 150.697 210.627 150.736 210.581C150.784 210.539 150.836 210.502 150.892 210.472C150.837 210.535 150.771 210.588 150.697 210.627Z" fill="#F69A9E"/>
<path d="M149.174 207.323C149.069 207.323 148.968 207.284 148.89 207.214C148.812 207.144 148.764 207.047 148.754 206.942C148.645 204.216 148.822 201.486 149.282 198.797C149.305 198.688 149.368 198.593 149.459 198.529C149.55 198.466 149.662 198.439 149.772 198.456C149.883 198.475 149.982 198.537 150.048 198.628C150.113 198.72 150.14 198.833 150.122 198.944C149.675 201.557 149.498 204.208 149.593 206.857C149.6 206.912 149.595 206.968 149.58 207.021C149.565 207.075 149.539 207.124 149.504 207.168C149.469 207.211 149.427 207.247 149.378 207.273C149.329 207.3 149.276 207.317 149.22 207.323H149.174Z" fill="#F3736F"/>
<path d="M146.47 204.367C146.392 204.366 146.315 204.343 146.249 204.302C146.183 204.261 146.129 204.202 146.094 204.133C146.059 204.063 146.043 203.985 146.049 203.908C146.055 203.83 146.082 203.755 146.128 203.692C146.128 203.692 148.311 200.728 149.345 199.037C149.373 198.99 149.41 198.948 149.454 198.915C149.498 198.883 149.549 198.859 149.603 198.846C149.656 198.833 149.712 198.831 149.766 198.84C149.821 198.849 149.873 198.868 149.92 198.898C149.967 198.926 150.009 198.963 150.042 199.007C150.075 199.051 150.099 199.101 150.113 199.154C150.126 199.207 150.129 199.263 150.122 199.317C150.114 199.372 150.095 199.424 150.067 199.472C149.018 201.217 146.897 204.088 146.811 204.212C146.77 204.261 146.717 204.301 146.658 204.328C146.599 204.355 146.535 204.368 146.47 204.367Z" fill="#F3736F"/>
<path d="M141.823 178.774V178.674C140.889 178.621 139.977 178.365 139.151 177.924C138.326 177.483 137.607 176.868 137.044 176.121C135.918 174.632 135.319 172.351 137.044 170.419C137.382 170.102 137.653 169.72 137.839 169.296C138.026 168.873 138.126 168.415 138.132 167.952C138.054 166.874 137.13 166.091 136.236 165.346C135.086 164.368 133.991 163.445 134.356 161.894C134.489 161.276 134.792 160.707 135.231 160.252C135.67 159.797 136.229 159.473 136.842 159.318C136.973 159.28 137.105 159.249 137.239 159.225L137.083 158.806V158.713L136.726 158.798C136.004 158.963 135.342 159.327 134.819 159.85C134.295 160.373 133.93 161.033 133.765 161.754C133.33 163.631 134.659 164.756 135.824 165.742C136.671 166.448 137.464 167.122 137.534 167.976C137.518 168.367 137.424 168.752 137.259 169.107C137.093 169.463 136.86 169.782 136.57 170.047C135.016 171.87 135.016 174.314 136.57 176.432C137.146 177.188 137.869 177.82 138.696 178.29C139.522 178.761 140.435 179.06 141.38 179.17L141.854 179.046L141.823 178.774Z" fill="#454FA2"/>
<path d="M141.87 179.062L141.396 179.186L140.487 179.434L124.83 183.662C124.83 183.662 113.532 154.183 127.052 149.35C127.052 149.35 132.445 147.302 136.788 158.202C136.851 158.364 136.92 158.535 136.983 158.714V158.807L137.138 159.226L137.185 159.35C139.601 166.083 141.412 176.548 141.761 178.674V178.775L141.87 179.062Z" fill="#5473B8"/>
<path d="M111.153 209.852L110.5 210.41L109.894 210.922L108.706 211.9C107.928 212.543 107.113 213.172 106.304 213.785C104.704 215.018 103.072 216.197 101.409 217.338C98.0699 219.666 94.5519 221.728 90.8879 223.505C88.968 224.429 86.9809 225.207 84.9436 225.832C82.6851 226.529 80.3372 226.895 77.9735 226.918C76.5909 226.926 75.2127 226.762 73.8707 226.43C72.2641 226.032 70.7355 225.369 69.3483 224.467C68.5539 223.947 67.8076 223.358 67.1182 222.706C66.7685 222.365 66.4188 222.008 66.0847 221.635C65.9138 221.449 65.7506 221.247 65.5952 221.054L65.5175 220.96C65.4242 220.844 65.331 220.72 65.2455 220.596C65.16 220.472 64.8959 220.092 64.7482 219.82C64.4745 219.363 64.2305 218.889 64.0178 218.4C63.9246 218.175 63.8235 217.927 63.7458 217.725C63.6681 217.524 63.5981 217.322 63.536 217.113L63.4427 216.81L63.3651 216.546L63.2252 216.011C63.1475 215.662 63.0931 215.383 63.0309 215.065C62.9688 214.747 62.9532 214.522 62.9144 214.242C62.8189 213.436 62.7722 212.626 62.7745 211.814C62.7745 211.147 62.7745 210.581 62.8367 210.069C62.8988 209.557 62.9221 209.091 62.9688 208.649C63.1786 206.919 63.435 205.546 63.7458 204.204C64.0566 202.862 64.313 201.659 64.6161 200.457C65.2144 198.068 65.8516 195.802 66.5199 193.592C67.8408 189.162 69.2473 184.895 70.6848 180.675C72.1223 176.455 73.622 172.305 75.1295 168.162C75.9065 166.099 76.6836 164.035 77.4218 161.956L78.5874 158.853L79.784 155.75C81.8975 150.226 87.1348 147.938 91.4396 150.645C95.7445 153.353 97.5628 160.024 95.4414 165.548C95.3948 165.68 95.3404 165.796 95.286 165.928L95.2238 166.067L94.0116 168.93L92.7839 171.839C92.0069 173.786 91.1677 175.718 90.3751 177.696C88.821 181.614 87.2669 185.555 85.7595 189.488C84.252 193.421 82.8456 197.369 81.5479 201.264C80.9029 203.211 80.2968 205.143 79.7607 207.004V207.098C80.4178 207.021 81.0693 206.901 81.711 206.741C83.1381 206.372 84.5355 205.898 85.8915 205.321C88.9367 204.013 91.8684 202.456 94.6566 200.666C96.1174 199.751 97.5705 198.766 99.008 197.742C99.7229 197.23 100.438 196.71 101.145 196.19L102.186 195.415L103.15 194.639L103.352 194.468C106.724 191.807 111.122 193.126 113.236 197.424C115.349 201.722 114.308 207.09 111.153 209.852Z" fill="#F69A9E"/>
<path d="M100.392 197.036C100.392 197.036 103.034 206.873 107.999 212.311C109.102 212.272 110.33 211.209 111.06 210.092C111.06 210.092 105.924 204.406 103.29 194.422C102.644 194.618 102.049 194.954 101.548 195.406C101.048 195.858 100.653 196.414 100.392 197.036Z" fill="#1D1B13"/>
<path d="M106.258 196.477C107.268 198.494 106.398 201.504 104.315 203.196C102.233 204.887 99.7383 204.623 98.7281 202.606C97.718 200.589 98.5805 197.579 100.663 195.888C102.745 194.197 105.248 194.46 106.258 196.477Z" fill="#1D1B13"/>
<path d="M103.81 202.172C102.31 203.39 100.507 203.196 99.7768 201.745C99.0464 200.294 99.6835 198.13 101.175 196.912C102.667 195.694 104.478 195.888 105.201 197.339C105.923 198.789 105.302 200.954 103.81 202.172Z" fill="white"/>
<path d="M88.1216 182.622L86.8317 182.11L86.2878 181.924L77.7403 178.519L77.2119 178.309L67.8252 174.578C68.6693 172.02 69.7084 169.53 70.9334 167.13C71.081 166.812 71.2442 166.479 71.4151 166.13C72.4564 163.958 73.824 161.18 75.6422 157.527C76.5931 155.461 77.8679 153.559 79.4187 151.894L79.8305 151.491C80.617 150.768 81.4763 150.129 82.3948 149.583C84.2808 148.414 86.4978 147.891 88.7084 148.096C90.919 148.3 93.0022 149.22 94.641 150.715C95.6063 151.601 96.3858 152.67 96.934 153.859C97.4823 155.048 97.7884 156.335 97.8346 157.643C98.2542 165.951 88.1216 182.622 88.1216 182.622Z" fill="#5473B8"/>
<path d="M85.4095 180.443C85.3441 180.446 85.2793 180.43 85.223 180.396C85.1774 180.372 85.1369 180.34 85.1039 180.301C85.071 180.261 85.0462 180.216 85.031 180.166C85.0158 180.117 85.0105 180.066 85.0155 180.015C85.0204 179.964 85.0355 179.914 85.0598 179.869L93.6617 163.709C93.7126 163.618 93.7969 163.551 93.8969 163.52C93.9969 163.49 94.1047 163.499 94.1979 163.547C94.2906 163.596 94.3599 163.68 94.3905 163.78C94.4211 163.881 94.4105 163.989 94.361 164.082L85.7592 180.233C85.7268 180.298 85.6767 180.352 85.6148 180.389C85.5529 180.426 85.4817 180.444 85.4095 180.443Z" fill="#454FA2"/>
<path d="M91.9371 168.185C91.844 168.178 91.7562 168.139 91.6893 168.074C91.6224 168.009 91.5806 167.923 91.5713 167.83C91.562 167.737 91.5859 167.644 91.6386 167.567C91.6913 167.49 91.7694 167.434 91.8594 167.409L94.5169 166.866C94.619 166.848 94.7242 166.87 94.81 166.929C94.8958 166.987 94.9552 167.077 94.9756 167.178C94.9959 167.28 94.9755 167.385 94.9188 167.472C94.8621 167.559 94.7736 167.62 94.6723 167.642L92.0226 168.185H91.9371Z" fill="#454FA2"/>
<path d="M177.979 0H5.14117C-47.4025 0 -90 52.5734 -90 117.419V123.928C-90 188.774 -47.4025 241.348 5.14117 241.348H177.979C230.523 241.348 273.12 188.774 273.12 123.928V117.419C273.089 52.5734 230.491 0 177.979 0ZM233.289 131.352C233.289 164.981 211.205 192.242 183.954 192.242H-0.834297C-28.0852 192.242 -50.1688 164.981 -50.1688 131.352C-50.1688 97.7228 -28.0852 70.4625 -0.834297 70.4625H183.923C211.174 70.4625 233.258 97.7228 233.258 131.352H233.289Z" fill="#28BAA9"/>
<path d="M145.165 60.1292C132.732 61.7738 123.703 71.2691 125.039 81.3385C125.917 87.6455 130.58 92.7112 137.037 95.1548L134.993 102.362L142.422 96.5512C144.935 96.9008 147.485 96.9008 149.998 96.5512C162.431 94.9066 171.46 85.4113 170.123 75.3496C168.787 65.288 157.613 58.4846 145.165 60.1292Z" fill="#DEE3F3"/>
<path d="M161.498 83.4022L161.421 83.3246C161.716 83.2218 161.973 83.0326 162.159 82.7816L162.275 82.6187H162.081C161.721 82.6465 161.376 82.7756 161.086 82.991C160.561 82.5321 159.985 82.134 159.369 81.8041C160.044 81.3688 160.683 80.8812 161.281 80.3457C161.562 80.1621 161.802 79.9228 161.987 79.6425C162.171 79.3622 162.296 79.0471 162.353 78.7166V78.639H162.275C161.629 78.4835 160.95 78.5323 160.333 78.7786C159.81 79.0025 159.363 79.3731 159.048 79.8455C158.732 80.3178 158.56 80.8716 158.553 81.4395C158.274 81.3154 157.978 81.2068 157.683 81.1059C157.683 80.974 157.683 80.8344 157.683 80.6948C158.259 80.2303 158.69 79.6111 158.926 78.9102C159.161 78.2092 159.191 77.4557 159.012 76.7384C158.957 76.5186 158.828 76.3242 158.647 76.1876C158.428 76.0777 158.178 76.0475 157.939 76.1023C157.317 76.1941 156.711 76.3798 156.145 76.6531C155.98 75.4576 155.547 74.3147 154.878 73.3095C154.853 72.5813 154.762 71.8568 154.606 71.1451C154.163 69.1592 152.819 66.7466 150.394 65.9398C147.504 64.9778 144.613 66.5759 141.645 68.4377L141.583 68.4843C140.853 68.9072 140.168 69.4037 139.539 69.966C139.046 70.1443 138.565 70.3568 138.102 70.6021C137.333 70.9613 136.671 71.5149 136.182 72.2079C136.152 72.2492 136.126 72.2934 136.105 72.3398C135.203 72.3398 134.302 72.3941 133.408 72.4717C133.03 72.4647 132.661 72.591 132.367 72.8285C132.162 73.0602 132.037 73.351 132.01 73.6586C131.843 74.757 131.997 75.88 132.452 76.8935L132.406 76.9556C132.107 77.469 131.978 78.0636 132.038 78.6543C132.098 79.2451 132.344 79.8017 132.74 80.2448C133.535 81.1018 134.555 81.7176 135.685 82.0213C136.195 82.1976 136.714 82.3478 137.239 82.4713C137.585 84.009 138.215 85.469 139.096 86.7768C140.114 88.4524 141.699 90.3453 143.657 90.3453C143.856 90.346 144.053 90.3278 144.248 90.291C145.034 90.0789 145.766 89.7065 146.4 89.1971L147.177 88.6231H147.263C147.54 88.6694 147.821 88.6928 148.102 88.6929C148.846 88.6689 149.586 88.5675 150.309 88.3903L150.27 88.2119C149.334 88.4634 148.36 88.5449 147.395 88.4524L149.353 87.056C149.617 87.056 149.889 87.056 150.13 87.056C150.525 87.0855 150.922 87.0646 151.311 86.994C151.61 86.9256 151.896 86.8104 152.158 86.6526C152.538 86.5162 152.899 86.331 153.231 86.1018C153.7 85.7808 154.106 85.3757 154.427 84.9072C155.428 84.6611 156.319 84.0909 156.96 83.2858C157.122 83.063 157.256 82.8206 157.357 82.5644C157.621 82.5311 157.881 82.4713 158.134 82.3859C158.312 82.3239 158.483 82.2541 158.662 82.1765C158.819 82.5164 159.062 82.8096 159.368 83.0273C159.673 83.2449 160.03 83.3795 160.403 83.4177H160.597C160.363 83.7325 160.229 84.11 160.212 84.5015C160.195 84.893 160.296 85.2806 160.502 85.6144C160.707 85.9482 161.008 86.2129 161.366 86.3745C161.724 86.536 162.122 86.5869 162.508 86.5208H162.571V86.4587C162.99 85.1399 161.957 83.8987 161.498 83.4022ZM152.034 86.4122C151.333 86.7044 150.578 86.8446 149.819 86.8233H149.749L150.192 86.5052C150.697 86.1406 151.195 85.7683 151.677 85.3959C152.073 85.3959 152.454 85.3183 152.865 85.2563H153.06C153.027 85.4411 152.964 85.6194 152.873 85.7838C152.633 86.0496 152.349 86.2726 152.034 86.4432V86.4122ZM148.731 86.6294C147.53 86.4682 146.389 86.0066 145.414 85.2873C145.439 85.2314 145.467 85.1771 145.499 85.1244C147.427 85.464 149.39 85.5604 151.342 85.4114C150.931 85.7295 150.511 86.0398 150.084 86.3501L149.493 86.7768L148.731 86.6294ZM145.009 84.8451L144.846 84.5969C144.749 84.4294 144.668 84.2527 144.605 84.0693C145.095 84.0693 145.584 84.1469 146.074 84.1702C145.808 84.3909 145.58 84.6528 145.398 84.946L145.009 84.8451ZM145.297 85.0856V85.1477L145.227 85.0701L145.297 85.0856ZM141.148 85.2563C140.841 84.7313 140.64 84.1515 140.557 83.5496C141.294 83.9586 142.076 84.2789 142.888 84.5038C143.556 84.7055 144.232 84.8684 144.908 85.008C144.998 85.1194 145.094 85.2255 145.196 85.3261C145.01 85.742 144.951 86.2033 145.025 86.6526H144.963C143.607 86.4806 142.304 86.0146 141.148 85.2873V85.2563ZM143.634 86.5595C143.162 86.5409 142.697 86.4412 142.259 86.2648C141.964 86.1176 141.7 85.9147 141.482 85.6674C142.157 86.066 142.88 86.3762 143.634 86.5906V86.5595ZM139.632 70.1289C141.843 69.3079 144.268 69.2614 146.509 69.997C147.105 70.2079 147.676 70.4836 148.211 70.8193C146.939 71.2396 145.771 71.9244 144.784 72.8285L144.737 72.8751C144.262 72.8984 143.789 72.9607 143.323 73.0613C142.896 72.9604 142.461 72.8673 141.995 72.782C141.427 72.6889 140.837 72.6036 140.215 72.5338C139.593 72.4639 138.91 72.4096 138.249 72.3786C138.482 71.6272 138.877 70.9359 139.407 70.3539C139.479 70.2857 139.554 70.2209 139.632 70.1599V70.1289ZM154.598 75.5127L154.474 75.3886C153.964 74.4901 153.195 73.7657 152.267 73.3095C151.775 73.0791 151.251 72.9222 150.713 72.8441C150.139 72.0872 149.449 71.425 148.669 70.8814C149.644 70.6185 150.673 70.6373 151.638 70.9357C152.53 71.2548 153.33 71.7875 153.969 72.4872C154.218 72.7542 154.446 73.0395 154.653 73.3405C154.679 74.0754 154.661 74.8111 154.598 75.5437V75.5127ZM155.189 80.4853L154.987 80.4465C154.994 80.1868 154.975 79.927 154.932 79.6708C155.046 79.4209 155.137 79.1612 155.204 78.895L155.189 80.4853ZM151.607 85.202C149.605 85.3795 147.588 85.296 145.608 84.9537C145.772 84.7067 145.974 84.4869 146.206 84.3021C146.253 84.257 146.305 84.2178 146.362 84.1857C147.356 84.2219 148.351 84.2219 149.345 84.1857C149.734 84.2057 150.121 84.1284 150.472 83.9607C150.682 83.8344 150.86 83.662 150.993 83.4565L152.018 83.3789C152.337 83.5703 152.604 83.8366 152.795 84.1547C152.438 84.5581 152.034 84.8994 151.607 85.233V85.202ZM152.92 84.3486C153.023 84.5614 153.076 84.7949 153.075 85.0313L152.842 85.0701L151.941 85.1787C152.283 84.9537 152.609 84.6589 152.92 84.3796V84.3486ZM138.568 76.5755H138.661L138.529 76.878L138.412 77.072C138.412 77.072 138.412 77.0021 138.374 76.9634C138.431 76.8406 138.496 76.7215 138.568 76.6065V76.5755ZM138.288 76.7229C138.288 76.6453 138.288 76.5677 138.226 76.4901L138.381 76.5289L138.288 76.7229ZM141.513 73.5422L142.057 72.9837L142.911 73.1621C142.513 73.2716 142.123 73.4117 141.746 73.581L141.513 73.5422ZM154.862 79.3294C154.823 79.1952 154.776 79.0632 154.722 78.9338C154.649 78.7764 154.566 78.6235 154.474 78.4761C154.536 78.3486 154.609 78.2267 154.691 78.1115C154.797 77.9518 154.92 77.8037 155.057 77.6693C155.151 78.2401 155.084 78.8258 154.862 79.3605V79.3294ZM154.8 80.4155L154.513 80.3767C154.611 80.2317 154.702 80.0815 154.785 79.9268C154.803 80.0994 154.808 80.2731 154.8 80.4465V80.4155ZM151.436 82.7893H151.272C151.315 82.6442 151.349 82.4965 151.373 82.3472C151.377 82.3162 151.377 82.285 151.373 82.2541H152.275C152.009 82.4621 151.728 82.6513 151.436 82.8204V82.7893ZM151.708 83.2238H151.257L151.498 83.1152H151.544L151.708 83.2238ZM140.79 78.1891C140.669 77.8607 140.484 77.5598 140.245 77.304C140.007 77.0482 139.719 76.8427 139.399 76.6996L139.003 76.5289C139.44 75.894 139.918 75.2877 140.433 74.7136C140.993 74.3728 141.583 74.0846 142.197 73.8526C142.637 73.9301 143.08 74.0155 143.525 74.1086C142.07 75.7872 141.053 77.7993 140.565 79.9656C140.363 79.919 140.168 79.8725 139.982 79.8104C140.268 79.6864 140.511 79.4814 140.681 79.2208C140.77 79.0714 140.825 78.9048 140.844 78.7322C140.863 78.5596 140.844 78.385 140.79 78.2201V78.1891ZM141.847 73.7905C141.583 73.8991 141.334 74.0155 141.07 74.1473C141.293 74.0097 141.524 73.8853 141.761 73.775L141.847 73.7905ZM144.318 73.5267C145.03 73.752 145.724 74.0321 146.393 74.3646L145.996 74.5197C145.297 74.3258 144.59 74.1473 143.875 73.9922C144.023 73.8681 144.162 73.7129 144.318 73.5578V73.5267ZM144.124 73.2785L144.357 73.2319L144.263 73.3173L144.124 73.2785ZM154.886 77.1573C154.93 77.2524 154.966 77.351 154.994 77.4521C154.82 77.6162 154.664 77.7982 154.528 77.9951L154.443 78.1425C154.438 78.1064 154.438 78.07 154.443 78.0339C154.497 77.6926 154.544 77.3435 154.59 77.0099L154.886 77.1573ZM154.637 76.8315V76.7461L154.715 76.878L154.637 76.8315ZM154.202 79.5234C154.202 79.663 154.202 79.8026 154.147 79.9345C154.147 79.857 154.147 79.7794 154.147 79.7018L154.202 79.5234ZM151.412 80.6482L151.622 80.2603C152.314 80.3147 153.013 80.3767 153.728 80.4621C153.577 80.8657 153.376 81.2488 153.13 81.6024L152.99 81.7731L152.562 82.1067C152.174 82.1067 151.785 82.1067 151.412 82.1067C151.469 81.63 151.469 81.1482 151.412 80.6715V80.6482ZM146.983 83.1229V83.185H147.045C147.369 83.186 147.692 83.1521 148.009 83.0841H148.522C148.289 83.1384 148.048 83.2005 147.815 83.2703H147.162C146.581 83.2322 146.004 83.1466 145.437 83.0143L144.776 82.7971C145.29 82.8993 145.809 82.9718 146.33 83.0143L146.913 83.0531C146.932 83.0871 146.956 83.1184 146.983 83.1462V83.1229ZM147.379 83.6427C147.636 83.6427 147.9 83.7125 148.156 83.7358C147.805 83.759 147.452 83.759 147.1 83.7358L147.379 83.6427ZM147.278 83.441H147.356H147.278ZM147.76 83.5108H147.861C148.405 83.5108 148.957 83.5496 149.493 83.5108H149.415C149.193 83.5226 148.97 83.5226 148.747 83.5108C148.419 83.5417 148.089 83.5495 147.76 83.5341V83.5108ZM148.452 83.3169L148.763 83.2393C148.996 83.185 149.221 83.1384 149.454 83.0996C149.812 83.0996 150.169 83.0996 150.526 83.0996H150.907C150.674 83.2005 150.433 83.2858 150.192 83.3712C149.61 83.3556 149.027 83.3556 148.452 83.3401V83.3169ZM147.1 82.8592C147.04 82.604 147.04 82.3386 147.1 82.0834C147.314 82.1097 147.529 82.1252 147.745 82.1299L149.633 82.2075C149.136 82.5332 148.582 82.7646 148.001 82.8902L147.1 82.8592ZM145.344 80.4931H145.258C145.247 80.414 145.229 80.336 145.204 80.2603L145.313 80.0742C145.311 80.2144 145.322 80.3545 145.344 80.4931ZM145.095 80.6715C145.111 80.7977 145.111 80.9254 145.095 81.0516C145.02 81.3864 144.844 81.6899 144.59 81.9205C144.633 81.7262 144.688 81.5346 144.753 81.3464C144.831 81.1165 144.922 80.8912 145.025 80.6715H145.095ZM140.573 80.9585C140.842 81.2312 141.124 81.4901 141.42 81.7343C141.114 81.6105 140.816 81.4707 140.526 81.3154L140.573 80.9585ZM140.573 80.7258C140.573 80.5551 140.604 80.3845 140.666 80.2138L141.287 80.3224C141.618 81.0915 142.195 81.7298 142.927 82.1377C142.588 82.0921 142.252 82.0195 141.925 81.9205C141.454 81.5621 141.018 81.1623 140.619 80.7258H140.573ZM147.815 75.2955L147.869 75.342C148.161 75.5575 148.441 75.7879 148.708 76.0324C147.902 76.316 147.184 76.8054 146.626 77.4521C146.025 78.0193 145.583 78.7333 145.344 79.5234C145.344 79.5622 145.344 79.5932 145.344 79.632C145.344 79.6708 145.18 79.8802 145.11 80.0043C144.993 79.7654 144.829 79.5519 144.629 79.376C144.319 79.0924 143.945 78.8878 143.54 78.7798C143.134 78.6717 142.707 78.6633 142.298 78.7554C142.337 78.5999 142.387 78.447 142.445 78.2977C142.832 77.3234 143.532 76.5048 144.434 75.9704C145.309 75.4858 146.275 75.1873 147.271 75.0938L147.815 75.2955ZM150.806 76.6531C150.953 76.7821 151.07 76.9408 151.151 77.1187C151.231 77.2967 151.273 77.4896 151.272 77.6848C151.245 78.0663 151.089 78.4273 150.83 78.7088C150.521 78.0022 150.115 77.3417 149.625 76.7461C149.959 76.6449 150.299 76.5671 150.643 76.5134L150.806 76.6531ZM149.493 76.591C149.361 76.4358 149.221 76.2884 149.081 76.141C149.143 76.1336 149.206 76.1336 149.268 76.141C149.662 76.1078 150.058 76.1944 150.402 76.3893C150.111 76.4376 149.823 76.5023 149.54 76.5832L149.493 76.591ZM149.299 76.6531C147.852 77.1464 146.576 78.0427 145.623 79.2363C145.889 78.6163 146.274 78.0547 146.758 77.584C147.317 76.9309 148.045 76.445 148.864 76.1798L149.299 76.6531ZM149.244 75.9316C149.135 75.9394 149.026 75.9549 148.918 75.9781C148.739 75.8075 148.545 75.6368 148.343 75.4739C148.786 75.6213 149.221 75.7764 149.656 75.9394C149.535 75.922 149.413 75.9168 149.291 75.9238L149.244 75.9316ZM144.838 80.4853C143.957 80.455 143.078 80.3799 142.204 80.2603C142.123 79.8454 142.123 79.4186 142.204 79.0036C142.594 78.8961 143.005 78.8895 143.398 78.9845C143.791 79.0795 144.153 79.273 144.45 79.5466C144.666 79.7403 144.834 79.9821 144.94 80.2526L144.838 80.4853ZM141.427 80.1595C141.352 79.9542 141.303 79.7406 141.28 79.5234C141.503 79.3409 141.751 79.1919 142.018 79.0812C141.956 79.464 141.956 79.8543 142.018 80.2371L141.427 80.1595ZM142.041 80.431C142.112 80.7332 142.227 81.0234 142.383 81.2921C142.497 81.4855 142.63 81.6673 142.779 81.8351C142.221 81.4737 141.778 80.9593 141.505 80.3534L142.041 80.431ZM144.318 75.8463C143.757 76.1711 143.269 76.606 142.882 77.1247C142.494 77.6434 142.216 78.235 142.064 78.864C141.786 78.97 141.524 79.1164 141.287 79.2984C141.287 78.1968 142.064 77.1185 143.51 76.1023C144.282 75.5685 145.111 75.1211 145.981 74.7679L146.835 75.0084C145.967 75.1291 145.129 75.4106 144.365 75.8385L144.318 75.8463ZM143.385 75.9316C141.878 76.9944 141.101 78.1192 141.054 79.2829C141.05 79.3345 141.05 79.3864 141.054 79.438C140.94 79.5354 140.831 79.639 140.728 79.7483C141.247 77.6919 142.249 75.7881 143.65 74.1939C144.318 74.3335 144.978 74.4964 145.631 74.6749C144.86 75.0204 144.124 75.4386 143.432 75.9238L143.385 75.9316ZM141.109 79.6708C141.135 79.8256 141.171 79.9785 141.217 80.1285L140.751 80.0509C140.877 79.9126 141.012 79.783 141.155 79.663L141.109 79.6708ZM142.546 81.2223C142.407 80.98 142.305 80.7186 142.243 80.4465C143.098 80.5551 143.937 80.6327 144.753 80.6637C144.659 80.8659 144.576 81.0731 144.504 81.2844C144.416 81.5381 144.343 81.7972 144.287 82.0601C144.149 82.1619 144.001 82.2477 143.844 82.3161L143.51 82.1842C143.137 81.9222 142.824 81.5837 142.593 81.1913L142.546 81.2223ZM145.491 79.7639C146.448 78.3823 147.832 77.3521 149.431 76.8315C149.952 77.4467 150.376 78.1372 150.69 78.8795C150.489 79.0743 150.268 79.246 150.029 79.3915C148.65 80.1799 147.08 80.5719 145.491 80.5241C145.46 80.2597 145.476 79.9918 145.538 79.7328L145.491 79.7639ZM150.153 79.5544C150.383 79.4122 150.599 79.2486 150.798 79.0657C150.924 79.4025 151.028 79.7471 151.109 80.0974C150.172 79.9795 149.221 80.0996 148.343 80.4465C147.711 80.7514 147.221 81.2876 146.975 81.9438C146.726 81.9058 146.486 81.8216 146.268 81.6955C145.917 81.4693 145.666 81.1163 145.569 80.7103C147.183 80.7462 148.775 80.3354 150.169 79.5234L150.153 79.5544ZM147.752 82.0058C147.566 82.0058 147.356 82.0058 147.162 82.0058C147.395 81.4129 147.845 80.9304 148.421 80.656C149.284 80.3173 150.22 80.2025 151.14 80.3224C151.169 80.4452 151.189 80.5695 151.202 80.6948C151.172 80.7508 151.138 80.8052 151.101 80.8577C150.774 81.3485 150.364 81.7789 149.889 82.1299L147.752 82.0058ZM151.234 80.9585C151.276 81.353 151.276 81.751 151.234 82.1455H150.635H150.2C150.61 81.795 150.963 81.3843 151.249 80.9275L151.234 80.9585ZM150.938 78.926C151.262 78.6017 151.457 78.1722 151.49 77.7158C151.492 77.4929 151.446 77.2722 151.355 77.0688C151.263 76.8653 151.129 76.6838 150.962 76.5367H150.915H151.047L151.451 76.6996L152.049 76.9634C152.141 78.0616 151.949 79.1649 151.49 80.1673H151.296C151.221 79.7336 151.107 79.3078 150.954 78.895L150.938 78.926ZM153.953 79.7018C153.906 79.9119 153.846 80.1191 153.774 80.3224C153.075 80.2371 152.376 80.175 151.692 80.1207C152.125 79.1462 152.314 78.0813 152.244 77.0177C152.947 77.3347 153.577 77.7943 154.093 78.3675L154.163 78.7476C154.052 79.0493 153.987 79.3656 153.969 79.6863L153.953 79.7018ZM154.241 78.0572V78.1813C154.2 78.0288 154.15 77.8786 154.093 77.7314C153.946 77.3562 153.756 76.9995 153.526 76.6686C153.827 76.7532 154.123 76.8569 154.412 76.9789C154.388 77.3202 154.334 77.6848 154.28 78.0417L154.241 78.0572ZM153.907 77.8012L153.953 77.9408C153.439 77.4579 152.845 77.0669 152.197 76.7849C152.197 76.6686 152.197 76.56 152.197 76.4514C152.558 76.4727 152.916 76.522 153.269 76.5987C153.545 76.9639 153.772 77.3628 153.945 77.7857L153.907 77.8012ZM152.003 76.6918L151.56 76.4203H151.506H152.026C152.036 76.5053 152.041 76.5908 152.042 76.6763L152.003 76.6918ZM151.381 80.2836C151.368 80.3196 151.349 80.3535 151.327 80.3845C151.331 80.351 151.331 80.3171 151.327 80.2836H151.381ZM153.876 80.5241H153.977C153.939 80.665 153.89 80.8026 153.829 80.9353C153.736 81.0439 153.642 81.1525 153.541 81.2533C153.677 81.0145 153.794 80.7655 153.891 80.5086L153.876 80.5241ZM154.419 76.7927C154.102 76.6561 153.775 76.5446 153.44 76.4591H153.339C153.063 76.0996 152.751 75.7695 152.407 75.4739C153.181 75.6533 153.889 76.0457 154.451 76.6065C154.456 76.6633 154.458 76.7202 154.458 76.7772L154.419 76.7927ZM153.052 76.3738C152.746 76.318 152.437 76.2818 152.127 76.2652C152.131 76.2187 152.131 76.172 152.127 76.1255C152.082 75.8625 152.017 75.6032 151.933 75.3498H152.018C152.419 75.6456 152.786 75.9838 153.114 76.3583L153.052 76.3738ZM151.925 76.1566C151.925 76.1566 151.925 76.2264 151.925 76.2574C151.628 76.238 151.329 76.238 151.032 76.2574C149.998 75.8307 148.949 75.4817 147.923 75.1093L147.838 75.0472C148.729 75.0033 149.622 75.0214 150.511 75.1015C150.899 75.1015 151.288 75.1869 151.715 75.2567C151.818 75.5455 151.901 75.841 151.964 76.141L151.925 76.1566ZM151.63 75.0783C151.28 75.0162 150.907 74.9696 150.503 74.9386C149.531 74.8649 148.554 74.8649 147.581 74.9386C147.333 74.7757 147.084 74.6206 146.804 74.4732C147.676 74.1843 148.583 74.0172 149.501 73.9767L149.703 74.062C150.392 74.325 151.051 74.6605 151.669 75.0627L151.63 75.0783ZM150.006 73.9301C150.407 73.9377 150.807 73.9767 151.202 74.0465C151.327 74.2792 151.436 74.5197 151.537 74.7602C151.049 74.4439 150.537 74.1663 150.006 73.9301ZM147.31 74.9231L146.292 74.6283L146.61 74.5119C146.898 74.6438 147.092 74.7835 147.325 74.9231H147.31ZM143.65 73.9767L142.523 73.7517C142.911 73.6198 143.3 73.4957 143.735 73.3949L144.1 73.4957L143.65 73.9767ZM140.456 80.1828C140.4 80.2573 140.348 80.335 140.301 80.4155C140.2 80.2991 140.099 80.1828 140.005 80.0587L140.456 80.1828ZM140.456 80.5241V80.5707V80.5241ZM140.409 80.8034C140.409 80.943 140.409 81.0904 140.355 81.2301L140.137 81.0982C140.2 80.9741 140.269 80.8499 140.339 80.7258L140.409 80.8034ZM140.51 81.5326C140.947 81.7667 141.405 81.9589 141.878 82.1067C142.173 82.3161 142.476 82.5178 142.787 82.6962C142.499 82.7454 142.209 82.7765 141.917 82.7893C141.435 82.7893 140.953 82.7893 140.472 82.7893C140.472 82.6652 140.472 82.5644 140.472 82.479C140.472 82.1455 140.487 81.8507 140.518 81.5171L140.51 81.5326ZM142.406 82.2385C142.728 82.3153 143.055 82.3646 143.385 82.3859H143.455L143.595 82.4713C143.42 82.5336 143.241 82.5854 143.059 82.6264C142.849 82.5023 142.624 82.3704 142.414 82.223L142.406 82.2385ZM143.789 82.6264L144.03 82.7118C144.097 82.7515 144.167 82.7853 144.24 82.8126C144.232 82.934 144.232 83.0558 144.24 83.1772C143.92 83.0509 143.606 82.9085 143.3 82.7506C143.465 82.7174 143.629 82.676 143.789 82.6264ZM144.139 82.4713L144.287 82.3782C144.291 82.4221 144.291 82.4662 144.287 82.5101L144.139 82.4713ZM145.243 81.1214C145.261 80.985 145.261 80.8467 145.243 80.7103H145.344C145.445 81.1764 145.724 81.585 146.121 81.8507C146.359 81.9929 146.623 82.0852 146.898 82.1222C146.836 82.3771 146.836 82.6431 146.898 82.8979L146.377 82.8592C145.728 82.8103 145.084 82.7118 144.45 82.5644C144.45 82.4454 144.466 82.3368 144.497 82.2385C144.887 81.9608 145.157 81.5446 145.25 81.0749L145.243 81.1214ZM145.398 83.2238C145.933 83.3961 146.478 83.536 147.03 83.6427L146.727 83.7901L146.097 83.7203C145.531 83.6258 144.975 83.4804 144.434 83.2858C144.434 83.1617 144.434 83.0453 144.434 82.929C144.751 83.0419 145.076 83.1301 145.406 83.1927L145.398 83.2238ZM146.766 83.9995C147.659 84.062 148.558 83.9914 149.431 83.7901C149.835 83.7454 150.236 83.6676 150.627 83.5573H150.783C150.68 83.6881 150.553 83.7986 150.41 83.8832C150.084 84.032 149.727 84.1037 149.369 84.0926C148.467 84.1236 147.566 84.1236 146.665 84.0926L146.766 83.9995ZM150.962 82.9212C150.443 82.8659 149.92 82.8869 149.408 82.9833H148.63C149.1 82.8172 149.545 82.5875 149.951 82.3006H150.612H151.195V82.3704C151.166 82.5381 151.127 82.7039 151.078 82.8669L150.962 82.9212ZM152.757 82.3627L152.687 82.4092L152.757 82.3627ZM152.943 82.1687C153.007 82.1078 153.066 82.0431 153.122 81.9748C153.254 81.8662 153.378 81.7498 153.503 81.6335C153.361 81.828 153.199 82.0073 153.021 82.1687H152.943ZM154.054 81.0439L154.132 80.9508C154.234 81.2536 154.395 81.5331 154.606 81.7731C154.606 81.8507 154.606 81.9282 154.552 82.0058C154.147 82.0756 153.736 82.1222 153.324 82.1532C153.643 81.8198 153.894 81.4271 154.062 80.9973L154.054 81.0439ZM154.264 80.7801L154.388 80.625L154.785 80.6793C154.766 80.9716 154.724 81.2621 154.66 81.5481C154.482 81.3025 154.351 81.0264 154.272 80.7336L154.264 80.7801ZM154.303 80.3845C154.434 79.8518 154.468 79.3001 154.404 78.7554C154.466 78.864 154.52 78.9726 154.575 79.0812C154.655 79.277 154.717 79.4795 154.761 79.6863C154.628 79.9268 154.477 80.1576 154.311 80.3767L154.303 80.3845ZM154.979 76.9789C154.894 76.8161 154.793 76.6626 154.676 76.5212V76.2807C154.795 76.5031 154.899 76.7332 154.987 76.9711L154.979 76.9789ZM154.505 76.3427C153.833 75.7308 153 75.3242 152.104 75.1713L151.816 74.9541C151.71 74.6622 151.585 74.3772 151.443 74.1008C152.105 74.24 152.741 74.478 153.332 74.8067C153.69 75.0039 154.019 75.2493 154.311 75.536C154.396 75.6678 154.474 75.8152 154.552 75.9626L154.505 76.3427ZM153.425 74.6438C152.777 74.2694 152.07 74.0071 151.335 73.8681C151.186 73.6007 151.022 73.3417 150.845 73.0923C151.306 73.1749 151.754 73.3129 152.182 73.5035C152.877 73.8432 153.48 74.3463 153.938 74.9697C153.776 74.849 153.607 74.7376 153.433 74.6361L153.425 74.6438ZM151.094 73.8681C150.595 73.7931 150.09 73.7645 149.586 73.7827C148.609 73.3936 147.585 73.1328 146.54 73.007C147.394 72.9507 148.25 72.9377 149.104 72.9682C149.601 72.9803 150.096 73.0191 150.589 73.0845C150.773 73.3261 150.944 73.5773 151.101 73.837L151.094 73.8681ZM149.136 73.806C148.28 73.8852 147.437 74.0676 146.626 74.349C145.932 73.9821 145.206 73.6783 144.458 73.4414L144.683 73.2319L145.46 73.1078C146.715 73.1344 147.959 73.3596 149.143 73.775L149.136 73.806ZM143.743 73.2319H143.828H143.743ZM143.378 73.3328C142.969 73.4387 142.567 73.5683 142.173 73.7207H142.072C142.471 73.5541 142.885 73.4243 143.308 73.3328H143.378ZM141.217 73.9068L141.35 73.7672H141.451L141.217 73.9068ZM138.886 76.7539C139.026 76.8004 139.174 76.8625 139.314 76.9246C139.91 77.1966 140.373 77.693 140.604 78.3054C140.655 78.4504 140.673 78.6051 140.657 78.7582C140.641 78.9112 140.591 79.0587 140.51 79.1898C140.329 79.4523 140.071 79.6528 139.772 79.7639C139.487 79.3997 139.227 79.016 138.995 78.6157C138.796 78.2568 138.625 77.8833 138.482 77.4986C138.523 77.3588 138.573 77.2215 138.63 77.0875C138.746 76.9478 138.816 76.8315 138.894 76.7229L138.886 76.7539ZM139.485 79.6785C139.045 79.4915 138.677 79.1678 138.436 78.7554C138.375 78.6481 138.328 78.5334 138.296 78.414C138.328 78.2023 138.372 77.9924 138.428 77.7857C138.557 78.0995 138.705 78.4052 138.871 78.7011C139.055 79.0309 139.263 79.3472 139.492 79.6475L139.485 79.6785ZM138.708 76.5057H138.622C138.764 76.275 138.925 76.057 139.104 75.854C138.972 76.0536 138.853 76.2608 138.746 76.4746L138.708 76.5057ZM138.001 79.0191C137.938 78.9105 137.868 78.8019 137.814 78.6933C137.76 78.5847 137.946 78.3675 138.024 78.2123C138.032 78.2836 138.048 78.3538 138.07 78.4218C138.07 78.4839 138.07 78.5537 138.07 78.6157C138.07 78.6778 138.047 78.8562 138.039 78.9881L138.001 79.0191ZM138.21 78.7864V78.8485C138.483 79.3155 138.904 79.6785 139.407 79.8802C139.203 79.9489 138.996 80.0059 138.785 80.0509C138.554 79.8084 138.341 79.5491 138.148 79.2751C138.218 79.0812 138.234 78.9183 138.249 78.7476L138.21 78.7864ZM139.57 80.0354L139.679 79.9888C139.834 80.2009 139.998 80.4026 140.168 80.5939C140.091 80.7258 140.021 80.8654 139.951 81.0051C139.602 80.7767 139.274 80.517 138.972 80.2293C139.188 80.1668 139.401 80.0917 139.609 80.0043L139.57 80.0354ZM140.029 81.2844L140.301 81.4473C140.301 81.7964 140.246 82.1377 140.246 82.4868V82.7893L139.625 82.7428L139.586 82.704C139.611 82.5574 139.645 82.4124 139.687 82.2696C139.784 81.9205 139.911 81.5805 140.067 81.2533L140.029 81.2844ZM140.254 82.9755V83.2005L140.122 83.1539L139.834 82.9445L140.254 82.9755ZM143.145 83.7901C142.241 83.6863 141.347 83.5099 140.472 83.2626V82.9833C140.953 82.9833 141.435 82.9833 141.917 82.9833C142.291 82.9691 142.662 82.9223 143.028 82.8436C143.421 83.0606 143.829 83.2499 144.248 83.4099C144.266 83.5797 144.294 83.7481 144.333 83.9142C143.96 83.8521 143.572 83.8133 143.183 83.759L143.145 83.7901ZM144.365 84.1081C144.434 84.3359 144.531 84.5546 144.652 84.7598L144.706 84.8529C144.1 84.721 143.494 84.5658 142.896 84.3874C142.148 84.1755 141.424 83.887 140.736 83.5263C141.52 83.7297 142.317 83.8801 143.121 83.9763C143.572 83.9995 143.984 84.0383 144.403 84.0771L144.365 84.1081ZM144.419 83.4875C144.944 83.6735 145.485 83.8111 146.035 83.8987L146.416 83.953L146.26 84.0538C145.68 84.0538 145.098 84.015 144.512 83.9375C144.485 83.7783 144.467 83.6177 144.458 83.4565L144.419 83.4875ZM152.337 83.4022L153.005 83.3246C153.318 83.2903 153.628 83.228 153.93 83.1384C153.637 83.4761 153.326 83.7972 152.997 84.1004C152.825 83.8266 152.601 83.5893 152.337 83.4022ZM152.982 83.1384C152.687 83.1772 152.384 83.216 152.088 83.2393C151.98 83.1812 151.868 83.1294 151.754 83.0841L152.065 82.8979L152.314 82.8126C152.613 82.6947 152.891 82.5297 153.137 82.3239C153.604 82.3059 154.068 82.2567 154.528 82.1765C154.528 82.3006 154.458 82.4247 154.419 82.5488L154.171 82.8592C153.779 82.9943 153.372 83.0803 152.959 83.1152L152.982 83.1384ZM154.963 82.0911C154.948 82.1288 154.93 82.1652 154.909 82.1998C154.815 82.3567 154.691 82.4937 154.544 82.6032C154.707 82.417 154.831 82.2463 154.94 82.0679L154.963 82.0911ZM155.399 80.7568H155.468L155.399 80.9042V80.7413V80.7568ZM155.212 80.8654C155.212 81.0128 155.212 81.168 155.212 81.3232C155.136 81.4832 155.05 81.6387 154.956 81.7886L154.862 81.6955C154.94 81.3638 154.992 81.0267 155.018 80.687L155.228 80.7258L155.212 80.8654ZM150.457 72.8596C150.014 72.8053 149.571 72.782 149.136 72.7665C147.911 72.7185 146.685 72.7678 145.468 72.9139H145.056C146.035 72.034 147.193 71.3775 148.452 70.99C149.206 71.4963 149.875 72.1196 150.433 72.8363L150.457 72.8596ZM140.215 72.7742C140.79 72.8363 141.334 72.9139 141.855 72.9992C141.676 73.1854 141.489 73.3716 141.311 73.5655C140.246 73.3949 139.174 73.263 138.094 73.1776C138.094 72.9915 138.171 72.8053 138.218 72.6191C138.863 72.6269 139.531 72.6812 140.192 72.751L140.215 72.7742ZM141.155 73.7284L140.627 74.2947C140.381 74.4786 140.148 74.6781 139.928 74.8921C139.348 75.3045 138.861 75.8329 138.498 76.4436L138.203 76.366C137.966 75.3937 137.919 74.3851 138.063 73.3949C139.073 73.4259 140.106 73.5422 141.132 73.7052L141.155 73.7284ZM138.001 76.2884C137.679 76.2212 137.361 76.1591 137.045 76.1023C136.927 75.1637 137.001 74.2109 137.262 73.3018L137.876 73.3483C137.734 74.3187 137.768 75.3069 137.977 76.2652L138.001 76.2884ZM138.047 76.4901C138.094 76.6763 138.148 76.8703 138.203 77.0565C138.115 77.3064 138.066 77.5678 138.055 77.8322C137.954 78.0417 137.853 78.2589 137.76 78.4761C137.414 77.7912 137.18 77.0552 137.068 76.2962C137.371 76.3272 137.697 76.4203 138.024 76.4669L138.047 76.4901ZM137.791 78.9105C137.868 79.0424 137.946 79.1743 138.032 79.2984C138.029 79.5738 138.05 79.8489 138.094 80.1207C137.871 80.1324 137.648 80.1324 137.426 80.1207C137.501 79.7 137.616 79.2871 137.767 78.8872L137.791 78.9105ZM138.249 79.5854C138.378 79.7578 138.515 79.9235 138.661 80.0819C138.543 80.1051 138.424 80.1206 138.304 80.1285C138.264 79.9418 138.238 79.7525 138.226 79.5622L138.249 79.5854ZM138.816 80.2448C139.159 80.5878 139.533 80.897 139.935 81.168C139.783 81.5066 139.658 81.8568 139.562 82.2153C139.562 82.3161 139.508 82.4325 139.485 82.5411L139.321 82.3627C138.816 81.776 138.48 81.0624 138.35 80.2991L138.816 80.2448ZM140.122 83.3169L140.37 83.4798C140.437 84.0301 140.589 84.5667 140.821 85.0701L140.479 84.7908C140.129 84.5061 139.861 84.1341 139.702 83.7125C139.645 83.5213 139.619 83.3223 139.625 83.1229L140.122 83.3169ZM153.285 85.0546C153.277 84.785 153.211 84.5203 153.091 84.2788C153.507 83.8981 153.899 83.4912 154.264 83.0609C154.059 83.7458 153.786 84.4085 153.448 85.039L153.285 85.0546ZM153.285 85.2407L153.215 85.3416C153.219 85.3107 153.219 85.2794 153.215 85.2485L153.285 85.2407ZM154.412 83.0686C154.412 83.0143 154.412 82.96 154.466 82.8979C154.727 82.7605 154.945 82.5538 155.095 82.3006L155.142 82.2075L155.344 82.3161C155.188 83.2032 154.855 84.05 154.365 84.8063C154.124 84.8761 153.883 84.9304 153.65 84.977C153.962 84.3557 154.222 83.7096 154.427 83.0453L154.412 83.0686ZM155.189 82.0291L155.367 81.9825V82.1299C155.317 82.0937 155.27 82.052 155.228 82.0058L155.189 82.0291ZM155.259 81.8119C155.29 81.6688 155.311 81.5236 155.321 81.3774L155.468 81.0827C155.468 81.2999 155.468 81.5326 155.406 81.7731L155.259 81.8119ZM155.336 80.5707V78.6468C155.391 78.9803 155.43 79.3294 155.453 79.6863C155.453 79.9268 155.453 80.2216 155.453 80.5629L155.336 80.5707ZM155.336 77.6693C155.336 77.6072 155.336 77.5529 155.336 77.4909C155.565 77.644 155.783 77.8124 155.989 77.9951C155.979 78.6862 155.875 79.3727 155.678 80.0354C155.678 79.9035 155.678 79.7794 155.678 79.6708C155.642 78.9878 155.54 78.3098 155.375 77.646L155.336 77.6693ZM155.67 80.6327C155.968 79.8534 156.133 79.0303 156.16 78.1968C156.461 78.4759 156.722 78.7942 156.937 79.1432C157.214 79.6207 157.393 80.1479 157.465 80.6948C157.341 80.8034 157.217 80.912 157.092 81.0051C156.642 80.8189 156.222 80.7025 155.709 80.6094L155.67 80.6327ZM156.859 81.1137C156.675 81.2331 156.483 81.3394 156.284 81.4318C156.063 81.5394 155.834 81.6327 155.601 81.711C155.601 81.4007 155.655 81.0982 155.67 80.8189C156.106 80.881 156.51 80.9741 156.898 81.0749L156.859 81.1137ZM155.569 81.8895C155.836 81.8049 156.095 81.7012 156.346 81.5791C156.604 81.458 156.851 81.3152 157.085 81.1525L157.45 81.2688C157.438 81.663 157.364 82.053 157.232 82.4247C156.646 82.4971 156.051 82.4142 155.507 82.1842C155.549 82.0891 155.583 81.9904 155.608 81.8895H155.569ZM157.465 81.0749L157.287 81.0206L157.458 80.881C157.469 80.9465 157.485 81.0113 157.504 81.0749H157.465ZM157.908 76.3195C158.103 76.2692 158.309 76.2884 158.491 76.3738C158.634 76.4877 158.736 76.646 158.779 76.8237C158.938 77.4846 158.913 78.1767 158.704 78.824C158.496 79.4713 158.113 80.0488 157.598 80.4931C157.515 79.9647 157.333 79.4567 157.061 78.9959C156.838 78.589 156.555 78.2177 156.222 77.8943C156.23 77.5574 156.215 77.2205 156.176 76.8858C156.729 76.5976 157.329 76.406 157.947 76.3195H157.908ZM155.989 77.7314C155.813 77.5839 155.629 77.4466 155.437 77.3202C155.598 77.195 155.766 77.0809 155.942 76.9789C156.005 77.1961 156.02 77.4831 156.028 77.7314H155.989ZM155.919 76.7772C155.7 76.8987 155.492 77.0388 155.298 77.1961C155.254 76.8807 155.168 76.5728 155.041 76.2807C154.959 76.0933 154.854 75.9163 154.73 75.7532C154.796 75.0673 154.827 74.3786 154.824 73.6896C155.415 74.6277 155.801 75.6798 155.958 76.7772H155.919ZM141.66 68.6627L141.73 68.6162C144.061 67.1577 146.338 65.8622 148.584 65.8622C149.173 65.8595 149.758 65.9538 150.317 66.1415C152.648 66.9172 153.977 69.2445 154.412 71.2072C154.545 71.8149 154.628 72.4324 154.66 73.0535C154.495 72.8283 154.316 72.6133 154.124 72.4096C153.457 71.6752 152.619 71.1158 151.684 70.7805C150.628 70.4619 149.5 70.4619 148.444 70.7805C147.857 70.3998 147.229 70.0875 146.571 69.8496C144.429 69.1435 142.116 69.1435 139.974 69.8496C140.508 69.4156 141.072 69.019 141.66 68.6627ZM136.322 72.3243C136.794 71.6566 137.431 71.1221 138.171 70.7728C138.513 70.5943 138.871 70.4314 139.228 70.284C138.691 70.89 138.291 71.6044 138.055 72.3786C137.472 72.3786 136.889 72.3786 136.307 72.3786L136.322 72.3243ZM136.198 72.5415C136.804 72.5415 137.402 72.5415 138.001 72.5803C137.954 72.7587 137.915 72.9449 137.884 73.1311L137.177 73.0768H137.107V73.1466C136.824 74.0834 136.736 75.0683 136.851 76.0402C136.427 75.9623 135.999 75.9105 135.568 75.885C135.592 75.2682 135.659 74.6537 135.77 74.0465C135.84 73.5271 135.984 73.0203 136.198 72.5415ZM132.18 73.7129C132.201 73.4452 132.304 73.1904 132.476 72.9837C132.744 72.7809 133.072 72.6742 133.408 72.6811C134.263 72.6036 135.125 72.557 135.996 72.5493C135.786 73.016 135.643 73.5094 135.568 74.0155C135.454 74.6303 135.384 75.2525 135.359 75.8773C134.858 75.8116 134.349 75.856 133.867 76.0074C133.385 76.1589 132.942 76.4136 132.569 76.7539C132.16 75.7984 132.026 74.7482 132.18 73.7207V73.7129ZM136.066 79.919C135.351 79.709 134.685 79.3581 134.108 78.8872C133.485 78.3587 132.984 77.7025 132.639 76.9634C132.995 76.6224 133.425 76.3665 133.894 76.2147C134.364 76.0629 134.862 76.0191 135.351 76.0868C135.304 77.3968 135.551 78.7008 136.073 79.9035L136.066 79.919ZM135.716 81.8972C134.622 81.5969 133.633 81.0009 132.856 80.175C132.492 79.7654 132.263 79.2532 132.202 78.7087C132.141 78.1642 132.25 77.6141 132.515 77.134C132.868 77.8718 133.379 78.5234 134.011 79.0434C134.643 79.5633 135.382 79.939 136.174 80.144C136.424 80.646 136.746 81.1086 137.13 81.5171C137.137 81.7769 137.16 82.036 137.2 82.2929C136.711 82.1842 136.213 82.0446 135.724 81.8507L135.716 81.8972ZM136.415 80.1983C136.671 80.2562 136.931 80.2951 137.192 80.3147C137.146 80.6202 137.122 80.9288 137.122 81.2378C136.849 80.9143 136.615 80.5602 136.423 80.1828L136.415 80.1983ZM137.231 80.1362C136.919 80.1116 136.61 80.0597 136.307 79.9811C135.742 78.7682 135.476 77.4385 135.53 76.1023C135.949 76.1281 136.367 76.18 136.781 76.2574H136.835C136.951 77.1081 137.214 77.9323 137.612 78.6933C137.442 79.156 137.317 79.634 137.239 80.1207L137.231 80.1362ZM137.317 81.4395C137.309 81.0684 137.332 80.6973 137.387 80.3302C137.63 80.3457 137.874 80.3457 138.117 80.3302C138.258 81.1298 138.615 81.8756 139.151 82.4868C139.214 82.5629 139.281 82.6354 139.353 82.704L138.987 82.6575C138.369 82.3526 137.807 81.9461 137.324 81.455L137.317 81.4395ZM137.317 81.711C137.661 82.0397 138.042 82.3286 138.451 82.5721C138.094 82.5178 137.744 82.448 137.394 82.3627C137.361 82.1417 137.34 81.9189 137.332 81.6955L137.317 81.711ZM146.284 89.0885C145.675 89.5842 144.968 89.9463 144.209 90.1513C142.072 90.5625 140.324 88.5145 139.244 86.7302C138.399 85.458 137.784 84.0482 137.426 82.5644C137.923 82.673 138.42 82.7661 138.925 82.8281C139.072 82.9057 139.222 82.9757 139.376 83.0376C139.356 83.2808 139.382 83.5257 139.454 83.759C139.634 84.2155 139.932 84.6167 140.316 84.9227C140.535 85.1075 140.763 85.281 141 85.4424C141.278 85.8953 141.683 86.2568 142.165 86.482C142.714 86.6916 143.295 86.8019 143.883 86.8078L144.916 86.8776H145.048C145.202 87.2998 145.458 87.6778 145.792 87.9781C146.127 88.2784 146.531 88.492 146.968 88.5998L146.284 89.0885ZM147.162 88.4757C146.741 88.3915 146.347 88.2063 146.014 87.936C145.681 87.6656 145.419 87.3183 145.25 86.9241C146.23 87.0467 147.216 87.1037 148.203 87.0948H149.058L147.162 88.4757ZM148.211 86.9241L147.527 86.8854L145.196 86.7225C145.112 86.3185 145.155 85.8983 145.32 85.52C146.311 86.2393 147.464 86.703 148.677 86.8698H148.879L148.211 86.9241ZM153.176 86.0088C153.043 86.0988 152.906 86.1817 152.764 86.257C152.856 86.157 152.936 86.0478 153.005 85.9312C153.205 85.7064 153.382 85.4621 153.534 85.202C153.743 85.1632 153.961 85.1089 154.186 85.0546C153.903 85.4101 153.568 85.7213 153.192 85.9777L153.176 86.0088ZM156.859 83.2393C156.293 83.9508 155.519 84.4687 154.645 84.721C155.072 84.0034 155.367 83.2152 155.515 82.3937C156.048 82.6053 156.623 82.6878 157.193 82.6342C157.108 82.8362 157.001 83.0287 156.875 83.2082L156.859 83.2393ZM158.11 82.2773C157.902 82.3437 157.689 82.393 157.473 82.4247C157.589 82.0818 157.655 81.7237 157.667 81.3619C157.971 81.4705 158.274 81.5792 158.561 81.711C158.576 81.8296 158.602 81.9465 158.639 82.0601C158.472 82.1326 158.301 82.1948 158.126 82.2463L158.11 82.2773ZM161.832 82.9135C161.668 83.0645 161.472 83.176 161.257 83.2393L161.211 83.2005C161.4 83.0532 161.617 82.9451 161.848 82.8824L161.832 82.9135ZM160.395 79.0346C160.951 78.8066 161.563 78.7525 162.151 78.8795C162.005 79.4627 161.644 79.9696 161.141 80.2991C160.525 80.8562 159.862 81.3597 159.159 81.8041L158.74 81.6024C158.713 81.0476 158.86 80.4983 159.159 80.03C159.458 79.5618 159.895 79.1977 160.41 78.9881L160.395 79.0346ZM158.763 81.8196L158.965 81.9127L158.81 81.9903C158.794 81.9188 158.783 81.8462 158.779 81.7731L158.763 81.8196ZM160.465 83.3169C160.125 83.2825 159.799 83.1608 159.52 82.9637C159.241 82.7666 159.018 82.5008 158.872 82.192L159.175 82.0368C159.809 82.3588 160.399 82.7603 160.931 83.2315L160.799 83.3556C160.69 83.3386 160.583 83.31 160.48 83.2703L160.465 83.3169ZM162.454 86.4199C161.993 86.4757 161.527 86.3506 161.156 86.0708C160.961 85.9326 160.795 85.7562 160.669 85.5522C160.544 85.3481 160.461 85.1208 160.426 84.8839C160.4 84.6446 160.423 84.4024 160.495 84.1727C160.568 83.943 160.687 83.7308 160.846 83.5496L161.172 83.4953C161.225 83.5404 161.274 83.5897 161.32 83.6427C161.794 83.9995 162.749 85.1477 162.439 86.3811L162.454 86.4199Z" fill="#3A2154"/>
</svg>
