<svg width="274" height="409" viewBox="0 0 274 409" fill="none" xmlns="http://www.w3.org/2000/svg">
<ellipse cx="116.25" cy="401.25" rx="71.25" ry="7.5" fill="#949494"/>
<path d="M91.1888 362.16L86.7207 365.921L91.9037 374.065L96.3719 370.304L91.1888 362.16Z" fill="#F69A9E"/>
<path d="M91.4531 401.775L72.5859 372.114C72.9506 371.545 73.4263 371.057 73.9847 370.676C76.378 368.897 80.8928 367.149 83.6669 365.936C83.9933 365.797 84.2886 365.664 84.5605 365.532C84.935 365.367 85.2984 365.177 85.6484 364.965C87.7077 363.66 88.5158 365.742 88.5158 365.742C87.4823 370.614 94.0563 371.182 93.8698 374.111C93.8698 374.111 93.7999 375.354 93.1782 379.061C92.5566 382.768 93.7066 387.655 94.4526 391.968C95.4084 397.54 94.3671 399.956 93.2559 401.005C92.7698 401.474 92.1281 401.748 91.4531 401.775Z" fill="#1D1B13"/>
<path d="M91.4531 401.775L72.5859 372.114C72.9506 371.546 73.4263 371.057 73.9847 370.677L93.2559 400.982C92.7734 401.46 92.1313 401.742 91.4531 401.775Z" fill="#595A5A"/>
<path d="M74.5126 375.145L73.9531 374.259C74.9605 374.414 75.9886 374.368 76.9782 374.124C77.9677 373.88 78.8992 373.442 79.7189 372.837C80.8154 372.019 81.7317 370.984 82.4108 369.797C83.09 368.61 83.5174 367.296 83.6665 365.936C83.9928 365.796 84.2881 365.664 84.5601 365.532C84.454 367.095 84.0092 368.617 83.2564 369.991C82.5037 371.365 81.461 372.559 80.2007 373.489C78.5626 374.701 76.5453 375.288 74.5126 375.145Z" fill="#595A5A"/>
<path d="M91.1111 379.628C91.0244 379.51 90.9862 379.363 91.0045 379.217C91.0227 379.071 91.0959 378.938 91.2092 378.845C91.3225 378.751 91.4672 378.705 91.6136 378.715C91.7601 378.725 91.8973 378.79 91.997 378.898L93.6366 380.452C93.7098 380.497 93.7722 380.558 93.8191 380.63C93.866 380.702 93.8963 380.784 93.908 380.869C93.9196 380.954 93.9122 381.041 93.8863 381.123C93.8603 381.205 93.8166 381.281 93.7581 381.344C93.6997 381.407 93.6279 381.456 93.5481 381.488C93.4683 381.521 93.3823 381.535 93.2964 381.53C93.2105 381.525 93.1268 381.501 93.0512 381.459C92.9757 381.418 92.9102 381.361 92.8595 381.291L91.2199 379.737C91.1791 379.706 91.1425 379.669 91.1111 379.628Z" fill="white"/>
<path d="M91.2117 382.169C91.125 382.051 91.0868 381.904 91.105 381.758C91.1233 381.612 91.1965 381.479 91.3098 381.386C91.4231 381.292 91.5677 381.246 91.7142 381.256C91.8607 381.266 91.9978 381.331 92.0976 381.439L93.7372 382.993C93.8344 383.099 93.8883 383.238 93.8883 383.381C93.8883 383.525 93.8344 383.664 93.7372 383.77C93.6279 383.879 93.4798 383.94 93.3253 383.94C93.1709 383.94 93.0228 383.879 92.9135 383.77L91.2816 382.216C91.2568 382.203 91.2334 382.187 91.2117 382.169Z" fill="white"/>
<path d="M91.3518 384.679C91.2826 384.57 91.2518 384.442 91.2645 384.313C91.2772 384.185 91.3326 384.065 91.4218 383.972C91.531 383.863 91.6792 383.802 91.8336 383.802C91.9881 383.802 92.1362 383.863 92.2455 383.972L93.8851 385.526C93.9646 385.635 94.0038 385.769 93.9959 385.903C93.988 386.038 93.9335 386.166 93.8417 386.265C93.75 386.364 93.6266 386.429 93.4928 386.447C93.359 386.465 93.2229 386.436 93.108 386.365L91.4684 384.811C91.4236 384.773 91.3843 384.728 91.3518 384.679Z" fill="white"/>
<path d="M91.725 387.306C91.6544 387.197 91.6228 387.068 91.6356 386.94C91.6483 386.811 91.7045 386.691 91.795 386.598C91.901 386.501 92.0397 386.447 92.1835 386.447C92.3274 386.447 92.466 386.501 92.572 386.598L94.2117 388.153C94.2912 388.262 94.3304 388.395 94.3225 388.53C94.3146 388.665 94.2601 388.793 94.1683 388.892C94.0766 388.991 93.9532 389.055 93.8194 389.073C93.6855 389.092 93.5495 389.063 93.4346 388.992L91.795 387.438C91.7662 387.397 91.7427 387.352 91.725 387.306Z" fill="white"/>
<path d="M92.2615 390.018C92.1748 389.899 92.1366 389.752 92.1548 389.607C92.1731 389.461 92.2463 389.328 92.3596 389.234C92.4729 389.141 92.6175 389.094 92.764 389.104C92.9105 389.114 93.0476 389.18 93.1474 389.287L94.787 390.842C94.8842 390.948 94.9381 391.086 94.9381 391.23C94.9381 391.374 94.8842 391.513 94.787 391.619C94.6777 391.728 94.5296 391.789 94.3751 391.789C94.2207 391.789 94.0726 391.728 93.9633 391.619L92.3237 390.064C92.3019 390.05 92.2812 390.035 92.2615 390.018Z" fill="white"/>
<path d="M145.343 309.358V309.56L144.837 310.493C137.328 324.281 128.985 337.598 119.855 350.372C118.044 352.858 116.187 355.329 114.291 357.723C113.457 358.759 112.618 359.795 111.773 360.831C108.88 364.517 105.418 367.717 101.516 370.311L100.381 371.026C99.651 371.477 98.8972 371.912 98.1202 372.347L96.9856 372.969C96.9856 372.969 91.3286 367.016 88.6943 361.251C88.6943 361.251 89.4326 360.054 90.6137 358.142C90.8468 357.754 91.0955 357.365 91.3908 356.915L94.1338 352.353C98.6874 344.738 104.826 334.294 107.119 329.445C108.797 325.902 110.786 321.962 113.017 318.092C113.444 317.354 113.871 316.624 114.314 315.893L114.47 315.637C117.256 310.834 120.606 306.381 124.447 302.372L116.319 254.598L115.806 251.599L133.687 245.273L134.712 244.916L138.971 243.408C138.971 243.408 139.312 244.963 139.841 247.675C139.903 248.001 139.965 248.343 140.035 248.7C142.405 260.978 147.713 291.594 145.343 309.358Z" fill="#F15E3C"/>
<path d="M101.493 370.319L100.359 371.034L93.4349 361.833L92.7977 360.994L90.5908 358.08C90.8239 357.691 91.0726 357.303 91.3679 356.852L93.5204 359.704L94.1576 360.551L101.493 370.319Z" fill="#CF2027"/>
<path d="M145.343 309.358V309.56L144.838 310.492C142.232 309.978 139.74 309.002 137.479 307.61C137.347 307.521 137.255 307.384 137.223 307.229C137.191 307.073 137.222 306.911 137.308 306.778C137.35 306.711 137.406 306.654 137.471 306.609C137.536 306.564 137.609 306.532 137.686 306.515C137.764 306.499 137.843 306.498 137.921 306.512C137.999 306.526 138.073 306.556 138.139 306.599C140.354 307.946 142.795 308.88 145.343 309.358Z" fill="#CF2027"/>
<path d="M129.078 304.004C128.985 304.09 120.017 313.01 94.11 360.582L93.4106 361.865L92.7734 361.025L93.4728 359.735C117.515 315.629 126.692 305.108 128.2 303.554C126.094 295.783 119.652 255.795 119.357 254.078C119.346 254.015 119.347 253.951 119.361 253.89C119.375 253.828 119.402 253.77 119.439 253.718C119.476 253.667 119.522 253.623 119.576 253.59C119.63 253.557 119.691 253.535 119.753 253.526C119.816 253.515 119.88 253.516 119.943 253.53C120.005 253.544 120.064 253.57 120.116 253.607C120.168 253.644 120.212 253.691 120.246 253.745C120.28 253.799 120.302 253.859 120.313 253.922C120.375 254.35 127.198 296.521 129.202 303.554C129.222 303.633 129.221 303.716 129.2 303.795C129.178 303.874 129.136 303.946 129.078 304.004Z" fill="#CF2027"/>
<path d="M86.3474 231.737C86.3474 231.737 85.0031 244.504 87.9016 251.614C90.8 258.724 128.41 255.064 137.991 248.669C141.923 246.043 133.547 221.829 133.547 221.829L86.3474 231.737Z" fill="#F15E3C"/>
<path d="M140.036 248.731C139.471 248.632 138.915 248.489 138.373 248.304C137.504 248.007 136.674 247.605 135.902 247.107C135.099 246.578 134.356 245.963 133.687 245.273C129.545 241.093 128.325 234.767 128.248 234.464C128.224 234.339 128.251 234.209 128.323 234.103C128.395 233.997 128.507 233.925 128.632 233.901C128.758 233.877 128.888 233.904 128.994 233.977C129.099 234.049 129.172 234.16 129.196 234.286C129.196 234.356 130.478 240.937 134.69 244.916C135.217 245.421 135.792 245.874 136.407 246.268C137.133 246.741 137.916 247.119 138.738 247.395C139.088 247.504 139.437 247.597 139.795 247.674C139.904 248.032 139.966 248.382 140.036 248.731Z" fill="#CF2027"/>
<path d="M116.831 252.306C116.836 252.43 116.791 252.551 116.706 252.643C116.622 252.735 116.505 252.789 116.381 252.795C116.255 252.802 116.133 252.759 116.038 252.677C115.944 252.594 115.886 252.478 115.876 252.353C115.79 250.604 115.689 248.817 115.58 247.03C115.58 246.719 115.541 246.4 115.518 246.089C115.137 240.254 114.656 234.527 114.29 230.478C114.29 230.152 114.236 229.833 114.205 229.53C114.127 228.644 114.049 227.859 113.987 227.199L114.943 227.043C115.005 227.712 115.083 228.504 115.161 229.375C115.161 229.685 115.215 229.996 115.246 230.323C115.611 234.332 116.085 240.013 116.466 245.817C116.466 246.136 116.513 246.455 116.528 246.773C116.637 248.638 116.746 250.495 116.831 252.306Z" fill="#CF2027"/>
<path d="M118.207 246.144C117.662 246.4 117.098 246.616 116.521 246.789C116.21 246.887 115.893 246.968 115.573 247.03C115.271 247.091 114.964 247.13 114.656 247.146C114.105 247.202 113.548 247.117 113.04 246.897C112.75 246.76 112.497 246.553 112.305 246.296C112.113 246.039 111.986 245.738 111.936 245.421C111.587 243.618 110.848 236.189 110.382 230.929C110.343 230.61 110.32 230.291 110.289 229.988C110.211 229.149 110.141 228.38 110.079 227.727L111.043 227.611C111.097 228.263 111.167 229.04 111.252 229.887C111.252 230.198 111.307 230.509 111.338 230.835C111.835 236.081 112.573 243.502 112.892 245.25C112.918 245.417 112.985 245.576 113.087 245.711C113.188 245.847 113.321 245.955 113.475 246.027C114.14 246.236 114.853 246.236 115.519 246.027C115.845 245.957 116.164 245.864 116.467 245.771C116.919 245.621 117.362 245.447 117.795 245.25C117.909 245.193 118.04 245.183 118.161 245.222C118.282 245.261 118.382 245.347 118.44 245.46C118.478 245.518 118.503 245.584 118.511 245.653C118.52 245.723 118.513 245.793 118.491 245.859C118.468 245.924 118.431 245.984 118.382 246.034C118.333 246.083 118.273 246.121 118.207 246.144Z" fill="#CF2027"/>
<path d="M102.083 379.147L103.039 386.715H112.69L113.249 378.75L102.083 379.147Z" fill="#F69A9E"/>
<path d="M114.26 247.97V377.895L114.12 379.955H99.7983C99.6429 379.014 99.301 377.499 98.8425 375.549C98.7493 375.129 98.6405 374.678 98.5317 374.22C96.6667 366.27 93.4652 352.726 92.898 340.946C92.1209 324.13 92.3229 302.341 92.3229 302.341C90.6833 289.838 88.119 262.765 86.8835 248.91C86.8446 248.576 86.8213 248.257 86.7902 247.946C86.3628 243.284 86.0986 240.362 86.0986 240.362C88.4298 239.399 92.5871 240.059 97.0397 241.326C97.3661 241.411 97.6847 241.505 98.0111 241.606C103.56 243.37 108.988 245.496 114.26 247.97Z" fill="#F15E3C"/>
<path d="M114.26 374.22V375.549H98.843C98.7498 375.129 98.641 374.678 98.5322 374.22H114.26Z" fill="#CF2027"/>
<path d="M114.26 305.255V306.498C112.491 306.901 110.681 307.089 108.867 307.058C106.715 307.047 104.567 306.879 102.441 306.553C102.363 306.54 102.289 306.511 102.222 306.469C102.156 306.428 102.098 306.373 102.052 306.309C102.007 306.244 101.975 306.172 101.957 306.095C101.94 306.018 101.938 305.939 101.951 305.861C101.962 305.783 101.989 305.709 102.03 305.642C102.071 305.575 102.125 305.516 102.189 305.471C102.252 305.425 102.325 305.393 102.402 305.376C102.478 305.359 102.558 305.357 102.635 305.372C102.72 305.379 109.737 306.522 114.26 305.255Z" fill="#CF2027"/>
<path d="M101.243 375.549H100.272C100.194 375.139 100.109 374.696 100.015 374.22C98.7488 367.49 96.4331 354.91 95.2287 346.743C93.5502 335.343 94.335 303.724 94.3661 302.45C93.0917 291.571 90.4808 254.342 90.4808 253.969C90.4762 253.905 90.4841 253.842 90.504 253.782C90.524 253.721 90.5557 253.666 90.5971 253.618C90.6386 253.57 90.6892 253.53 90.7459 253.502C90.8026 253.474 90.8643 253.457 90.9276 253.452C90.9909 253.447 91.0544 253.455 91.1146 253.475C91.1748 253.495 91.2305 253.527 91.2785 253.568C91.3265 253.61 91.3658 253.66 91.3943 253.717C91.4227 253.774 91.4397 253.836 91.4443 253.899C91.4443 254.272 94.0708 291.571 95.3297 302.372C95.3334 302.395 95.3334 302.419 95.3297 302.442C95.3297 302.769 94.4827 335.079 96.1767 346.564C97.3889 354.785 99.7356 367.498 100.994 374.181C101.049 374.694 101.165 375.145 101.243 375.549Z" fill="#CF2027"/>
<path d="M116.365 399.622C116.365 399.708 116.365 399.793 116.365 399.871C116.365 400.259 116.365 400.609 116.327 400.904C116.327 401.557 116.241 401.961 116.241 401.961H94.4832C94.421 401.266 94.421 400.566 94.4832 399.871C94.623 397.648 95.3612 394.144 98.3685 391.82C102.487 388.642 100.894 389.303 101.741 387.857C101.834 387.694 102.572 385.231 102.65 385.06C103.357 383.56 104.01 382.845 107.911 382.845C113.078 382.845 113.529 385.355 114.081 386.676C114.438 387.678 114.726 388.704 114.943 389.746C115.075 390.297 115.2 390.88 115.332 391.478C115.65 392.978 115.946 394.54 116.148 395.791C116.329 397.06 116.402 398.341 116.365 399.622Z" fill="#1D1B13"/>
<path d="M116.366 399.622C116.366 399.708 116.366 399.793 116.366 399.871C116.366 400.259 116.366 400.609 116.327 400.904C115.286 400.188 114.495 399.163 114.066 397.975C112.722 394.307 114.789 389.909 114.843 389.722H114.89C115.022 390.274 115.146 390.857 115.278 391.455C114.789 392.955 114.221 395.473 115.006 397.602C115.29 398.375 115.757 399.068 116.366 399.622Z" fill="#595A5A"/>
<path d="M116.358 399.91C116.358 401.153 116.233 402 116.233 402H94.4754C94.4132 401.305 94.4132 400.605 94.4754 399.91H116.358Z" fill="#595A5A"/>
<path d="M108.595 389.629C108.544 389.637 108.491 389.637 108.44 389.629C106.79 389.196 105.062 389.161 103.396 389.528C103.24 389.566 103.075 389.541 102.936 389.459C102.798 389.378 102.696 389.246 102.653 389.091C102.61 388.936 102.628 388.77 102.704 388.628C102.781 388.487 102.909 388.38 103.062 388.331C104.939 387.905 106.89 387.939 108.75 388.432C108.832 388.452 108.908 388.488 108.975 388.538C109.042 388.589 109.098 388.652 109.14 388.725C109.181 388.798 109.208 388.878 109.217 388.962C109.226 389.045 109.218 389.129 109.193 389.209C109.151 389.334 109.07 389.441 108.962 389.516C108.855 389.592 108.726 389.631 108.595 389.629Z" fill="white"/>
<path d="M109.084 387.228C109.033 387.236 108.98 387.236 108.929 387.228C107.28 386.795 105.551 386.76 103.886 387.127C103.729 387.164 103.564 387.14 103.426 387.058C103.287 386.977 103.185 386.845 103.142 386.69C103.099 386.535 103.117 386.369 103.194 386.227C103.27 386.086 103.398 385.979 103.552 385.93C105.428 385.503 107.379 385.535 109.24 386.023C109.32 386.045 109.395 386.082 109.461 386.133C109.527 386.184 109.582 386.247 109.623 386.32C109.664 386.392 109.691 386.472 109.701 386.554C109.711 386.637 109.705 386.72 109.683 386.801C109.641 386.926 109.561 387.035 109.453 387.112C109.346 387.189 109.217 387.23 109.084 387.228Z" fill="white"/>
<path d="M107.662 391.595H107.507C105.858 391.163 104.129 391.128 102.464 391.494C102.384 391.516 102.301 391.523 102.219 391.513C102.137 391.504 102.057 391.478 101.985 391.437C101.913 391.397 101.849 391.343 101.798 391.278C101.747 391.213 101.709 391.138 101.687 391.059C101.663 390.979 101.656 390.896 101.665 390.813C101.674 390.731 101.7 390.651 101.74 390.578C101.781 390.506 101.836 390.442 101.901 390.392C101.967 390.341 102.042 390.303 102.122 390.282C103.995 389.854 105.944 389.886 107.802 390.375C107.953 390.409 108.086 390.498 108.174 390.625C108.263 390.751 108.301 390.906 108.282 391.059C108.263 391.213 108.187 391.353 108.069 391.454C107.952 391.554 107.801 391.607 107.647 391.603L107.662 391.595Z" fill="white"/>
<path d="M106.574 393.825H106.419C104.77 393.392 103.042 393.355 101.376 393.717C101.296 393.741 101.212 393.75 101.129 393.741C101.046 393.732 100.966 393.707 100.894 393.666C100.821 393.625 100.757 393.57 100.706 393.504C100.656 393.438 100.619 393.362 100.598 393.281C100.575 393.202 100.567 393.119 100.576 393.037C100.584 392.955 100.609 392.876 100.649 392.803C100.689 392.731 100.743 392.667 100.807 392.616C100.872 392.565 100.946 392.527 101.026 392.504C102.903 392.082 104.853 392.117 106.714 392.605C106.858 392.646 106.982 392.736 107.064 392.861C107.146 392.985 107.181 393.135 107.162 393.282C107.144 393.43 107.072 393.567 106.961 393.666C106.851 393.766 106.708 393.822 106.559 393.825H106.574Z" fill="white"/>
<path d="M100.638 234.495C100.115 236.984 99.216 239.379 97.9728 241.598C96.7865 243.808 95.0829 245.698 93.0073 247.107C91.1675 248.29 89.0248 248.916 86.8374 248.91C86.8374 248.576 86.783 248.257 86.752 247.946C88.7832 247.968 90.7764 247.395 92.4867 246.299C94.3628 245.017 95.9097 243.311 97.0015 241.318C98.2496 239.138 99.1563 236.779 99.6901 234.324C99.7128 234.199 99.7845 234.087 99.8894 234.014C99.9943 233.941 100.124 233.913 100.25 233.936C100.374 233.96 100.485 234.033 100.557 234.137C100.63 234.241 100.659 234.37 100.638 234.495Z" fill="#CF2027"/>
<path d="M138.566 230.206C138.03 230.703 137.463 231.193 136.856 231.659C136.717 231.776 136.569 231.885 136.414 232.001C135.403 232.764 134.347 233.465 133.251 234.099L132.761 234.387C127.973 237.01 122.794 238.847 117.422 239.826C116.085 240.083 114.718 240.3 113.335 240.463C111.78 240.65 110.198 240.779 108.587 240.852C107.406 240.898 106.217 240.914 105.02 240.891H104.282C97.1806 240.735 90.1893 239.105 83.7517 236.104L83.503 235.98C83.4564 235.855 83.4098 235.715 83.3632 235.576C82.0499 231.613 80.6745 222.257 79.6876 214.354L79.6177 213.81C79.1826 210.321 78.8406 207.15 78.5842 204.905C78.5842 204.695 78.5842 204.493 78.5298 204.306C78.4832 203.933 78.4521 203.599 78.421 203.304C78.2967 202.068 78.1957 200.833 78.118 199.605C77.7758 193.551 77.7758 187.483 78.118 181.43L78.1646 180.412C78.1646 180.311 78.1646 180.217 78.1646 180.116C78.1646 180.015 78.1646 179.736 78.1646 179.549C78.2578 177.803 78.3615 176.029 78.4754 174.226C78.4754 174.047 78.4754 173.861 78.4754 173.674L78.5687 172.159L78.6153 171.382C78.7629 169.051 78.9183 166.72 79.0738 164.249C79.6255 155.483 82.0422 149.344 86.1684 146.594C86.3549 146.462 86.5491 146.345 86.7356 146.236C87.7528 145.657 88.8665 145.268 90.0226 145.086L90.4034 145.024L90.9318 144.931C92.4818 144.638 94.0029 144.209 95.4776 143.649C95.621 143.604 95.7612 143.549 95.8972 143.485L96.4179 143.276L97.195 142.926L97.8088 142.623C98.9662 142.049 100.067 141.368 101.096 140.587H115.596C116.733 142.229 118.293 143.534 120.111 144.363L120.686 144.62C120.965 144.744 121.253 144.861 121.54 144.962C122.224 145.218 122.916 145.436 123.607 145.646L124.182 145.809C128.262 146.974 132.109 147.783 133.072 152.608C133.531 154.939 132.66 158.724 131.945 164.847C131.945 165.088 131.891 165.321 131.86 165.57C131.736 166.681 131.619 167.862 131.518 169.121L131.471 169.766C131.23 172.944 131.098 176.588 131.176 180.785C131.176 181.981 131.238 183.217 131.3 184.499C131.363 185.781 131.433 186.939 131.526 188.229C131.619 189.519 131.728 190.653 131.852 191.92C131.961 193.031 132.085 194.166 132.225 195.339C132.318 196.069 132.412 196.815 132.513 197.577C132.513 197.787 132.567 197.997 132.598 198.206L132.715 198.983C132.87 200.064 133.064 201.369 133.29 202.869C133.29 203.048 133.352 203.234 133.375 203.413C133.647 205.153 133.966 207.096 134.308 209.148L134.401 209.699C135.069 213.585 135.838 217.89 136.631 221.837L136.771 222.544C137.416 225.373 138.007 228.015 138.566 230.206Z" fill="#5473B8"/>
<path d="M109.551 150.401C103.761 150.401 99.3011 144.099 99.1146 143.82C99.0779 143.777 99.0506 143.727 99.0344 143.672C99.0183 143.618 99.0137 143.561 99.0209 143.505C99.0281 143.449 99.047 143.395 99.0763 143.347C99.1057 143.299 99.1448 143.257 99.1912 143.225C99.2376 143.193 99.2903 143.171 99.3458 143.16C99.4013 143.149 99.4584 143.151 99.5134 143.163C99.5685 143.176 99.6202 143.2 99.6653 143.235C99.7103 143.269 99.7477 143.312 99.7751 143.361C99.8217 143.423 104.352 149.842 109.877 149.578C115.402 149.313 116.599 145.009 116.653 144.83C116.665 144.776 116.688 144.726 116.72 144.681C116.752 144.637 116.793 144.599 116.84 144.571C116.887 144.543 116.939 144.524 116.994 144.517C117.048 144.51 117.104 144.514 117.156 144.528C117.209 144.543 117.259 144.569 117.301 144.603C117.344 144.638 117.379 144.68 117.405 144.729C117.431 144.778 117.446 144.831 117.45 144.886C117.455 144.94 117.448 144.995 117.43 145.047C116.883 146.604 115.866 147.954 114.521 148.91C113.175 149.866 111.566 150.381 109.916 150.386L109.551 150.401Z" fill="#454FA2"/>
<path d="M119.474 225.373C114.034 225.373 108.082 223.819 101.811 220.765C96.4359 218.085 91.4182 214.74 86.876 210.81C86.838 210.773 86.8077 210.728 86.7871 210.679C86.7665 210.629 86.7559 210.576 86.7559 210.523C86.7559 210.469 86.7665 210.416 86.7871 210.367C86.8077 210.318 86.838 210.273 86.876 210.235C86.9529 210.16 87.0561 210.118 87.1635 210.118C87.271 210.118 87.3741 210.16 87.451 210.235C91.9374 214.123 96.8983 217.426 102.215 220.065C109.986 223.888 121.424 227.245 131.456 221.534C131.552 221.483 131.663 221.47 131.767 221.499C131.872 221.528 131.961 221.596 132.016 221.689C132.042 221.736 132.059 221.787 132.065 221.84C132.071 221.893 132.067 221.946 132.053 221.998C132.038 222.049 132.014 222.097 131.981 222.139C131.948 222.18 131.907 222.215 131.86 222.241C128.079 224.355 123.806 225.436 119.474 225.373Z" fill="#454FA2"/>
<path d="M120.678 220.788C112.169 220.648 105.222 209.311 104.935 208.829C104.906 208.783 104.888 208.732 104.88 208.679C104.872 208.626 104.874 208.572 104.887 208.52C104.9 208.468 104.923 208.419 104.956 208.376C104.988 208.333 105.028 208.297 105.074 208.269C105.12 208.242 105.17 208.223 105.222 208.215C105.275 208.207 105.328 208.21 105.38 208.223C105.431 208.236 105.48 208.259 105.522 208.291C105.564 208.323 105.6 208.363 105.626 208.409C105.696 208.526 112.62 219.848 120.693 219.972C120.792 219.986 120.882 220.035 120.948 220.11C121.013 220.185 121.049 220.281 121.049 220.38C121.049 220.48 121.013 220.576 120.948 220.651C120.882 220.726 120.792 220.774 120.693 220.788H120.678Z" fill="#454FA2"/>
<path d="M132.668 198.199C131.497 197.714 130.407 197.054 129.435 196.24C127.104 194.259 126.382 191.897 127.322 189.589L127.85 188.307C129.785 183.644 129.987 183.162 128.332 176.511C128.05 175.629 127.969 174.696 128.094 173.779C128.219 172.862 128.547 171.985 129.055 171.211C129.716 170.316 130.585 169.596 131.588 169.113C131.588 169.331 131.588 169.54 131.534 169.758C130.732 170.187 130.037 170.79 129.498 171.522C129.037 172.233 128.74 173.038 128.629 173.878C128.517 174.718 128.594 175.572 128.853 176.379C130.554 183.201 130.306 183.807 128.348 188.516L127.827 189.791C126.677 192.596 128.604 194.772 129.793 195.829C130.636 196.537 131.575 197.123 132.583 197.569C132.614 197.779 132.637 197.989 132.668 198.199Z" fill="#454FA2"/>
<path d="M88.5077 202.449C87.828 203.447 86.906 204.256 85.8281 204.799C84.7503 205.343 83.5519 205.604 82.3456 205.558C81.0604 205.542 79.7876 205.303 78.5846 204.85C78.5846 204.641 78.5846 204.439 78.5224 204.252C83.0217 205.969 86.4796 204.555 88.0571 202.123C88.7988 201.09 89.1031 199.807 88.9038 198.551C88.7044 197.295 88.0176 196.169 86.9925 195.417C84.0785 193.241 84.8478 191.454 85.6637 189.573C86.4796 187.693 87.2955 185.797 85.3062 182.922C84.8354 182.16 84.2143 181.503 83.4808 180.99C82.7472 180.477 81.9168 180.119 81.0401 179.938C80.081 179.778 79.0991 179.821 78.1572 180.062C78.1572 179.875 78.1572 179.681 78.1572 179.495C79.1228 179.267 80.1242 179.236 81.1023 179.401C82.0494 179.595 82.9472 179.979 83.7409 180.531C84.5345 181.082 85.2072 181.79 85.7181 182.611C87.8705 185.719 86.907 187.98 86.1299 189.783C85.3528 191.586 84.7157 193.062 87.28 194.989C88.4119 195.831 89.1726 197.079 89.4017 198.471C89.6308 199.863 89.3102 201.289 88.5077 202.449Z" fill="#454FA2"/>
<path d="M109.66 191.073C105.511 188.454 106.054 185.634 106.692 182.409C107.298 179.3 107.982 175.788 104.757 171.802L104.555 171.561C103.963 170.845 103.154 170.341 102.251 170.124C101.348 169.907 100.399 169.989 99.5461 170.358C98.6936 170.727 97.9839 171.363 97.5236 172.169C97.0634 172.976 96.8775 173.911 96.9939 174.832C97.4135 178.112 96.6675 182.393 94.8492 187.227C94.2376 188.738 93.9988 190.374 94.1529 191.997C94.3071 193.62 94.8498 195.182 95.735 196.551C98.0662 200.227 102.729 202.822 106.443 203.545C106.887 203.635 107.336 203.698 107.787 203.731C109.145 203.838 110.5 203.496 111.644 202.757C112.788 202.019 113.658 200.925 114.12 199.644C115.107 196.668 113.483 193.451 109.66 191.073ZM113.6 199.512C113.181 200.681 112.388 201.678 111.344 202.35C110.3 203.022 109.063 203.33 107.826 203.226C104.112 202.939 98.7423 200.258 96.1702 196.233C95.3181 194.938 94.7961 193.455 94.6498 191.912C94.5035 190.369 94.7374 188.814 95.331 187.382C96.1037 185.381 96.7118 183.32 97.1493 181.22C97.6152 179.093 97.7359 176.905 97.5068 174.739C97.3991 173.937 97.5584 173.122 97.9601 172.42C98.3617 171.718 98.9834 171.167 99.7292 170.854C100.432 170.545 101.212 170.456 101.967 170.597C102.813 170.772 103.574 171.233 104.12 171.903L104.306 172.136C107.414 175.92 106.746 179.13 106.14 182.292C105.495 185.587 104.881 188.711 109.349 191.524C112.932 193.769 114.509 196.753 113.6 199.512Z" fill="#454FA2"/>
<path d="M125.302 166.3C121.921 165.608 119.038 163.153 118.728 161.42C118.668 161.21 118.68 160.986 118.762 160.784C118.844 160.581 118.99 160.411 119.178 160.301C122.76 158.071 123.802 155.211 123.18 149.375C123.082 148.765 123.116 148.141 123.281 147.546C123.446 146.95 123.737 146.398 124.136 145.925L124.252 145.801L123.677 145.638C123.246 146.162 122.931 146.772 122.751 147.427C122.572 148.081 122.533 148.767 122.636 149.438C123.242 155.017 122.255 157.744 118.891 159.835C118.613 160.006 118.395 160.26 118.27 160.561C118.144 160.862 118.117 161.195 118.191 161.513C118.533 163.425 121.502 166.082 125.185 166.828C125.814 166.956 126.454 167.022 127.097 167.023C128.815 167.032 130.497 166.523 131.922 165.562C131.922 165.313 131.977 165.08 132.008 164.839C131.059 165.547 129.969 166.043 128.813 166.295C127.656 166.547 126.459 166.549 125.302 166.3Z" fill="#454FA2"/>
<path d="M110.46 157.946C109.849 157.158 109.046 156.538 108.128 156.146C107.21 155.755 106.207 155.604 105.215 155.709C104.482 155.733 103.776 155.995 103.204 156.454C102.633 156.914 102.226 157.547 102.044 158.257C101.539 160.177 102.821 160.954 104.127 161.715C105.572 162.578 107.072 163.464 106.924 166.02C106.777 168.577 107.81 170.279 109.683 170.854C110.041 170.961 110.413 171.016 110.786 171.017C111.297 171.037 111.804 170.926 112.258 170.693C112.713 170.46 113.1 170.114 113.382 169.688C115.394 166.308 112.659 160.69 110.46 157.946ZM112.915 169.408C112.569 169.88 112.077 170.225 111.516 170.392C110.955 170.559 110.355 170.538 109.807 170.333C108.191 169.836 107.305 168.235 107.429 166.051C107.6 163.168 105.805 162.104 104.368 161.249C103.07 160.472 102.138 159.92 102.534 158.397C102.687 157.791 103.036 157.251 103.526 156.862C104.016 156.473 104.62 156.256 105.246 156.245C105.432 156.245 105.619 156.245 105.805 156.245C106.616 156.254 107.414 156.445 108.141 156.802C108.869 157.16 109.507 157.676 110.009 158.312C112.146 160.915 114.788 166.261 112.915 169.408Z" fill="#454FA2"/>
<path d="M123.624 179.735C123.133 178.337 122.185 177.145 120.933 176.352C119.68 175.56 118.197 175.213 116.723 175.368C114.952 175.578 113.895 176.448 113.654 177.886C113.32 179.891 114.889 180.994 116.412 182.02C118.192 183.248 119.878 184.406 118.79 187.016C117.85 189.27 117.912 190.987 118.969 191.726C119.337 191.976 119.775 192.103 120.22 192.091C121.64 191.958 122.966 191.321 123.958 190.296C124.383 189.827 124.707 189.274 124.909 188.674C125.111 188.073 125.187 187.438 125.131 186.807C125.001 184.385 124.492 181.999 123.624 179.735ZM123.624 189.899C122.007 191.368 120.243 191.935 119.311 191.283C118.378 190.63 118.487 189.223 119.311 187.226C120.57 184.211 118.534 182.813 116.739 181.577C115.293 180.582 113.934 179.642 114.213 177.971C114.408 176.767 115.262 176.091 116.809 175.904C117.033 175.874 117.259 175.858 117.485 175.858C118.718 175.866 119.918 176.257 120.919 176.977C121.942 177.708 122.716 178.736 123.134 179.922C124.906 185.004 125.069 188.547 123.585 189.899H123.624Z" fill="#454FA2"/>
<path d="M134.378 209.14C131.806 208.844 131.192 210.391 130.493 212.147C129.864 213.701 129.149 215.488 126.88 216.553C124.113 217.851 121.137 216.506 119.63 214.509C118.503 213.017 117.905 210.733 119.591 208.798C119.929 208.48 120.199 208.097 120.386 207.673C120.573 207.248 120.672 206.791 120.679 206.327C120.601 205.239 119.676 204.462 118.783 203.708C117.633 202.737 116.537 201.812 116.902 200.25C117.036 199.632 117.34 199.064 117.779 198.61C118.219 198.156 118.776 197.833 119.389 197.678C119.856 197.546 120.34 197.481 120.826 197.484C123.194 197.616 125.419 198.654 127.043 200.382C128.745 202.144 131.034 203.219 133.477 203.405C133.477 203.226 133.423 203.04 133.391 202.861C131.121 202.654 129.001 201.639 127.416 200.001C124.953 197.554 121.751 196.435 119.249 197.157C118.543 197.34 117.902 197.715 117.397 198.24C116.892 198.766 116.543 199.421 116.389 200.134C115.954 202.014 117.283 203.133 118.456 204.128C119.295 204.835 120.088 205.511 120.158 206.366C120.143 206.757 120.051 207.142 119.887 207.498C119.723 207.854 119.49 208.175 119.202 208.44C117.609 210.267 117.648 212.714 119.202 214.828C119.834 215.667 120.648 216.353 121.581 216.834C122.515 217.316 123.545 217.581 124.595 217.61C125.466 217.607 126.325 217.413 127.113 217.043C129.568 215.885 130.361 213.934 130.998 212.38C131.705 210.616 132.195 209.404 134.487 209.723L134.378 209.14Z" fill="#454FA2"/>
<path d="M102.697 207.112C102.697 206.995 102.332 204.361 100.513 203.141C100.009 202.825 99.44 202.625 98.8485 202.556C98.257 202.488 97.6577 202.552 97.0942 202.745C94.4211 203.475 93.0457 202.807 91.4527 202.03C90.2466 201.37 88.9296 200.938 87.5674 200.755C87.1021 200.696 86.6296 200.729 86.1773 200.853C85.725 200.978 85.3018 201.191 84.9325 201.48C84.5631 201.769 84.2548 202.129 84.0255 202.538C83.7961 202.947 83.6504 203.398 83.5966 203.864C83.5019 204.394 83.5134 204.938 83.6305 205.464C83.7476 205.99 83.968 206.488 84.2788 206.928C84.5896 207.368 84.9847 207.742 85.4411 208.028C85.8976 208.315 86.4064 208.508 86.9379 208.596C88.8115 208.985 90.7601 208.767 92.5017 207.974C93.9082 207.461 94.934 207.088 96.2394 208.06C97.3509 208.939 98.7091 209.45 100.125 209.521C100.622 209.532 101.114 209.425 101.562 209.21C101.942 209.012 102.256 208.707 102.465 208.333C102.673 207.958 102.767 207.531 102.736 207.104L102.697 207.112ZM101.275 208.751C100.133 209.334 98.1666 208.876 96.5192 207.648C95.959 207.198 95.264 206.949 94.5454 206.941C93.763 206.993 92.9954 207.179 92.2764 207.493C90.6353 208.234 88.7997 208.43 87.039 208.052C86.5751 207.977 86.1308 207.81 85.732 207.562C85.3331 207.313 84.9877 206.988 84.7158 206.605C84.4439 206.221 84.251 205.788 84.1482 205.329C84.0454 204.871 84.0349 204.396 84.1172 203.934C84.1634 203.538 84.2874 203.155 84.4822 202.807C84.677 202.459 84.9386 202.153 85.2521 201.907C85.5655 201.661 85.9246 201.479 86.3086 201.372C86.6926 201.265 87.094 201.235 87.4897 201.284C88.7946 201.459 90.0563 201.873 91.2118 202.504C92.8359 203.281 94.3667 204.058 97.2341 203.281C97.7233 203.113 98.2433 203.055 98.7576 203.11C99.2718 203.165 99.7677 203.332 100.21 203.599C101.764 204.641 102.13 206.972 102.161 207.174C102.181 207.494 102.108 207.814 101.951 208.094C101.794 208.374 101.559 208.602 101.275 208.751Z" fill="#454FA2"/>
<path d="M85.7171 222.544C86.8361 221.425 88.2349 220.042 87.4112 217.26C87.2449 216.623 86.9457 216.029 86.5332 215.516C86.1207 215.003 85.6042 214.583 85.0178 214.284C83.3005 213.39 81.1325 213.507 79.6172 213.787L79.6871 214.331C80.377 214.206 81.0764 214.141 81.7774 214.136C82.8105 214.105 83.8362 214.321 84.7691 214.766C85.2886 215.034 85.746 215.409 86.1114 215.865C86.4769 216.322 86.7423 216.85 86.8905 217.416C87.621 219.887 86.4631 221.037 85.3364 222.156C84.2096 223.275 82.9586 224.487 85.2509 226.966C87.5433 229.445 87.4655 232.576 86.129 234.278C85.8054 234.698 85.3846 235.034 84.9028 235.256C84.4209 235.478 83.8924 235.58 83.3626 235.552C83.4015 235.692 83.4559 235.832 83.5025 235.956L83.7512 236.081C84.297 236.053 84.8302 235.907 85.3144 235.653C85.7986 235.4 86.2223 235.045 86.5564 234.612C88.0328 232.732 88.1105 229.219 85.6472 226.593C83.7201 224.534 84.5127 223.741 85.7171 222.544Z" fill="#454FA2"/>
<path d="M130.835 230.509C129.475 229.654 127.727 229.561 125.644 230.245C123.724 230.834 122.082 232.098 121.021 233.804C119.793 235.521 119.047 236.555 113.973 234.581C108.533 232.452 104.648 233.656 103.374 235.677C102.418 237.184 102.768 239.088 104.283 240.898H105.021C103.397 239.166 102.954 237.347 103.832 235.949C104.547 234.814 106.202 233.975 108.58 233.975C110.366 234.014 112.129 234.385 113.779 235.07C118.993 237.099 120.042 236.081 121.464 234.099C122.455 232.489 123.999 231.295 125.808 230.742C127.735 230.113 129.328 230.183 130.54 230.952C131.688 231.782 132.481 233.014 132.762 234.402L133.252 234.115C132.918 232.656 132.057 231.372 130.835 230.509Z" fill="#454FA2"/>
<path d="M100.086 229.196C98.338 228.473 98.4701 227.976 98.7498 226.865C99.1575 225.597 99.1302 224.23 98.6721 222.979C98.5331 222.522 98.2954 222.1 97.9759 221.745C97.6564 221.389 97.2627 221.107 96.8227 220.92C94.7246 220.065 91.9427 221.394 91.8261 221.456H91.7795C89.3784 223.228 89.7048 226.119 90.4197 228.947C91.3366 232.63 93.6678 234.783 96.9703 235.001H97.2501C98.2309 234.991 99.1848 234.679 99.9807 234.105C100.777 233.532 101.375 232.726 101.695 231.799C101.967 230.696 101.376 229.732 100.086 229.196ZM101.166 231.721C100.855 232.563 100.285 233.284 99.5379 233.781C98.7909 234.278 97.9056 234.525 97.0092 234.488C93.1238 234.223 91.5697 231.271 90.9403 228.838C90.0389 225.217 90.3652 223.212 92.0826 221.93C92.339 221.806 94.8334 220.695 96.6129 221.425C96.9834 221.582 97.3148 221.819 97.5835 222.118C97.8521 222.418 98.0514 222.773 98.167 223.158C98.5863 224.309 98.6081 225.568 98.2292 226.733C97.9028 228.015 97.8018 228.838 99.8765 229.701C100.933 230.128 101.376 230.828 101.166 231.721Z" fill="#454FA2"/>
<path d="M136.794 231.62C136.204 231.22 135.71 230.693 135.35 230.077C134.989 229.461 134.771 228.773 134.712 228.061C134.58 225.987 135.823 223.881 136.833 222.536L136.693 221.829C135.598 223.189 134.013 225.621 134.176 228.093C134.238 228.865 134.47 229.613 134.856 230.285C135.241 230.957 135.771 231.535 136.406 231.978L136.849 231.636L136.794 231.62Z" fill="#454FA2"/>
<path d="M102.884 127.602C99.7021 124.969 97.6409 121.224 97.1179 117.127C96.3953 110.444 101.205 108.043 101.205 108.043C101.205 108.043 98.641 101.477 107.422 101.718C116.203 101.959 121.743 98.1978 125.986 98.835C130.229 99.4722 126.242 109.489 120.951 109.046C115.659 108.603 101.198 116.428 102.884 127.602Z" fill="#FEC566"/>
<path d="M116.256 138.326V142.102C115.833 142.446 115.386 142.76 114.92 143.042C108.361 146.982 101.29 142.102 101.29 142.102V129.009L114.5 137.214L116.256 138.326Z" fill="#F69A9E"/>
<path d="M116.256 138.326V142.102C115.833 142.446 115.386 142.76 114.92 143.043C109.34 140.828 105.276 134.977 105.276 134.977L114.469 137.215L116.256 138.326Z" fill="#1D1B13"/>
<path d="M117.049 107.585C117.049 107.585 126.172 108.44 122.877 117.99C122.877 117.99 116.839 110.064 117.049 107.585Z" fill="#FEC566"/>
<path d="M120.974 121.595C120.974 121.595 123.118 119.062 124.331 121.595C125.543 124.129 124.61 129.257 121.347 128.418L120.974 121.595Z" fill="#F3736F"/>
<path d="M123.266 130.477C123.266 130.477 123.266 138.287 115.154 138.248C107.041 138.209 101.586 131.892 101.299 131.596L101.213 129.957L100.755 121.409L100.506 116.863C100.506 116.863 99.4957 108.712 107.266 107.212C112.955 106.124 118.293 107.064 120.982 110.04C122.012 111.177 122.64 112.622 122.769 114.151L123.018 122.326L123.08 124.331L123.266 130.477Z" fill="#F69A9E"/>
<path d="M112.418 123.328C112.418 123.895 111.253 124.362 109.807 124.362C108.362 124.362 107.188 123.895 107.188 123.328C107.188 122.761 108.362 122.302 109.807 122.302C111.253 122.302 112.418 122.761 112.418 123.328Z" fill="#F3736F"/>
<path d="M123.071 124.331C122.869 124.331 122.66 124.331 122.442 124.331C120.997 124.331 119.831 123.864 119.831 123.297C119.831 122.73 120.997 122.271 122.442 122.271C122.636 122.271 122.831 122.271 123.009 122.271L123.071 124.331Z" fill="#F3736F"/>
<path d="M112.332 120.204C112.332 120.981 111.983 121.611 111.555 121.611C111.128 121.611 110.778 120.981 110.778 120.204C110.778 119.427 111.128 118.79 111.555 118.79C111.983 118.79 112.332 119.388 112.332 120.204Z" fill="#1D1B13"/>
<path d="M120.057 120.204C120.057 120.981 119.707 121.611 119.28 121.611C118.853 121.611 118.503 120.981 118.503 120.204C118.503 119.427 118.853 118.79 119.28 118.79C119.707 118.79 120.057 119.388 120.057 120.204Z" fill="#1D1B13"/>
<path d="M116.085 124.129C116.001 124.129 115.92 124.095 115.86 124.035C115.8 123.976 115.767 123.895 115.767 123.81C115.767 123.726 115.8 123.645 115.86 123.585C115.92 123.525 116.001 123.492 116.085 123.492C116.454 123.515 116.824 123.445 117.159 123.289C117.494 123.133 117.785 122.895 118.005 122.598C116.723 119.956 115.448 117.291 115.44 117.267C115.422 117.229 115.411 117.188 115.409 117.147C115.406 117.105 115.412 117.063 115.426 117.023C115.439 116.983 115.461 116.947 115.489 116.915C115.517 116.884 115.55 116.858 115.588 116.84C115.626 116.821 115.667 116.811 115.709 116.808C115.751 116.806 115.793 116.811 115.832 116.825C115.872 116.839 115.909 116.86 115.94 116.888C115.971 116.916 115.997 116.95 116.015 116.987C116.015 116.987 117.352 119.777 118.657 122.427C118.677 122.471 118.687 122.519 118.687 122.567C118.687 122.615 118.677 122.663 118.657 122.707C118.408 123.163 118.033 123.539 117.578 123.791C117.123 124.043 116.605 124.16 116.085 124.129Z" fill="#1D1B13"/>
<path d="M108.424 116.614C108.603 115.791 109.295 114.244 111.929 114.128C112.085 114.123 112.239 114.17 112.364 114.264C112.49 114.357 112.58 114.49 112.62 114.641C112.646 114.733 112.652 114.829 112.638 114.923C112.624 115.018 112.591 115.108 112.541 115.189C112.491 115.27 112.424 115.34 112.345 115.394C112.267 115.448 112.178 115.485 112.084 115.503C111.599 115.577 111.139 115.765 110.74 116.052C110.342 116.338 110.017 116.715 109.792 117.151C109.747 117.234 109.685 117.308 109.611 117.366C109.536 117.425 109.45 117.468 109.358 117.492C109.266 117.516 109.17 117.521 109.077 117.506C108.983 117.492 108.893 117.458 108.813 117.407L108.735 117.36C108.612 117.284 108.517 117.17 108.461 117.037C108.405 116.903 108.393 116.756 108.424 116.614Z" fill="#FEC566"/>
<path d="M121.93 116.615C121.751 115.791 121.067 114.244 118.433 114.128C118.276 114.121 118.12 114.168 117.993 114.261C117.866 114.354 117.774 114.488 117.734 114.641C117.708 114.733 117.702 114.829 117.716 114.923C117.73 115.018 117.763 115.108 117.813 115.189C117.864 115.27 117.93 115.34 118.009 115.394C118.087 115.448 118.176 115.485 118.27 115.503C118.762 115.572 119.23 115.757 119.636 116.044C120.041 116.33 120.372 116.71 120.601 117.151C120.646 117.233 120.708 117.306 120.782 117.364C120.856 117.422 120.941 117.464 121.032 117.488C121.123 117.512 121.217 117.517 121.31 117.503C121.403 117.489 121.493 117.457 121.572 117.407L121.65 117.36C121.768 117.28 121.858 117.165 121.908 117.032C121.958 116.898 121.966 116.753 121.93 116.615Z" fill="#FEC566"/>
<path d="M117.368 130.936C114.516 130.936 112.177 126.483 112.146 126.421C112.083 126.293 112.05 126.152 112.05 126.009C112.05 125.866 112.083 125.725 112.146 125.597C112.27 125.372 112.48 125.388 112.596 125.597C112.713 125.807 116.373 132.777 119.901 128.193C120.048 128.006 120.243 128.068 120.352 128.333C120.395 128.46 120.411 128.596 120.398 128.73C120.384 128.864 120.342 128.993 120.274 129.11C119.318 130.454 118.323 130.936 117.368 130.936Z" fill="#1D1B13"/>
<path d="M103.839 128.457C103.839 128.543 102.775 130.928 101.298 131.62L101.213 129.98C102.212 129.725 103.122 129.198 103.839 128.457Z" fill="#1D1B13"/>
<path d="M102.409 123.033C102.409 123.033 99.3011 118.837 96.9699 122.131C95.0894 124.851 98.6484 131.923 102.409 129.498V123.033Z" fill="#F69A9E"/>
<path d="M101.982 128.239C101.903 128.24 101.826 128.21 101.767 128.157C101.708 128.104 101.672 128.031 101.664 127.952C101.565 127.023 101.226 126.136 100.682 125.377C100.137 124.618 99.4041 124.014 98.5555 123.623C98.5162 123.609 98.4802 123.586 98.4497 123.558C98.4193 123.529 98.3949 123.494 98.3782 123.456C98.3615 123.417 98.3528 123.376 98.3525 123.334C98.3523 123.292 98.3605 123.25 98.3768 123.212C98.3922 123.172 98.4153 123.136 98.4449 123.105C98.4745 123.075 98.5098 123.05 98.5489 123.034C98.588 123.017 98.6301 123.008 98.6726 123.008C98.7151 123.008 98.7572 123.016 98.7964 123.033C99.7557 123.462 100.585 124.136 101.202 124.987C101.818 125.838 102.2 126.836 102.309 127.882C102.318 127.966 102.293 128.05 102.241 128.117C102.189 128.184 102.113 128.228 102.029 128.239H101.982Z" fill="#1D1B13"/>
<path d="M98.9826 126.289C98.9164 126.29 98.8516 126.269 98.7973 126.232C98.743 126.194 98.7018 126.14 98.6796 126.077C98.6574 126.015 98.6552 125.947 98.6732 125.883C98.6913 125.82 98.7288 125.763 98.7806 125.722C98.9127 125.621 100.063 124.711 101.026 124.945C101.067 124.955 101.106 124.973 101.14 124.998C101.174 125.023 101.202 125.054 101.224 125.09C101.246 125.126 101.26 125.166 101.266 125.208C101.272 125.25 101.27 125.292 101.259 125.333C101.237 125.415 101.185 125.485 101.112 125.528C101.04 125.572 100.953 125.585 100.871 125.566C100.311 125.419 99.4488 125.994 99.1924 126.203C99.1342 126.255 99.0602 126.285 98.9826 126.289Z" fill="#1D1B13"/>
<path d="M120.974 110.064C120.925 110.325 120.804 110.567 120.624 110.763C119.07 112.418 115.317 111.828 111.859 110.763C110.839 110.465 109.758 110.441 108.725 110.694C107.692 110.946 106.744 111.466 105.977 112.201C106.932 115.511 103.684 115.775 104.376 118.285C104.8 120.192 104.944 122.15 104.803 124.098L102.775 123.833C102.363 122.859 101.649 122.042 100.739 121.502L100.498 116.949C100.498 116.949 99.4958 108.712 107.266 107.212C112.947 106.124 118.285 107.064 120.974 110.064Z" fill="#FEC566"/>
<path d="M72.8725 197.359C72.7871 197.359 72.7041 197.33 72.6361 197.279C72.568 197.227 72.5185 197.155 72.4949 197.073C72.4713 196.99 72.4749 196.903 72.5051 196.823C72.5354 196.743 72.5907 196.675 72.6627 196.629C74.5875 195.559 76.6257 194.707 78.7394 194.088C78.7904 194.073 78.8438 194.069 78.8966 194.074C78.9494 194.08 79.0006 194.097 79.0471 194.122C79.0937 194.148 79.1347 194.182 79.1679 194.224C79.2011 194.265 79.2258 194.313 79.2406 194.364C79.2554 194.415 79.26 194.468 79.2541 194.521C79.2483 194.574 79.2321 194.625 79.2065 194.672C79.1808 194.718 79.1463 194.759 79.1048 194.792C79.0634 194.826 79.0157 194.85 78.9647 194.865C76.9201 195.463 74.9474 196.284 73.0823 197.313C73.0187 197.349 72.9455 197.365 72.8725 197.359Z" fill="#F3736F"/>
<path d="M78.4528 194.865C78.3761 194.864 78.3011 194.842 78.2352 194.803C76.6811 193.816 73.9924 194.026 73.9614 194.026C73.8687 194.018 73.7819 193.977 73.716 193.912C73.6502 193.846 73.6095 193.759 73.6012 193.667C73.5929 193.574 73.6174 193.481 73.6704 193.405C73.7235 193.329 73.8017 193.273 73.8914 193.249C74.0157 193.249 76.9064 192.985 78.6626 194.119C78.7509 194.175 78.8134 194.264 78.8367 194.366C78.86 194.467 78.8421 194.574 78.7869 194.663C78.7523 194.722 78.7036 194.771 78.6453 194.806C78.587 194.842 78.5209 194.862 78.4528 194.865Z" fill="#F3736F"/>
<path d="M96.4806 143.268L95.96 143.478C96.4555 144.07 96.8202 144.761 97.0305 145.504C97.2407 146.247 97.2917 147.026 97.18 147.79C96.706 151.124 94.6234 156.719 91.0489 157.504C90.4743 157.575 89.892 157.458 89.39 157.169C88.8881 156.88 88.4939 156.436 88.267 155.903C87.49 154.349 88.0805 152.639 89.759 151.241C91.9736 149.391 91.5229 147.355 91.1577 145.723C91.1033 145.444 91.0412 145.179 90.9945 144.946L90.4661 145.04C90.5128 145.312 90.5749 145.583 90.6293 145.817C90.9945 147.464 91.4064 149.166 89.4093 150.805C87.4122 152.445 86.9149 154.364 87.7852 156.12C87.9474 156.459 88.1596 156.77 88.4147 157.045C88.7503 157.431 89.1801 157.723 89.6621 157.893C90.1442 158.063 90.6621 158.106 91.1655 158.017C95.0042 157.17 97.2188 151.334 97.7162 147.845C97.839 147.038 97.7926 146.214 97.5799 145.426C97.3672 144.638 96.9928 143.903 96.4806 143.268Z" fill="#454FA2"/>
<path d="M84.5602 170.069C84.498 169.991 84.4281 169.913 84.3659 169.828C83.7736 169.111 82.9644 168.606 82.0602 168.389C81.156 168.172 80.2058 168.255 79.3528 168.625C78.4997 168.995 77.7899 169.632 77.3304 170.441C76.8709 171.249 76.6865 172.185 76.8051 173.107C76.9792 174.708 76.9426 176.325 76.6963 177.917L77.2169 178.127C77.4877 176.444 77.5295 174.732 77.3412 173.037C77.2336 172.235 77.3929 171.42 77.7946 170.718C78.1963 170.016 78.818 169.466 79.5637 169.152C80.3068 168.814 81.1413 168.734 81.9351 168.924C82.7289 169.114 83.4367 169.563 83.9463 170.201L84.1406 170.434C87.21 174.226 86.5806 177.428 85.9667 180.59C85.9045 180.917 85.8424 181.243 85.788 181.562L86.3008 181.764C86.363 181.414 86.4329 181.057 86.5029 180.699C87.109 177.575 87.7928 174.055 84.5602 170.069Z" fill="#454FA2"/>
<path d="M83.4103 155.911C83.1916 155.308 82.9158 154.728 82.5867 154.178C81.787 152.868 80.6524 151.795 79.2997 151.07L78.8878 151.474C80.7736 152.455 82.2094 154.125 82.8975 156.136C84.0631 159.392 83.457 163.13 82.1204 164.295C81.9703 164.455 81.7715 164.561 81.5551 164.596C81.3387 164.631 81.1167 164.594 80.9237 164.49C77.5435 162.772 74.7849 163.075 70.8607 165.748L70.3867 166.751C74.544 163.712 77.2871 163.254 80.6829 164.971C80.9728 165.12 81.3021 165.173 81.6242 165.125C81.9463 165.076 82.2449 164.927 82.4779 164.699C83.9543 163.386 84.6847 159.477 83.4103 155.911Z" fill="#454FA2"/>
<path d="M148.644 206.995C148.54 206.995 148.438 206.957 148.361 206.886C148.283 206.816 148.234 206.719 148.225 206.614C148.115 203.883 148.292 201.149 148.753 198.455C148.78 198.351 148.845 198.261 148.936 198.203C149.026 198.144 149.135 198.122 149.241 198.141C149.347 198.16 149.442 198.217 149.507 198.303C149.572 198.389 149.603 198.496 149.592 198.603C149.146 201.22 148.969 203.876 149.064 206.529C149.075 206.641 149.041 206.753 148.97 206.84C148.898 206.928 148.795 206.983 148.683 206.995H148.644Z" fill="#F3736F"/>
<path d="M145.94 204.034C145.848 204.033 145.759 204.003 145.684 203.949C145.639 203.916 145.602 203.874 145.573 203.827C145.545 203.779 145.526 203.726 145.518 203.671C145.51 203.617 145.513 203.561 145.527 203.507C145.541 203.453 145.565 203.403 145.599 203.358C145.599 203.358 147.782 200.39 148.808 198.696C148.871 198.611 148.963 198.553 149.067 198.532C149.171 198.512 149.278 198.53 149.369 198.584C149.46 198.638 149.528 198.724 149.559 198.825C149.59 198.926 149.583 199.035 149.538 199.131C148.489 200.88 146.368 203.755 146.282 203.879C146.24 203.928 146.188 203.968 146.129 203.995C146.07 204.022 146.005 204.035 145.94 204.034Z" fill="#F3736F"/>
<path d="M141.286 178.399C141.289 178.365 141.289 178.332 141.286 178.298C140.351 178.245 139.439 177.989 138.614 177.547C137.788 177.106 137.069 176.489 136.507 175.741C135.38 174.249 134.781 171.965 136.468 170.03C136.805 169.712 137.076 169.331 137.265 168.908C137.454 168.486 137.558 168.03 137.571 167.567C137.486 166.487 136.569 165.702 135.675 164.956C134.517 163.977 133.429 163.052 133.795 161.498C133.964 160.821 134.327 160.207 134.839 159.733C135.351 159.258 135.989 158.942 136.678 158.825C136.623 158.685 136.569 158.545 136.522 158.405L136.483 158.312L136.126 158.397C135.42 158.58 134.779 158.954 134.274 159.48C133.769 160.005 133.42 160.661 133.266 161.373C132.831 163.254 134.16 164.381 135.325 165.368C136.172 166.075 136.965 166.751 137.035 167.605C136.999 168.397 136.653 169.142 136.071 169.68C134.517 171.506 134.517 173.954 136.071 176.076C136.647 176.833 137.37 177.466 138.197 177.937C139.023 178.409 139.936 178.708 140.881 178.819L141.348 178.694L141.286 178.399Z" fill="#454FA2"/>
<path d="M110.593 208.557L109.948 209.109L109.342 209.614L108.153 210.577C107.376 211.207 106.552 211.828 105.752 212.434C104.151 213.647 102.519 214.815 100.856 215.939C97.5129 218.236 93.995 220.268 90.3347 222.016C88.4118 222.92 86.4249 223.681 84.3901 224.293C82.1369 224.978 79.7981 225.342 77.4431 225.373C76.0613 225.382 74.6835 225.223 73.3402 224.899C71.7367 224.502 70.209 223.846 68.8177 222.956C68.0236 222.444 67.2772 221.861 66.5875 221.215C66.2301 220.889 65.8882 220.532 65.554 220.166C65.3831 219.98 65.2199 219.786 65.0645 219.591L64.9868 219.498C64.8935 219.381 64.8003 219.265 64.7148 219.141C64.5366 218.903 64.3707 218.657 64.2175 218.402C63.9424 217.951 63.6983 217.481 63.487 216.996C63.386 216.778 63.285 216.537 63.2151 216.335C63.1451 216.133 63.0674 215.939 63.0053 215.737L62.9042 215.434L62.8343 215.17C62.7799 214.999 62.7411 214.82 62.6944 214.641C62.6167 214.299 62.5623 214.02 62.5002 213.709C62.438 213.398 62.4147 213.173 62.3836 212.932C62.2842 212.138 62.2375 211.338 62.2437 210.538C62.2437 209.886 62.2437 209.318 62.3059 208.821C62.3681 208.324 62.3914 207.85 62.438 207.415C62.64 205.713 62.9042 204.345 63.1762 203.04C63.4482 201.734 63.7435 200.522 64.0387 199.341C64.6449 197.01 65.2821 194.756 65.9426 192.573C67.2713 188.206 68.6778 184.025 70.1154 179.837C71.553 175.648 73.045 171.576 74.5602 167.497C75.3114 165.461 76.0755 163.427 76.8526 161.397L78.0104 158.351L79.2071 155.242C81.3285 149.803 86.5659 147.542 90.8631 150.207C95.1603 152.872 96.9941 159.454 94.8727 164.901C94.8261 165.026 94.7717 165.142 94.7173 165.267L94.6552 165.414L93.4429 168.235L92.223 171.11C91.4096 173.032 90.6067 174.957 89.8141 176.884C88.2599 180.769 86.7058 184.654 85.1983 188.54C83.6908 192.425 82.2843 196.31 80.9866 200.196C80.3416 202.107 79.7277 204.019 79.1993 205.845C79.1993 205.884 79.1993 205.907 79.1993 205.938C79.8544 205.868 80.5037 205.752 81.142 205.589C82.5715 205.229 83.9717 204.761 85.3304 204.19C88.3712 202.895 91.3025 201.356 94.0957 199.59C95.5566 198.68 97.0097 197.709 98.4473 196.699C99.1622 196.202 99.8771 195.681 100.576 195.145L101.625 194.368L102.581 193.591L102.791 194.368C106.156 191.741 110.562 193.047 112.675 197.282C114.789 201.517 113.779 205.853 110.593 208.557Z" fill="#F69A9E"/>
<path d="M99.8604 195.938C99.8604 195.938 102.502 205.643 107.468 211.005C108.571 211.005 109.799 209.917 110.529 208.814C110.529 208.814 105.385 203.203 102.72 193.365C102.085 193.56 101.499 193.89 101.005 194.335C100.511 194.779 100.12 195.326 99.8604 195.938Z" fill="#1D1B13"/>
<path d="M105.712 195.393C106.723 197.383 105.852 200.351 103.77 202.022C101.687 203.692 99.1851 203.428 98.1749 201.439C97.1647 199.45 98.035 196.481 100.118 194.811C102.2 193.14 104.718 193.404 105.712 195.393Z" fill="#1D1B13"/>
<path d="M103.273 200.98C101.781 202.177 99.978 201.991 99.2475 200.561C98.5171 199.131 99.1543 196.986 100.646 195.79C102.138 194.593 103.949 194.779 104.671 196.209C105.394 197.639 104.772 199.807 103.273 200.98Z" fill="white"/>
<path d="M87.5834 182.253L86.3012 181.74L85.7883 181.538L77.2406 178.127L76.72 177.917L67.333 174.18C68.1771 171.617 69.2163 169.123 70.4413 166.72L70.9153 165.717C71.9643 163.541 73.332 160.76 75.1503 157.1C76.1012 155.03 77.3761 153.126 78.9269 151.458L79.3387 151.054C80.1237 150.328 80.9833 149.687 81.903 149.142C83.7891 147.971 86.0062 147.448 88.2168 147.653C90.4275 147.858 92.5107 148.779 94.1496 150.277C95.115 151.164 95.8945 152.235 96.4427 153.426C96.991 154.617 97.2971 155.906 97.3433 157.216C97.7241 165.554 87.5834 182.253 87.5834 182.253Z" fill="#5473B8"/>
<path d="M84.8794 180.07C84.825 180.06 84.7741 180.035 84.7318 180C84.6861 179.976 84.6457 179.943 84.6127 179.904C84.5797 179.864 84.5549 179.819 84.5398 179.77C84.5246 179.72 84.5193 179.669 84.5243 179.618C84.5292 179.566 84.5443 179.517 84.5686 179.471L93.1707 163.285C93.2216 163.194 93.306 163.126 93.4059 163.095C93.5059 163.065 93.6138 163.074 93.7069 163.122C93.7996 163.171 93.869 163.256 93.8996 163.356C93.9302 163.457 93.9196 163.565 93.8701 163.658L85.268 179.837C85.2367 179.912 85.1821 179.975 85.1121 180.017C85.0422 180.059 84.9606 180.078 84.8794 180.07Z" fill="#454FA2"/>
<path d="M91.4058 167.792C91.3127 167.785 91.225 167.746 91.1581 167.681C91.0911 167.616 91.0493 167.529 91.0401 167.436C91.0308 167.343 91.0546 167.25 91.1073 167.173C91.16 167.096 91.2382 167.04 91.3281 167.015L93.9857 166.471C94.0372 166.46 94.0904 166.459 94.1422 166.468C94.1941 166.478 94.2435 166.497 94.2876 166.526C94.3317 166.555 94.3697 166.592 94.3992 166.636C94.4288 166.679 94.4493 166.729 94.4596 166.78C94.47 166.832 94.4699 166.885 94.4594 166.937C94.4489 166.988 94.4283 167.037 94.3986 167.081C94.3689 167.125 94.3309 167.162 94.2867 167.19C94.2425 167.219 94.193 167.239 94.1411 167.248L91.4836 167.792H91.4058Z" fill="#454FA2"/>
<path d="M177.979 0H5.1363C-47.409 0 -90 52.654 -90 117.617V124.129C-90 189.091 -47.409 241.745 5.1363 241.745H177.979C230.525 241.745 273.123 189.091 273.123 124.129V117.617C273.1 52.654 230.501 0 177.979 0ZM233.291 131.565C233.291 165.251 211.199 192.557 183.955 192.557H-0.831581C-28.0833 192.557 -50.1753 165.251 -50.1753 131.565C-50.1753 97.8793 -28.0833 70.5732 -0.831581 70.5732H183.932C211.176 70.5732 233.268 97.8793 233.268 131.565H233.291Z" fill="#28BAA9"/>
<path d="M135.016 161.723L135.606 164.186L136.228 166.735C136.658 168.44 137.101 170.134 137.557 171.817C138.473 175.19 139.453 178.523 140.54 181.748C140.812 182.525 141.092 183.357 141.387 184.149C141.683 184.942 141.963 185.703 142.266 186.48C142.879 188.035 143.517 189.519 144.2 190.941C144.844 192.289 145.559 193.602 146.345 194.873C146.988 195.905 147.733 196.871 148.568 197.756C148.845 198.038 149.144 198.297 149.461 198.533C149.601 198.633 149.749 198.721 149.904 198.797L149.959 198.836H149.795C149.499 198.863 149.206 198.912 148.917 198.983L148.614 199.069L148.389 199.147C148.23 199.206 148.077 199.278 147.93 199.364C147.868 199.411 147.868 199.411 147.93 199.403L148.086 199.302C148.536 198.967 148.964 198.604 149.368 198.214C149.881 197.732 150.409 197.181 150.922 196.598C152.018 195.44 153.113 194.15 154.217 192.837C158.615 187.53 162.982 181.678 167.497 176.114L176.962 181.709C176.767 182.183 176.581 182.603 176.387 183.038L175.804 184.328C175.407 185.183 175.027 186.03 174.584 186.877C173.752 188.563 172.882 190.226 171.973 191.881C170.162 195.199 168.22 198.447 166.036 201.672C164.948 203.296 163.783 204.889 162.493 206.513C161.84 207.329 161.148 208.137 160.371 208.969C159.517 209.909 158.592 210.782 157.605 211.58C157.317 211.813 157.007 212.046 156.649 212.295C156.261 212.574 155.859 212.834 155.445 213.072C154.902 213.377 154.336 213.637 153.751 213.849L153.191 214.043L152.562 214.214C152.051 214.341 151.532 214.426 151.008 214.47H150.79H150.129C149.904 214.47 149.679 214.47 149.453 214.47C149.001 214.462 148.55 214.431 148.101 214.377C147.213 214.276 146.335 214.102 145.475 213.857C143.88 213.396 142.357 212.713 140.952 211.828C139.732 211.055 138.592 210.162 137.549 209.163C135.788 207.459 134.236 205.553 132.925 203.483C131.761 201.684 130.717 199.809 129.801 197.872C128.908 195.984 128.123 194.104 127.424 192.223C126.724 190.343 126.095 188.462 125.528 186.582C124.401 182.828 123.484 179.075 122.738 175.314C122.365 173.434 122.036 171.545 121.751 169.649C121.611 168.701 121.471 167.753 121.355 166.797L121.184 165.36L121.106 164.629L121.028 163.852L135.016 161.723Z" fill="#F69A9E"/>
<path d="M141.332 178.687L140.866 178.811L139.956 179.06L124.299 183.295C124.299 183.295 113 153.766 126.521 148.925C126.521 148.925 131.914 146.874 136.258 157.791C136.32 157.955 136.39 158.125 136.452 158.304L136.491 158.397C136.537 158.537 136.592 158.677 136.646 158.817L136.693 158.941C139.109 165.686 140.92 176.169 141.27 178.298C141.273 178.332 141.273 178.366 141.27 178.399L141.332 178.687Z" fill="#5473B8"/>
<path fill-rule="evenodd" clip-rule="evenodd" d="M156.222 160.527C156.222 160.527 155.445 171.817 156.066 174.646C156.066 174.646 165.072 176.736 172.237 175.423C172.92 170.862 173.32 166.264 173.434 161.653L156.222 160.527Z" fill="#F9CEB5"/>
<path fill-rule="evenodd" clip-rule="evenodd" d="M156.625 158.304C156.625 158.304 157.045 155.196 158 154.986C158.956 154.776 164.403 155.88 166.043 156.26C167.527 156.602 170.441 156.501 172.259 156.797C173.246 156.952 172.834 159.314 172.834 159.314L156.602 158.304H156.625Z" fill="#3D3837"/>
<path fill-rule="evenodd" clip-rule="evenodd" d="M158.98 181.072C158.98 181.072 158.669 183.815 159.291 184.67C159.819 185.393 161.847 185.851 163.953 185.96C166.059 186.069 167.839 185.765 168.577 185.307C169.066 185.012 169.447 182.649 169.113 181.282C169.113 181.235 166.961 182.642 159.011 181.072H158.98Z" fill="#D37D28"/>
<path fill-rule="evenodd" clip-rule="evenodd" d="M155.911 173.923C155.911 173.923 155.787 182.603 163.993 183.108C171.375 183.582 172.059 176.736 172.346 174.692C172.346 174.692 165.64 175.804 155.903 173.915L155.911 173.923Z" fill="#3D3837"/>
<path fill-rule="evenodd" clip-rule="evenodd" d="M155.328 158.087C154.905 158.886 154.641 159.759 154.551 160.659C154.551 160.659 167.038 162.298 175.065 161.801C175.064 160.926 174.92 160.057 174.638 159.229C174.638 159.229 155.794 157.877 155.305 158.087H155.328Z" fill="#D37D28"/>
<path d="M171.499 189.449C172.627 189.257 173.681 188.757 174.543 188.004C175.406 187.251 176.043 186.275 176.386 185.183C176.792 183.961 177.007 182.685 177.024 181.398C177.024 180.396 176.822 179.067 177.257 178.399C178.337 176.783 177.474 175.547 177.599 175.058C178.125 174.66 178.527 174.121 178.756 173.503C179.05 172.738 179.192 171.922 179.176 171.102C180.039 169.393 180.878 167.94 180.792 167.287C180.629 165.981 174.576 161.645 173.449 163.137C171.965 165.111 177.334 166.525 177.249 168.973C177.249 168.973 171.918 164.311 170.201 166.518C169.028 168.017 174.972 171.452 175.159 173.791C175.159 173.791 170.38 169.175 168.538 170.496C166.696 171.817 173.511 175.361 172.726 177.288C172.571 177.684 168.678 173.294 167.287 175.306C165.896 177.319 172.338 179.145 168.895 185.408C167.505 188.019 168.592 189.915 171.499 189.449Z" fill="#F69A9E"/>
</svg>
