<svg width="274" height="409" viewBox="0 0 274 409" fill="none" xmlns="http://www.w3.org/2000/svg">
<ellipse cx="116.25" cy="401.25" rx="71.25" ry="7.5" fill="#949494"/>
<path d="M119.472 226.062C114.033 226.062 108.08 224.503 101.81 221.432C96.4355 218.745 91.418 215.394 86.8745 211.456C86.7952 211.382 86.7481 211.28 86.7437 211.172C86.7394 211.064 86.778 210.959 86.8512 210.879C86.9244 210.799 87.026 210.752 87.1339 210.748C87.2417 210.744 87.3469 210.782 87.4262 210.856C91.9139 214.751 96.8746 218.061 102.19 220.707C109.961 224.542 121.399 227.909 131.431 222.188C131.526 222.137 131.638 222.125 131.742 222.154C131.846 222.183 131.935 222.251 131.991 222.344C132.017 222.391 132.034 222.442 132.04 222.495C132.046 222.548 132.042 222.602 132.028 222.653C132.013 222.705 131.989 222.753 131.956 222.795C131.923 222.837 131.882 222.872 131.835 222.898C128.062 225.023 123.799 226.114 119.472 226.062Z" fill="#454FA2"/>
<path d="M120.676 221.456C112.167 221.323 105.221 209.952 104.933 209.461C104.905 209.415 104.887 209.365 104.879 209.312C104.871 209.259 104.873 209.206 104.886 209.154C104.899 209.103 104.922 209.054 104.955 209.012C104.987 208.969 105.027 208.934 105.073 208.907C105.164 208.852 105.273 208.835 105.376 208.86C105.479 208.885 105.568 208.949 105.625 209.04C105.695 209.157 112.618 220.513 120.692 220.645C120.745 220.645 120.798 220.656 120.847 220.677C120.896 220.698 120.941 220.729 120.978 220.767C121.015 220.806 121.044 220.851 121.063 220.901C121.082 220.951 121.09 221.005 121.088 221.058C121.087 221.111 121.076 221.164 121.054 221.213C121.033 221.262 121.003 221.306 120.964 221.343C120.926 221.38 120.881 221.409 120.832 221.428C120.782 221.447 120.729 221.457 120.676 221.456Z" fill="#454FA2"/>
<path d="M72.8716 197.964C72.8037 197.963 72.7372 197.946 72.6777 197.913C72.6181 197.88 72.5673 197.834 72.5296 197.777C72.4772 197.687 72.4616 197.579 72.4863 197.478C72.5109 197.376 72.5738 197.288 72.6618 197.232C74.5869 196.157 76.6249 195.3 78.7384 194.675C78.8403 194.648 78.9487 194.661 79.0412 194.712C79.1338 194.763 79.2034 194.847 79.2357 194.948C79.2644 195.049 79.252 195.158 79.201 195.25C79.15 195.342 79.0646 195.41 78.9637 195.439C76.9207 196.046 74.9486 196.872 73.0814 197.902C73.0179 197.94 72.9456 197.962 72.8716 197.964Z" fill="#F3736F"/>
<path d="M78.4509 195.454C78.3737 195.457 78.2977 195.435 78.2333 195.392C76.6792 194.41 73.9906 194.613 73.9595 194.613C73.8556 194.621 73.7524 194.589 73.6724 194.521C73.5924 194.454 73.542 194.358 73.5321 194.254C73.5268 194.202 73.5318 194.149 73.5469 194.099C73.562 194.049 73.5869 194.002 73.6201 193.961C73.6533 193.921 73.6943 193.887 73.7405 193.862C73.7868 193.838 73.8374 193.823 73.8896 193.818C74.0139 193.818 76.9046 193.56 78.6607 194.698C78.7052 194.725 78.7438 194.761 78.7743 194.804C78.8048 194.846 78.8264 194.894 78.838 194.945C78.8496 194.996 78.8509 195.048 78.8418 195.1C78.8327 195.151 78.8134 195.2 78.785 195.244C78.7519 195.305 78.7038 195.356 78.6453 195.393C78.5868 195.43 78.5199 195.451 78.4509 195.454Z" fill="#F3736F"/>
<path d="M148.643 207.629C148.537 207.629 148.434 207.589 148.356 207.517C148.279 207.445 148.231 207.345 148.223 207.239C148.113 204.503 148.291 201.763 148.752 199.063C148.779 198.96 148.844 198.871 148.933 198.814C149.022 198.756 149.13 198.734 149.235 198.751C149.339 198.769 149.434 198.825 149.5 198.908C149.566 198.992 149.598 199.097 149.591 199.204C149.591 199.258 148.767 204.122 149.062 207.161C149.068 207.217 149.062 207.273 149.046 207.326C149.03 207.379 149.003 207.428 148.968 207.471C148.932 207.514 148.889 207.549 148.84 207.575C148.79 207.601 148.737 207.616 148.682 207.621L148.643 207.629Z" fill="#F3736F"/>
<path d="M145.939 204.628C145.847 204.63 145.757 204.603 145.682 204.55C145.638 204.517 145.6 204.476 145.572 204.428C145.543 204.38 145.524 204.327 145.516 204.272C145.508 204.217 145.511 204.161 145.525 204.107C145.539 204.053 145.563 204.002 145.597 203.958C145.597 203.958 147.78 200.981 148.806 199.281C148.831 199.227 148.868 199.178 148.913 199.139C148.958 199.099 149.01 199.07 149.068 199.052C149.125 199.034 149.185 199.029 149.244 199.036C149.304 199.043 149.361 199.063 149.413 199.094C149.464 199.124 149.508 199.165 149.543 199.214C149.577 199.263 149.601 199.319 149.613 199.378C149.625 199.437 149.624 199.498 149.611 199.556C149.598 199.615 149.572 199.67 149.537 199.718C148.487 201.464 146.366 204.355 146.281 204.472C146.24 204.523 146.187 204.564 146.128 204.591C146.069 204.618 146.004 204.631 145.939 204.628Z" fill="#F3736F"/>
<path d="M139.264 382.99L157.501 394.72V392.585C157.501 392.585 147.664 381.673 144.649 376.069L136.342 360.683" fill="#BA6565"/>
<path d="M90.0991 394.463C89.5008 391.135 88.3507 385.375 88.3507 385.375L88.6149 364.923H78.2334L78.4432 374.58C78.5364 375.484 81.2173 388.929 79.9118 392.67C79.9118 392.67 78.7229 398.126 84.0613 398.204C89.3997 398.282 90.7052 397.799 90.0991 394.463Z" fill="#BA6565"/>
<path d="M84.9472 106.842C84.9472 106.842 75.4593 107.1 76.112 124.107C76.8347 143.015 68.9165 141.386 60.0813 158.526C54.9216 168.549 65.0001 182.594 79.5078 179.523C94.0155 176.452 106.363 169.671 115.089 169.921C123.816 170.17 120.156 148.237 110.613 143.078C101.071 137.918 116.006 120.771 103.62 114.239C91.2336 107.708 84.9472 106.842 84.9472 106.842Z" fill="#212121"/>
<path d="M104.863 156.608C105.71 159.882 106.557 163.109 107.428 166.351C108.298 169.593 109.176 172.82 110.077 176.055L111.437 180.911C111.911 182.532 112.362 184.145 112.844 185.766C113.792 188.993 114.786 192.228 115.859 195.501C116.403 197.138 116.97 198.798 117.638 200.521L118.174 201.83L118.439 202.485C118.532 202.703 118.625 202.906 118.718 203.108L119.286 204.348C119.48 204.761 119.666 205.182 119.868 205.571C121.422 208.79 123.116 211.807 124.842 214.768C126.567 217.73 128.369 220.63 130.203 223.49C131.12 224.924 132.047 226.345 132.985 227.754C133.451 228.463 133.925 229.172 134.399 229.874C134.873 230.575 135.347 231.269 135.86 232.001C136.693 233.196 137.941 234.035 139.359 234.352C140.777 234.669 142.262 234.443 143.522 233.716L143.716 233.599C145.011 232.771 145.926 231.463 146.263 229.96C146.599 228.458 146.329 226.883 145.511 225.579L145.465 225.509L144.175 223.467L142.893 221.386C142.038 219.998 141.199 218.595 140.367 217.192C138.715 214.386 137.119 211.56 135.581 208.712C134.065 205.875 132.604 203.015 131.361 200.185C131.198 199.835 131.058 199.484 130.91 199.133L130.475 198.089C130.405 197.91 130.328 197.738 130.265 197.567L130.079 197.052L129.706 196.039C129.224 194.636 128.766 193.132 128.323 191.589C127.437 188.51 126.59 185.353 125.782 182.158C125.37 180.599 125.005 178.962 124.585 177.372L123.42 172.555C122.648 169.344 121.897 166.122 121.166 162.89C120.607 160.435 120.047 157.964 119.503 155.509C119.332 154.73 119.169 153.95 118.998 153.21V153.187C118.998 153.109 118.959 153.039 118.944 152.953C118.425 151.121 117.212 149.565 115.565 148.617C113.918 147.67 111.967 147.406 110.128 147.883C108.29 148.359 106.71 149.537 105.726 151.166C104.742 152.795 104.433 154.746 104.863 156.6V156.608Z" fill="#BA6565"/>
<path d="M115.859 195.501C116.403 197.138 116.97 198.798 117.638 200.521L118.174 201.83L118.438 202.485C118.532 202.703 118.625 202.906 118.718 203.108L119.285 204.348C119.48 204.761 119.666 205.182 119.868 205.571C121.422 208.79 123.116 211.807 124.841 214.769C126.567 217.73 128.369 220.63 130.203 223.49C131.12 224.924 132.047 226.345 132.985 227.754C133.451 228.463 133.925 229.172 134.399 229.874C134.873 230.575 135.347 231.269 135.86 232.001C136.692 233.196 137.941 234.035 139.359 234.352C140.777 234.67 142.262 234.443 143.522 233.716C144.481 232.586 145.379 231.405 146.211 230.178C146.417 229.404 146.462 228.596 146.341 227.805C146.221 227.013 145.938 226.255 145.511 225.579L145.465 225.509L144.175 223.467L142.893 221.386C142.038 219.998 141.199 218.595 140.367 217.192C138.715 214.387 137.119 211.56 135.58 208.712C134.065 205.875 132.604 203.015 131.361 200.186C131.198 199.835 131.058 199.484 130.91 199.133L130.475 198.089C130.405 197.91 130.327 197.738 130.265 197.567L130.079 197.052L129.706 196.039C129.224 194.636 128.766 193.132 128.323 191.589C127.437 188.51 126.59 185.353 125.782 182.158C125.37 180.599 125.005 178.962 124.585 177.372L123.419 172.555C122.648 169.344 121.896 166.122 121.166 162.891C120.606 160.435 120.047 157.965 119.503 155.509C118.291 158.261 116.014 162.618 113.069 164.566C110.613 166.226 113.116 181.823 115.859 195.501Z" fill="#1D1B13"/>
<path d="M145.674 377.55H134.795C134.795 377.55 128.408 357.877 123.101 338.758C117.793 319.639 119.79 296.841 119.79 296.841C117.055 287.839 114.172 280.473 111.608 273.155C107.66 261.845 104.482 250.551 103.783 233.186L126.714 225.548L133.171 266.436L137.134 291.494L145.674 377.55Z" fill="#5473B8"/>
<path d="M145.674 377.55H134.796C134.796 377.55 128.408 357.877 123.101 338.758C123.101 338.657 123.046 338.555 123.023 338.454C121.395 332.171 120.355 325.749 119.915 319.273C119.752 317.16 119.643 315.11 119.573 313.162C119.357 307.721 119.443 302.272 119.829 296.841C117.094 287.839 114.211 280.473 111.647 273.154C115.89 272.71 125.782 271.19 133.21 266.436L137.173 291.494V291.821L137.344 293.536L138.898 309.39L139.341 313.848L145.674 377.55Z" fill="#5473B8"/>
<path d="M113.675 272.36C113.732 272.367 113.789 272.367 113.846 272.36C113.972 272.314 114.074 272.22 114.131 272.099C114.188 271.978 114.194 271.839 114.149 271.713C108.756 256.537 107.039 239.959 107.023 239.756C107.019 239.69 107.001 239.626 106.97 239.567C106.94 239.509 106.898 239.456 106.848 239.414C106.797 239.372 106.738 239.341 106.675 239.322C106.611 239.303 106.545 239.297 106.48 239.304C106.413 239.31 106.349 239.329 106.29 239.36C106.232 239.392 106.18 239.434 106.138 239.486C106.096 239.537 106.065 239.597 106.046 239.661C106.027 239.725 106.021 239.792 106.029 239.858C106.029 240.021 107.769 256.717 113.201 272.017C113.236 272.115 113.3 272.201 113.385 272.262C113.469 272.324 113.571 272.358 113.675 272.36Z" fill="#454FA2"/>
<path d="M98.6157 274.191C97.7454 282.406 97.0616 288.322 97.0616 288.322C97.0616 288.322 99.8979 296.896 96.4633 316.272C92.7956 336.973 88.4362 374.58 88.4362 374.58H78.4122L76.625 290.738C76.3763 283.552 76.1743 277.041 76.0188 271.206C75.2418 242.976 75.4438 230.17 75.4438 230.17L102.711 228.322C102.493 236.327 100.201 259.117 98.6157 274.191Z" fill="#5473B8"/>
<path d="M97.0926 288.322C97.0926 288.322 99.8511 296.685 96.6186 315.524C96.5797 315.773 96.5409 316.023 96.4943 316.303C92.8265 337.004 88.4672 374.611 88.4672 374.611H78.4432L77.1066 311.892L76.6948 292.406L76.6559 290.738V290.575C76.4073 283.451 76.2052 276.995 76.0498 271.206C81.2716 272.57 91.2879 274.815 98.5845 274.191C97.7453 282.406 97.0926 288.322 97.0926 288.322Z" fill="#5473B8"/>
<path d="M96.2846 272.882C96.4067 272.879 96.5238 272.833 96.615 272.752C96.7061 272.67 96.7653 272.559 96.782 272.437L100.582 239.881C100.589 239.816 100.584 239.749 100.566 239.686C100.548 239.622 100.518 239.563 100.477 239.511C100.437 239.46 100.386 239.416 100.329 239.384C100.271 239.352 100.208 239.332 100.143 239.324C100.077 239.316 100.011 239.322 99.948 239.34C99.8847 239.357 99.8256 239.388 99.774 239.429C99.7224 239.47 99.6794 239.52 99.6473 239.578C99.6152 239.635 99.5948 239.699 99.5871 239.764L95.7873 272.321C95.772 272.452 95.8092 272.584 95.8908 272.687C95.9724 272.791 96.0917 272.858 96.2225 272.874L96.2846 272.882Z" fill="#454FA2"/>
<path d="M77.1533 201.83C77.1533 201.83 77.301 204.519 80.9376 204.542L117.568 198.393C118.214 197.825 118.671 197.072 118.875 196.235C119.08 195.399 119.022 194.519 118.71 193.716C118.71 193.716 101.6 188.136 77.1533 201.83Z" fill="#595A5A"/>
<path d="M120.474 211.503C98.5301 219.141 80.4712 215.828 80.4712 215.828C80.8893 212.789 81.0685 209.722 81.0074 206.655C81.0074 203.233 80.7354 200.256 80.5878 198.689C88.5371 196.616 108.057 191.776 116.138 192.041L116.83 195.158L120.474 211.503Z" fill="#BA6565"/>
<path d="M104.623 203.607C104.677 204.613 104.389 205.447 103.978 205.47C103.566 205.493 103.2 204.69 103.123 203.701C103.045 202.711 103.348 201.861 103.768 201.83C104.187 201.799 104.56 202.602 104.623 203.607Z" fill="#9E4646"/>
<path d="M116.846 195.135C108.702 196.273 92.8422 199.32 81.0231 206.655C81.0231 203.233 80.7512 200.256 80.6035 198.689C88.5528 196.616 108.073 191.776 116.154 192.041L116.846 195.135Z" fill="#9E4646"/>
<path d="M117.638 187.076C117.638 187.076 117.638 187.076 117.638 187.138C117.638 187.278 117.638 187.426 117.685 187.59C117.763 188.19 117.864 188.915 118.004 189.726C118.105 190.388 118.237 191.105 118.369 191.877C118.478 192.446 118.586 193.038 118.703 193.662C107.047 191.051 85.7011 198.533 77.1457 201.83C77.1457 201.37 77.1457 200.918 77.1457 200.466C77.1457 200.139 77.1457 199.811 77.1457 199.484C77.1057 196.353 76.8591 193.229 76.4075 190.131C76.4075 189.897 76.3376 189.648 76.2909 189.398C75.2999 184.112 73.8916 178.912 72.0793 173.849L71.6597 172.664C71.5664 172.399 71.4654 172.142 71.3721 171.885C70.6728 169.96 69.9191 168.05 69.1265 166.211C68.8545 165.579 68.6058 164.94 68.3494 164.301C68.093 163.662 67.8676 162.883 67.6656 162.173C67.1562 160.449 66.851 158.67 66.7564 156.873C66.6243 153.834 67.2926 151.067 69.0876 149.025C70.2526 147.766 71.7262 146.836 73.3614 146.328C73.9675 146.125 74.5581 145.93 75.1331 145.751C76.9437 145.182 78.6143 144.691 79.9742 144.325C80.4249 144.2 80.8367 144.083 81.2175 143.99C82.1733 143.732 82.8726 143.561 83.2223 143.475L83.471 143.413L100.854 144.855L102.509 144.995C103.216 145.073 103.877 145.159 104.514 145.244C106.068 145.447 107.389 145.673 108.539 145.93C109.749 146.172 110.931 146.538 112.067 147.021C116.193 148.853 116.216 151.862 117.281 157.606C117.281 157.699 117.32 157.801 117.335 157.902C117.339 157.933 117.339 157.965 117.335 157.996C117.421 158.432 117.514 158.861 117.607 159.29C117.7 159.718 117.864 160.365 118.004 160.895C118.283 161.963 118.594 163.015 118.928 164.013C120.995 170.334 123.583 175.79 122.65 179.032C121.687 182.524 118.967 185.665 117.988 186.709C117.77 186.951 117.638 187.076 117.638 187.076Z" fill="#1D1B13"/>
<path d="M117.669 159.25C108.624 157.466 105.438 148.533 104.56 145.221C106.114 145.424 107.435 145.65 108.585 145.907C109.797 146.151 110.982 146.516 112.121 146.998C116.232 148.83 116.263 151.838 117.327 157.582C117.327 157.676 117.366 157.777 117.382 157.879V157.98C117.483 158.393 117.576 158.822 117.669 159.25Z" fill="#BA6565"/>
<path d="M100.9 144.824C100.271 146.437 98.6934 148.44 94.8004 148.947C89.4231 149.633 84.9084 145.276 83.2688 143.436L83.5175 143.374L100.9 144.824Z" fill="#595A5A"/>
<path d="M92.4302 189.492C92.4668 189.553 92.518 189.603 92.5791 189.638C92.6403 189.674 92.7093 189.693 92.7799 189.695C92.851 189.696 92.9211 189.677 92.9819 189.64C97.4697 187.35 102.58 186.592 107.536 187.481C110.878 188.217 114.335 188.256 117.692 187.598C117.692 187.434 117.692 187.286 117.646 187.146V187.084C117.646 187.084 117.778 186.959 118.003 186.717C114.61 187.47 111.093 187.47 107.699 186.717C102.551 185.761 97.2318 186.556 92.5856 188.978C92.5015 189.029 92.4393 189.11 92.4107 189.205C92.382 189.3 92.389 189.402 92.4302 189.492Z" fill="#595A5A"/>
<path d="M100.551 159.422C105.633 159.422 106.767 153.919 106.767 153.865C106.777 153.813 106.777 153.76 106.766 153.708C106.756 153.657 106.735 153.608 106.705 153.564C106.676 153.521 106.638 153.483 106.594 153.455C106.55 153.426 106.5 153.406 106.448 153.397C106.397 153.387 106.344 153.387 106.292 153.398C106.241 153.408 106.192 153.429 106.149 153.459C106.105 153.489 106.068 153.527 106.04 153.571C106.011 153.615 105.992 153.665 105.982 153.717C105.936 153.919 104.972 158.619 100.543 158.619C95.8805 158.619 85.8408 151.527 85.7398 151.449C85.6514 151.39 85.544 151.368 85.4399 151.387C85.3357 151.406 85.2427 151.464 85.1803 151.55C85.1201 151.638 85.0969 151.746 85.1158 151.851C85.1347 151.956 85.1942 152.05 85.2814 152.111C85.7087 152.407 95.6706 159.422 100.551 159.422Z" fill="#595A5A"/>
<path d="M91.0938 136.258C91.0938 136.258 82.958 136.375 79.1504 128.892C75.5216 121.768 76.3452 117.52 77.7129 113C78.7386 109.594 83.1523 104.38 90.7519 104.38C98.3516 104.38 104.739 107.061 106.806 113C110.645 124.107 104.273 139.937 91.0938 136.258Z" fill="#212121"/>
<path d="M104.661 125.128C104.661 125.128 106.806 122.594 108.018 125.128C109.23 127.661 108.298 132.805 105.034 131.963L104.661 125.128Z" fill="#9E4646"/>
<path d="M99.253 138.144L99.5405 145.05C99.5405 145.05 95.5775 151.184 84.5898 143.865C86.6724 141.527 86.7501 137.099 85.9108 134.418C86.6474 134.712 87.3572 135.069 88.0322 135.486C88.3149 135.63 88.6054 135.757 88.9025 135.868C91.6533 137.022 95.7795 138.378 99.253 138.144Z" fill="#BA6565"/>
<path d="M99.253 138.144L99.3851 141.417C96.4011 140.755 91.0317 139.118 88.0322 135.486L88.9025 135.868C91.6533 137.021 95.7795 138.378 99.253 138.144Z" fill="#1D1B13"/>
<path d="M105.221 135.852C99.3539 141.932 86.3459 134.676 85.9263 134.442C85.8097 133.896 85.7009 133.358 85.5999 132.821C84.8286 128.625 84.6871 124.338 85.1803 120.1C85.0614 118.047 85.6007 116.01 86.7193 114.286C87.8378 112.563 89.4769 111.243 91.3968 110.521C95.4919 109.025 99.1674 110.833 101.366 111.511C104.692 112.54 106.806 116.858 106.806 123.008C106.829 130.584 106.674 134.34 105.221 135.852Z" fill="#BA6565"/>
<path d="M97.419 117.404C97.419 117.404 98.639 117.528 98.1961 118.643C97.7531 119.757 95.3287 118.534 93.5803 120.591C93.5959 120.591 92.8499 117.91 97.419 117.404Z" fill="#9E4646"/>
<path d="M97.0304 126.133C97.0304 126.702 95.8571 127.162 94.4195 127.162C92.982 127.162 91.8086 126.702 91.8086 126.133C91.8086 125.564 92.9742 125.104 94.4195 125.104C95.8649 125.104 97.0304 125.564 97.0304 126.133Z" fill="#9E4646"/>
<path d="M107.668 127.131C107.459 127.143 107.249 127.143 107.039 127.131C105.601 127.131 104.428 126.671 104.428 126.102C104.428 125.533 105.601 125.065 107.039 125.065C107.233 125.065 107.427 125.065 107.606 125.065L107.668 127.131Z" fill="#9E4646"/>
<path d="M96.5566 123C96.5566 123.779 96.1991 124.411 95.7795 124.411C95.3599 124.411 95.0024 123.779 95.0024 123C95.0024 122.22 95.3599 121.581 95.7795 121.581C96.1991 121.581 96.5566 122.213 96.5566 123Z" fill="#1D1B13"/>
<path d="M104.265 123C104.265 123.779 103.915 124.411 103.488 124.411C103.061 124.411 102.711 123.779 102.711 123C102.711 122.22 103.068 121.581 103.488 121.581C103.908 121.581 104.265 122.213 104.265 123Z" fill="#1D1B13"/>
<path d="M101.46 130.459C101.965 130.462 102.466 130.363 102.932 130.168C103.398 129.972 103.819 129.684 104.172 129.321C104.201 129.291 104.225 129.256 104.241 129.217C104.257 129.178 104.265 129.137 104.265 129.095C104.265 129.053 104.257 129.011 104.241 128.973C104.225 128.934 104.201 128.898 104.172 128.869C104.111 128.808 104.028 128.774 103.942 128.774C103.857 128.774 103.774 128.808 103.713 128.869C101.382 131.207 98.2738 128.643 98.1106 128.534C98.0779 128.507 98.0404 128.487 98 128.475C97.9597 128.463 97.9174 128.459 97.8756 128.463C97.8337 128.468 97.7931 128.48 97.7561 128.5C97.7191 128.52 97.6864 128.548 97.6599 128.58C97.6334 128.613 97.6135 128.651 97.6015 128.691C97.5895 128.732 97.5855 128.774 97.5898 128.816C97.5942 128.858 97.6067 128.899 97.6267 128.936C97.6467 128.973 97.6739 129.006 97.7065 129.032C98.7843 129.879 100.093 130.376 101.46 130.459Z" fill="#1D1B13"/>
<path d="M101.747 125.977C101.964 125.976 102.179 125.955 102.392 125.915C102.435 125.903 102.475 125.882 102.51 125.854C102.545 125.826 102.573 125.791 102.594 125.751C102.613 125.711 102.623 125.667 102.623 125.622C102.623 125.578 102.613 125.534 102.594 125.494L101.405 122.08C101.391 122.04 101.369 122.003 101.341 121.972C101.312 121.941 101.278 121.915 101.24 121.897C101.201 121.879 101.16 121.869 101.118 121.867C101.075 121.864 101.033 121.871 100.993 121.885C100.954 121.899 100.917 121.922 100.886 121.95C100.854 121.979 100.829 122.013 100.811 122.051C100.793 122.09 100.783 122.131 100.781 122.174C100.778 122.216 100.785 122.258 100.799 122.298L101.856 125.33C101.401 125.357 100.947 125.26 100.543 125.05C100.467 125.009 100.379 125.001 100.298 125.025C100.216 125.05 100.148 125.107 100.108 125.182C100.067 125.258 100.059 125.346 100.083 125.428C100.108 125.51 100.164 125.578 100.24 125.619C100.705 125.862 101.223 125.985 101.747 125.977Z" fill="#1D1B13"/>
<path d="M88.4594 131.269C88.4206 131.355 87.3949 133.74 85.9262 134.442C85.8097 133.896 85.7009 133.358 85.5999 132.82C86.6791 132.582 87.6699 132.045 88.4594 131.269Z" fill="#1D1B13"/>
<path d="M87.0609 125.837C87.0609 125.837 83.9527 121.636 81.6603 124.933C79.7799 127.653 83.3388 134.746 87.0609 132.314V125.837Z" fill="#BA6565"/>
<path d="M86.6101 131.051C86.6954 131.041 86.7734 130.998 86.8272 130.931C86.881 130.864 86.9063 130.778 86.8976 130.693C86.7843 129.645 86.3999 128.644 85.7824 127.791C85.165 126.938 84.3359 126.262 83.3775 125.829C83.3382 125.814 83.2964 125.807 83.2544 125.808C83.2124 125.81 83.171 125.819 83.1328 125.837C83.0945 125.854 83.06 125.879 83.0313 125.91C83.0026 125.94 82.9803 125.977 82.9656 126.016C82.9494 126.055 82.9412 126.097 82.9414 126.139C82.9417 126.181 82.9504 126.222 82.9671 126.261C82.9838 126.3 83.0081 126.334 83.0386 126.363C83.069 126.392 83.105 126.415 83.1444 126.429C83.9928 126.819 84.7255 127.423 85.2705 128.183C85.8155 128.943 86.1539 129.832 86.2526 130.763C86.2564 130.806 86.2688 130.847 86.289 130.885C86.3093 130.923 86.3369 130.956 86.3702 130.983C86.4036 131.01 86.442 131.03 86.4832 131.042C86.5244 131.053 86.5676 131.057 86.6101 131.051Z" fill="#1D1B13"/>
<path d="M83.6108 129.103C83.6857 129.104 83.7581 129.076 83.8128 129.025C84.0925 128.799 84.9395 128.245 85.4913 128.386C85.5321 128.396 85.5746 128.399 85.6164 128.393C85.6582 128.387 85.6985 128.373 85.7349 128.352C85.7714 128.331 85.8033 128.302 85.8288 128.269C85.8543 128.235 85.8729 128.197 85.8836 128.156C85.8944 128.115 85.8969 128.072 85.8912 128.03C85.8855 127.988 85.8716 127.948 85.8503 127.911C85.829 127.875 85.8008 127.843 85.7672 127.817C85.7336 127.791 85.6952 127.773 85.6544 127.762C84.6909 127.513 83.5408 128.424 83.4087 128.541C83.3441 128.596 83.3032 128.674 83.2945 128.758C83.2858 128.842 83.31 128.927 83.3621 128.993C83.3933 129.029 83.4317 129.056 83.4746 129.075C83.5175 129.094 83.5639 129.103 83.6108 129.103Z" fill="#1D1B13"/>
<path d="M84.5275 115.907C84.5275 115.907 88.7936 119.804 90.5886 118.846C92.3836 117.887 89.4851 114.34 89.4851 114.34C89.4851 114.34 95.8104 117.778 98.2348 116.679C100.659 115.58 96.3077 112.61 96.3077 112.61C96.3077 112.61 101.133 116.92 103.884 116.663C106.635 116.406 103.884 112.93 103.884 112.93C103.884 112.93 106.394 117.809 108.049 117.388C109.704 116.967 107.482 109.976 101.988 107.591C96.4942 105.206 82.5071 105.642 84.5275 115.907Z" fill="#212121"/>
<path d="M88.2575 117.388C88.2575 117.388 89.6562 126.32 87.4182 126.359C85.1803 126.398 82.9113 122.922 84.5276 115.907L88.2575 117.388Z" fill="#212121"/>
<path d="M102.936 117.404C102.936 117.404 101.716 117.528 102.159 118.643C102.602 119.757 105.026 118.534 106.775 120.591C106.759 120.591 107.505 117.91 102.936 117.404Z" fill="#9E4646"/>
<path d="M75.638 240.559C75.1386 234.545 75.363 228.492 76.3063 222.531C76.3685 222.188 76.4229 221.853 76.485 221.518C77.115 217.892 78.2311 214.369 79.8031 211.043C79.974 210.684 80.145 210.365 80.3004 210.084C80.5735 209.568 80.8798 209.071 81.2173 208.595C81.2173 208.595 83.4319 208.712 86.8354 208.767H87.8379C91.3657 208.767 95.9504 208.767 100.636 208.44L101.638 208.369C102.675 208.291 103.711 208.198 104.747 208.089L105.741 207.988C108.66 207.672 111.552 207.151 114.398 206.429L115.369 206.156C116.618 205.801 117.835 205.34 119.006 204.776C119.006 204.776 119.557 205.556 120.366 206.904C120.529 207.169 120.692 207.465 120.871 207.785C122.647 210.998 124.07 214.395 125.113 217.917C125.214 218.276 125.323 218.642 125.424 219.008C125.999 221.144 126.43 223.316 126.714 225.509C127.732 233.63 76.182 247.496 75.638 240.559Z" fill="#5473B8"/>
<path d="M120.863 207.824C119.558 208.486 118.201 209.041 116.807 209.484L115.82 209.788C112.563 210.698 109.227 211.299 105.858 211.581L104.856 211.674C103.861 211.752 102.827 211.822 101.747 211.877L100.745 211.916C99.3229 211.97 97.8465 212.002 96.3156 212.002H95.2122C92.477 212.002 89.8427 211.869 87.4805 211.721L86.4781 211.659C83.7506 211.472 81.435 211.238 79.7876 211.051C79.9586 210.692 80.1295 210.373 80.2849 210.092C81.909 210.263 84.0925 210.474 86.6335 210.645L87.6359 210.716C91.5212 210.949 96.067 211.09 100.706 210.903L101.708 210.856C102.742 210.809 103.783 210.739 104.817 210.653L105.819 210.56C109.046 210.277 112.242 209.708 115.369 208.861L116.348 208.564C117.725 208.139 119.063 207.599 120.35 206.951C120.521 207.208 120.684 207.504 120.863 207.824Z" fill="#454FA2"/>
<path d="M106.223 235.337C106.223 235.469 106.171 235.596 106.077 235.69C105.984 235.783 105.858 235.836 105.726 235.836C105.593 235.834 105.467 235.78 105.374 235.685C105.28 235.59 105.228 235.462 105.228 235.329C105.228 233.443 105.228 231.51 105.228 229.577C105.228 229.242 105.228 228.899 105.228 228.556C105.182 222.251 105.011 216.047 104.871 211.674C104.871 211.315 104.871 210.973 104.871 210.645C104.871 209.679 104.809 208.829 104.785 208.104L105.78 208.003C105.78 208.72 105.842 209.562 105.873 210.552C105.873 210.879 105.873 211.23 105.873 211.58C106.013 215.922 106.176 222.071 106.231 228.338C106.231 228.681 106.231 229.032 106.231 229.375C106.239 231.378 106.239 233.381 106.223 235.337Z" fill="#454FA2"/>
<path d="M108.041 228.79C107.462 229.034 106.864 229.232 106.254 229.382C105.925 229.472 105.59 229.54 105.252 229.585C104.938 229.634 104.621 229.66 104.304 229.663C103.724 229.684 103.149 229.556 102.633 229.289C102.339 229.118 102.089 228.879 101.907 228.591C101.724 228.304 101.613 227.976 101.584 227.637C101.328 225.672 100.993 217.621 100.807 211.923C100.807 211.573 100.807 211.238 100.768 210.902C100.768 209.99 100.706 209.164 100.683 208.463L101.685 208.393C101.685 209.094 101.739 209.952 101.77 210.856C101.77 211.191 101.771 211.534 101.809 211.884C102.019 217.559 102.346 225.602 102.586 227.473C102.596 227.659 102.652 227.839 102.748 227.998C102.845 228.157 102.978 228.29 103.138 228.385C103.808 228.662 104.55 228.714 105.252 228.533C105.589 228.477 105.924 228.405 106.254 228.315C106.732 228.184 107.202 228.025 107.661 227.839C107.721 227.814 107.785 227.8 107.851 227.8C107.916 227.799 107.981 227.811 108.042 227.836C108.102 227.861 108.157 227.897 108.204 227.943C108.251 227.989 108.288 228.044 108.313 228.104C108.339 228.165 108.352 228.229 108.353 228.295C108.353 228.361 108.341 228.426 108.316 228.486C108.292 228.547 108.256 228.603 108.21 228.649C108.164 228.696 108.109 228.733 108.049 228.759L108.041 228.79Z" fill="#454FA2"/>
<path d="M87.838 208.782C87.7991 209.437 87.737 210.068 87.6593 210.684C87.6126 211.027 87.5583 211.362 87.5039 211.69C86.8123 215.711 85.2349 218.665 82.7949 220.489C80.962 221.83 78.746 222.541 76.4774 222.516H76.3142C76.3764 222.173 76.4308 221.838 76.4929 221.503C78.5414 221.526 80.5433 220.889 82.2043 219.686C84.4034 218.034 85.841 215.33 86.5015 211.635C86.5558 211.3 86.6102 210.965 86.6569 210.622C86.7346 210.024 86.7967 209.401 86.8434 208.751L87.838 208.782Z" fill="#454FA2"/>
<path d="M125.417 219.047C122.573 218.572 119.892 216.475 117.537 212.812C116.908 211.832 116.334 210.817 115.82 209.772C115.665 209.455 115.517 209.143 115.377 208.837C114.965 207.925 114.6 207.099 114.39 206.452L115.361 206.179C115.61 206.826 115.944 207.644 116.356 208.517C116.496 208.821 116.651 209.125 116.807 209.445C118.516 212.859 121.306 216.997 125.106 217.917C125.207 218.315 125.316 218.658 125.417 219.047Z" fill="#454FA2"/>
<path d="M79.9118 392.67C79.9118 392.67 78.9094 399.163 79.5155 401.891C79.5155 401.891 81.0696 402 84.9549 402C88.6304 402 90.5964 401.891 90.5964 401.891C90.5964 401.891 90.7129 394.876 89.7261 392.538C89.7338 392.53 85.9573 398.22 79.9118 392.67Z" fill="#1E1F1E"/>
<path d="M163.819 399.482C163.819 399.482 153.111 399.693 151.3 399.482C149.49 399.272 148.091 395.991 146.125 392.055C145.348 390.441 143.522 389.56 141.673 389.069L141.758 399.482H139.046L136.233 388.5C134.493 385.289 135.814 382.39 137.01 379.857C138.44 379.857 142.551 380.815 149.816 389.03C152.21 391.719 154.844 392.686 157.462 392.6C157.495 392.627 157.532 392.648 157.571 392.663C163.64 395.375 163.819 399.482 163.819 399.482Z" fill="#1E1F1E"/>
<path d="M79.531 255.844C79.531 255.844 76.9123 265.329 67.8751 264.121C58.8379 262.913 45.9309 257.457 45.9309 257.457C45.9309 257.457 49.8162 245.189 54.6184 229.071C60.4464 209.585 67.6575 184.395 71.061 168.526C71.8794 164.957 72.4968 161.345 72.9104 157.707L80.4013 143.054C80.4013 143.054 91.6065 168.284 92.2126 174.644C92.8187 181.004 79.531 255.844 79.531 255.844Z" fill="#F15E3C"/>
<path d="M100.178 190.217L98.1728 191.378L96.1836 192.446C94.8548 193.139 93.5183 193.818 92.1584 194.488C90.7986 195.158 89.4309 195.789 88.04 196.421C86.6491 197.052 85.2348 197.637 83.7895 198.221C82.3442 198.806 80.86 199.344 79.2981 199.85C78.6065 200.076 77.8916 200.295 77.1534 200.497L76.8737 200.575C76.0344 200.801 75.1563 201.019 74.1928 201.191C73.0929 201.397 71.9779 201.512 70.8592 201.534H70.3308C70.1419 201.545 69.9525 201.545 69.7635 201.534L69.1574 201.479L68.4659 201.386L68.1084 201.316L67.6966 201.222L67.2925 201.113H67.1915H67.0749L66.834 201.035C66.1127 200.787 65.4219 200.458 64.7748 200.053L64.192 199.648L63.9123 199.429C63.819 199.359 63.718 199.266 63.617 199.18C63.516 199.094 63.2285 198.814 63.042 198.619L62.77 198.323C62.6845 198.213 62.5913 198.104 62.5058 197.987C61.5411 196.73 60.9222 195.242 60.7108 193.669C60.7108 193.459 60.6564 193.241 60.6409 193.03V192.711V191.082C60.6409 190.832 60.6409 190.56 60.6409 190.365L60.7108 189.118C60.7574 188.268 60.8351 187.512 60.9051 186.733L61.0061 185.563L61.1304 184.433C61.2781 182.914 61.4723 181.433 61.6588 179.944C62.0551 176.99 62.4359 174.052 62.9332 171.137C63.2363 169.118 63.5704 167.115 63.9201 165.104L64.3863 162.415C64.9069 159.515 65.4431 156.639 66.0492 153.732C66.3546 152.262 67.0958 150.918 68.1756 149.878C69.2555 148.838 70.6235 148.149 72.1005 147.902C73.5775 147.655 75.0943 147.861 76.4522 148.494C77.8101 149.127 78.9457 150.157 79.7099 151.448C80.5851 152.914 80.9282 154.638 80.6812 156.328C79.8498 162.033 78.9095 167.785 78.0082 173.475L77.3477 177.746C77.1145 179.172 76.9047 180.583 76.6871 181.994L76.1354 185.891C77.099 185.626 78.0781 185.33 79.0727 185.018C80.3704 184.62 81.6836 184.184 82.958 183.716C84.2324 183.249 85.5923 182.789 86.9133 182.298C88.2343 181.807 89.563 181.316 90.8763 180.809L94.8004 179.297L94.9714 179.227C96.4131 178.66 98.0158 178.665 99.4543 179.24C100.893 179.815 102.06 180.917 102.718 182.323C103.376 183.728 103.477 185.333 102.999 186.81C102.522 188.288 101.502 189.528 100.147 190.279L100.178 190.217Z" fill="#F15E3C"/>
<path d="M94.474 181.815C94.474 181.815 94.101 179.305 95.7483 177.918C97.3957 176.53 102.353 172.828 103.402 171.682C104.451 170.536 105.734 172.462 104.451 174.434C103.169 176.405 102.276 177.629 102.276 177.629C102.276 177.629 106.394 174.332 108.391 172.999C110.388 171.667 112.875 169.43 113.706 169.944C114.538 170.459 113.232 172.929 107.832 176.78C107.832 176.78 114.514 173.475 115.602 173.288C116.69 173.101 117.257 174.122 114.46 176.117C111.663 178.112 108.725 179.811 108.725 179.811C109.081 179.589 109.491 179.471 109.91 179.471C110.329 179.471 110.74 179.589 111.095 179.811C112.175 180.591 110.404 182.204 110.404 182.204C110.404 182.204 112.797 183.108 110.209 185.08C107.622 187.052 99.8979 189.445 97.8464 188.65C95.795 187.855 94.474 181.815 94.474 181.815Z" fill="#BA6565"/>
<path d="M88.0399 196.756C87.9556 196.752 87.8751 196.72 87.8114 196.665C87.7477 196.609 87.7046 196.534 87.6893 196.45C87.674 196.367 87.6873 196.281 87.7269 196.206C87.7666 196.132 87.8304 196.073 87.9078 196.039C92.2211 194.315 96.3161 192.086 100.108 189.398C100.146 189.363 100.191 189.336 100.24 189.32C100.289 189.303 100.341 189.297 100.393 189.301C100.444 189.306 100.495 189.321 100.54 189.346C100.585 189.371 100.625 189.406 100.656 189.447C100.688 189.488 100.71 189.536 100.723 189.586C100.735 189.637 100.736 189.689 100.727 189.741C100.718 189.792 100.698 189.84 100.669 189.884C100.64 189.927 100.602 189.963 100.558 189.991C96.7129 192.722 92.5576 194.985 88.1798 196.733L88.0399 196.756Z" fill="#595A5A"/>
<path d="M79.7176 151.324C78.8006 156.374 76.0266 162.189 68.3725 164.262C66.9188 164.651 65.4296 164.891 63.9277 164.979L64.394 162.29C64.9146 159.391 65.4508 156.515 66.0569 153.607C66.4576 151.721 67.5718 150.065 69.1651 148.986C70.3302 147.727 71.8038 146.797 73.4389 146.289C74.045 146.086 74.6356 145.891 75.2106 145.712C77.0212 145.143 78.6919 144.652 80.0517 144.286C80.2442 146.636 80.1318 149.002 79.7176 151.324Z" fill="#F15E3C"/>
<path d="M75.7856 185.018C75.7348 185.018 75.6845 185.007 75.6378 184.987C75.5911 184.967 75.5489 184.938 75.5136 184.901C75.4733 184.856 75.4438 184.803 75.4276 184.745C75.4115 184.686 75.409 184.625 75.4204 184.566C76.4305 179.757 77.3475 172.353 78.008 166.943C78.2644 164.847 78.4898 163.046 78.684 161.643C78.6975 161.545 78.7493 161.456 78.828 161.397C78.9066 161.337 79.0058 161.31 79.1036 161.324C79.2006 161.339 79.2879 161.392 79.3472 161.47C79.4066 161.548 79.4335 161.647 79.4222 161.745C79.228 163.132 79.0026 164.94 78.7462 167.029C78.0701 172.547 77.2309 179.367 76.2596 184.176C78.5208 183.779 87.3094 182.165 90.7828 180.497C90.8707 180.457 90.9708 180.452 91.0622 180.484C91.1535 180.516 91.2289 180.582 91.2724 180.669C91.2947 180.713 91.308 180.761 91.3115 180.81C91.315 180.859 91.3085 180.908 91.2926 180.955C91.2766 181.001 91.2515 181.044 91.2186 181.081C91.1858 181.117 91.1459 181.147 91.1014 181.168C87.0219 183.132 76.2985 184.932 75.8478 185.002L75.7856 185.018Z" fill="#B82A09"/>
<path d="M71.2787 187.863C71.2023 187.862 71.128 187.838 71.0659 187.793C71.0038 187.748 70.9569 187.686 70.9314 187.613C70.906 187.541 70.9033 187.463 70.9237 187.389C70.9441 187.315 70.9867 187.249 71.0456 187.2C72.1894 186.33 73.3973 185.549 74.6589 184.862C73.6432 184.839 72.6273 184.896 71.6206 185.034C71.5726 185.04 71.5238 185.037 71.477 185.025C71.4301 185.013 71.3862 184.991 71.3476 184.962C71.309 184.933 71.2765 184.896 71.252 184.854C71.2275 184.812 71.2115 184.766 71.2049 184.718C71.1982 184.67 71.2011 184.621 71.2133 184.574C71.2256 184.527 71.2469 184.483 71.2761 184.444C71.3054 184.405 71.3419 184.373 71.3836 184.348C71.4254 184.324 71.4716 184.308 71.5196 184.301C71.6439 184.301 74.6278 183.864 75.91 184.301C75.9788 184.325 76.039 184.369 76.0832 184.427C76.1274 184.486 76.1535 184.555 76.1585 184.628C76.1635 184.701 76.147 184.774 76.1111 184.838C76.0752 184.902 76.0215 184.953 75.9566 184.987C74.4084 185.804 72.925 186.74 71.5196 187.785C71.4499 187.837 71.3653 187.864 71.2787 187.863Z" fill="#B82A09"/>
<path d="M78.5755 165.743C78.5002 165.742 78.427 165.718 78.3656 165.674C78.3042 165.631 78.2574 165.569 78.2313 165.498C78.2053 165.428 78.2012 165.351 78.2196 165.277C78.238 165.204 78.2781 165.138 78.3346 165.088L80.961 162.75C81.0352 162.684 81.1326 162.65 81.2317 162.656C81.3308 162.662 81.4235 162.707 81.4894 162.781C81.5554 162.856 81.5892 162.953 81.5833 163.053C81.5775 163.152 81.5326 163.245 81.4584 163.311L78.8241 165.649C78.7559 165.711 78.6671 165.744 78.5755 165.743Z" fill="#B82A09"/>
<path d="M136.319 215.86C136.319 215.86 135.021 212.516 133.296 208.291C131.571 204.067 127.242 162.929 124.383 156.795C121.523 150.661 111.639 146.725 111.639 146.725L103.48 143.195C103.48 143.195 113.753 168.635 114.048 173.787C114.343 178.939 115.26 257.964 115.26 257.964C115.26 257.964 114.654 261.596 121.601 260.084C128.548 258.572 130.358 257.052 130.358 257.052C130.358 257.052 127.833 238.541 126.326 220.357C131.353 220.068 136.319 215.86 136.319 215.86Z" fill="#F15E3C"/>
<path d="M134.031 234.606L156.574 221.928C161.051 219.41 162.646 213.728 160.135 209.238L153.576 197.504C151.066 193.013 145.401 191.414 140.924 193.932L118.381 206.61C113.904 209.128 112.31 214.81 114.82 219.3L121.38 231.034C123.89 235.525 129.554 237.124 134.031 234.606Z" fill="white"/>
<path d="M133.63 214.262C133.63 215.033 133.858 215.786 134.285 216.427C134.712 217.068 135.319 217.567 136.029 217.862C136.739 218.157 137.52 218.234 138.273 218.084C139.027 217.934 139.719 217.562 140.263 217.017C140.806 216.472 141.176 215.778 141.326 215.022C141.476 214.266 141.399 213.483 141.105 212.77C140.811 212.058 140.313 211.45 139.674 211.021C139.035 210.593 138.284 210.365 137.515 210.365C136.485 210.365 135.497 210.775 134.768 211.506C134.039 212.237 133.63 213.228 133.63 214.262Z" fill="#DFE5E9"/>
<path d="M149.739 230.747C149.739 230.747 151.79 228.408 153.624 226.015C155.124 223.989 155.139 222.75 155.139 222.75C153.663 223.529 151.922 224.535 150.182 225.54C150.051 224.751 149.64 224.036 149.024 223.529C147.982 222.641 144.361 219.632 143.483 220.24C141.486 221.643 145.978 225.478 145.978 225.478C145.978 225.478 141.222 221.331 139.979 222.516C138.976 223.475 142.248 228.05 142.248 228.05C142.248 228.05 138.86 223.833 137.733 225.548C136.606 227.262 140.67 230.505 140.67 230.505C140.67 230.505 137.072 228.743 136.723 229.468C136.21 230.52 137.306 232.383 140.111 234.581C142.916 236.779 149.739 230.747 149.739 230.747Z" fill="#BA6565"/>
<path d="M177.977 0H5.13543C-47.4094 0 -90 52.8211 -90 117.973V124.512C-90 189.663 -47.4094 242.484 5.13543 242.484H177.977C230.522 242.484 273.12 189.663 273.12 124.512V117.973C273.097 52.8211 230.498 0 177.977 0ZM233.288 131.971C233.288 165.759 211.196 193.147 183.952 193.147H-0.832397C-28.0839 193.147 -50.1757 165.759 -50.1757 131.971C-50.1757 98.1832 -28.0839 70.7944 -0.832397 70.7944H183.929C211.173 70.7944 233.265 98.1832 233.265 131.971H233.288Z" fill="#20C1EF"/>
<path d="M91.7386 193.685H146.413C147.155 193.685 147.757 193.082 147.757 192.337V190.154C147.757 189.41 147.155 188.806 146.413 188.806H91.7386C90.9962 188.806 90.3943 189.41 90.3943 190.154V192.337C90.3943 193.082 90.9962 193.685 91.7386 193.685Z" fill="#95A3A2"/>
<path d="M106.029 193.716H145.783C146.244 193.716 146.694 193.583 147.081 193.333C147.469 193.083 147.776 192.726 147.967 192.306L158.846 168.502C159.011 168.135 159.083 167.732 159.054 167.33C159.025 166.928 158.896 166.539 158.679 166.2C158.462 165.861 158.164 165.581 157.811 165.387C157.459 165.193 157.064 165.09 156.662 165.088H116.892C116.432 165.088 115.982 165.22 115.595 165.469C115.208 165.718 114.9 166.072 114.709 166.491L103.83 190.303C103.663 190.671 103.592 191.075 103.621 191.479C103.651 191.882 103.781 192.272 104 192.611C104.219 192.951 104.52 193.23 104.874 193.424C105.228 193.617 105.625 193.717 106.029 193.716Z" fill="#2D2D2D"/>
<path d="M130.009 179.367C130.007 180.054 130.209 180.726 130.588 181.297C130.968 181.869 131.508 182.314 132.14 182.578C132.772 182.841 133.468 182.911 134.139 182.777C134.811 182.644 135.428 182.313 135.912 181.828C136.396 181.342 136.725 180.723 136.859 180.05C136.992 179.376 136.923 178.678 136.66 178.044C136.397 177.41 135.953 176.868 135.383 176.488C134.813 176.107 134.144 175.905 133.459 175.907C133.006 175.907 132.557 175.996 132.139 176.17C131.72 176.344 131.34 176.599 131.019 176.92C130.699 177.242 130.445 177.623 130.271 178.043C130.098 178.463 130.009 178.913 130.009 179.367Z" fill="#A2A4A4"/>
</svg>
