<svg width="20" height="18" viewBox="0 0 20 18" fill="none" xmlns="http://www.w3.org/2000/svg">
<path d="M9 3H2.77778C2.30628 3 1.8541 3.16389 1.5207 3.45561C1.1873 3.74733 1 4.143 1 4.55556V15.4444C1 15.857 1.1873 16.2527 1.5207 16.5444C1.8541 16.8361 2.30628 17 2.77778 17H15.2222C15.6937 17 16.1459 16.8361 16.4793 16.5444C16.8127 16.2527 17 15.857 17 15.4444V10" stroke="black" stroke-width="0.750011" stroke-linecap="round" stroke-linejoin="round"/>
<path d="M15.6662 1.48399C16.0325 1.1741 16.5292 1 17.0471 1C17.5651 1 18.0618 1.1741 18.428 1.48399C18.7943 1.79388 19 2.21418 19 2.65243C19 3.09068 18.7943 3.51099 18.428 3.82088L9.68238 11.221L6 12L6.92059 8.88414L15.6662 1.48399Z" stroke="black" stroke-width="0.750011" stroke-linecap="round" stroke-linejoin="round"/>
</svg>
