<svg width="274" height="402" viewBox="0 0 274 402" fill="none" xmlns="http://www.w3.org/2000/svg">
<path d="M91.4862 362.195L87.0178 365.956L92.2011 374.1L96.6695 370.339L91.4862 362.195Z" fill="#F69A9E"/>
<path d="M91.7584 401.813L72.8901 372.15C73.2548 371.581 73.7306 371.092 74.289 370.712C76.6825 368.932 81.1974 367.184 83.9717 365.972C84.2981 365.832 84.5934 365.7 84.8654 365.567C85.2399 365.402 85.6033 365.212 85.9534 365C88.0127 363.695 88.8209 365.777 88.8209 365.777C87.7873 370.65 94.3617 371.217 94.1752 374.147C94.1752 374.147 94.1052 375.391 93.4835 379.097C92.8619 382.804 94.012 387.693 94.758 392.006C95.7139 397.578 94.6725 399.995 93.5613 401.044C93.0752 401.513 92.4334 401.787 91.7584 401.813Z" fill="#1D1B13"/>
<path d="M91.7584 401.813L72.8901 372.15C73.2548 371.581 73.7306 371.092 74.289 370.712L93.5613 401.021C93.0787 401.498 92.4366 401.781 91.7584 401.813Z" fill="white"/>
<path d="M74.8095 375.181L74.25 374.295C75.2574 374.45 76.2856 374.404 77.2752 374.16C78.2649 373.916 79.1964 373.479 80.0162 372.873C81.1127 372.055 82.029 371.02 82.7082 369.833C83.3874 368.646 83.8148 367.331 83.9639 365.972C84.2903 365.832 84.5856 365.7 84.8576 365.568C84.7559 367.136 84.3132 368.664 83.5602 370.044C82.8072 371.424 81.7622 372.622 80.498 373.557C78.8556 374.758 76.8386 375.334 74.8095 375.181Z" fill="#595A5A"/>
<path d="M91.4085 379.665C91.3217 379.546 91.2836 379.399 91.3018 379.253C91.3201 379.108 91.3933 378.975 91.5066 378.881C91.6198 378.788 91.7645 378.741 91.911 378.751C92.0575 378.761 92.1947 378.826 92.2944 378.934L93.9341 380.488C94.0073 380.534 94.0696 380.595 94.1166 380.667C94.1635 380.739 94.1939 380.82 94.2055 380.906C94.2171 380.991 94.2097 381.078 94.1838 381.16C94.1579 381.242 94.1141 381.317 94.0557 381.38C93.9972 381.444 93.9254 381.493 93.8456 381.525C93.7658 381.557 93.6798 381.571 93.5939 381.566C93.508 381.561 93.4242 381.537 93.3487 381.496C93.2732 381.455 93.2077 381.397 93.157 381.328L91.5173 379.774C91.4764 379.742 91.4399 379.706 91.4085 379.665Z" fill="white"/>
<path d="M91.5096 382.206C91.4228 382.088 91.3847 381.94 91.4029 381.795C91.4211 381.649 91.4944 381.516 91.6077 381.422C91.7209 381.329 91.8656 381.282 92.0121 381.292C92.1586 381.302 92.2957 381.368 92.3955 381.475L94.0352 383.03C94.1324 383.136 94.1863 383.274 94.1863 383.418C94.1863 383.562 94.1324 383.701 94.0352 383.807C93.9259 383.916 93.7778 383.977 93.6233 383.977C93.4689 383.977 93.3207 383.916 93.2114 383.807L91.5795 382.253C91.5547 382.239 91.5312 382.224 91.5096 382.206Z" fill="white"/>
<path d="M91.6494 384.716C91.5802 384.608 91.5494 384.479 91.5621 384.351C91.5748 384.222 91.6302 384.102 91.7194 384.009C91.8287 383.9 91.9768 383.839 92.1312 383.839C92.2857 383.839 92.4339 383.9 92.5431 384.009L94.1828 385.563C94.2624 385.673 94.3016 385.806 94.2937 385.941C94.2858 386.076 94.2313 386.204 94.1395 386.303C94.0477 386.402 93.9244 386.466 93.7905 386.484C93.6567 386.502 93.5207 386.474 93.4057 386.403L91.766 384.848C91.7212 384.81 91.6819 384.766 91.6494 384.716Z" fill="white"/>
<path d="M91.9836 387.343C91.9129 387.235 91.8814 387.106 91.8941 386.977C91.9068 386.849 91.9631 386.728 92.0535 386.636C92.1596 386.539 92.2982 386.485 92.4421 386.485C92.5859 386.485 92.7246 386.539 92.8306 386.636L94.4703 388.19C94.5499 388.299 94.5891 388.433 94.5812 388.568C94.5733 388.702 94.5188 388.83 94.427 388.929C94.3353 389.029 94.2119 389.093 94.078 389.111C93.9442 389.129 93.8082 389.1 93.6932 389.029L92.0535 387.475C92.0247 387.434 92.0012 387.39 91.9836 387.343Z" fill="white"/>
<path d="M92.5354 390.055C92.4487 389.937 92.4105 389.79 92.4288 389.644C92.447 389.498 92.5203 389.365 92.6335 389.272C92.7468 389.178 92.8915 389.132 93.038 389.142C93.1845 389.151 93.3216 389.217 93.4214 389.325L95.0611 390.879C95.1149 390.932 95.1576 390.996 95.1867 391.066C95.2158 391.136 95.2309 391.211 95.2309 391.287C95.2309 391.363 95.2158 391.438 95.1867 391.508C95.1576 391.578 95.1149 391.642 95.0611 391.695C94.9518 391.804 94.8036 391.865 94.6492 391.865C94.4947 391.865 94.3466 391.804 94.2373 391.695L92.5976 390.141C92.5744 390.114 92.5536 390.086 92.5354 390.055Z" fill="white"/>
<path d="M145.643 309.388V309.59L145.138 310.523C137.628 324.312 129.284 337.631 120.154 350.405C118.343 352.892 116.486 355.364 114.59 357.757C113.756 358.793 112.916 359.83 112.072 360.866C109.179 364.552 105.716 367.752 101.814 370.347L100.679 371.062C99.9489 371.513 99.1952 371.948 98.418 372.383L97.2834 373.005C97.2834 373.005 91.6261 367.052 88.9917 361.285C88.9917 361.285 89.7688 360.089 90.9111 358.177C91.1443 357.788 91.3929 357.4 91.6882 356.949L94.4315 352.387C98.9853 344.771 105.125 334.326 107.417 329.477C109.096 325.933 111.085 321.993 113.315 318.123C113.743 317.346 114.17 316.654 114.613 315.924L114.768 315.667C117.555 310.864 120.905 306.411 124.747 302.401L116.626 254.631L116.113 251.631L133.986 245.32L135.012 244.963L139.271 243.455C139.271 243.455 139.613 245.009 140.141 247.722C140.203 248.048 140.265 248.39 140.335 248.748C142.706 261.003 148.013 291.622 145.643 309.388Z" fill="#2B4F97"/>
<path d="M145.643 309.388V309.59L145.138 310.523C142.532 310.008 140.04 309.032 137.778 307.639C137.647 307.551 137.555 307.414 137.523 307.259C137.491 307.103 137.521 306.941 137.608 306.808C137.65 306.741 137.706 306.684 137.77 306.639C137.835 306.593 137.909 306.562 137.986 306.545C138.063 306.528 138.143 306.527 138.221 306.542C138.299 306.556 138.373 306.586 138.439 306.629C140.654 307.976 143.095 308.91 145.643 309.388Z" fill="#5473B8"/>
<path d="M129.378 304.033C129.285 304.119 120.317 313.04 94.4081 360.617L93.7088 361.899L93.0715 361.06L93.771 359.77C117.791 315.659 127 305.098 128.477 303.552C126.371 295.78 119.928 255.788 119.633 254.071C119.622 254.009 119.624 253.945 119.638 253.883C119.652 253.821 119.678 253.763 119.715 253.711C119.752 253.66 119.799 253.617 119.853 253.583C119.907 253.55 119.967 253.529 120.029 253.519C120.092 253.508 120.157 253.509 120.219 253.523C120.281 253.537 120.34 253.564 120.392 253.6C120.444 253.637 120.488 253.684 120.522 253.738C120.556 253.792 120.579 253.853 120.589 253.916C120.651 254.343 127.474 296.518 129.479 303.552C129.508 303.633 129.514 303.722 129.496 303.807C129.478 303.892 129.437 303.97 129.378 304.033Z" fill="#5473B8"/>
<path d="M86.6448 231.759C86.6448 231.759 85.3004 244.528 88.199 251.639C91.0977 258.749 128.71 255.089 138.292 248.693C142.224 246.066 133.846 221.851 133.846 221.851L86.6448 231.759Z" fill="#2B4F97"/>
<path d="M140.335 248.755C139.771 248.656 139.215 248.513 138.672 248.328C137.803 248.031 136.973 247.629 136.201 247.131C135.4 246.612 134.657 246.007 133.986 245.328C129.844 241.147 128.624 234.821 128.546 234.518C128.535 234.456 128.535 234.392 128.548 234.33C128.561 234.268 128.586 234.209 128.622 234.157C128.658 234.105 128.703 234.06 128.756 234.025C128.809 233.99 128.869 233.966 128.931 233.955C128.993 233.943 129.057 233.944 129.119 233.957C129.181 233.97 129.24 233.995 129.292 234.03C129.345 234.066 129.39 234.112 129.424 234.165C129.459 234.218 129.483 234.277 129.495 234.339C129.495 234.409 130.777 240.984 134.989 244.971C135.516 245.476 136.091 245.929 136.706 246.323C137.432 246.796 138.216 247.174 139.037 247.45C139.387 247.559 139.737 247.652 140.094 247.73C140.203 248.056 140.265 248.413 140.335 248.755Z" fill="#5473B8"/>
<path d="M117.131 252.299C117.133 252.36 117.123 252.421 117.101 252.479C117.08 252.536 117.047 252.589 117.005 252.633C116.964 252.678 116.913 252.714 116.857 252.74C116.802 252.765 116.741 252.779 116.68 252.781C116.555 252.787 116.432 252.745 116.338 252.662C116.243 252.579 116.185 252.463 116.175 252.338C116.09 250.589 115.988 248.802 115.88 247.015C115.88 246.704 115.88 246.385 115.818 246.074C115.437 240.238 114.955 234.51 114.59 230.461C114.59 230.135 114.535 229.816 114.504 229.513C114.427 228.627 114.349 227.843 114.287 227.182L115.242 227.026C115.305 227.695 115.382 228.488 115.46 229.358C115.46 229.669 115.514 229.98 115.546 230.306C115.911 234.316 116.385 239.997 116.766 245.802C116.766 246.121 116.812 246.44 116.828 246.758C116.937 248.662 117.045 250.519 117.131 252.299Z" fill="#5473B8"/>
<path d="M118.506 246.167C117.961 246.424 117.397 246.639 116.82 246.812C116.509 246.911 116.192 246.991 115.872 247.053C115.57 247.115 115.263 247.154 114.955 247.17C114.404 247.226 113.847 247.141 113.338 246.921C113.048 246.783 112.796 246.577 112.604 246.32C112.411 246.062 112.285 245.762 112.235 245.445C111.885 243.642 111.147 236.212 110.681 230.951C110.642 230.632 110.619 230.314 110.587 230.011C110.51 229.163 110.44 228.402 110.378 227.749L111.341 227.633C111.396 228.285 111.466 229.062 111.551 229.909C111.551 230.22 111.606 230.531 111.637 230.858C112.134 236.103 112.872 243.525 113.191 245.274C113.217 245.441 113.284 245.599 113.385 245.735C113.487 245.87 113.62 245.979 113.774 246.051C114.439 246.26 115.152 246.26 115.817 246.051C116.144 245.981 116.462 245.888 116.766 245.794C117.217 245.645 117.661 245.471 118.094 245.274C118.208 245.216 118.339 245.206 118.46 245.246C118.581 245.285 118.681 245.37 118.739 245.483C118.777 245.542 118.802 245.608 118.81 245.677C118.819 245.746 118.812 245.816 118.79 245.882C118.767 245.948 118.73 246.008 118.681 246.057C118.632 246.107 118.572 246.144 118.506 246.167Z" fill="#5473B8"/>
<path d="M102.381 379.183L103.337 386.752H112.989L113.548 378.787L102.381 379.183Z" fill="#F69A9E"/>
<path d="M114.566 247.994V377.932L114.426 379.991H100.096C99.941 379.051 99.5991 377.535 99.1406 375.585C99.0474 375.165 98.9386 374.714 98.8298 374.256C96.9647 366.306 93.763 352.76 93.1957 340.979C92.4186 324.161 92.6207 302.37 92.6207 302.37C90.981 289.866 88.4165 262.79 87.1421 248.934C87.1421 248.6 87.0799 248.281 87.0488 247.97C86.6214 243.308 86.3572 240.385 86.3572 240.385C88.6885 239.422 92.8461 240.082 97.2989 241.341L98.2703 241.629C103.836 243.392 109.279 245.518 114.566 247.994Z" fill="#2B4F97"/>
<path d="M114.566 305.285V306.528C112.798 306.931 110.987 307.119 109.173 307.088C107.022 307.077 104.874 306.908 102.747 306.582C102.669 306.569 102.595 306.541 102.528 306.499C102.461 306.457 102.404 306.402 102.358 306.338C102.313 306.274 102.28 306.201 102.263 306.125C102.246 306.048 102.244 305.968 102.257 305.891C102.268 305.813 102.295 305.738 102.336 305.671C102.377 305.604 102.431 305.546 102.495 305.5C102.558 305.454 102.631 305.422 102.708 305.405C102.784 305.388 102.864 305.387 102.941 305.401C103.019 305.409 110.036 306.551 114.566 305.285Z" fill="#5473B8"/>
<path d="M101.542 375.585H100.563C100.485 375.17 100.4 374.727 100.306 374.256C99.0397 367.526 96.724 354.944 95.5195 346.776C93.8409 335.375 94.6258 303.754 94.6568 302.479C93.3824 291.599 90.7713 254.366 90.7713 253.993C90.7667 253.93 90.7746 253.866 90.7946 253.806C90.8145 253.746 90.8462 253.69 90.8877 253.642C90.9292 253.594 90.9797 253.555 91.0364 253.527C91.0931 253.498 91.1549 253.481 91.2181 253.476C91.2814 253.472 91.345 253.48 91.4052 253.5C91.4654 253.52 91.5211 253.551 91.5691 253.593C91.6171 253.634 91.6564 253.685 91.6849 253.742C91.7133 253.798 91.7303 253.86 91.7349 253.923C91.7349 254.296 94.3615 291.599 95.6204 302.401C95.6242 302.425 95.6242 302.448 95.6204 302.471C95.6204 302.798 94.7734 335.111 96.4675 346.597C97.6798 354.82 100.027 367.534 101.286 374.217C101.379 374.73 101.464 375.181 101.542 375.585Z" fill="#5473B8"/>
<path d="M116.665 399.661C116.665 399.746 116.665 399.832 116.665 399.909C116.665 400.298 116.665 400.686 116.665 400.943C116.665 401.596 116.579 402 116.579 402H94.8201C94.7579 401.304 94.7579 400.605 94.8201 399.909C94.96 397.687 95.6982 394.182 98.7056 391.858C102.824 388.68 101.231 389.34 102.078 387.895C102.172 387.731 102.91 385.268 102.988 385.097C103.695 383.597 104.347 382.882 108.249 382.882C113.416 382.882 113.867 385.392 114.419 386.713C114.778 387.728 115.066 388.767 115.281 389.822C115.413 390.374 115.538 390.957 115.67 391.555C115.989 393.055 116.284 394.617 116.486 395.868C116.652 397.125 116.712 398.394 116.665 399.661Z" fill="#1D1B13"/>
<path d="M116.664 399.661C116.664 399.746 116.664 399.832 116.664 399.909C116.664 400.298 116.664 400.687 116.664 400.943C115.623 400.226 114.833 399.202 114.403 398.013C113.059 394.345 115.126 389.946 115.18 389.76H115.227C115.359 390.312 115.483 390.894 115.615 391.493C115.126 392.993 114.558 395.511 115.343 397.64C115.616 398.409 116.069 399.102 116.664 399.661Z" fill="#595A5A"/>
<path d="M116.626 399.909C116.626 401.153 116.502 402 116.502 402H94.7424C94.6803 401.305 94.6803 400.605 94.7424 399.909H116.626Z" fill="white"/>
<path d="M108.893 389.667C108.842 389.674 108.79 389.674 108.738 389.667C107.089 389.233 105.36 389.199 103.695 389.566C103.538 389.603 103.373 389.579 103.235 389.497C103.096 389.415 102.994 389.283 102.951 389.128C102.908 388.973 102.926 388.808 103.002 388.666C103.079 388.524 103.207 388.418 103.36 388.369C105.237 387.942 107.189 387.977 109.049 388.47C109.13 388.489 109.207 388.526 109.274 388.576C109.341 388.626 109.397 388.69 109.438 388.763C109.48 388.835 109.506 388.916 109.515 388.999C109.524 389.083 109.516 389.167 109.492 389.247C109.449 389.371 109.368 389.479 109.261 389.554C109.153 389.629 109.025 389.669 108.893 389.667Z" fill="white"/>
<path d="M109.383 387.265C109.332 387.273 109.279 387.273 109.228 387.265C107.578 386.832 105.85 386.797 104.184 387.164C104.105 387.188 104.021 387.195 103.939 387.186C103.856 387.177 103.776 387.151 103.704 387.111C103.631 387.07 103.568 387.015 103.517 386.95C103.466 386.884 103.429 386.809 103.407 386.729C103.382 386.65 103.374 386.567 103.382 386.484C103.39 386.402 103.415 386.322 103.455 386.249C103.495 386.177 103.549 386.113 103.614 386.062C103.68 386.011 103.754 385.973 103.835 385.952C105.711 385.525 107.662 385.557 109.523 386.045C109.603 386.067 109.679 386.104 109.744 386.155C109.81 386.206 109.865 386.269 109.906 386.341C109.948 386.414 109.974 386.493 109.984 386.576C109.995 386.658 109.988 386.742 109.966 386.822C109.928 386.948 109.851 387.059 109.747 387.139C109.642 387.218 109.515 387.263 109.383 387.265Z" fill="white"/>
<path d="M107.961 391.633H107.805C106.156 391.2 104.427 391.166 102.762 391.532C102.682 391.554 102.599 391.561 102.517 391.551C102.435 391.541 102.355 391.516 102.283 391.475C102.211 391.435 102.148 391.381 102.096 391.316C102.045 391.251 102.007 391.176 101.985 391.097C101.961 391.017 101.954 390.933 101.963 390.851C101.972 390.768 101.998 390.689 102.039 390.616C102.079 390.544 102.134 390.48 102.199 390.429C102.265 390.378 102.34 390.341 102.42 390.319C104.293 389.892 106.242 389.924 108.101 390.413C108.251 390.447 108.384 390.536 108.473 390.662C108.562 390.789 108.6 390.944 108.581 391.097C108.561 391.251 108.485 391.391 108.368 391.492C108.25 391.592 108.1 391.645 107.945 391.641L107.961 391.633Z" fill="white"/>
<path d="M106.873 393.863H106.718C105.069 393.43 103.34 393.393 101.674 393.754C101.595 393.779 101.511 393.787 101.428 393.779C101.345 393.77 101.265 393.744 101.192 393.704C101.119 393.663 101.056 393.608 101.005 393.542C100.954 393.476 100.918 393.4 100.897 393.319C100.873 393.24 100.866 393.157 100.874 393.075C100.883 392.993 100.908 392.913 100.948 392.841C100.988 392.769 101.041 392.705 101.106 392.654C101.171 392.602 101.245 392.564 101.324 392.542C103.201 392.12 105.152 392.155 107.013 392.643C107.156 392.683 107.281 392.774 107.363 392.898C107.445 393.022 107.48 393.172 107.461 393.32C107.443 393.468 107.371 393.604 107.26 393.704C107.149 393.804 107.007 393.86 106.857 393.863H106.873Z" fill="white"/>
<path d="M100.936 234.518C100.412 237.007 99.5135 239.402 98.2703 241.621C97.084 243.832 95.3802 245.722 93.3046 247.131C91.4646 248.314 89.3218 248.941 87.1343 248.934C87.1343 248.6 87.0799 248.281 87.0488 247.971C89.0802 247.992 91.0735 247.419 92.7839 246.323C94.6601 245.041 96.2071 243.334 97.2989 241.341C98.5471 239.161 99.4539 236.802 99.9877 234.347C100.01 234.221 100.082 234.11 100.187 234.037C100.292 233.964 100.421 233.936 100.547 233.959C100.672 233.983 100.782 234.055 100.855 234.16C100.927 234.264 100.956 234.393 100.936 234.518Z" fill="#5473B8"/>
<path d="M138.867 230.228C138.33 230.726 137.763 231.215 137.157 231.682C137.017 231.798 136.87 231.907 136.714 232.024C135.702 232.784 134.646 233.485 133.551 234.122L133.062 234.402C128.274 237.028 123.094 238.865 117.722 239.841C116.385 240.098 115.017 240.316 113.634 240.479C112.08 240.665 110.497 240.795 108.886 240.867C107.705 240.914 106.554 240.93 105.319 240.867H104.542C97.4407 240.708 90.4497 239.078 84.0106 236.08L83.7619 235.956C83.7153 235.831 83.6686 235.692 83.622 235.552C82.3087 231.588 80.9332 222.231 79.9462 214.328L79.8763 213.784C79.4412 210.295 79.0992 207.124 78.8428 204.878C78.8428 204.668 78.8428 204.466 78.7884 204.28C78.7417 203.907 78.7106 203.572 78.6796 203.269C78.5552 202.041 78.4542 200.806 78.3765 199.57C78.0343 193.518 78.0343 187.452 78.3765 181.4L78.4231 180.382C78.4231 180.281 78.4231 180.188 78.4231 180.087C78.4231 179.986 78.4231 179.706 78.4231 179.52C78.5164 177.774 78.62 175.999 78.734 174.196C78.734 174.018 78.734 173.831 78.734 173.645L78.8272 172.09L78.8738 171.313C79.0215 168.982 79.1769 166.65 79.3323 164.179C79.8841 155.413 82.3009 149.273 86.4274 146.522C86.6139 146.39 86.8081 146.274 86.9946 146.165C88.0118 145.586 89.1256 145.196 90.2818 145.015L90.6626 144.953L91.191 144.859C92.7411 144.566 94.2623 144.137 95.7371 143.577C95.8848 143.53 96.0246 143.468 96.1567 143.414C96.2888 143.359 96.5142 143.274 96.6774 143.196C96.8406 143.118 97.2136 142.971 97.4545 142.854L98.0684 142.551C99.2258 141.978 100.326 141.296 101.356 140.515H115.856C116.994 142.158 118.554 143.463 120.371 144.292L120.947 144.548C121.226 144.673 121.514 144.789 121.801 144.89C122.485 145.147 123.177 145.364 123.868 145.574L124.444 145.737C128.523 146.903 132.37 147.711 133.334 152.537C133.792 154.869 132.922 158.654 132.207 164.777C132.207 165.018 132.152 165.251 132.121 165.5C131.997 166.611 131.88 167.832 131.779 169.052L131.733 169.697C131.492 172.875 131.36 176.52 131.438 180.717C131.438 181.913 131.5 183.149 131.562 184.431C131.624 185.714 131.694 186.872 131.787 188.162C131.88 189.452 131.989 190.586 132.114 191.853C132.222 192.964 132.347 194.099 132.487 195.272C132.58 196.003 132.673 196.749 132.774 197.511C132.774 197.72 132.829 197.93 132.86 198.14L132.976 198.917C133.132 199.997 133.326 201.303 133.551 202.803C133.551 202.982 133.613 203.168 133.637 203.347C133.909 205.088 134.227 207.031 134.569 209.082L134.663 209.634C135.331 213.52 136.1 217.825 136.893 221.773L137.033 222.48C137.717 225.394 138.307 228.037 138.867 230.228Z" fill="#F15E3C"/>
<path d="M109.849 150.416C104.06 150.416 99.599 144.113 99.4125 143.833C99.3757 143.79 99.3484 143.74 99.3323 143.686C99.3161 143.632 99.3115 143.575 99.3187 143.519C99.326 143.463 99.3448 143.409 99.3742 143.361C99.4035 143.312 99.4427 143.271 99.4891 143.239C99.5355 143.206 99.5882 143.184 99.6437 143.174C99.6992 143.163 99.7563 143.164 99.8113 143.177C99.8663 143.19 99.9181 143.214 99.9631 143.248C100.008 143.282 100.046 143.325 100.073 143.375C100.12 143.437 104.65 149.856 110.175 149.592C115.701 149.328 116.897 145.022 116.952 144.836C116.967 144.785 116.991 144.737 117.025 144.696C117.058 144.654 117.099 144.62 117.145 144.594C117.192 144.569 117.243 144.552 117.296 144.547C117.349 144.541 117.402 144.545 117.453 144.56C117.504 144.575 117.552 144.6 117.593 144.633C117.635 144.666 117.669 144.707 117.695 144.754C117.72 144.8 117.737 144.851 117.743 144.904C117.748 144.957 117.744 145.01 117.729 145.061C117.181 146.619 116.165 147.968 114.819 148.924C113.474 149.88 111.865 150.396 110.214 150.4L109.849 150.416Z" fill="#B82A09"/>
<path d="M119.773 225.394C114.333 225.394 108.38 223.84 102.109 220.786C96.7335 218.106 91.7155 214.761 87.173 210.831C87.0937 210.758 87.0467 210.656 87.0423 210.548C87.038 210.44 87.0766 210.335 87.1498 210.256C87.2229 210.176 87.3246 210.129 87.4324 210.125C87.5403 210.121 87.6455 210.159 87.7248 210.232C92.2114 214.12 97.1726 217.423 102.49 220.063C110.261 223.887 121.7 227.244 131.733 221.532C131.828 221.481 131.939 221.468 132.044 221.497C132.148 221.526 132.237 221.594 132.292 221.687C132.318 221.734 132.335 221.785 132.341 221.838C132.348 221.891 132.344 221.944 132.329 221.996C132.315 222.047 132.29 222.095 132.257 222.137C132.224 222.178 132.183 222.213 132.137 222.239C128.364 224.358 124.1 225.446 119.773 225.394Z" fill="#454FA2"/>
<path d="M120.977 220.809C112.429 220.669 105.521 209.331 105.233 208.849C105.205 208.803 105.186 208.752 105.178 208.699C105.17 208.646 105.173 208.592 105.186 208.54C105.199 208.488 105.222 208.439 105.254 208.396C105.286 208.353 105.327 208.317 105.373 208.29C105.418 208.262 105.469 208.243 105.521 208.235C105.573 208.227 105.627 208.23 105.678 208.243C105.73 208.256 105.778 208.279 105.821 208.311C105.863 208.343 105.898 208.383 105.925 208.429C105.995 208.546 112.919 219.869 120.993 219.993C121.073 220.022 121.143 220.074 121.192 220.144C121.242 220.213 121.268 220.297 121.268 220.382C121.268 220.467 121.242 220.55 121.192 220.62C121.143 220.69 121.073 220.742 120.993 220.771L120.977 220.809Z" fill="#454FA2"/>
<path d="M132.945 198.218C131.774 197.734 130.684 197.073 129.712 196.26C127.381 194.278 126.658 191.915 127.598 189.607L128.127 188.325C130.062 183.662 130.264 183.18 128.609 176.528C128.327 175.646 128.246 174.713 128.371 173.796C128.496 172.879 128.824 172.002 129.331 171.228C129.992 170.332 130.862 169.612 131.865 169.129C131.865 169.347 131.865 169.557 131.81 169.774C131.009 170.204 130.313 170.806 129.774 171.539C129.314 172.25 129.017 173.055 128.905 173.895C128.794 174.735 128.87 175.589 129.129 176.396C130.831 183.219 130.583 183.825 128.624 188.535L128.104 189.809C126.953 192.615 128.881 194.791 130.07 195.848C130.913 196.556 131.852 197.142 132.86 197.588C132.945 197.798 132.945 198.008 132.945 198.218Z" fill="#454FA2"/>
<path d="M88.8052 202.469C88.1254 203.466 87.2033 204.275 86.1254 204.819C85.0475 205.363 83.8491 205.624 82.6427 205.577C81.3574 205.562 80.0846 205.323 78.8815 204.87C78.8815 204.66 78.8815 204.458 78.8193 204.272C83.3188 205.989 86.7769 204.575 88.3545 202.142C89.0963 201.11 89.4006 199.826 89.2013 198.57C89.0019 197.314 88.315 196.188 87.2898 195.436C84.3757 193.26 85.145 191.472 85.961 189.591C86.7769 187.711 87.5929 185.815 85.6035 182.939C85.1327 182.178 84.5115 181.52 83.7779 181.007C83.0444 180.494 82.2139 180.136 81.3372 179.955C80.378 179.795 79.396 179.838 78.4541 180.079C78.4541 179.893 78.4541 179.698 78.4541 179.512C79.4198 179.285 80.4212 179.253 81.3993 179.419C82.3465 179.612 83.2443 179.996 84.038 180.548C84.8317 181.1 85.5045 181.808 86.0154 182.628C88.168 185.737 87.2044 187.998 86.4273 189.801C85.6501 191.604 85.0129 193.081 87.5774 195.008C88.7093 195.85 89.4701 197.098 89.6992 198.49C89.9283 199.882 89.6077 201.309 88.8052 202.469Z" fill="#B82A09"/>
<path d="M109.958 191.091C105.808 188.472 106.352 185.651 106.989 182.419C107.596 179.31 108.28 175.805 105.055 171.818L104.852 171.577C104.26 170.862 103.452 170.357 102.549 170.14C101.645 169.923 100.696 170.006 99.8436 170.374C98.991 170.743 98.2812 171.379 97.8209 172.186C97.3607 172.993 97.1748 173.928 97.2912 174.849C97.7108 178.129 96.9648 182.411 95.1464 187.245C94.5347 188.756 94.2959 190.392 94.4501 192.016C94.6043 193.639 95.147 195.201 96.0323 196.57C98.3636 200.246 103.026 202.842 106.741 203.565C107.185 203.655 107.634 203.717 108.085 203.751C109.443 203.857 110.798 203.515 111.942 202.777C113.086 202.038 113.956 200.944 114.419 199.663C115.406 196.687 113.743 193.469 109.958 191.091ZM113.898 199.531C113.479 200.7 112.686 201.698 111.642 202.37C110.598 203.041 109.361 203.349 108.124 203.246C104.41 202.958 99.0397 200.277 96.4675 196.252C95.623 194.959 95.1066 193.48 94.9631 191.943C94.8195 190.406 95.0532 188.857 95.6437 187.431C96.4165 185.43 97.0246 183.369 97.4622 181.268C97.9281 179.141 98.0488 176.953 97.8196 174.787C97.7119 173.985 97.8713 173.17 98.273 172.468C98.6747 171.766 99.2964 171.215 100.042 170.901C100.745 170.592 101.525 170.503 102.28 170.645C103.127 170.819 103.887 171.28 104.433 171.95L104.619 172.184C107.728 175.968 107.059 179.178 106.453 182.341C105.808 185.636 105.194 188.76 109.663 191.573C113.23 193.788 114.807 196.772 113.898 199.531Z" fill="#B82A09"/>
<path d="M125.601 166.316C122.221 165.625 119.338 163.169 119.027 161.436C118.968 161.226 118.98 161.002 119.061 160.799C119.143 160.597 119.289 160.427 119.478 160.317C123.06 158.086 124.14 155.226 123.48 149.39C123.381 148.78 123.415 148.156 123.58 147.56C123.745 146.965 124.037 146.412 124.436 145.94L124.552 145.815L123.977 145.652C123.546 146.177 123.23 146.786 123.051 147.441C122.871 148.096 122.832 148.781 122.936 149.452C123.542 155.032 122.555 157.76 119.19 159.85C118.912 160.021 118.695 160.275 118.569 160.577C118.444 160.878 118.416 161.211 118.491 161.529C118.833 163.441 121.801 166.099 125.485 166.845C126.114 166.973 126.754 167.038 127.396 167.039C129.115 167.048 130.797 166.539 132.222 165.578C132.222 165.329 132.277 165.096 132.308 164.855C131.359 165.563 130.269 166.06 129.113 166.312C127.956 166.564 126.759 166.565 125.601 166.316Z" fill="#B82A09"/>
<path d="M110.758 157.962C110.147 157.173 109.344 156.553 108.426 156.162C107.508 155.77 106.506 155.619 105.513 155.724C104.78 155.748 104.074 156.01 103.503 156.469C102.931 156.929 102.524 157.562 102.342 158.273C101.837 160.192 103.119 160.97 104.425 161.731C105.87 162.594 107.37 163.48 107.223 166.036C107.075 168.593 108.109 170.295 109.981 170.87C110.339 170.977 110.711 171.032 111.085 171.033C111.595 171.054 112.102 170.943 112.557 170.71C113.012 170.477 113.399 170.131 113.68 169.705C115.693 166.324 112.958 160.705 110.758 157.962ZM113.214 169.425C112.867 169.896 112.376 170.242 111.815 170.409C111.254 170.576 110.654 170.555 110.106 170.35C108.489 169.852 107.603 168.251 107.728 166.068C107.899 163.184 106.104 162.12 104.666 161.265C103.368 160.488 102.436 159.936 102.832 158.413C102.985 157.806 103.334 157.267 103.824 156.878C104.314 156.489 104.918 156.272 105.544 156.26C105.731 156.26 105.917 156.26 106.104 156.26C106.914 156.27 107.712 156.46 108.44 156.818C109.167 157.175 109.805 157.691 110.308 158.327C112.445 160.931 115.071 166.277 113.214 169.425Z" fill="#B82A09"/>
<path d="M123.923 179.753C123.432 178.354 122.484 177.162 121.232 176.37C119.979 175.577 118.496 175.23 117.022 175.385C115.25 175.595 114.193 176.466 113.914 177.903C113.579 179.908 115.149 181.012 116.672 182.038C118.452 183.266 120.138 184.424 119.05 187.035C118.11 189.289 118.172 191.006 119.229 191.744C119.597 191.994 120.035 192.122 120.48 192.11C121.9 191.976 123.226 191.34 124.218 190.314C124.644 189.845 124.968 189.293 125.17 188.692C125.372 188.092 125.447 187.456 125.391 186.825C125.274 184.405 124.778 182.019 123.923 179.753ZM123.923 189.918C122.306 191.387 120.542 191.954 119.61 191.301C118.677 190.649 118.786 189.242 119.61 187.245C120.869 184.229 118.833 182.83 117.038 181.595C115.592 180.6 114.232 179.66 114.512 177.989C114.706 176.784 115.561 176.108 117.107 175.922C117.332 175.891 117.557 175.875 117.784 175.875C119.017 175.883 120.217 176.274 121.218 176.994C122.242 177.725 123.015 178.754 123.433 179.94C125.174 185.022 125.368 188.574 123.892 189.918H123.923Z" fill="#454FA2"/>
<path d="M134.678 209.16C132.106 208.865 131.492 210.411 130.792 212.168C130.163 213.722 129.448 215.509 127.179 216.574C124.412 217.872 121.436 216.527 119.929 214.53C118.802 213.038 118.203 210.753 119.89 208.818C120.228 208.499 120.499 208.115 120.686 207.689C120.873 207.263 120.972 206.804 120.978 206.339C120.9 205.259 119.975 204.482 119.081 203.728C117.931 202.756 116.836 201.832 117.201 200.269C117.335 199.652 117.639 199.084 118.078 198.629C118.517 198.175 119.075 197.852 119.688 197.697C120.155 197.565 120.639 197.5 121.125 197.503C123.493 197.636 125.719 198.673 127.342 200.402C129.044 202.163 131.334 203.239 133.777 203.425C133.777 203.246 133.722 203.059 133.691 202.881C131.421 202.674 129.301 201.659 127.715 200.021C125.252 197.573 122.05 196.454 119.548 197.176C118.831 197.349 118.176 197.719 117.66 198.245C117.143 198.772 116.785 199.433 116.626 200.153C116.191 202.034 117.519 203.153 118.693 204.147C119.532 204.855 120.325 205.531 120.395 206.386C120.38 206.777 120.288 207.162 120.124 207.518C119.96 207.875 119.727 208.195 119.439 208.461C117.885 210.287 117.885 212.735 119.439 214.849C120.07 215.689 120.883 216.375 121.817 216.855C122.751 217.336 123.782 217.598 124.832 217.623C125.702 217.623 126.562 217.432 127.35 217.063C129.806 215.906 130.598 213.955 131.235 212.401C131.943 210.637 132.432 209.424 134.725 209.743L134.678 209.16Z" fill="#454FA2"/>
<path d="M102.995 207.132C102.995 207.015 102.63 204.381 100.812 203.16C100.307 202.844 99.7383 202.644 99.1467 202.576C98.5552 202.507 97.9558 202.572 97.3923 202.764C94.7191 203.495 93.3436 202.826 91.7505 202.049C90.5444 201.39 89.2273 200.958 87.8649 200.775C87.3996 200.715 86.9271 200.748 86.4748 200.873C86.0225 200.997 85.5993 201.21 85.2299 201.499C84.8605 201.788 84.5522 202.148 84.3228 202.557C84.0935 202.966 83.9477 203.417 83.8939 203.883C83.7992 204.414 83.8108 204.958 83.9279 205.484C84.045 206.01 84.2654 206.507 84.5762 206.948C84.887 207.388 85.2821 207.762 85.7386 208.048C86.1951 208.335 86.7039 208.528 87.2355 208.616C89.0976 209.012 91.0372 208.808 92.7763 208.033C94.1829 207.52 95.2086 207.147 96.5142 208.119C97.6257 208.998 98.984 209.509 100.4 209.58C100.897 209.591 101.389 209.484 101.837 209.269C102.217 209.071 102.531 208.766 102.74 208.392C102.948 208.017 103.043 207.59 103.011 207.163L102.995 207.132ZM101.573 208.779C100.431 209.362 98.4647 208.903 96.8173 207.676C96.257 207.226 95.5619 206.976 94.8434 206.968C94.0609 207.02 93.2932 207.207 92.5742 207.52C90.933 208.262 89.0973 208.458 87.3365 208.08C86.8726 208.004 86.4283 207.838 86.0295 207.589C85.6306 207.341 85.2852 207.015 85.0133 206.632C84.7413 206.249 84.5484 205.815 84.4456 205.357C84.3428 204.898 84.3323 204.424 84.4146 203.961C84.4608 203.565 84.5848 203.182 84.7796 202.834C84.9744 202.486 85.2361 202.18 85.5496 201.934C85.863 201.688 86.2221 201.506 86.6061 201.399C86.9902 201.292 87.3916 201.262 87.7873 201.311C89.0923 201.486 90.354 201.9 91.5096 202.531C93.1338 203.308 94.6647 204.085 97.5322 203.308C98.0214 203.14 98.5415 203.082 99.0557 203.137C99.57 203.192 100.066 203.359 100.509 203.627C102.063 204.668 102.428 206.999 102.459 207.202C102.478 207.522 102.405 207.841 102.248 208.121C102.091 208.4 101.857 208.629 101.573 208.779Z" fill="#454FA2"/>
<path d="M86.0154 222.566C87.1344 221.447 88.5332 220.063 87.7095 217.281C87.5432 216.644 87.244 216.05 86.8315 215.537C86.4189 215.024 85.9024 214.604 85.316 214.305C83.5986 213.411 81.4304 213.527 79.8762 213.807L79.9461 214.351C80.636 214.226 81.3354 214.161 82.0366 214.157C83.0697 214.126 84.0954 214.342 85.0285 214.786C85.548 215.055 86.0053 215.429 86.3708 215.886C86.7363 216.343 87.0017 216.871 87.15 217.436C87.8804 219.908 86.7225 221.058 85.5957 222.177C84.4689 223.296 83.2178 224.509 85.5103 226.988C87.8027 229.467 87.725 232.598 86.3884 234.3C86.0647 234.721 85.6439 235.056 85.1621 235.278C84.6802 235.5 84.1517 235.602 83.6219 235.575C83.6219 235.715 83.7151 235.855 83.7618 235.979L84.0104 236.103C84.5563 236.075 85.0895 235.929 85.5737 235.676C86.0579 235.422 86.4817 235.067 86.8158 234.635C88.2923 232.754 88.37 229.241 85.9066 226.614C83.9871 224.555 84.8108 223.762 86.0154 222.566Z" fill="#454FA2"/>
<path d="M131.134 230.539C129.774 229.684 128.026 229.591 125.943 230.275C124.009 230.856 122.351 232.121 121.281 233.834C120.053 235.552 119.307 236.585 114.232 234.611C108.792 232.482 104.907 233.687 103.633 235.707C102.677 237.215 103.026 239.119 104.542 240.929H105.319C103.695 239.196 103.252 237.378 104.13 235.979C104.845 234.844 106.5 234.005 108.878 234.005C110.664 234.044 112.427 234.416 114.077 235.101C119.291 237.129 120.34 236.111 121.762 234.13C122.754 232.519 124.298 231.326 126.107 230.772C128.034 230.143 129.627 230.213 130.839 230.982C131.987 231.812 132.78 233.044 133.062 234.433L133.551 234.145C133.217 232.687 132.356 231.403 131.134 230.539Z" fill="#454FA2"/>
<path d="M100.384 229.218C98.6355 228.495 98.7677 227.998 99.0474 226.887C99.4552 225.619 99.4278 224.251 98.9697 223.001C98.8307 222.543 98.593 222.122 98.2735 221.766C97.9539 221.41 97.5603 221.129 97.1202 220.942C95.022 220.087 92.2399 221.416 92.1234 221.478H92.0767C89.6755 223.25 90.0019 226.141 90.7168 228.969C91.6338 232.653 93.9652 234.798 97.2679 235.023H97.5476C98.5285 235.014 99.4825 234.701 100.278 234.128C101.074 233.555 101.673 232.749 101.993 231.822C102.265 230.718 101.674 229.762 100.384 229.218ZM101.464 231.744C101.153 232.585 100.583 233.306 99.8356 233.804C99.0886 234.301 98.2032 234.548 97.3067 234.51C93.4212 234.246 91.867 231.293 91.2375 228.861C90.3361 225.239 90.6624 223.234 92.3798 221.952C92.6363 221.827 95.1308 220.716 96.9104 221.447C97.281 221.603 97.6124 221.84 97.881 222.14C98.1497 222.439 98.3489 222.794 98.4646 223.18C98.8839 224.331 98.9058 225.589 98.5268 226.755C98.2004 228.037 98.0994 228.861 100.174 229.723C101.231 230.151 101.674 230.85 101.464 231.744Z" fill="#454FA2"/>
<path d="M137.102 231.643C136.512 231.243 136.018 230.715 135.658 230.099C135.297 229.483 135.079 228.794 135.02 228.083C134.888 226.008 136.131 223.902 137.141 222.558L137.001 221.851C135.906 223.211 134.32 225.643 134.484 228.114C134.546 228.887 134.778 229.635 135.164 230.307C135.549 230.979 136.079 231.557 136.714 232L137.157 231.658L137.102 231.643Z" fill="#454FA2"/>
<path d="M103.182 127.615C99.9998 124.981 97.9385 121.236 97.4155 117.139C96.6928 110.455 101.503 108.054 101.503 108.054C101.503 108.054 98.9386 101.487 107.72 101.728C116.501 101.969 122.042 98.2075 126.285 98.8448C130.528 99.4821 126.542 109.499 121.249 109.056C115.957 108.613 101.495 116.439 103.182 127.615Z" fill="#212121"/>
<path d="M116.556 138.339V142.116C116.132 142.459 115.686 142.774 115.219 143.056C108.66 146.996 101.589 142.116 101.589 142.116V129.021L114.799 137.228L116.556 138.339Z" fill="#F69A9E"/>
<path d="M116.556 138.339V142.116C116.132 142.459 115.686 142.774 115.219 143.056C109.639 140.841 105.575 134.99 105.575 134.99L114.768 137.228L116.556 138.339Z" fill="#1D1B13"/>
<path d="M117.348 107.595C117.348 107.595 126.472 108.45 123.177 118.001C123.177 118.001 117.139 110.082 117.348 107.595Z" fill="#212121"/>
<path d="M121.288 121.607C121.288 121.607 123.433 119.074 124.645 121.607C125.858 124.141 124.925 129.27 121.661 128.43L121.288 121.607Z" fill="#F3736F"/>
<path d="M123.565 130.49C123.565 130.49 123.565 138.261 115.452 138.261C107.339 138.261 101.884 131.904 101.596 131.609L101.511 129.969L101.052 121.421L100.804 116.874C100.804 116.874 99.7702 108.675 107.565 107.176C113.253 106.088 118.592 107.028 121.281 110.004C122.311 111.142 122.939 112.586 123.068 114.115L123.317 122.291L123.379 124.296L123.565 130.49Z" fill="#F69A9E"/>
<path d="M112.74 123.34C112.74 123.907 111.574 124.374 110.129 124.374C108.683 124.374 107.51 123.907 107.51 123.34C107.51 122.773 108.683 122.314 110.129 122.314C111.574 122.314 112.74 122.773 112.74 123.34Z" fill="#F3736F"/>
<path d="M123.371 124.343C123.169 124.343 122.959 124.343 122.742 124.343C121.296 124.343 120.131 123.876 120.131 123.309C120.131 122.742 121.296 122.283 122.742 122.283C122.936 122.283 123.13 122.283 123.309 122.283L123.371 124.343Z" fill="#F3736F"/>
<path d="M112.631 120.185C112.631 120.962 112.282 121.592 111.854 121.592C111.427 121.592 111.077 120.962 111.077 120.185C111.077 119.408 111.427 118.771 111.854 118.771C112.282 118.771 112.631 119.408 112.631 120.185Z" fill="#1D1B13"/>
<path d="M120.356 120.185C120.356 120.962 120.006 121.592 119.579 121.592C119.151 121.592 118.802 120.962 118.802 120.185C118.802 119.408 119.151 118.771 119.579 118.771C120.006 118.771 120.356 119.408 120.356 120.185Z" fill="#1D1B13"/>
<path d="M116.385 124.141C116.3 124.141 116.219 124.107 116.159 124.047C116.1 123.988 116.066 123.907 116.066 123.822C116.066 123.738 116.1 123.656 116.159 123.597C116.219 123.537 116.3 123.503 116.385 123.503C116.754 123.527 117.123 123.457 117.458 123.301C117.794 123.145 118.084 122.907 118.304 122.61C117.022 119.967 115.748 117.302 115.74 117.278C115.703 117.202 115.697 117.114 115.725 117.034C115.753 116.954 115.811 116.888 115.887 116.851C115.964 116.814 116.052 116.809 116.132 116.836C116.212 116.864 116.278 116.922 116.315 116.999C116.315 116.999 117.651 119.789 118.957 122.478C118.976 122.522 118.986 122.569 118.986 122.617C118.986 122.666 118.976 122.713 118.957 122.757C118.702 123.207 118.325 123.575 117.87 123.82C117.415 124.065 116.9 124.176 116.385 124.141Z" fill="#1D1B13"/>
<path d="M108.722 116.626C108.901 115.802 109.593 114.294 112.227 114.139C112.383 114.133 112.537 114.181 112.662 114.274C112.788 114.368 112.878 114.501 112.919 114.652C112.944 114.744 112.95 114.84 112.936 114.934C112.923 115.029 112.89 115.119 112.839 115.2C112.789 115.281 112.722 115.351 112.644 115.405C112.565 115.459 112.476 115.496 112.383 115.514C111.897 115.588 111.437 115.776 111.038 116.063C110.64 116.349 110.315 116.726 110.09 117.162C110.045 117.245 109.983 117.319 109.909 117.378C109.834 117.436 109.748 117.479 109.656 117.503C109.564 117.527 109.469 117.532 109.375 117.517C109.281 117.503 109.191 117.469 109.111 117.418L109.033 117.372C108.911 117.295 108.815 117.182 108.759 117.048C108.703 116.914 108.691 116.767 108.722 116.626Z" fill="#212121"/>
<path d="M122.229 116.626C122.05 115.802 121.366 114.294 118.732 114.139C118.574 114.132 118.419 114.179 118.292 114.272C118.164 114.365 118.073 114.499 118.032 114.652C118.007 114.744 118.001 114.84 118.015 114.934C118.028 115.029 118.061 115.119 118.112 115.2C118.162 115.281 118.229 115.351 118.307 115.405C118.386 115.459 118.475 115.496 118.569 115.514C119.06 115.583 119.529 115.768 119.934 116.055C120.34 116.341 120.671 116.721 120.9 117.162C120.945 117.244 121.006 117.317 121.08 117.375C121.154 117.433 121.239 117.475 121.33 117.499C121.421 117.523 121.516 117.528 121.609 117.515C121.702 117.501 121.791 117.468 121.871 117.418L121.949 117.372C122.067 117.291 122.157 117.177 122.207 117.043C122.257 116.909 122.265 116.764 122.229 116.626Z" fill="#212121"/>
<path d="M117.683 128.469C114.831 128.469 112.491 126.021 112.46 125.99C112.43 125.96 112.405 125.925 112.388 125.886C112.372 125.846 112.363 125.804 112.363 125.761C112.363 125.718 112.372 125.676 112.388 125.636C112.405 125.597 112.43 125.561 112.46 125.532C112.521 125.474 112.602 125.441 112.686 125.441C112.77 125.441 112.85 125.474 112.911 125.532C113.067 125.695 116.688 129.48 120.216 126.962C120.285 126.912 120.371 126.892 120.455 126.906C120.538 126.92 120.613 126.966 120.663 127.035C120.712 127.105 120.732 127.19 120.718 127.274C120.705 127.358 120.658 127.433 120.589 127.482C119.75 128.113 118.732 128.459 117.683 128.469Z" fill="#1D1B13"/>
<path d="M104.137 128.469C104.137 128.555 103.073 130.941 101.596 131.632L101.511 129.993C102.51 129.737 103.419 129.21 104.137 128.469Z" fill="#1D1B13"/>
<path d="M102.708 123.045C102.708 123.045 99.5991 118.848 97.2678 122.144C95.3872 124.864 98.9463 131.935 102.708 129.511V123.045Z" fill="#F69A9E"/>
<path d="M102.28 128.252C102.201 128.252 102.124 128.223 102.065 128.17C102.006 128.117 101.969 128.043 101.962 127.964C101.863 127.035 101.524 126.148 100.979 125.389C100.434 124.63 99.7017 124.026 98.8531 123.636C98.8138 123.621 98.7778 123.599 98.7473 123.57C98.7168 123.541 98.6925 123.506 98.6758 123.468C98.6591 123.429 98.6504 123.388 98.6502 123.346C98.6499 123.304 98.6581 123.262 98.6744 123.224C98.6898 123.184 98.7129 123.148 98.7425 123.117C98.7721 123.087 98.8074 123.063 98.8465 123.046C98.8856 123.029 98.9277 123.021 98.9702 123.02C99.0127 123.02 99.0548 123.029 99.094 123.045C100.053 123.474 100.883 124.148 101.499 124.999C102.116 125.851 102.498 126.849 102.607 127.894C102.615 127.979 102.591 128.063 102.539 128.13C102.487 128.196 102.411 128.24 102.327 128.252H102.28Z" fill="#1D1B13"/>
<path d="M99.2805 126.301C99.2142 126.302 99.1494 126.282 99.0951 126.244C99.0408 126.206 98.9997 126.152 98.9774 126.089C98.9552 126.027 98.953 125.959 98.9711 125.895C98.9892 125.832 99.0267 125.775 99.0784 125.734C99.2105 125.633 100.361 124.723 101.324 124.957C101.365 124.967 101.404 124.985 101.438 125.01C101.472 125.035 101.5 125.066 101.522 125.102C101.544 125.138 101.558 125.178 101.564 125.22C101.57 125.262 101.568 125.304 101.557 125.345C101.535 125.427 101.483 125.497 101.41 125.54C101.338 125.584 101.251 125.597 101.169 125.578C100.609 125.431 99.7467 126.006 99.4903 126.216C99.4321 126.267 99.3581 126.297 99.2805 126.301Z" fill="#1D1B13"/>
<path d="M121.288 110.082C121.239 110.343 121.118 110.586 120.939 110.782C119.384 112.437 115.631 111.846 112.173 110.782C111.152 110.484 110.071 110.46 109.039 110.712C108.006 110.964 107.058 111.484 106.29 112.219C107.246 115.53 103.998 115.794 104.689 118.304C105.114 120.211 105.258 122.169 105.117 124.117L103.088 123.853C102.676 122.878 101.963 122.061 101.052 121.522L100.812 116.968C100.812 116.968 99.7779 108.777 107.572 107.277C113.245 106.134 118.584 107.075 121.288 110.082Z" fill="#212121"/>
<path d="M73.1697 197.379C73.0842 197.378 73.0013 197.35 72.9332 197.298C72.8652 197.246 72.8156 197.174 72.792 197.092C72.7684 197.009 72.772 196.922 72.8023 196.842C72.8325 196.762 72.8878 196.694 72.9599 196.648C74.8848 195.578 76.923 194.725 79.0369 194.107C79.0879 194.092 79.1414 194.087 79.1942 194.093C79.247 194.099 79.2981 194.115 79.3446 194.141C79.3912 194.167 79.4322 194.201 79.4654 194.243C79.4986 194.284 79.5233 194.332 79.5381 194.383C79.5529 194.434 79.5575 194.487 79.5516 194.54C79.5458 194.593 79.5296 194.644 79.504 194.69C79.4784 194.737 79.4438 194.778 79.4023 194.811C79.3609 194.844 79.3132 194.869 79.2622 194.884C77.2174 195.482 75.2447 196.303 73.3795 197.332C73.3158 197.368 73.2427 197.384 73.1697 197.379Z" fill="#F3736F"/>
<path d="M78.7495 194.884C78.6753 194.87 78.6058 194.838 78.5475 194.791C76.9932 193.804 74.3044 194.013 74.2734 194.013C74.1807 194.005 74.0939 193.965 74.028 193.899C73.9622 193.834 73.9216 193.747 73.9132 193.654C73.9049 193.562 73.9294 193.469 73.9824 193.393C74.0355 193.316 74.1137 193.261 74.2034 193.236C74.3277 193.236 77.2186 192.972 78.9749 194.107C79.0631 194.163 79.1257 194.251 79.149 194.353C79.1723 194.455 79.1544 194.562 79.0992 194.651C79.0672 194.717 79.0179 194.774 78.9563 194.815C78.8948 194.856 78.8234 194.88 78.7495 194.884Z" fill="#F3736F"/>
<path d="M96.7782 143.274C96.6151 143.352 96.4363 143.422 96.2575 143.492C96.7531 144.084 97.1179 144.775 97.3281 145.518C97.5384 146.261 97.5893 147.04 97.4776 147.805C97.0036 151.139 94.9209 156.734 91.3462 157.519C90.7715 157.591 90.1892 157.473 89.6872 157.184C89.1853 156.895 88.7911 156.451 88.5642 155.918C87.7871 154.364 88.3777 152.654 90.0562 151.255C92.271 149.406 91.8203 147.369 91.455 145.737C91.4006 145.458 91.3385 145.193 91.2919 144.96L90.7634 145.054C90.81 145.326 90.8722 145.598 90.9266 145.831C91.2918 147.478 91.7037 149.18 89.7065 150.82C87.7093 152.46 87.212 154.379 88.0824 156.136C88.2445 156.474 88.4567 156.786 88.7118 157.06C89.0475 157.446 89.4773 157.738 89.9594 157.908C90.4415 158.079 90.9594 158.121 91.4628 158.032C95.3017 157.185 97.5165 151.341 98.0138 147.859C98.1359 147.051 98.0891 146.226 97.8764 145.437C97.6637 144.648 97.2898 143.911 96.7782 143.274Z" fill="#B82A09"/>
<path d="M84.8573 170.085C84.7951 170.008 84.7252 169.93 84.663 169.844C84.0706 169.128 83.2614 168.623 82.3571 168.406C81.4529 168.189 80.5026 168.271 79.6495 168.641C78.7964 169.011 78.0866 169.649 77.6271 170.457C77.1676 171.266 76.9832 172.201 77.1017 173.124C77.2759 174.725 77.2393 176.343 76.9929 177.934L77.5136 178.144C77.7843 176.461 77.8262 174.749 77.6379 173.054C77.5303 172.252 77.6896 171.437 78.0913 170.735C78.493 170.032 79.1147 169.482 79.8605 169.168C80.6036 168.83 81.4381 168.75 82.232 168.94C83.0259 169.13 83.7337 169.58 84.2434 170.217L84.4376 170.45C87.5072 174.243 86.8777 177.445 86.2638 180.608C86.2017 180.934 86.1395 181.253 86.0851 181.579L86.598 181.781C86.6602 181.432 86.7301 181.074 86.8 180.717C87.4062 177.592 88.09 174.072 84.8573 170.085Z" fill="#454FA2"/>
<path d="M83.7073 155.934C83.4885 155.331 83.2127 154.751 82.8835 154.201C82.0839 152.89 80.9491 151.817 79.5963 151.092L79.1845 151.496C81.0704 152.478 82.5062 154.147 83.1943 156.159C84.36 159.415 83.7539 163.153 82.4172 164.319C82.267 164.479 82.0683 164.584 81.8519 164.62C81.6355 164.655 81.4135 164.617 81.2205 164.513C77.8401 162.796 75.0813 163.099 71.1181 165.772L70.644 166.775C74.8016 163.728 77.5448 163.278 80.9407 164.995C81.2307 165.144 81.56 165.197 81.8822 165.148C82.2043 165.1 82.5029 164.951 82.7359 164.723C84.2512 163.402 84.9817 159.493 83.7073 155.934Z" fill="#454FA2"/>
<path d="M154.51 192.879C152.691 196.189 168.498 198.49 166.33 201.715C165.242 203.339 164.076 204.932 162.786 206.557C162.133 207.334 161.442 208.181 160.664 209.012C159.81 209.952 158.886 210.825 157.898 211.624C157.61 211.857 157.3 212.09 156.942 212.339C156.554 212.618 156.152 212.878 155.738 213.116C155.195 213.421 154.629 213.681 154.044 213.893L153.484 214.087L152.855 214.258C152.344 214.385 151.824 214.47 151.3 214.514H151.083H150.422C150.197 214.514 149.971 214.514 149.746 214.514C149.294 214.507 148.843 214.475 148.394 214.421C147.506 214.32 146.627 214.146 145.767 213.901C144.172 213.44 142.65 212.757 141.245 211.872C140.025 211.098 138.884 210.206 137.841 209.207C136.08 207.503 134.528 205.596 133.217 203.526C132.041 201.7 130.99 199.796 130.07 197.829C129.176 195.941 128.391 194.06 127.692 192.179C126.992 190.299 126.363 188.418 125.796 186.537C124.669 182.784 123.752 179.03 123.006 175.269C122.633 173.388 122.304 171.5 122.019 169.603C121.879 168.655 121.739 167.707 121.623 166.751L121.452 165.314L121.374 164.583L121.296 163.806L135.284 161.723L135.875 164.187L136.496 166.736C136.921 168.44 137.364 170.135 137.825 171.818C138.742 175.191 139.721 178.525 140.809 181.75C141.081 182.527 141.361 183.359 141.656 184.144C141.952 184.929 142.231 185.698 142.535 186.475C143.148 188.029 143.786 189.514 144.47 190.928C145.111 192.28 145.827 193.596 146.614 194.868C147.258 195.901 148.002 196.867 148.837 197.752C149.114 198.033 149.413 198.293 149.731 198.529C149.871 198.629 150.019 198.717 150.174 198.793L150.228 198.832H150.065C149.769 198.859 149.475 198.908 149.187 198.979L148.884 199.065L148.658 199.143C148.499 199.202 148.346 199.274 148.2 199.36C148.138 199.407 148.138 199.407 148.2 199.36L148.355 199.259C148.805 198.924 149.234 198.561 149.637 198.171C150.15 197.689 150.679 197.138 151.192 196.555C152.287 195.397 153.383 194.107 154.486 192.793" fill="#F69A9E"/>
<path d="M148.946 207.015C148.841 207.016 148.74 206.977 148.662 206.906C148.584 206.836 148.536 206.739 148.526 206.634C148.417 203.903 148.594 201.168 149.054 198.474C149.081 198.37 149.147 198.28 149.237 198.222C149.327 198.164 149.436 198.142 149.542 198.16C149.648 198.179 149.743 198.237 149.808 198.322C149.874 198.408 149.904 198.515 149.894 198.622C149.447 201.239 149.27 203.895 149.365 206.549C149.376 206.661 149.342 206.773 149.271 206.86C149.2 206.948 149.097 207.003 148.985 207.015H148.946Z" fill="#F3736F"/>
<path d="M146.241 204.054C146.149 204.053 146.06 204.023 145.985 203.969C145.94 203.936 145.903 203.894 145.874 203.846C145.846 203.799 145.827 203.746 145.819 203.691C145.811 203.636 145.814 203.58 145.828 203.526C145.842 203.473 145.866 203.422 145.9 203.378C145.9 203.378 148.083 200.409 149.109 198.715C149.172 198.63 149.265 198.572 149.368 198.551C149.472 198.531 149.58 198.549 149.671 198.603C149.761 198.657 149.829 198.743 149.86 198.844C149.891 198.945 149.884 199.054 149.84 199.15C148.79 200.899 146.669 203.774 146.583 203.899C146.541 203.948 146.489 203.988 146.43 204.014C146.371 204.041 146.306 204.055 146.241 204.054Z" fill="#F3736F"/>
<path d="M141.586 178.416C141.59 178.383 141.59 178.349 141.586 178.315C140.652 178.262 139.74 178.006 138.914 177.565C138.089 177.123 137.37 176.507 136.807 175.758C135.68 174.266 135.082 171.981 136.768 170.046C137.103 169.726 137.372 169.343 137.559 168.919C137.745 168.495 137.846 168.038 137.856 167.575C137.771 166.495 136.854 165.71 135.96 164.964C134.802 163.985 133.714 163.06 134.08 161.506C134.249 160.828 134.612 160.215 135.124 159.74C135.636 159.266 136.274 158.95 136.963 158.832C136.908 158.692 136.854 158.552 136.807 158.413L136.768 158.319L136.411 158.405C135.705 158.587 135.064 158.962 134.559 159.488C134.054 160.013 133.705 160.669 133.551 161.381C133.116 163.262 134.445 164.389 135.61 165.376C136.457 166.083 137.25 166.759 137.32 167.614C137.282 168.405 136.936 169.15 136.356 169.689C134.802 171.515 134.802 173.963 136.356 176.085C136.932 176.842 137.655 177.475 138.482 177.947C139.308 178.418 140.222 178.718 141.167 178.828L141.633 178.704L141.586 178.416Z" fill="#454FA2"/>
<path d="M141.633 178.704L141.167 178.828L140.258 179.077L124.599 183.312C124.599 183.312 113.3 153.781 126.821 148.939C126.821 148.939 132.215 146.888 136.559 157.806C136.621 157.97 136.691 158.141 136.753 158.319L136.792 158.413C136.838 158.553 136.893 158.692 136.947 158.832L136.994 158.957C139.411 165.702 141.221 176.186 141.571 178.315C141.574 178.349 141.574 178.383 141.571 178.416L141.633 178.704Z" fill="#F15E3C"/>
<path d="M177.971 0H5.1493C-47.3989 0 -90 52.6592 -90 117.628V124.141C-90 189.102 -47.3989 241.769 5.1493 241.769H177.971C230.527 241.769 273.12 189.102 273.12 124.141V117.628C273.12 52.6592 230.527 0 177.971 0ZM233.293 131.578C233.293 165.267 211.2 192.576 183.947 192.576H-0.826675C-28.0721 192.576 -50.1654 165.267 -50.1654 131.578C-50.1654 97.8888 -28.0721 70.58 -0.826675 70.58H183.947C211.2 70.58 233.293 97.8888 233.293 131.578Z" fill="#20C1EF"/>
<path d="M85.1761 180.087C85.1107 180.091 85.0455 180.075 84.9896 180.04C84.9439 180.017 84.9035 179.984 84.8705 179.945C84.8375 179.905 84.8127 179.859 84.7975 179.81C84.7824 179.761 84.7771 179.709 84.7821 179.658C84.787 179.607 84.8021 179.557 84.8264 179.512L93.429 163.324C93.48 163.233 93.5643 163.165 93.6643 163.134C93.7642 163.104 93.8721 163.113 93.9652 163.161C94.0112 163.185 94.0518 163.219 94.0849 163.259C94.1179 163.299 94.1427 163.345 94.1579 163.395C94.173 163.445 94.1782 163.497 94.1732 163.549C94.1681 163.601 94.1529 163.651 94.1284 163.697L85.5414 179.877C85.5079 179.944 85.4554 180 85.3904 180.037C85.3254 180.074 85.2509 180.092 85.1761 180.087Z" fill="#454FA2"/>
<path d="M91.7036 167.808C91.612 167.808 91.5232 167.776 91.4524 167.718C91.3815 167.66 91.333 167.579 91.3151 167.49C91.2945 167.386 91.3157 167.279 91.374 167.192C91.4323 167.105 91.5229 167.044 91.6259 167.023L94.2836 166.479C94.3351 166.468 94.3883 166.467 94.4401 166.476C94.492 166.486 94.5414 166.506 94.5856 166.534C94.6297 166.563 94.6676 166.6 94.6972 166.644C94.7267 166.688 94.7473 166.737 94.7576 166.789C94.7679 166.84 94.7678 166.893 94.7574 166.945C94.7469 166.997 94.7262 167.046 94.6966 167.089C94.6669 167.133 94.6288 167.17 94.5846 167.199C94.5404 167.228 94.4909 167.247 94.439 167.256L91.7813 167.8L91.7036 167.808Z" fill="#454FA2"/>
<path d="M110.891 196.399L110.246 196.835L109.64 197.239L108.451 198.016C107.673 198.521 106.85 199.018 106.049 199.5C104.448 200.464 102.817 201.391 101.153 202.282C97.7621 204.135 94.2463 205.75 90.6314 207.116C88.6906 207.847 86.7049 208.451 84.6865 208.927C82.4114 209.479 80.0803 209.769 77.7392 209.789C76.3623 209.797 74.9879 209.67 73.636 209.409C72.0638 209.102 70.5417 208.579 69.1132 207.854C68.3368 207.444 67.5937 206.974 66.8907 206.448C66.5332 206.184 66.1913 205.904 65.8571 205.608C65.6862 205.461 65.523 205.305 65.3676 205.15L65.2899 205.08C65.1966 204.987 65.1034 204.893 65.0179 204.792C64.8412 204.605 64.6752 204.408 64.5205 204.202C64.2492 203.85 64.005 203.479 63.7901 203.091C63.6903 202.919 63.5995 202.743 63.518 202.562C63.4403 202.399 63.3704 202.243 63.3083 202.08L63.2072 201.847L63.1373 201.637C63.0829 201.497 63.044 201.358 62.9974 201.218C62.9197 200.946 62.8653 200.72 62.8031 200.44C62.7409 200.161 62.7177 200.013 62.6866 199.803C62.5875 199.174 62.5407 198.537 62.5467 197.899C62.5467 197.379 62.5467 196.928 62.6088 196.531C62.671 196.135 62.6943 195.754 62.7409 195.412C62.9344 194.238 63.1938 193.076 63.518 191.931C63.79 190.897 64.0854 189.934 64.3807 188.993C64.9868 187.12 65.624 185.348 66.2845 183.608C67.6134 180.134 69.02 176.792 70.4577 173.505C71.8953 170.217 73.3874 166.938 74.9027 163.689C75.6591 162.068 76.4362 160.449 77.234 158.832L78.3919 156.415L79.5887 153.975C80.6069 151.893 82.4102 150.301 84.6021 149.549C86.7939 148.797 89.1948 148.947 91.2764 149.965C93.3581 150.983 94.95 152.787 95.702 154.979C96.454 157.171 96.3044 159.572 95.2863 161.653C95.2397 161.754 95.1853 161.848 95.1309 161.949L95.0687 162.057L93.8564 164.303L92.5353 166.619C91.722 168.174 90.919 169.707 90.1263 171.22C88.541 174.292 87.0023 177.372 85.5103 180.46C84.026 183.569 82.5961 186.677 81.2983 189.7C80.6533 191.255 80.0394 192.739 79.511 194.192V194.27C80.1629 194.21 80.8114 194.117 81.4537 193.99C82.8711 193.705 84.2699 193.334 85.6424 192.879C88.645 191.862 91.5739 190.639 94.4081 189.219C95.8691 188.493 97.3197 187.716 98.76 186.887C99.4749 186.491 100.19 186.11 100.889 185.667L101.938 185.038L102.894 184.439L103.104 184.315C104.7 183.401 106.585 183.135 108.372 183.57C110.158 184.006 111.71 185.11 112.706 186.656C113.703 188.201 114.068 190.07 113.727 191.877C113.387 193.684 112.366 195.292 110.875 196.368L110.891 196.399Z" fill="#F69A9E"/>
<path d="M118.514 185.659C115.577 187.991 116.68 192.358 113.595 193.842C111.341 194.93 106.857 195.506 104.27 191.884C103.379 190.602 102.896 189.082 102.882 187.521C102.868 185.96 103.325 184.431 104.192 183.133C105.886 180.577 108.132 176.318 111.404 174.445C115.242 172.253 113.261 173.303 114.877 172.471C115.988 171.904 118.087 173.248 116.369 175.378C116.369 175.378 117.146 174.694 117.791 175.914C117.987 176.243 118.104 176.612 118.135 176.993C118.166 177.374 118.11 177.757 117.97 178.113C118.237 178.192 118.484 178.329 118.693 178.512C118.902 178.696 119.069 178.923 119.182 179.178C119.3 179.796 119.249 180.435 119.035 181.027C119.035 181.027 120.449 181.61 120.542 182.706C120.636 183.802 120.511 184.066 118.514 185.659Z" fill="#F69A9E"/>
<path d="M103.057 185.97C103.687 183.218 104.62 180.544 105.839 177.997C106.293 176.938 107.072 176.051 108.062 175.463C109.405 174.841 110.832 174.42 112.297 174.212L103.057 185.97Z" fill="#F69A9E"/>
<path d="M100.159 186.366C100.159 186.366 102.801 194.083 107.767 198.342C108.977 198.189 110.078 197.564 110.828 196.601C107.287 193.191 104.622 188.976 103.057 184.315C102.458 184.435 101.89 184.68 101.39 185.033C100.891 185.387 100.472 185.841 100.159 186.366Z" fill="#1D1B13"/>
<path d="M106.026 185.931C107.036 187.485 106.166 189.871 104.083 191.2C102 192.529 99.4981 192.319 98.4879 190.734C97.4776 189.149 98.348 186.794 100.431 185.465C102.513 184.136 105.016 184.346 106.026 185.931Z" fill="#1D1B13"/>
<path d="M103.57 190.4C102.078 191.348 100.275 191.177 99.5446 190.065C98.8142 188.954 99.4514 187.221 100.943 186.273C102.435 185.325 104.246 185.496 104.969 186.607C105.692 187.719 105.07 189.444 103.57 190.4Z" fill="white"/>
<path d="M87.8726 182.271L86.5903 181.758L86.0774 181.556L77.5292 178.144L77.0086 177.934L67.6211 174.196C68.4653 171.634 69.5045 169.14 70.7295 166.736L71.2036 165.733C72.2527 163.557 73.6204 160.775 75.4388 157.115C76.3898 155.045 77.6647 153.141 79.2156 151.473L79.6274 151.069C80.4125 150.343 81.2721 149.702 82.1919 149.157C84.0781 147.986 86.2953 147.463 88.5061 147.667C90.7168 147.872 92.8002 148.794 94.4392 150.291C95.4046 151.179 96.1841 152.25 96.7324 153.441C97.2807 154.632 97.5868 155.921 97.6331 157.231C98.0216 165.57 87.8726 182.271 87.8726 182.271Z" fill="#F15E3C"/>
<path d="M98.8064 178.028C98.8064 178.028 109.904 175.867 110.284 168.865C110.665 161.863 108.264 159.804 108.489 157.705C108.715 155.607 116.517 155.102 117.939 161.63C119.361 168.158 118.716 172.207 118.716 172.207L128.694 170.606C129.34 170.499 130.002 170.544 130.628 170.737C131.254 170.93 131.826 171.266 132.299 171.718C132.773 172.17 133.134 172.727 133.356 173.343C133.577 173.959 133.652 174.619 133.574 175.269C133.405 176.67 132.786 177.979 131.81 178.999C135.191 183.662 135.455 185.325 133.481 188.263C135.198 191.931 135.641 197.037 127.956 198.264L102.708 202.321L98.8064 178.028Z" fill="#9EBDE3"/>
<path d="M99.5293 179.147C99.5293 179.147 111.271 176.038 111.652 169.821C112.033 163.604 109.795 160.387 110.012 158.506C110.23 156.625 115.452 157.635 116.719 162.625C117.611 166.369 117.672 170.263 116.898 174.033L127.163 172.386C127.746 172.278 128.345 172.307 128.914 172.471C129.484 172.635 130.007 172.929 130.443 173.33C130.878 173.731 131.215 174.228 131.425 174.782C131.636 175.336 131.714 175.931 131.655 176.52C131.491 177.788 130.911 178.965 130.008 179.869C133.116 184.058 133.341 185.535 131.515 188.185C133.069 191.464 133.466 196.042 126.363 197.184L103.05 200.93L99.5293 179.147Z" stroke="#6270A8" stroke-width="0.83" stroke-miterlimit="10"/>
<path d="M104.402 200.052C104.539 200.917 104.328 201.801 103.815 202.512C103.303 203.222 102.53 203.701 101.666 203.844C100.8 203.983 99.9133 203.772 99.2022 203.258C98.491 202.743 98.0133 201.967 97.8739 201.101L94.237 178.471C94.1004 177.605 94.3124 176.721 94.8266 176.011C95.3408 175.302 96.1152 174.825 96.9802 174.686C97.4089 174.617 97.8469 174.634 98.2692 174.734C98.6914 174.835 99.0897 175.018 99.4412 175.273C99.7927 175.528 100.091 175.849 100.318 176.219C100.545 176.589 100.697 177 100.765 177.429L104.402 200.052Z" fill="#6270A8"/>
<g style="mix-blend-mode:overlay" opacity="0.39">
<path d="M102.863 203.339L99.2263 180.678C99.1477 180.137 98.9361 179.625 98.6104 179.186C98.2847 178.748 97.8553 178.398 97.3605 178.166C96.8658 177.935 96.3214 177.83 95.7762 177.862C95.231 177.893 94.7022 178.06 94.2372 178.346C94.1304 177.492 94.3611 176.63 94.8803 175.944C95.3994 175.257 96.1661 174.801 97.0169 174.671C97.8677 174.541 98.7355 174.749 99.4356 175.25C100.136 175.75 100.613 176.504 100.765 177.351L104.402 200.013C104.502 200.661 104.408 201.325 104.131 201.919C103.855 202.514 103.408 203.014 102.848 203.355C102.848 203.355 102.871 203.339 102.863 203.339Z" fill="white"/>
</g>
<path d="M111.132 182.045C111.152 182.175 111.198 182.298 111.267 182.41C111.336 182.521 111.426 182.618 111.532 182.694C111.638 182.771 111.758 182.826 111.885 182.856C112.013 182.886 112.145 182.89 112.274 182.869L124.109 180.973C124.371 180.929 124.605 180.784 124.761 180.568C124.917 180.353 124.981 180.085 124.941 179.823C124.92 179.694 124.874 179.57 124.805 179.459C124.737 179.347 124.647 179.25 124.54 179.174C124.434 179.097 124.314 179.043 124.187 179.013C124.06 178.983 123.928 178.978 123.798 178.999L111.963 180.895C111.702 180.939 111.468 181.085 111.314 181.3C111.159 181.516 111.097 181.784 111.139 182.045H111.132Z" fill="white"/>
<path d="M112.592 191.169C112.636 191.431 112.782 191.664 112.997 191.818C113.213 191.973 113.481 192.036 113.742 191.993L125.578 190.128C125.707 190.108 125.832 190.063 125.944 189.994C126.056 189.926 126.153 189.836 126.229 189.729C126.306 189.623 126.361 189.502 126.39 189.375C126.42 189.247 126.424 189.115 126.402 188.985C126.382 188.855 126.336 188.731 126.268 188.619C126.2 188.506 126.11 188.409 126.004 188.331C125.897 188.254 125.777 188.199 125.649 188.168C125.521 188.138 125.389 188.133 125.259 188.154L113.424 190.05C113.162 190.094 112.928 190.239 112.772 190.454C112.616 190.67 112.552 190.938 112.592 191.2V191.169Z" fill="white"/>
</svg>
