<svg width="153" height="177" viewBox="0 0 153 177" fill="none" xmlns="http://www.w3.org/2000/svg">
<path d="M57.6484 150.554L54.6772 153.05L58.1178 158.456L61.089 155.96L57.6484 150.554Z" fill="#F69A9E"/>
<path d="M57.8188 176.85L45.2998 157.161C45.5404 156.783 45.8565 156.458 46.2283 156.207C47.8119 155.026 50.8088 153.865 52.6503 153.061C52.8669 152.968 53.0681 152.88 53.2435 152.792C53.4921 152.683 53.7333 152.557 53.9657 152.416C55.3326 151.549 55.869 152.932 55.869 152.932C55.183 156.166 59.5469 156.542 59.4231 158.487C59.4231 158.487 59.3766 159.312 58.9691 161.773C58.5616 164.233 59.3147 167.478 59.8099 170.341C60.4444 174.039 59.7532 175.643 59.0156 176.34C58.6929 176.651 58.2669 176.833 57.8188 176.85Z" fill="#1D1B13"/>
<path d="M57.8188 176.85L45.2998 157.161C45.5404 156.783 45.8565 156.458 46.2283 156.207L59.0156 176.324C58.6953 176.641 58.269 176.829 57.8188 176.85Z" fill="#595A5A"/>
<path d="M46.5994 159.173L46.228 158.585C46.8967 158.688 47.5792 158.658 48.2362 158.496C48.8931 158.334 49.5114 158.044 50.0554 157.641C50.7841 157.099 51.393 156.413 51.8439 155.625C52.2949 154.836 52.5781 153.964 52.6758 153.061C52.8925 152.968 53.0936 152.88 53.269 152.793C53.198 153.833 52.8997 154.845 52.3953 155.757C51.8909 156.67 51.1925 157.461 50.3495 158.075C49.269 158.873 47.9401 159.263 46.5994 159.173Z" fill="#595A5A"/>
<path d="M57.5916 162.149C57.5456 162.077 57.5252 161.992 57.5336 161.907C57.542 161.822 57.5788 161.742 57.638 161.68C57.7105 161.608 57.8088 161.567 57.9114 161.567C58.0139 161.567 58.1122 161.608 58.1848 161.68L59.268 162.712C59.3404 162.784 59.3811 162.883 59.3811 162.985C59.3811 163.088 59.3404 163.186 59.268 163.258C59.2325 163.294 59.1903 163.322 59.1438 163.342C59.0974 163.361 59.0475 163.371 58.9972 163.371C58.9468 163.371 58.897 163.361 58.8505 163.342C58.804 163.322 58.7618 163.294 58.7264 163.258L57.638 162.227C57.6183 162.204 57.6026 162.178 57.5916 162.149Z" fill="white"/>
<path d="M57.6589 163.836C57.613 163.764 57.5926 163.678 57.601 163.593C57.6094 163.508 57.6462 163.428 57.7054 163.367C57.7779 163.294 57.8762 163.254 57.9787 163.254C58.0813 163.254 58.1796 163.294 58.2521 163.367L59.3354 164.398C59.3782 164.43 59.4138 164.471 59.4399 164.518C59.4661 164.564 59.482 164.616 59.4869 164.669C59.4917 164.723 59.4854 164.776 59.4681 164.827C59.4509 164.878 59.4232 164.924 59.3868 164.963C59.3505 165.003 59.3063 165.034 59.2571 165.055C59.208 165.076 59.1549 165.086 59.1014 165.086C59.0479 165.085 58.9952 165.073 58.9466 165.051C58.8981 165.028 58.8548 164.996 58.8195 164.955L57.7312 163.924C57.7012 163.9 57.6766 163.87 57.6589 163.836Z" fill="white"/>
<path d="M57.7569 165.502C57.6993 165.424 57.674 165.326 57.6861 165.229C57.6982 165.133 57.7468 165.044 57.822 164.982C57.8972 164.92 57.9932 164.889 58.0904 164.896C58.1877 164.902 58.2787 164.946 58.3449 165.017L59.4333 166.049C59.4989 166.119 59.5355 166.211 59.5355 166.307C59.5355 166.403 59.4989 166.495 59.4333 166.565C59.3629 166.629 59.2709 166.665 59.1754 166.665C59.0799 166.665 58.9879 166.629 58.9175 166.565L57.8291 165.533C57.804 165.525 57.7798 165.515 57.7569 165.502Z" fill="white"/>
<path d="M57.9737 167.246C57.9161 167.167 57.8908 167.07 57.9029 166.973C57.915 166.876 57.9636 166.788 58.0388 166.726C58.114 166.664 58.21 166.633 58.3072 166.64C58.4045 166.646 58.4955 166.69 58.5617 166.761L59.6501 167.793C59.6987 167.823 59.7401 167.863 59.7712 167.911C59.8024 167.959 59.8225 168.013 59.8302 168.07C59.838 168.126 59.833 168.184 59.8158 168.238C59.7986 168.293 59.7696 168.343 59.7308 168.385C59.692 168.427 59.6443 168.459 59.5913 168.481C59.5383 168.502 59.4813 168.511 59.4243 168.508C59.3672 168.505 59.3117 168.489 59.2615 168.461C59.2114 168.434 59.1679 168.396 59.1343 168.35L58.0459 167.318C58.0188 167.297 57.9945 167.273 57.9737 167.246Z" fill="white"/>
<path d="M58.3555 169.046C58.2979 168.967 58.2726 168.87 58.2847 168.773C58.2968 168.676 58.3454 168.588 58.4206 168.526C58.4958 168.464 58.5918 168.433 58.6891 168.44C58.7863 168.446 58.8773 168.49 58.9435 168.561L60.0319 169.593C60.0964 169.663 60.1323 169.755 60.1323 169.851C60.1323 169.946 60.0964 170.038 60.0319 170.109C59.9594 170.181 59.8611 170.222 59.7586 170.222C59.656 170.222 59.5577 170.181 59.4852 170.109L58.4019 169.077C58.3855 169.068 58.3699 169.058 58.3555 169.046Z" fill="white"/>
<path d="M93.591 115.504V115.638C93.591 115.638 93.4776 115.854 93.2558 116.257C88.2732 125.41 82.7367 134.25 76.6772 142.729C75.4753 144.379 74.2374 146.02 72.9839 147.608C72.4268 148.296 71.8697 148.984 71.3126 149.672C69.3892 152.117 67.0891 154.242 64.4986 155.965C64.251 156.125 63.9828 156.285 63.7455 156.439C63.2606 156.739 62.7654 157.027 62.2445 157.316L61.4913 157.729C61.4913 157.729 57.7362 153.778 55.9927 149.95L57.2667 147.887L57.7826 147.072C58.2984 146.195 58.9329 145.163 59.6034 144.044C62.6313 138.989 66.7063 132.056 68.2228 128.838C69.337 126.485 70.6627 123.87 72.1431 121.301C72.4216 120.811 72.7105 120.327 73.0045 119.842C73.0341 119.783 73.0668 119.726 73.1025 119.671C75.1142 116.35 77.3684 113.193 79.7308 110.866L74.325 79.1535L73.9846 77.1624L85.8485 72.9739L86.5243 72.7367L89.351 71.736C89.351 71.736 89.5779 72.7676 89.9287 74.5678C89.97 74.7845 90.0164 75.0114 90.0628 75.2487C91.6464 83.3884 95.1643 103.712 93.591 115.504Z" fill="#F15E3C"/>
<path d="M64.4833 155.97C64.2357 156.13 63.9675 156.29 63.7302 156.445L59.1342 150.337L58.7112 149.78L57.2515 147.846L57.7673 147.031L59.1961 148.924L59.6191 149.486L64.4833 155.97Z" fill="#CF2027"/>
<path d="M93.5911 115.504V115.638C93.5911 115.638 93.4777 115.854 93.2558 116.257C91.5276 115.917 89.8746 115.269 88.3761 114.343C88.3321 114.315 88.2941 114.278 88.2643 114.235C88.2346 114.191 88.2135 114.143 88.2025 114.092C88.1915 114.04 88.1907 113.987 88.2001 113.936C88.2096 113.884 88.2291 113.835 88.2575 113.791C88.286 113.747 88.3228 113.709 88.3659 113.679C88.4091 113.65 88.4577 113.629 88.5089 113.617C88.5602 113.606 88.6131 113.606 88.6646 113.615C88.7162 113.625 88.7654 113.644 88.8095 113.672C90.2799 114.566 91.8998 115.187 93.5911 115.504Z" fill="#CF2027"/>
<path d="M82.7951 111.95C82.7383 112.006 76.7857 117.928 59.583 149.507C59.4334 149.785 59.2787 150.074 59.1188 150.358L58.6958 149.801L59.16 148.944C75.1196 119.666 81.2373 112.682 82.2173 111.65C80.8143 106.492 76.5433 79.9478 76.3421 78.8079C76.3284 78.7237 76.3487 78.6376 76.3986 78.5684C76.4484 78.4993 76.5236 78.4527 76.6078 78.439C76.6919 78.4254 76.778 78.4457 76.8472 78.4955C76.9164 78.5453 76.9629 78.6206 76.9766 78.7047C77.023 78.9884 81.5468 106.982 82.8828 111.65C82.8949 111.704 82.8932 111.759 82.8778 111.811C82.8625 111.864 82.834 111.911 82.7951 111.95Z" fill="#CF2027"/>
<path d="M54.4298 63.978C54.4298 63.978 53.5374 72.453 55.4614 77.1728C57.3855 81.8925 82.3513 79.463 88.7114 75.2178C91.3215 73.4743 85.7661 57.4012 85.7661 57.4012L54.4298 63.978Z" fill="#F15E3C"/>
<path d="M90.0734 75.259C89.6968 75.1937 89.326 75.0988 88.9643 74.9753C88.3874 74.778 87.8365 74.5113 87.324 74.1809C86.7938 73.8363 86.3026 73.435 85.8591 72.9842C83.1046 70.2091 82.2947 66.0103 82.2483 65.8091C82.2332 65.725 82.2518 65.6384 82.3 65.5679C82.3483 65.4975 82.4224 65.4488 82.5062 65.4326C82.5897 65.4175 82.6757 65.4363 82.7453 65.4846C82.8149 65.533 82.8626 65.607 82.8776 65.6905C82.8776 65.7369 83.7287 70.1059 86.5245 72.7469C86.8755 73.0811 87.2572 73.3817 87.6644 73.6445C88.146 73.9591 88.6661 74.2105 89.2119 74.3924C89.4389 74.4646 89.671 74.5265 89.9083 74.5781C89.9805 74.7948 90.0269 75.0269 90.0734 75.259Z" fill="#CF2027"/>
<path d="M74.6707 77.6318C74.6709 77.7145 74.6395 77.7942 74.5829 77.8546C74.5264 77.9149 74.4489 77.9515 74.3664 77.9567C74.325 77.9595 74.2835 77.9542 74.2443 77.9409C74.205 77.9276 74.1688 77.9067 74.1376 77.8794C74.1065 77.8521 74.081 77.8189 74.0627 77.7817C74.0445 77.7445 74.0337 77.7041 74.0311 77.6627C73.9743 76.5021 73.9021 75.3157 73.8299 74.1293C73.8299 73.923 73.8299 73.7115 73.7886 73.5052C73.5359 69.6314 73.2161 65.8297 72.9736 63.1423C72.9736 62.9257 72.9375 62.7142 72.9169 62.513C72.8653 61.925 72.8137 61.404 72.7725 60.9655L73.4069 60.8624C73.4533 61.306 73.4998 61.8321 73.5565 62.4098C73.5565 62.6162 73.5926 62.8225 73.6133 63.0391C73.8505 65.7008 74.1703 69.4715 74.4179 73.3247L74.4541 73.9952C74.5417 75.1971 74.6088 76.4299 74.6707 77.6318Z" fill="#CF2027"/>
<path d="M75.5836 73.5415C75.2181 73.719 74.8406 73.8707 74.4539 73.9954C74.2456 74.0608 74.0338 74.1142 73.8194 74.1553C73.6188 74.1966 73.4153 74.2225 73.2108 74.2327C72.8449 74.2698 72.4756 74.213 72.1379 74.0676C71.9465 73.9752 71.7803 73.8377 71.6536 73.6671C71.527 73.4964 71.4436 73.2975 71.4105 73.0876C71.1732 71.8908 70.6884 66.9596 70.3789 63.4675C70.3789 63.256 70.3376 63.0445 70.317 62.8433C70.2654 62.2862 70.219 61.7756 70.1777 61.3423L70.8174 61.2649C70.8586 61.6982 70.905 62.214 70.9566 62.7763C70.9566 62.9826 70.9979 63.1889 71.0185 63.4056C71.3487 66.8874 71.8335 71.8135 72.0502 72.9741C72.0666 73.0855 72.1105 73.191 72.1781 73.2811C72.2457 73.3712 72.3347 73.443 72.437 73.4899C72.8768 73.6291 73.3488 73.6291 73.7885 73.4899C74.0051 73.4435 74.2218 73.3816 74.4178 73.3197C74.7184 73.2222 75.013 73.1068 75.2999 72.9741C75.3752 72.9362 75.4624 72.9295 75.5426 72.9556C75.6227 72.9817 75.6894 73.0384 75.728 73.1134C75.7488 73.1505 75.7616 73.1916 75.7656 73.234C75.7695 73.2764 75.7645 73.3192 75.7509 73.3595C75.7373 73.3999 75.7154 73.4369 75.6865 73.4683C75.6577 73.4996 75.6226 73.5246 75.5836 73.5415Z" fill="#CF2027"/>
<path d="M64.8755 161.83L65.5099 166.854H71.9165L72.2879 161.567L64.8755 161.83Z" fill="#F69A9E"/>
<path d="M72.9684 74.7536V160.999L72.8756 162.366H63.3586C63.2555 161.742 63.0285 160.736 62.7293 159.441L62.5178 158.559C61.2798 153.283 59.1547 144.292 58.7833 136.472C58.2674 125.309 58.3964 110.846 58.3964 110.846C57.3132 102.546 55.6058 84.5749 54.7856 75.3777C54.7856 75.1559 54.7444 74.9444 54.7237 74.7381C54.44 71.6432 54.2646 69.7037 54.2646 69.7037C55.8121 69.0641 58.5769 69.5025 61.5326 70.3433C61.7441 70.4001 61.9607 70.4619 62.1722 70.529C65.8591 71.7006 69.4655 73.1118 72.9684 74.7536Z" fill="#F15E3C"/>
<path d="M72.9687 158.559V159.441H62.7296L62.5181 158.559H72.9687Z" fill="#CF2027"/>
<path d="M72.9685 112.78V113.605C71.7845 113.875 70.572 114 69.3578 113.977C67.9295 113.97 66.5037 113.858 65.0919 113.641C64.9879 113.624 64.8953 113.565 64.8343 113.479C64.7734 113.393 64.7491 113.286 64.7669 113.182C64.7847 113.078 64.8431 112.986 64.9292 112.925C65.0153 112.864 65.122 112.84 65.226 112.857C65.2982 112.862 69.9561 113.621 72.9685 112.78Z" fill="#CF2027"/>
<path d="M64.3182 159.441H63.6683C63.6167 159.168 63.56 158.874 63.5032 158.559C62.6624 154.092 61.1201 145.741 60.3257 140.32C59.2064 132.753 59.7325 111.764 59.7532 110.918C58.9072 103.696 57.1741 78.9832 57.1741 78.7356C57.1684 78.6502 57.1966 78.566 57.2526 78.5013C57.3086 78.4366 57.3879 78.3966 57.4732 78.39C57.5153 78.3872 57.5574 78.3927 57.5973 78.4063C57.6372 78.4198 57.674 78.4411 57.7056 78.4689C57.7372 78.4967 57.7631 78.5304 57.7816 78.5682C57.8002 78.6061 57.8111 78.6471 57.8137 78.6892C57.8137 78.9368 59.5572 103.696 60.3928 110.866V110.913C60.3928 111.129 59.8357 132.577 60.9551 140.201C61.7597 145.659 63.3175 154.097 64.1532 158.533C64.2151 158.874 64.2718 159.173 64.3182 159.441Z" fill="#CF2027"/>
<path d="M74.3559 175.422C74.3559 175.478 74.3559 175.535 74.3559 175.587C74.3559 175.845 74.3559 176.077 74.3559 176.273C74.3559 176.706 74.2992 176.974 74.2992 176.974H59.8562C59.8149 176.513 59.8149 176.048 59.8562 175.587C59.949 174.111 60.439 171.785 62.4353 170.243C65.164 168.133 64.1117 168.571 64.6688 167.612C64.7307 167.504 65.2259 165.869 65.2775 165.755C65.7469 164.76 66.175 164.285 68.7644 164.285C72.1946 164.285 72.499 165.951 72.891 166.828C73.1235 167.494 73.313 168.175 73.4584 168.865C73.5461 169.232 73.6338 169.619 73.7163 170.016C73.9278 171.011 74.129 172.048 74.2631 172.879C74.364 173.722 74.3951 174.573 74.3559 175.422Z" fill="#1D1B13"/>
<path d="M74.3561 175.422C74.3561 175.478 74.3561 175.535 74.3561 175.587C74.3561 175.845 74.3561 176.077 74.3561 176.273C73.6664 175.796 73.142 175.116 72.8551 174.328C71.9627 171.893 73.3399 168.974 73.3709 168.85H73.3967C73.4844 169.216 73.572 169.603 73.6546 170C73.3296 170.996 72.9582 172.667 73.474 174.08C73.6587 174.591 73.9609 175.05 74.3561 175.422Z" fill="#595A5A"/>
<path d="M74.351 175.612C74.351 176.438 74.2684 177 74.2684 177H59.8254C59.7841 176.538 59.7841 176.074 59.8254 175.612H74.351Z" fill="#595A5A"/>
<path d="M69.1975 168.788H69.0943C67.9996 168.5 66.8521 168.477 65.7466 168.721C65.6441 168.742 65.5376 168.722 65.4487 168.667C65.3597 168.612 65.295 168.526 65.2675 168.425C65.24 168.324 65.2518 168.217 65.3005 168.124C65.3492 168.032 65.4313 167.961 65.53 167.927C66.7738 167.643 68.0678 167.666 69.3007 167.994C69.3551 168.006 69.4065 168.03 69.4513 168.063C69.4962 168.096 69.5336 168.138 69.5613 168.187C69.589 168.235 69.6062 168.289 69.612 168.345C69.6177 168.4 69.6118 168.456 69.5947 168.509C69.5671 168.592 69.5136 168.664 69.4421 168.714C69.3706 168.764 69.2848 168.79 69.1975 168.788Z" fill="white"/>
<path d="M69.5223 167.194C69.4881 167.199 69.4533 167.199 69.4191 167.194C68.3243 166.907 67.1768 166.884 66.0714 167.127C66.0186 167.142 65.9633 167.147 65.9088 167.14C65.8543 167.134 65.8015 167.117 65.7536 167.09C65.7057 167.063 65.6636 167.027 65.6296 166.984C65.5956 166.941 65.5705 166.891 65.5556 166.838C65.5399 166.786 65.535 166.73 65.5411 166.675C65.5472 166.621 65.5643 166.568 65.5912 166.52C65.6181 166.471 65.6544 166.429 65.6979 166.395C65.7414 166.362 65.7912 166.337 65.8444 166.323C67.0879 166.039 68.3816 166.06 69.6151 166.384C69.6688 166.398 69.7192 166.423 69.7632 166.456C69.8073 166.49 69.8442 166.532 69.8716 166.58C69.899 166.628 69.9165 166.681 69.9229 166.736C69.9294 166.791 69.9247 166.847 69.9091 166.9C69.8848 166.984 69.834 167.058 69.7643 167.111C69.6946 167.164 69.6098 167.193 69.5223 167.194Z" fill="white"/>
<path d="M68.584 170.093C68.5498 170.099 68.515 170.099 68.4808 170.093C67.386 169.806 66.2386 169.783 65.1331 170.026C65.0265 170.055 64.9128 170.041 64.8164 169.987C64.72 169.933 64.6485 169.843 64.6173 169.737C64.6024 169.684 64.598 169.629 64.6044 169.575C64.6109 169.52 64.628 169.467 64.6548 169.42C64.6817 169.372 64.7177 169.329 64.7608 169.295C64.8039 169.262 64.8533 169.236 64.9062 169.221C66.1514 168.938 67.4467 168.959 68.682 169.283C68.7353 169.298 68.7853 169.322 68.829 169.356C68.8727 169.39 68.9092 169.432 68.9366 169.48C68.9639 169.528 68.9815 169.581 68.9882 169.636C68.995 169.69 68.9909 169.746 68.976 169.799C68.9507 169.884 68.8989 169.958 68.8284 170.011C68.7578 170.064 68.6722 170.093 68.584 170.093Z" fill="white"/>
<path d="M67.8566 171.574H67.7535C66.6588 171.286 65.5118 171.262 64.4058 171.501C64.3529 171.518 64.2973 171.523 64.2423 171.517C64.1873 171.512 64.1341 171.495 64.0858 171.468C64.0375 171.441 63.9953 171.404 63.9616 171.36C63.9279 171.316 63.9036 171.266 63.8899 171.212C63.8742 171.16 63.8691 171.105 63.8749 171.05C63.8806 170.996 63.8972 170.943 63.9236 170.895C63.95 170.847 63.9857 170.805 64.0287 170.771C64.0716 170.737 64.1209 170.711 64.1736 170.697C65.4195 170.417 66.7144 170.44 67.9495 170.764C68.0447 170.79 68.1272 170.851 68.1819 170.933C68.2365 171.016 68.2597 171.115 68.2472 171.213C68.2347 171.311 68.1873 171.402 68.1137 171.468C68.0401 171.534 67.9452 171.572 67.8463 171.574H67.8566Z" fill="white"/>
<path d="M63.9207 65.809C63.5673 67.4602 62.9693 69.0493 62.1462 70.5236C61.36 71.9917 60.2288 73.2467 58.8501 74.1808C57.631 74.9669 56.2102 75.3826 54.7597 75.3775C54.7597 75.1557 54.7184 74.9443 54.6978 74.7379C56.0461 74.752 57.3692 74.3719 58.5045 73.6444C59.7501 72.7923 60.7784 71.6598 61.5066 70.338C62.3323 68.8899 62.9323 67.3244 63.2862 65.6955C63.3025 65.6117 63.3511 65.5376 63.4216 65.4894C63.492 65.4411 63.5787 65.4225 63.6628 65.4376C63.7449 65.4551 63.8173 65.5032 63.8653 65.5722C63.9132 65.6412 63.933 65.7259 63.9207 65.809Z" fill="#CF2027"/>
<path d="M87.8654 54.5797C87.8344 54.425 87.7983 54.2703 87.7674 54.1104C87.2516 51.49 86.7357 48.6529 86.2921 46.0532C86.2921 45.9294 86.2509 45.8107 86.2251 45.687C85.9981 44.3252 85.7918 43.0356 85.6112 41.8853C85.6112 41.7615 85.57 41.6377 85.5545 41.5191C85.3998 40.5442 85.2708 39.6776 85.1728 38.94C85.147 38.7595 85.116 38.5789 85.0954 38.4242L85.0335 38.0064C84.9665 37.4905 84.9097 37.0056 84.8478 36.5208C84.7498 35.7419 84.6673 34.9733 84.5951 34.2512C84.5125 33.4104 84.4403 32.5902 84.3836 31.801C84.3268 31.0118 84.2701 30.1246 84.234 29.325C84.1979 28.5255 84.1669 27.6538 84.1514 26.8594C84.0947 24.074 84.1876 21.6547 84.3423 19.545C84.3423 19.4006 84.3423 19.2613 84.3784 19.1169C84.4455 18.2812 84.5228 17.4972 84.6054 16.7596C84.6054 16.5997 84.6415 16.4398 84.657 16.2799C85.1367 12.2152 85.6886 9.69795 85.4101 8.15564C84.822 5.22576 82.6349 4.54487 80.1899 3.8382C75.0317 6.21098 70.1159 9.55352 65.4529 12.3699C61.3499 14.9338 57.7217 18.1886 54.7289 21.99C52.7997 24.368 49.5706 27.2411 48.7505 30.4186C48.668 33.4516 48.6886 36.4021 48.8794 39.3423C48.9362 40.1573 49.0033 40.9775 49.0858 41.7976C49.0858 41.9937 49.1271 42.2155 49.1528 42.4631C49.1528 42.5869 49.1529 42.721 49.1941 42.8602C49.354 44.351 49.5913 46.471 49.8801 48.7716C49.8801 48.8902 49.9059 49.014 49.9214 49.1326C50.5817 54.3786 51.4689 60.5891 52.3613 63.2198C52.3922 63.3126 52.4283 63.4055 52.4541 63.488L52.6192 63.5706C56.8985 65.5752 61.5486 66.6661 66.273 66.7738H66.7579C67.5523 66.7738 68.3466 66.7738 69.1255 66.748C70.1881 66.7016 71.2455 66.6139 72.2823 66.4901C73.2005 66.3818 74.1032 66.2374 74.9956 66.0671C78.5612 65.4169 81.9992 64.1978 85.1779 62.4564L85.4977 62.2655C86.2262 61.8434 86.929 61.3783 87.6023 60.8728L87.8963 60.6458C88.235 60.3776 88.4895 60.0176 88.6294 59.6088C88.7693 59.2 88.7888 58.7596 88.6856 58.3401C88.4276 57.1743 88.1542 55.9106 87.8654 54.5797Z" fill="#5473B8"/>
<path d="M76.4246 59.7535C72.8138 59.7535 68.8575 58.7219 64.6948 56.6947C61.1277 54.9165 57.7986 52.6965 54.7858 50.087C54.7605 50.062 54.7405 50.0323 54.7268 49.9996C54.7131 49.9668 54.7061 49.9316 54.7061 49.8961C54.7061 49.8606 54.7131 49.8255 54.7268 49.7927C54.7405 49.7599 54.7605 49.7302 54.7858 49.7053C54.8369 49.6555 54.9053 49.6276 54.9767 49.6276C55.048 49.6276 55.1164 49.6555 55.1675 49.7053C58.1478 52.2828 61.4405 54.4751 64.9682 56.2304C70.1264 58.7683 77.7193 60.9967 84.3838 57.2054C84.4146 57.1881 84.4485 57.177 84.4836 57.1729C84.5187 57.1687 84.5542 57.1715 84.5882 57.1811C84.6222 57.1907 84.654 57.2069 84.6818 57.2287C84.7095 57.2506 84.7327 57.2777 84.75 57.3085C84.7673 57.3393 84.7783 57.3733 84.7825 57.4083C84.7866 57.4434 84.7838 57.479 84.7742 57.513C84.7647 57.547 84.7485 57.5788 84.7266 57.6065C84.7048 57.6343 84.6776 57.6575 84.6468 57.6747C82.1368 59.0792 79.3005 59.7963 76.4246 59.7535Z" fill="#454FA2"/>
<path d="M77.2189 56.7099C71.5449 56.6171 66.9592 49.0912 66.7632 48.7714C66.7449 48.7409 66.7328 48.7071 66.7276 48.672C66.7223 48.6368 66.7241 48.601 66.7327 48.5665C66.7413 48.532 66.7566 48.4995 66.7778 48.471C66.799 48.4424 66.8256 48.4183 66.856 48.4C66.8865 48.3817 66.9203 48.3696 66.9555 48.3644C66.9906 48.3592 67.0265 48.3609 67.061 48.3695C67.0955 48.3782 67.1279 48.3935 67.1565 48.4146C67.185 48.4358 67.2091 48.4624 67.2274 48.4929C67.2738 48.5702 71.8698 56.0858 77.2241 56.1683C77.2953 56.1709 77.3627 56.2007 77.4126 56.2516C77.4625 56.3024 77.491 56.3705 77.4923 56.4417C77.491 56.5133 77.4616 56.5815 77.4104 56.6317C77.3593 56.6819 77.2905 56.7099 77.2189 56.7099Z" fill="#454FA2"/>
<path d="M45.4851 41.158C45.4405 41.1587 45.3965 41.1477 45.3575 41.126C45.3186 41.1042 45.2861 41.0726 45.2633 41.0342C45.2445 41.0052 45.2317 40.9728 45.2257 40.9387C45.2196 40.9047 45.2205 40.8698 45.2282 40.8362C45.2358 40.8025 45.2502 40.7707 45.2705 40.7427C45.2907 40.7147 45.3163 40.691 45.3459 40.6731C46.6247 39.9614 47.9796 39.3956 49.3848 38.9864C49.4176 38.9761 49.4522 38.9725 49.4864 38.9758C49.5207 38.9791 49.5539 38.9892 49.5842 39.0055C49.6145 39.0219 49.6412 39.0441 49.6628 39.071C49.6843 39.0978 49.7003 39.1286 49.7097 39.1617C49.729 39.2294 49.7208 39.302 49.687 39.3638C49.6533 39.4255 49.5966 39.4715 49.5292 39.4919C48.1723 39.8895 46.8629 40.4344 45.6244 41.1167C45.5836 41.145 45.5348 41.1595 45.4851 41.158Z" fill="#F3736F"/>
<path d="M49.1786 39.5021C49.1277 39.501 49.0779 39.4868 49.0342 39.4608C48.0025 38.8057 46.2178 38.945 46.1971 38.945C46.1356 38.9396 46.078 38.9128 46.0343 38.8692C45.9906 38.8256 45.9636 38.768 45.9581 38.7065C45.9526 38.645 45.9688 38.5835 46.0041 38.5328C46.0393 38.4821 46.0912 38.4454 46.1507 38.4291C46.2333 38.4291 48.1521 38.2538 49.3231 39.0069C49.3808 39.0448 49.4213 39.104 49.4357 39.1716C49.4502 39.2391 49.4375 39.3097 49.4004 39.3679C49.3778 39.4072 49.3456 39.4401 49.3068 39.4636C49.268 39.487 49.2239 39.5003 49.1786 39.5021Z" fill="#F3736F"/>
<path d="M95.7833 47.5542C95.714 47.5533 95.6474 47.5272 95.5961 47.4806C95.5448 47.434 95.5123 47.3703 95.5048 47.3014C95.43 45.4885 95.5493 43.6728 95.8607 41.8853C95.8737 41.8121 95.9152 41.7471 95.9762 41.7045C96.0371 41.6619 96.1125 41.6453 96.1857 41.6583C96.2589 41.6713 96.3239 41.7128 96.3664 41.7738C96.409 41.8347 96.4256 41.9101 96.4126 41.9833C96.4126 42.0142 95.8659 45.233 96.067 47.2447C96.0742 47.3192 96.0517 47.3935 96.0044 47.4515C95.957 47.5094 95.8887 47.5464 95.8143 47.5542H95.7833Z" fill="#F3736F"/>
<path d="M93.9879 45.5889C93.9361 45.5882 93.8855 45.5734 93.8415 45.5459C93.7975 45.5185 93.7619 45.4795 93.7385 45.4333C93.7151 45.387 93.7049 45.3353 93.7088 45.2836C93.7128 45.2319 93.7308 45.1823 93.761 45.1402C93.761 45.1402 95.2104 43.1697 95.8965 42.0452C95.9348 41.9816 95.9968 41.9358 96.0689 41.9179C96.1409 41.9 96.2172 41.9115 96.2808 41.9498C96.3444 41.9881 96.3902 42.0501 96.4081 42.1222C96.426 42.1943 96.4145 42.2705 96.3762 42.3341C95.6798 43.4947 94.2716 45.4032 94.2149 45.4858C94.1872 45.5188 94.1524 45.5452 94.1131 45.5631C94.0738 45.5809 94.0311 45.5898 93.9879 45.5889Z" fill="#F3736F"/>
<path d="M75.0576 37.1913C74.7926 37.9166 74.4091 38.5929 73.9228 39.1927C73.0716 40.1212 71.7047 40.6164 70.5544 41.0909C69.1707 41.6928 67.6989 42.0673 66.1957 42.1999C64.7127 42.2638 63.2274 42.1408 61.7751 41.8337C57.9772 41.1922 54.315 39.9139 50.9428 38.0527C50.0921 37.5787 49.2657 37.0622 48.4669 36.5052C47.9511 36.139 46.7595 35.4478 46.5893 34.7979C46.526 34.4549 46.5419 34.1021 46.6357 33.7662C47.1515 31.2542 48.1007 28.7782 48.9311 26.359C50.0402 23.1403 50.9944 19.9937 52.7121 17.0123C54.7521 13.4845 57.2593 10.2486 60.1657 7.39218C61.528 6.09946 63.0647 5.00388 64.7308 4.13733C67.9753 2.35774 71.5139 0.99596 75.202 0.681307C78.8902 0.366655 82.7485 1.15071 85.7454 3.32748C86.4528 3.79579 87.041 4.42283 87.4631 5.15865C87.9351 6.24071 88.0367 7.44835 87.752 8.59404C87.1382 11.854 85.2245 14.655 83.5584 17.4559C82.6924 18.9781 81.9256 20.5546 81.2629 22.1757C80.7935 23.2589 80.1333 23.9656 80.2622 25.2345C80.3684 25.9383 80.5131 26.6357 80.6955 27.3236C80.8947 28.1126 80.9088 28.9371 80.7368 29.7325C80.6474 30.1281 80.4697 30.4983 80.2168 30.8154C79.964 31.1326 79.6427 31.3884 79.277 31.5637C78.8747 31.7339 78.4259 31.7803 78.0133 31.9196C77.0641 32.2445 76.7701 33.2762 76.3987 34.1067C75.9603 35.1538 75.4857 36.1648 75.0576 37.1913Z" fill="#5473B8"/>
<path d="M73.8557 8.56823C73.3068 9.65441 72.8961 10.805 72.6331 11.9933C72.2153 13.6284 71.8646 15.3358 72.1689 16.9968C72.3391 17.9459 72.7157 18.8486 72.8601 19.8029C73.0045 20.7571 72.8601 21.8352 72.138 22.48C71.684 21.5979 70.7504 21.0821 70.1056 20.329C69.4065 19.3753 68.9049 18.2915 68.6304 17.1412C67.7959 14.2828 68.0325 11.2183 69.2958 8.52181C70.0076 7.02076 71.0496 5.27211 72.6692 4.64797C73.1913 4.41805 73.7809 4.39409 74.3199 4.58091C74.9544 4.83882 75.4341 5.5094 76.1149 5.50424C76.2387 5.50424 76.3832 5.50423 76.4606 5.58161C76.5379 5.65898 76.4606 5.92205 76.2903 6.03553C75.2986 6.68584 74.4663 7.55158 73.8557 8.56823Z" fill="#5473B8"/>
<path d="M152.307 33.1832H0V60.2072H152.307V33.1832Z" fill="#19BAA8"/>
<path d="M64.7873 25.838L65.7622 27.2101L66.7939 28.6235C67.4816 29.5623 68.1694 30.4942 68.8572 31.4192C70.2602 33.2607 71.6942 35.0712 73.1746 36.7838C73.5408 37.2119 73.9122 37.6297 74.2888 38.0475C74.6653 38.4654 75.0367 38.8677 75.4184 39.2649C76.1767 40.0593 76.9659 40.8124 77.7138 41.5242C78.4452 42.196 79.2151 42.8247 80.0196 43.407C80.6641 43.8834 81.3554 44.293 82.0828 44.6295C82.3224 44.7298 82.5689 44.8126 82.8205 44.877C82.9326 44.9023 83.0464 44.9196 83.1609 44.9286H83.2383H83.197L83.1145 44.9699C82.9341 45.0583 82.7616 45.1618 82.5987 45.2794L82.4336 45.4032L82.315 45.5115C82.2311 45.5861 82.1551 45.6691 82.088 45.7591C82.088 45.8004 82.088 45.8055 82.088 45.7901L82.1602 45.6921C82.3512 45.3704 82.5235 45.038 82.6761 44.6965C82.8721 44.2735 83.0629 43.8041 83.2486 43.3141C83.6303 42.3289 83.9811 41.2508 84.3319 40.1779C85.7143 35.814 86.911 31.1252 88.3295 26.5756L95.551 27.6589C95.551 27.9942 95.551 28.2985 95.5252 28.6183C95.4994 28.9381 95.5252 29.2424 95.4891 29.5571C95.4633 30.1812 95.4221 30.8054 95.3756 31.4244C95.2879 32.6727 95.1641 33.9158 95.0249 35.1589C94.736 37.6504 94.3492 40.1315 93.8127 42.6642C93.5496 43.9279 93.2298 45.202 92.8429 46.5277C92.6418 47.1879 92.42 47.8585 92.1517 48.5652C91.8641 49.3544 91.5193 50.1216 91.1201 50.8606C91.0014 51.0721 90.8673 51.299 90.7126 51.5363C90.5578 51.7736 90.3825 52.0522 90.1555 52.3049C89.8972 52.6288 89.6144 52.9323 89.3095 53.2127C89.2218 53.2953 89.1135 53.3881 89.0155 53.4707C88.9175 53.5532 88.7937 53.646 88.6699 53.7337C88.3875 53.9395 88.0891 54.1223 87.7776 54.2805L87.6434 54.3424L87.5506 54.3888L87.4474 54.4352L87.2462 54.5229C87.107 54.5848 86.9677 54.6364 86.8284 54.688C86.5483 54.7963 86.2624 54.8893 85.9722 54.9665C85.4012 55.1271 84.8181 55.2409 84.2287 55.307C83.1314 55.421 82.0234 55.3794 80.9377 55.1832C79.9936 55.0139 79.069 54.7495 78.1781 54.394C76.6705 53.784 75.2404 52.9979 73.9174 52.0521C72.7408 51.221 71.6191 50.3147 70.5594 49.3389C69.5277 48.4001 68.5838 47.4355 67.6862 46.4503C66.7887 45.4651 65.9324 44.4695 65.1071 43.4585C63.472 41.4262 61.976 39.332 60.5782 37.2171C59.8766 36.1545 59.2061 35.0764 58.5561 33.9829C58.2363 33.4361 57.9114 32.8893 57.6019 32.3271L57.1376 31.4863L56.9055 31.053L56.6631 30.5939L64.7873 25.838Z" fill="#F69A9E"/>
<path d="M72.9064 34.7L72.6485 34.896L72.1327 35.2725L63.5545 41.7822C63.5545 41.7822 49.2301 26.4261 56.333 20.0867C56.333 20.0867 59.1391 17.4766 64.5346 23.1145L64.7822 23.3776L64.8286 23.4292L65.0298 23.6459L65.0917 23.7129C68.2588 27.2618 71.9882 33.2556 72.7362 34.4782L72.7723 34.5349L72.9064 34.7Z" fill="#5473B8"/>
<path d="M71.9573 33.4568C71.9359 33.4941 71.9079 33.5273 71.8748 33.5548C71.818 33.595 71.7475 33.6111 71.6789 33.5995C71.6102 33.5879 71.549 33.5496 71.5086 33.4929L64.3438 23.6613C64.3229 23.6337 64.3078 23.6022 64.2993 23.5687C64.2909 23.5352 64.2893 23.5003 64.2945 23.4661C64.2998 23.432 64.312 23.3992 64.3302 23.3698C64.3484 23.3404 64.3723 23.315 64.4005 23.295C64.4571 23.2556 64.5268 23.2394 64.595 23.25C64.6632 23.2606 64.7247 23.297 64.7667 23.3518L71.9315 33.1834C71.9596 33.2226 71.9767 33.2686 71.9812 33.3166C71.9858 33.3646 71.9775 33.413 71.9573 33.4568Z" fill="#454FA2"/>
<path d="M66.5157 25.9928C66.4892 26.0467 66.4451 26.0899 66.3907 26.1152C66.3363 26.1405 66.2748 26.1465 66.2165 26.1321C66.183 26.1237 66.1514 26.1087 66.1237 26.088C66.0959 26.0674 66.0725 26.0415 66.0548 26.0118C66.037 25.9821 66.0253 25.9492 66.0203 25.9149C66.0153 25.8807 66.0171 25.8458 66.0257 25.8123L66.4744 24.0688C66.4829 24.0349 66.498 24.0031 66.5187 23.975C66.5395 23.947 66.5656 23.9233 66.5956 23.9053C66.6255 23.8874 66.6587 23.8755 66.6932 23.8703C66.7278 23.8652 66.763 23.8669 66.7968 23.8754C66.8307 23.8838 66.8626 23.8989 66.8906 23.9197C66.9187 23.9405 66.9423 23.9666 66.9603 23.9965C66.9783 24.0264 66.9902 24.0596 66.9953 24.0942C67.0004 24.1287 66.9987 24.1639 66.9903 24.1978L66.5466 25.9412C66.5388 25.9598 66.5284 25.9772 66.5157 25.9928Z" fill="#454FA2"/>
<path d="M84.1362 6.71113C85.0744 4.12565 86.9609 1.99385 89.4131 0.748214C93.4314 -1.19644 96.0053 1.26404 96.0053 1.26404C96.0053 1.26404 99.5336 -1.79996 101.354 3.75546C103.175 9.31088 106.755 11.9261 107.302 14.7219C107.849 17.5176 100.699 17.2546 99.7915 13.8501C98.8836 10.4457 90.7491 3.16227 84.1362 6.71113Z" fill="#FEC566"/>
<path d="M80.4225 17.4663L78.0652 18.3122C77.7567 18.1235 77.462 17.9132 77.1831 17.6829C73.2577 14.4642 74.7227 8.95518 74.7227 8.95518L82.9088 6.03046L80.7217 16.1045L80.4225 17.4663Z" fill="#F69A9E"/>
<path d="M80.422 17.4661L78.0647 18.312C77.7562 18.1233 77.4615 17.913 77.1826 17.6827C77.3167 13.7006 80.0712 9.85254 80.0712 9.85254L80.7212 16.1043L80.422 17.4661Z" fill="#1D1B13"/>
<path d="M99.8169 11.0958C99.8169 11.0958 101.318 16.9916 94.6123 17.0638C94.6123 17.0638 98.2076 11.5187 99.8169 11.0958Z" fill="#FEC566"/>
<path d="M86.8902 20.0916C86.8902 20.0916 82.0157 21.8454 80.1845 16.7646C78.3534 11.6837 81.1233 6.86077 81.2471 6.61834L82.253 6.19536L87.4731 4.00827L90.2895 2.81156C90.2895 2.81156 95.1847 0.335604 97.8566 4.87485C99.8116 8.19159 100.436 11.7353 99.1617 14.0823C98.679 14.9804 97.914 15.6946 96.9849 16.1146L91.9298 18.1006L90.6918 18.5854L86.8902 20.0916Z" fill="#F69A9E"/>
<path d="M88.9381 11.72C88.5822 11.8438 88.0354 11.2042 87.7104 10.3119C87.3855 9.41949 87.4164 8.57869 87.7723 8.44973C88.1282 8.32077 88.675 8.96555 89 9.85277C89.325 10.74 89.294 11.5808 88.9381 11.72Z" fill="#F3736F"/>
<path d="M83.8216 7.50047C83.7597 7.50047 82.0369 7.38699 81.2734 6.61841L82.2793 6.19543C82.6629 6.76461 83.1968 7.21634 83.8216 7.50047Z" fill="#1D1B13"/>
<path d="M86.8906 5.39088C86.8906 5.39088 88.8146 2.50227 86.2406 1.81106C84.1258 1.2385 80.4995 5.04527 82.8465 6.83518L86.8906 5.39088Z" fill="#F69A9E"/>
<path d="M83.5378 6.29338C83.5208 6.2431 83.5224 6.18839 83.5423 6.13917C83.5621 6.08996 83.599 6.04951 83.6462 6.02516C84.207 5.75821 84.6877 5.34833 85.0399 4.83675C85.3921 4.32517 85.6035 3.72989 85.6527 3.11074C85.6607 3.05967 85.6866 3.01313 85.7259 2.97952C85.7651 2.9459 85.8151 2.92743 85.8668 2.92743C85.9185 2.92743 85.9684 2.9459 86.0077 2.97952C86.047 3.01313 86.0729 3.05967 86.0808 3.11074C86.0263 3.80734 85.7899 4.47742 85.3952 5.05402C85.0005 5.63062 84.4615 6.09355 83.8319 6.39655C83.7811 6.42001 83.7232 6.42289 83.6703 6.40462C83.6174 6.38636 83.5736 6.34835 83.5482 6.29854L83.5378 6.29338Z" fill="#1D1B13"/>
<path d="M99.1567 14.0978C98.9819 14.1253 98.8028 14.102 98.6409 14.0307C97.2533 13.4169 96.789 10.9358 96.6859 8.55267C96.6437 7.84878 96.4169 7.1684 96.0285 6.57986C95.6401 5.99133 95.1036 5.51538 94.473 5.19982C92.616 6.54096 91.7237 4.56536 90.3103 5.55574C89.2125 6.24127 88.0204 6.76261 86.7718 7.10321L86.4829 5.77754C87.0121 5.3067 87.3742 4.67676 87.5146 3.98247L90.2897 2.81156C90.2897 2.81156 95.1848 0.335604 97.8568 4.87485C99.8118 8.20707 100.415 11.7508 99.1567 14.0978Z" fill="#FEC566"/>
<path d="M67.3304 32.4611L103.624 32.4611C104.117 32.4611 104.516 32.0616 104.516 31.5688V30.1244C104.516 29.6316 104.117 29.2321 103.624 29.2321L67.3304 29.2321C66.8376 29.2321 66.438 29.6316 66.438 30.1244V31.5688C66.438 32.0616 66.8376 32.4611 67.3304 32.4611Z" fill="#595A5A"/>
<path d="M76.8111 32.4664H103.201C103.506 32.4661 103.806 32.378 104.063 32.2125C104.32 32.0469 104.523 31.811 104.65 31.5327L111.872 15.7795C111.983 15.5366 112.032 15.2695 112.013 15.0028C111.995 14.7361 111.909 14.4784 111.765 14.2534C111.62 14.0284 111.422 13.8433 111.187 13.7152C110.953 13.5871 110.689 13.52 110.422 13.5202H84.0275C83.7218 13.5204 83.4226 13.6086 83.1656 13.7741C82.9086 13.9397 82.7047 14.1756 82.578 14.4538L75.3565 30.2071C75.2447 30.4504 75.196 30.718 75.2149 30.9851C75.2338 31.2522 75.3198 31.5102 75.4647 31.7353C75.6097 31.9605 75.809 32.1455 76.0443 32.2733C76.2796 32.401 76.5434 32.4674 76.8111 32.4664Z" fill="#1D1B13"/>
<path d="M92.7349 22.9907C92.7349 23.4437 92.8692 23.8865 93.1208 24.2631C93.3725 24.6397 93.7302 24.9333 94.1487 25.1066C94.5672 25.28 95.0277 25.3253 95.4719 25.237C95.9162 25.1486 96.3243 24.9305 96.6446 24.6102C96.9649 24.2899 97.183 23.8818 97.2714 23.4375C97.3597 22.9932 97.3144 22.5328 97.141 22.1143C96.9677 21.6958 96.6742 21.3381 96.2975 21.0864C95.9209 20.8348 95.4781 20.7004 95.0251 20.7004C94.4177 20.7004 93.8352 20.9417 93.4056 21.3712C92.9761 21.8007 92.7349 22.3833 92.7349 22.9907Z" fill="#595A5A"/>
</svg>
