<svg width="37" height="35" viewBox="0 0 37 35" fill="none" xmlns="http://www.w3.org/2000/svg">
<ellipse cx="18.315" cy="17.42" rx="18.315" ry="17.42" fill="#19BAA8"/>
<path d="M15.999 21.8521L18.8519 24.95L21.7048 21.8521" stroke="white" stroke-width="1.25" stroke-linecap="round" stroke-linejoin="round"/>
<path d="M18.8516 17.9792V24.9497" stroke="white" stroke-width="1.25" stroke-linecap="round" stroke-linejoin="round"/>
<path d="M25.1852 22.6961C25.8053 22.2227 26.2703 21.5469 26.5127 20.767C26.7551 19.9871 26.7624 19.1436 26.5335 18.3588C26.3045 17.5741 25.8512 16.8891 25.2394 16.403C24.6276 15.917 23.8891 15.6553 23.1311 15.656H22.2325C22.018 14.7482 21.6166 13.9051 21.0586 13.1901C20.5006 12.4751 19.8005 11.9069 19.011 11.5282C18.2215 11.1496 17.3632 10.9703 16.5007 11.004C15.6382 11.0377 14.794 11.2834 14.0316 11.7227C13.2691 12.1619 12.6084 12.7833 12.0992 13.5399C11.5899 14.2966 11.2454 15.1689 11.0915 16.0911C10.9375 17.0133 10.9783 17.9613 11.2106 18.864C11.443 19.7666 11.8609 20.6002 12.4328 21.3021" stroke="white" stroke-width="1.25" stroke-linecap="round" stroke-linejoin="round"/>
</svg>
