<svg width="42" height="42" viewBox="0 0 42 42" fill="none" xmlns="http://www.w3.org/2000/svg">
<path d="M11.1612 40.9997H5.06449C3.98652 40.9997 2.9527 40.5783 2.19046 39.8282C1.42822 39.078 1 38.0606 1 36.9998V22.9999C1 21.939 1.42822 20.9216 2.19046 20.1715C2.9527 19.4213 3.98652 18.9999 5.06449 18.9999H11.1612M25.387 14.9999V6.99996C25.387 5.40867 24.7446 3.88256 23.6013 2.75735C22.4579 1.63214 20.9072 1 19.2902 1L11.1612 18.9999V40.9997H34.085C35.0652 41.0107 36.0164 40.6726 36.7633 40.0478C37.5102 39.423 38.0025 38.5536 38.1495 37.5998L40.954 19.5999C41.0424 19.0266 41.0031 18.4413 40.8388 17.8844C40.6746 17.3275 40.3892 16.8125 40.0026 16.3749C39.616 15.9374 39.1373 15.5878 38.5998 15.3503C38.0622 15.1129 37.4786 14.9933 36.8895 14.9999H25.387Z" stroke="#1E1F1E" stroke-width="2" stroke-linecap="round" stroke-linejoin="round"/>
</svg>
