<svg width="76" height="10" viewBox="0 0 76 10" fill="none" xmlns="http://www.w3.org/2000/svg">
<path d="M6.75 5.3125C6.92259 5.3125 7.0625 5.17259 7.0625 5C7.0625 4.82741 6.92259 4.6875 6.75 4.6875L6.75 5.3125ZM10 4.6875C9.82741 4.6875 9.6875 4.82741 9.6875 5C9.6875 5.17259 9.82741 5.3125 10 5.3125L10 4.6875ZM13.25 5.3125C13.4226 5.3125 13.5625 5.17259 13.5625 5C13.5625 4.82741 13.4226 4.6875 13.25 4.6875L13.25 5.3125ZM16.5 4.6875C16.3274 4.6875 16.1875 4.82741 16.1875 5C16.1875 5.17259 16.3274 5.3125 16.5 5.3125L16.5 4.6875ZM19.75 5.3125C19.9226 5.3125 20.0625 5.17259 20.0625 5C20.0625 4.82741 19.9226 4.6875 19.75 4.6875L19.75 5.3125ZM23 4.6875C22.8274 4.6875 22.6875 4.82741 22.6875 5C22.6875 5.17259 22.8274 5.3125 23 5.3125L23 4.6875ZM26.25 5.3125C26.4226 5.3125 26.5625 5.17259 26.5625 5C26.5625 4.82741 26.4226 4.6875 26.25 4.6875L26.25 5.3125ZM29.5 4.6875C29.3274 4.6875 29.1875 4.82741 29.1875 5C29.1875 5.17259 29.3274 5.3125 29.5 5.3125L29.5 4.6875ZM32.75 5.3125C32.9226 5.3125 33.0625 5.17259 33.0625 5C33.0625 4.82741 32.9226 4.6875 32.75 4.6875L32.75 5.3125ZM36 4.6875C35.8274 4.6875 35.6875 4.82741 35.6875 5C35.6875 5.17259 35.8274 5.3125 36 5.3125L36 4.6875ZM39.25 5.3125C39.4226 5.3125 39.5625 5.17259 39.5625 5C39.5625 4.82741 39.4226 4.6875 39.25 4.6875L39.25 5.3125ZM42.5 4.6875C42.3274 4.6875 42.1875 4.82741 42.1875 5C42.1875 5.17259 42.3274 5.3125 42.5 5.3125L42.5 4.6875ZM45.75 5.3125C45.9226 5.3125 46.0625 5.17259 46.0625 5C46.0625 4.82741 45.9226 4.6875 45.75 4.6875L45.75 5.3125ZM49 4.6875C48.8274 4.6875 48.6875 4.82741 48.6875 5C48.6875 5.17259 48.8274 5.3125 49 5.3125L49 4.6875ZM52.25 5.3125C52.4226 5.3125 52.5625 5.17259 52.5625 5C52.5625 4.82741 52.4226 4.6875 52.25 4.6875L52.25 5.3125ZM55.5 4.6875C55.3274 4.6875 55.1875 4.82741 55.1875 5C55.1875 5.17259 55.3274 5.3125 55.5 5.3125L55.5 4.6875ZM58.75 5.3125C58.9226 5.3125 59.0625 5.17259 59.0625 5C59.0625 4.82741 58.9226 4.6875 58.75 4.6875L58.75 5.3125ZM62 4.6875C61.8274 4.6875 61.6875 4.82741 61.6875 5C61.6875 5.17259 61.8274 5.3125 62 5.3125L62 4.6875ZM65.25 5.3125C65.4226 5.3125 65.5625 5.17259 65.5625 5C65.5625 4.82741 65.4226 4.6875 65.25 4.6875L65.25 5.3125ZM68.5 4.6875C68.3274 4.6875 68.1875 4.82741 68.1875 5C68.1875 5.17259 68.3274 5.3125 68.5 5.3125L68.5 4.6875ZM5.125 5.3125L6.75 5.3125L6.75 4.6875L5.125 4.6875L5.125 5.3125ZM10 5.3125L13.25 5.3125L13.25 4.6875L10 4.6875L10 5.3125ZM16.5 5.3125L19.75 5.3125L19.75 4.6875L16.5 4.6875L16.5 5.3125ZM23 5.3125L26.25 5.3125L26.25 4.6875L23 4.6875L23 5.3125ZM29.5 5.3125L32.75 5.3125L32.75 4.6875L29.5 4.6875L29.5 5.3125ZM36 5.3125L39.25 5.3125L39.25 4.6875L36 4.6875L36 5.3125ZM42.5 5.3125L45.75 5.3125L45.75 4.6875L42.5 4.6875L42.5 5.3125ZM49 5.3125L52.25 5.3125L52.25 4.6875L49 4.6875L49 5.3125ZM55.5 5.3125L58.75 5.3125L58.75 4.6875L55.5 4.6875L55.5 5.3125ZM62 5.3125L65.25 5.3125L65.25 4.6875L62 4.6875L62 5.3125ZM68.5 5.3125L70.125 5.3125L70.125 4.6875L68.5 4.6875L68.5 5.3125Z" fill="#1E1F1E"/>
<circle cx="5" cy="5" r="5" transform="rotate(-90 5 5)" fill="#20C1EF"/>
<circle cx="70.25" cy="5" r="5" transform="rotate(-90 70.25 5)" fill="#20C1EF"/>
</svg>
