<svg width="185" height="177" viewBox="0 0 185 177" fill="none" xmlns="http://www.w3.org/2000/svg">
<circle cx="80" cy="80" r="80" fill="#E5E5E5"/>
<g filter="url(#filter0_d)">
<circle cx="142.5" cy="129.5" r="17.5" fill="white"/>
</g>
<path d="M146.347 122.627C146.546 122.428 146.782 122.27 147.042 122.163C147.301 122.055 147.579 122 147.86 122C148.141 122 148.42 122.055 148.679 122.163C148.939 122.27 149.175 122.428 149.373 122.627C149.572 122.825 149.73 123.061 149.837 123.321C149.945 123.58 150 123.859 150 124.14C150 124.421 149.945 124.699 149.837 124.958C149.73 125.218 149.572 125.454 149.373 125.653L139.161 135.865L135 137L136.135 132.839L146.347 122.627Z" stroke="#1E1F1E" stroke-linecap="round" stroke-linejoin="round"/>
<path d="M108 110V103.333C108 99.7971 106.525 96.4057 103.899 93.9052C101.274 91.4048 97.713 90 94 90H66C62.287 90 58.726 91.4048 56.1005 93.9052C53.475 96.4057 52 99.7971 52 103.333V110" stroke="white" stroke-width="4" stroke-linecap="round" stroke-linejoin="round"/>
<path d="M80 76.6667C87.732 76.6667 94 70.6971 94 63.3333C94 55.9695 87.732 50 80 50C72.268 50 66 55.9695 66 63.3333C66 70.6971 72.268 76.6667 80 76.6667Z" stroke="white" stroke-width="4" stroke-linecap="round" stroke-linejoin="round"/>
<defs>
<filter id="filter0_d" x="100" y="92" width="85" height="85" filterUnits="userSpaceOnUse" color-interpolation-filters="sRGB">
<feFlood flood-opacity="0" result="BackgroundImageFix"/>
<feColorMatrix in="SourceAlpha" type="matrix" values="0 0 0 0 0 0 0 0 0 0 0 0 0 0 0 0 0 0 127 0" result="hardAlpha"/>
<feOffset dy="5"/>
<feGaussianBlur stdDeviation="12.5"/>
<feColorMatrix type="matrix" values="0 0 0 0 0.117647 0 0 0 0 0.121569 0 0 0 0 0.117647 0 0 0 0.06 0"/>
<feBlend mode="normal" in2="BackgroundImageFix" result="effect1_dropShadow"/>
<feBlend mode="normal" in="SourceGraphic" in2="effect1_dropShadow" result="shape"/>
</filter>
</defs>
</svg>
